<svg width="519" height="72" viewBox="0 0 519 72" fill="none" xmlns="http://www.w3.org/2000/svg">
<path d="M44.219 20.8198H27.7526V51.0745C27.7526 52.6554 27.2334 53.8054 26.3433 54.6677C25.379 55.5301 24.118 55.9612 22.6346 55.9612C21.0769 55.9612 19.8902 55.53 19.0743 54.5958C18.2584 53.6616 17.7391 52.0806 17.5909 49.8528L1.19849 52.943C1.86604 58.2609 4.09125 62.429 7.8741 65.4473C11.5828 68.5374 16.5524 70.0465 22.6346 70.0465C29.0877 70.0465 34.2798 68.3218 38.2852 64.8723C42.2164 61.4228 44.219 56.8235 44.219 51.0745V20.8198Z" fill="white"/>
<path d="M80.5969 19.7419C72.9571 19.7419 66.5041 22.1853 61.3119 27.072C56.1198 31.9587 53.5237 37.8516 53.5237 44.8942C53.5237 51.9369 56.1198 57.9016 61.3119 62.7883C66.5041 67.675 72.9571 70.0465 80.5969 70.0465C88.1627 70.0465 94.6158 67.675 99.8078 62.7883C105 57.9016 107.67 51.9369 107.67 44.8942C107.67 37.8516 105 31.9587 99.8078 27.072C94.6158 22.1853 88.1627 19.7419 80.5969 19.7419ZM80.5969 55.9612C77.4817 55.9612 74.8856 54.9552 72.9571 52.7992C70.9544 50.7152 69.9901 48.0563 69.9901 44.8942C69.9901 41.7323 70.9544 39.1451 72.9571 36.9892C74.8856 34.9051 77.4817 33.8272 80.5969 33.8272C83.7122 33.8272 86.2341 34.9051 88.2369 36.9892C90.1653 39.1451 91.2038 41.7323 91.2038 44.8942C91.2038 48.0563 90.1653 50.7152 88.2369 52.7992C86.2341 54.9552 83.7122 55.9612 80.5969 55.9612Z" fill="white"/>
<path d="M163.417 20.8198H145.54L136.195 38.7858L126.701 20.8198H108.825L127.145 54.524V68.9685H144.354V54.524L163.417 20.8198Z" fill="white"/>
<path d="M290.417 70.2132V22.0645H274.025V70.2132H290.417Z" fill="white"/>
<path d="M350.396 22.0645H334.003V44.7734L313.531 22.0645H300.105V70.2132H316.498V48.5103L336.97 70.2132H350.396V22.0645Z" fill="white"/>
<path d="M410.375 22.0645H393.983V44.7734L373.512 22.0645H360.086V70.2132H376.479V48.5103L396.951 70.2132H410.375V22.0645Z" fill="white"/>
<path d="M460.565 57.2058H436.46V51.8879H458.192V40.3897H436.46V35.0718H460.195V22.0645H420.068V70.2132H460.565V57.2058Z" fill="white"/>
<path d="M518.125 70.2132L504.476 54.5468C507.889 53.3251 510.632 51.3129 512.561 48.5103C514.49 45.7795 515.454 42.4738 515.454 38.7369C515.454 33.7783 513.749 29.7538 510.485 26.6637C507.221 23.6454 502.845 22.0645 497.504 22.0645H469.689V70.2132H486.081V55.9841H486.304L498.543 70.2132H518.125ZM486.081 34.7843H493.499C495.279 34.7843 496.762 35.2155 497.801 36.006C498.839 36.8684 499.433 37.9464 499.433 39.2398C499.433 40.6772 498.839 41.8269 497.801 42.6893C496.762 43.5517 495.279 43.9829 493.499 43.9829H486.081V34.7843Z" fill="white"/>
<path fill-rule="evenodd" clip-rule="evenodd" d="M231.614 20.7591L221.13 1.16125L211.704 20.7605H211.756L204.873 55.8752L200.888 20.7648H200.889L200.888 20.763L200.886 20.7591H200.882L176.79 2.25549L180.818 20.7648H180.828L190.445 69.9012H216.79L221.652 40.6052L226.611 69.9012H252.86L262.573 20.7648H262.586L266.616 2.25549L242.577 20.7591H242.568L238.539 55.793L231.656 20.7591H231.614Z" fill="url(#paint0_linear_107_4267)"/>
<defs>
<linearGradient id="paint0_linear_107_4267" x1="221.703" y1="1.16125" x2="221.703" y2="69.9012" gradientUnits="userSpaceOnUse">
<stop stop-color="#F8BF03"/>
<stop offset="1" stop-color="#FFDF58"/>
</linearGradient>
</defs>
</svg>
