<svg width="29" height="30" viewBox="0 0 29 30" fill="none" xmlns="http://www.w3.org/2000/svg">
<path d="M17.4805 10.3008C16.9834 10.3008 16.5805 10.7037 16.5805 11.2008C16.5805 11.6978 16.9834 12.1008 17.4805 12.1008V10.3008ZM20.8121 11.8641L20.0072 12.2666V12.2666L20.8121 11.8641ZM20.8755 14.0033C21.0978 14.4479 21.6384 14.6281 22.083 14.4058C22.5275 14.1835 22.7077 13.6429 22.4855 13.1983L20.8755 14.0033ZM20.6331 12.2942L21.1266 11.5415L19.6212 10.5547L19.1278 11.3074L20.6331 12.2942ZM16.5978 16.8082L15.8451 16.3148L16.5978 16.8082ZM14.5676 16.7717L13.7977 17.2378L14.5676 16.7717ZM12.2778 12.9889L11.5079 13.4549L12.2778 12.9889ZM10.197 13.037L9.40633 12.6071L10.197 13.037ZM6.4898 17.9709C6.25235 18.4075 6.41387 18.954 6.85054 19.1915C7.28722 19.4289 7.8337 19.2674 8.07114 18.8307L6.4898 17.9709ZM7.28047 3.70078H21.6805V1.90078H7.28047V3.70078ZM25.5805 7.60078V22.0008H27.3805V7.60078H25.5805ZM21.6805 25.9008H7.28047V27.7008H21.6805V25.9008ZM3.38047 22.0008V7.60078H1.58047V22.0008H3.38047ZM7.28047 25.9008C5.12656 25.9008 3.38047 24.1547 3.38047 22.0008H1.58047C1.58047 25.1488 4.13245 27.7008 7.28047 27.7008V25.9008ZM25.5805 22.0008C25.5805 24.1547 23.8344 25.9008 21.6805 25.9008V27.7008C24.8285 27.7008 27.3805 25.1488 27.3805 22.0008H25.5805ZM21.6805 3.70078C23.8344 3.70078 25.5805 5.44687 25.5805 7.60078H27.3805C27.3805 4.45276 24.8285 1.90078 21.6805 1.90078V3.70078ZM7.28047 1.90078C4.13245 1.90078 1.58047 4.45276 1.58047 7.60078H3.38047C3.38047 5.44687 5.12656 3.70078 7.28047 3.70078V1.90078ZM17.4805 12.1008H19.7388V10.3008H17.4805V12.1008ZM20.0072 12.2666L20.8755 14.0033L22.4855 13.1983L21.6171 11.4616L20.0072 12.2666ZM19.7388 12.1008C19.8525 12.1008 19.9563 12.165 20.0072 12.2666L21.6171 11.4616C21.2614 10.7502 20.5343 10.3008 19.7388 10.3008V12.1008ZM19.1278 11.3074L15.8451 16.3148L17.3505 17.3016L20.6331 12.2942L19.1278 11.3074ZM15.3376 16.3056L13.0477 12.5228L11.5079 13.4549L13.7977 17.2378L15.3376 16.3056ZM9.40633 12.6071L6.4898 17.9709L8.07114 18.8307L10.9877 13.467L9.40633 12.6071ZM13.0477 12.5228C12.2083 11.136 10.1807 11.1829 9.40633 12.6071L10.9877 13.467C11.0983 13.2635 11.388 13.2568 11.5079 13.4549L13.0477 12.5228ZM15.8451 16.3148C15.7241 16.4994 15.4519 16.4945 15.3376 16.3056L13.7977 17.2378C14.5978 18.5596 16.5033 18.5938 17.3505 17.3016L15.8451 16.3148Z" fill="white"/>
</svg>
