<svg width="29" height="30" viewBox="0 0 29 30" fill="none" xmlns="http://www.w3.org/2000/svg">
<path d="M18.7905 21.0415H24.0805C25.406 21.0415 26.4805 19.8559 26.4805 18.3935V10.8861C26.4805 9.8831 25.9669 8.96621 25.1538 8.51766L22.694 7.16067C22.0275 6.79299 21.2925 6.60156 20.5473 6.60156H17.9875C16.5293 6.60156 15.1502 7.33288 14.2393 8.58916L14.2092 8.63072M14.2092 8.63072L11.8819 11.8404C11.3118 12.6267 11.3687 13.7602 12.014 14.4722C12.7135 15.2439 13.8475 15.2439 14.5469 14.4722L16.2452 12.5985L18.9942 18.1591C19.7463 19.6805 18.9931 21.5757 17.4693 21.996L13.2336 23.1644C11.707 23.5855 10.0974 23.4432 8.65108 22.7593L3.93506 20.5293C3.05262 20.112 2.48047 19.1547 2.48047 18.0954V10.8861C2.48047 9.8831 2.99407 8.96621 3.80716 8.51766L6.26697 7.16067C6.93348 6.79299 7.66842 6.60156 8.4136 6.60156H10.431C11.9202 6.60156 13.3085 7.3624 14.2092 8.63072Z" stroke="white" stroke-width="1.8" stroke-linecap="round" stroke-linejoin="round"/>
</svg>
