<svg width="32" height="32" viewBox="0 0 32 32" fill="none" xmlns="http://www.w3.org/2000/svg">
<g clip-path="url(#clip0_1_446)">
<path d="M30.4358 12.2436L23.3107 5.11847C22.723 4.53053 22.1267 4.2326 21.5387 4.2326C20.7316 4.2326 19.7888 4.84671 19.7888 6.57714V8.85519C9.69286 9.29932 1.28891 16.9946 0.0513439 27.1018C0.00020868 27.5184 0.236919 27.9166 0.627036 28.071C0.737469 28.1147 0.852223 28.1358 0.965777 28.1358C1.25314 28.1358 1.53211 28.0011 1.70976 27.7584C5.11109 23.1111 10.5725 20.3366 16.3186 20.3366C17.4762 20.3366 18.6403 20.4499 19.7888 20.6742V23.1102C19.7888 24.8406 20.7316 25.4547 21.5387 25.4547H21.539C22.1269 25.4547 22.723 25.1565 23.3107 24.5688L30.4358 17.4437C31.8695 16.01 31.8695 13.6773 30.4358 12.2436ZM29.1324 16.1404L22.0073 23.2652C21.8703 23.4023 21.7569 23.4888 21.6734 23.5411C21.6513 23.4451 21.6323 23.3039 21.6323 23.1102V19.9302C21.6323 19.5031 21.3385 19.1317 20.9227 19.0333C19.4071 18.6748 17.8582 18.4933 16.3186 18.4933C13.1314 18.4933 9.96102 19.2645 7.15026 20.7238C5.49665 21.5823 3.96259 22.6792 2.60619 23.9651C5.04051 16.1954 12.306 10.6785 20.7107 10.6785C21.2197 10.6785 21.6323 10.2658 21.6323 9.75665V6.57714C21.6323 6.38341 21.6513 6.24224 21.6734 6.14598C21.7569 6.19831 21.8703 6.28498 22.0073 6.42182L29.1324 13.5469C29.8474 14.2618 29.8474 15.4252 29.1324 16.1404Z" fill="white"/>
</g>
<defs>
<clipPath id="clip0_1_446">
<rect width="31.4667" height="31.4667" fill="white" transform="translate(0.0444336 0.422226)"/>
</clipPath>
</defs>
</svg>
