<svg width="29" height="30" viewBox="0 0 29 30" fill="none" xmlns="http://www.w3.org/2000/svg">
<path d="M21.6797 17.4023L23.2312 15.8509C23.6998 15.3822 23.6998 14.6224 23.2312 14.1538L21.6797 12.6023" stroke="#EF3E3F" stroke-width="1.8" stroke-linecap="round" stroke-linejoin="round"/>
<path d="M22.8799 15.0012L15.6799 15.0012M4.87988 21.3208V9.32077M19.2799 21.3208C19.2799 22.6463 18.2054 23.7208 16.8799 23.7208H12.0799M19.2799 9.32077C19.2799 7.99528 18.2054 6.92077 16.8799 6.92077H12.0799M5.9486 24.4332L8.3486 26.0332C9.94353 27.0965 12.0799 25.9532 12.0799 24.0363V6.60521C12.0799 4.68834 9.94354 3.545 8.3486 4.60829L5.9486 6.20829C5.28093 6.65341 4.87988 7.40276 4.87988 8.20521V22.4363C4.87988 23.2388 5.28093 23.9881 5.9486 24.4332Z" stroke="#EE3E3E" stroke-width="1.8" stroke-linecap="round"/>
</svg>
