<svg width="29" height="29" viewBox="0 0 29 29" fill="none" xmlns="http://www.w3.org/2000/svg">
<path d="M6.83965 13.3235C7.81967 10.3835 10.5711 8.40039 13.6702 8.40039H15.2912C18.3903 8.40039 21.1417 10.3835 22.1218 13.3236L23.3218 16.9236C24.8758 21.5858 21.4057 26.4004 16.4912 26.4004H12.4702C7.55575 26.4004 4.08557 21.5858 5.63965 16.9235L6.83965 13.3235Z" stroke="white" stroke-width="1.8" stroke-linejoin="round"/>
<path d="M10.8799 21.5996C13.5851 23.1773 15.1733 23.213 18.0799 21.5996" stroke="white" stroke-width="1.8" stroke-linecap="round"/>
<path d="M16.9828 8.40039L11.9766 8.40039L10.2953 6.47194C8.6472 4.58154 10.5699 1.75596 12.9762 2.53221L14.0895 2.89136C14.343 2.97313 14.6164 2.97313 14.8699 2.89136L15.9832 2.53221C18.3895 1.75596 20.3122 4.58154 18.6641 6.47194L16.9828 8.40039Z" stroke="white" stroke-width="1.8" stroke-linejoin="round"/>
</svg>
