<svg width="29" height="29" viewBox="0 0 29 29" fill="none" xmlns="http://www.w3.org/2000/svg">
<path d="M24.9724 18.8643L24.2048 18.3943V18.3943L24.9724 18.8643ZM23.8269 20.7349L24.5945 21.2049L23.8269 20.7349ZM3.987 9.93491L3.21946 9.46492H3.21946L3.987 9.93491ZM5.13246 8.06429L5.89999 8.53429L5.89999 8.53429L5.13246 8.06429ZM8.26191 7.27368L8.69221 6.48321L8.6922 6.48321L8.26191 7.27368ZM4.82553 12.8855L4.39523 13.676H4.39523L4.82553 12.8855ZM20.6975 21.5255L20.2672 22.316L20.2672 22.316L20.6975 21.5255ZM24.1338 15.9137L23.7035 16.7041V16.7042L24.1338 15.9137ZM5.13245 20.7349L4.36492 21.2049L4.36492 21.2049L5.13245 20.7349ZM3.98699 18.8643L4.75453 18.3943H4.75453L3.98699 18.8643ZM23.8269 8.06431L24.5945 7.59432V7.59432L23.8269 8.06431ZM24.9724 9.93493L24.2048 10.4049V10.4049L24.9724 9.93493ZM24.1338 12.8855L24.5641 13.676L24.1338 12.8855ZM20.6975 7.2737L21.1278 8.06417H21.1278L20.6975 7.2737ZM4.82553 15.9137L5.25583 16.7042H5.25583L4.82553 15.9137ZM8.26191 21.5255L7.83161 20.7351L7.83161 20.7351L8.26191 21.5255ZM20.5757 7.33998L20.1454 6.54951V6.54951L20.5757 7.33998ZM8.38369 7.33997L7.95339 8.13044L7.95339 8.13044L8.38369 7.33997ZM20.5757 21.4592L21.006 20.6688V20.6688L20.5757 21.4592ZM8.38369 21.4592L8.81398 22.2497L8.81399 22.2497L8.38369 21.4592ZM13.3342 4.49961H15.6251V2.69961H13.3342V4.49961ZM15.6251 24.2996H13.3342V26.0996H15.6251V24.2996ZM13.3342 24.2996C12.5154 24.2996 11.9433 23.6863 11.9433 23.0396H10.1433C10.1433 24.7788 11.6226 26.0996 13.3342 26.0996V24.2996ZM17.0161 23.0396C17.0161 23.6863 16.444 24.2996 15.6251 24.2996V26.0996C17.3368 26.0996 18.8161 24.7788 18.8161 23.0396H17.0161ZM15.6251 4.49961C16.444 4.49961 17.0161 5.11289 17.0161 5.75961H18.8161C18.8161 4.02046 17.3368 2.69961 15.6251 2.69961V4.49961ZM13.3342 2.69961C11.6226 2.69961 10.1433 4.02046 10.1433 5.75961H11.9433C11.9433 5.11289 12.5154 4.49961 13.3342 4.49961V2.69961ZM24.2048 18.3943L23.0594 20.2649L24.5945 21.2049L25.7399 19.3343L24.2048 18.3943ZM4.75453 10.4049L5.89999 8.53429L4.36492 7.5943L3.21946 9.46492L4.75453 10.4049ZM5.89999 8.53429C6.27035 7.92945 7.13634 7.68568 7.83161 8.06415L8.6922 6.48321C7.19601 5.66875 5.25979 6.13291 4.36492 7.5943L5.89999 8.53429ZM5.25583 12.0951C4.58864 11.7319 4.40484 10.976 4.75453 10.4049L3.21946 9.46492C2.30391 10.9601 2.87096 12.8462 4.39523 13.676L5.25583 12.0951ZM23.0594 20.2649C22.689 20.8698 21.823 21.1135 21.1278 20.7351L20.2672 22.316C21.7634 23.1305 23.6996 22.6663 24.5945 21.2049L23.0594 20.2649ZM25.7399 19.3343C26.6555 17.8391 26.0884 15.953 24.5641 15.1232L23.7035 16.7042C24.3707 17.0673 24.5545 17.8232 24.2048 18.3943L25.7399 19.3343ZM5.89999 20.2649L4.75453 18.3943L3.21946 19.3343L4.36492 21.2049L5.89999 20.2649ZM23.0594 8.5343L24.2048 10.4049L25.7399 9.46493L24.5945 7.59432L23.0594 8.5343ZM24.2048 10.4049C24.5545 10.976 24.3707 11.7319 23.7035 12.0951L24.5641 13.676C26.0884 12.8463 26.6555 10.9601 25.7399 9.46493L24.2048 10.4049ZM21.1278 8.06417C21.823 7.68569 22.689 7.92947 23.0594 8.5343L24.5945 7.59432C23.6996 6.13293 21.7634 5.66876 20.2672 6.48322L21.1278 8.06417ZM4.75453 18.3943C4.40484 17.8233 4.58864 17.0674 5.25583 16.7042L4.39523 15.1232C2.87096 15.953 2.30391 17.8391 3.21946 19.3343L4.75453 18.3943ZM4.36492 21.2049C5.25979 22.6663 7.19601 23.1305 8.6922 22.316L7.83161 20.7351C7.13634 21.1135 6.27035 20.8698 5.89999 20.2649L4.36492 21.2049ZM21.006 8.13045L21.1278 8.06417L20.2672 6.48322L20.1454 6.54951L21.006 8.13045ZM7.83161 8.06415L7.95339 8.13044L8.81399 6.5495L8.69221 6.48321L7.83161 8.06415ZM21.1278 20.7351L21.006 20.6688L20.1454 22.2497L20.2672 22.316L21.1278 20.7351ZM7.95339 20.6688L7.83161 20.7351L8.6922 22.316L8.81398 22.2497L7.95339 20.6688ZM4.39523 13.676C4.96853 13.9881 4.96853 14.8111 4.39523 15.1232L5.25583 16.7042C7.08166 15.7103 7.08167 13.089 5.25583 12.0951L4.39523 13.676ZM8.81399 22.2497C9.41327 21.9235 10.1433 22.3573 10.1433 23.0396H11.9433C11.9433 20.9917 9.75211 19.6896 7.95339 20.6688L8.81399 22.2497ZM18.8161 23.0396C18.8161 22.3573 19.5461 21.9235 20.1454 22.2497L21.006 20.6688C19.2073 19.6896 17.0161 20.9916 17.0161 23.0396H18.8161ZM24.5641 15.1232C23.9909 14.8111 23.9909 13.9881 24.5641 13.676L23.7035 12.0951C21.8777 13.089 21.8777 15.7102 23.7035 16.7041L24.5641 15.1232ZM7.95339 8.13044C9.75211 9.10959 11.9433 7.80756 11.9433 5.75961H10.1433C10.1433 6.44193 9.41327 6.87572 8.81399 6.5495L7.95339 8.13044ZM20.1454 6.54951C19.5461 6.87574 18.8161 6.44194 18.8161 5.75961H17.0161C17.0161 7.80757 19.2073 9.1096 21.006 8.13045L20.1454 6.54951ZM17.1797 14.3996C17.1797 15.8908 15.9709 17.0996 14.4797 17.0996V18.8996C16.965 18.8996 18.9797 16.8849 18.9797 14.3996H17.1797ZM14.4797 17.0996C12.9885 17.0996 11.7797 15.8908 11.7797 14.3996H9.9797C9.9797 16.8849 11.9944 18.8996 14.4797 18.8996V17.0996ZM11.7797 14.3996C11.7797 12.9084 12.9885 11.6996 14.4797 11.6996V9.89961C11.9944 9.89961 9.9797 11.9143 9.9797 14.3996H11.7797ZM14.4797 11.6996C15.9709 11.6996 17.1797 12.9084 17.1797 14.3996H18.9797C18.9797 11.9143 16.965 9.89961 14.4797 9.89961V11.6996Z" fill="white"/>
</svg>
