<?xml version="1.0" encoding="UTF-8"?>
<svg width="149px" height="120px" viewBox="0 0 149 120" version="1.1" xmlns="http://www.w3.org/2000/svg" xmlns:xlink="http://www.w3.org/1999/xlink">
    <!-- Generator: Sketch 47.1 (45422) - http://www.bohemiancoding.com/sketch -->
    <title>Group 8</title>
    <desc>Created with Sketch.</desc>
    <defs></defs>
    <g id="Desktop" stroke="none" stroke-width="1" fill="none" fill-rule="evenodd">
        <g id="staff-login" transform="translate(-1224.000000, -183.000000)">
            <g id="Group-8" transform="translate(1281.284833, 243.761685) rotate(20.000000) translate(-1281.284833, -243.761685) translate(1206.284833, 179.261685)">
                <path d="M127.963609,30.4141617 L11.1834166,36.4438211 L38.6612064,109.93067 L127.963609,92.5955197 L127.963609,30.4141617 Z M18.8638506,41.3699919 L122.874062,35.9996423 L122.874062,88.0400777 L42.1720961,103.705981 L18.8638506,41.3699919 Z" id="Page-1" fill="#34495E" transform="translate(69.573513, 70.172416) rotate(22.000000) translate(-69.573513, -70.172416) "></path>
                <path d="M145.970195,32.9399678 C145.970195,34.0491761 145.006029,34.9485712 143.816471,34.9485712 C142.627122,34.9485712 141.662956,34.0491761 141.662956,32.9399678 C141.662956,31.8307595 142.627122,30.9313644 143.816471,30.9313644 C145.006029,30.9313644 145.970195,31.8307595 145.970195,32.9399678" id="Fill-1" fill="#70C1B3"></path>
                <path d="M149.378216,3.62897706 C149.378216,5.61585247 147.651013,7.22667385 145.520586,7.22667385 C143.390159,7.22667385 141.662956,5.61585247 141.662956,3.62897706 C141.662956,1.64210165 143.390159,0.0312802714 145.520586,0.0312802714 C147.651013,0.0312802714 149.378216,1.64210165 149.378216,3.62897706" id="Fill-3" fill="#70C1B3"></path>
                <polygon id="Fill-10" fill="#FF005B" points="115.836086 18.3411251 113.100989 18.3411251 113.100989 15.7903232 110.271464 15.7903232 110.271464 18.3411251 107.536367 18.3411251 107.536367 20.9799923 110.271464 20.9799923 110.271464 23.5307942 113.100989 23.5307942 113.100989 20.9799923 115.836086 20.9799923"></polygon>
            </g>
        </g>
    </g>
</svg>