<?xml version="1.0" encoding="UTF-8"?>
<svg width="46px" height="34px" viewBox="0 0 46 34" version="1.1" xmlns="http://www.w3.org/2000/svg" xmlns:xlink="http://www.w3.org/1999/xlink">
    <!-- Generator: Sketch 47.1 (45422) - http://www.bohemiancoding.com/sketch -->
    <title>figure-1</title>
    <desc>Created with Sketch.</desc>
    <defs></defs>
    <g id="Desktop" stroke="none" stroke-width="1" fill="none" fill-rule="evenodd">
        <g id="under-construction" transform="translate(-1169.000000, -182.000000)">
            <g id="figure-1" transform="translate(1189.885748, 193.641382) rotate(20.000000) translate(-1189.885748, -193.641382) translate(1168.385748, 176.141382)">
                <path d="M38.9701953,32.9399678 C38.9701953,34.0491761 38.0060291,34.9485712 36.8164707,34.9485712 C35.6271222,34.9485712 34.662956,34.0491761 34.662956,32.9399678 C34.662956,31.8307595 35.6271222,30.9313644 36.8164707,30.9313644 C38.0060291,30.9313644 38.9701953,31.8307595 38.9701953,32.9399678" id="Fill-1" fill="#70C1B3"></path>
                <path d="M42.3782156,3.62897706 C42.3782156,5.61585247 40.6510127,7.22667385 38.5205858,7.22667385 C36.390159,7.22667385 34.662956,5.61585247 34.662956,3.62897706 C34.662956,1.64210165 36.390159,0.0312802714 38.5205858,0.0312802714 C40.6510127,0.0312802714 42.3782156,1.64210165 42.3782156,3.62897706" id="Fill-3" fill="#70C1B3"></path>
                <polygon id="Fill-10" fill="#FF005B" points="8.83608632 18.3411251 6.10098935 18.3411251 6.10098935 15.7903232 3.27146443 15.7903232 3.27146443 18.3411251 0.536367455 18.3411251 0.536367455 20.9799923 3.27146443 20.9799923 3.27146443 23.5307942 6.10098935 23.5307942 6.10098935 20.9799923 8.83608632 20.9799923"></polygon>
            </g>
        </g>
    </g>
</svg>