<?xml version="1.0" encoding="UTF-8"?>
<svg width="21px" height="16px" viewBox="0 0 21 16" version="1.1" xmlns="http://www.w3.org/2000/svg" xmlns:xlink="http://www.w3.org/1999/xlink">
    <!-- Generator: Sketch 46.2 (44496) - http://www.bohemiancoding.com/sketch -->
    <title>align_text_distribute [#914]</title>
    <desc>Created with Sketch.</desc>
    <defs></defs>
    <g id="Symbols" stroke="none" stroke-width="1" fill="none" fill-rule="evenodd">
        <g id="Header" transform="translate(-1265.000000, -81.000000)" fill="#212121">
            <g id="Group-5-Copy" transform="translate(1253.000000, 66.500000)">
                <path d="M13.5,30.5 L31.5,30.5 L31.5,30.5 C32.0522847,30.5 32.5,30.0522847 32.5,29.5 L32.5,29.5 L32.5,29.5 C32.5,28.9477153 32.0522847,28.5 31.5,28.5 L13.5,28.5 L13.5,28.5 C12.9477153,28.5 12.5,28.9477153 12.5,29.5 L12.5,29.5 L12.5,29.5 C12.5,30.0522847 12.9477153,30.5 13.5,30.5 Z M13.5,16.5 L31.5,16.5 L31.5,16.5 C32.0522847,16.5 32.5,16.0522847 32.5,15.5 L32.5,15.5 L32.5,15.5 C32.5,14.9477153 32.0522847,14.5 31.5,14.5 L13.5,14.5 L13.5,14.5 C12.9477153,14.5 12.5,14.9477153 12.5,15.5 L12.5,15.5 L12.5,15.5 C12.5,16.0522847 12.9477153,16.5 13.5,16.5 Z M13.5,23.5 L31.5,23.5 L31.5,23.5 C32.0522847,23.5 32.5,23.0522847 32.5,22.5 L32.5,22.5 L32.5,22.5 C32.5,21.9477153 32.0522847,21.5 31.5,21.5 L13.5,21.5 L13.5,21.5 C12.9477153,21.5 12.5,21.9477153 12.5,22.5 L12.5,22.5 L12.5,22.5 C12.5,23.0522847 12.9477153,23.5 13.5,23.5 Z" id="align_text_distribute-[#914]"></path>
            </g>
        </g>
    </g>
</svg>