<svg width="36" height="36" viewBox="0 0 36 36" fill="none" xmlns="http://www.w3.org/2000/svg">
<rect width="36" height="36" rx="4" fill="black"/>
<path d="M22.0564 18.9814C21.9727 19.4143 21.7486 19.7825 21.3839 20.0859C21.0193 20.3893 20.6215 20.5418 20.1904 20.5432H17.0298L18.0182 15.4561H21.1788C21.6117 15.4561 21.9502 15.6087 22.1944 15.9139C22.4385 16.2191 22.5195 16.5873 22.4373 17.0185C22.3774 17.3291 22.1735 17.6562 21.8254 17.9996C22.0397 18.3442 22.1167 18.6714 22.0564 18.9814ZM20.8938 18.9814C20.9057 18.9325 20.9065 18.8816 20.8959 18.8325C20.8853 18.7834 20.8636 18.7373 20.8326 18.6978C20.8012 18.6593 20.7614 18.6288 20.7161 18.6086C20.6708 18.5884 20.6214 18.5791 20.5718 18.5814H19.2106L19.4535 17.4189H20.7975C20.9102 17.4184 21.019 17.3771 21.1036 17.3026C21.1925 17.2313 21.2533 17.1308 21.2752 17.019C21.2872 16.9702 21.2879 16.9193 21.2773 16.8702C21.2667 16.821 21.2451 16.775 21.214 16.7354C21.1826 16.6971 21.1427 16.6666 21.0974 16.6465C21.0521 16.6264 21.0027 16.6172 20.9533 16.6196H18.9547L18.4186 19.3797H20.4166C20.5292 19.379 20.6377 19.3377 20.7223 19.2633C20.8108 19.1924 20.8715 19.0926 20.8938 18.9814Z" fill="#FFBC00"/>
<path d="M26.4023 20.5432H22.0427L23.0317 15.4561H27.3907L27.1652 16.6196H23.9682L23.8124 17.4189H26.2828L26.0571 18.5814H23.5868L23.4316 19.3813H26.6284L26.4023 20.5432Z" fill="#FFBC00"/>
<path d="M32.1784 16.6196H30.4006L29.6356 20.5432H28.4729L29.2358 16.6191H27.4558L27.6814 15.4561H32.4024L32.1784 16.6196Z" fill="#FFBC00"/>
<path d="M9.04925 20.5432H7.88662L8.33459 18.2388L6.68771 20.5432H5.96112L5.21018 18.2399L4.76276 20.5432H3.6001L4.58855 15.4561H5.75229L6.70449 18.5814L8.87401 15.4561H10.0377L9.04925 20.5432Z" fill="white"/>
<path d="M13.6993 20.5432H9.33969L10.3292 15.4561H14.6888L14.4627 16.6191H11.2647L11.1094 17.4184H13.5797L13.3535 18.5814H10.8833L10.728 19.3808H13.9248L13.6993 20.5432Z" fill="white"/>
<path d="M17.7029 20.5432H13.9898L14.9782 15.4561H16.1409L15.3781 19.3808H17.929L17.7029 20.5432Z" fill="white"/>
</svg>
