<svg width="68" height="68" viewBox="0 0 68 68" fill="none" xmlns="http://www.w3.org/2000/svg">
<g clip-path="url(#clip0_167_32307)">
<path d="M29.4944 67.7636C25.776 67.2757 21.1712 65.7811 18.0323 64.0433C17.2555 63.6133 16.5875 63.2614 16.5479 63.2614C16.3396 63.2614 13.671 61.3521 12.4407 60.3229C9.54952 57.9041 7.04225 55.0667 5.19784 52.1263C4.29747 50.691 2.38339 46.9406 2.38339 46.6119C2.38339 46.5213 2.22487 46.0773 2.03112 45.6251C1.47245 44.3211 0.69194 41.1378 0.334229 38.7044C-0.75202 31.3148 0.8425 23.2026 4.63632 16.8173C5.6185 15.1642 6.73842 13.489 7.29556 12.8395C8.94851 10.9125 10.0837 9.7314 11.4846 8.48098C13.0254 7.10571 13.3578 6.84014 14.4641 6.10061C21.0868 1.67347 27.7101 -0.252032 35.3585 0.0262869C38.8952 0.154982 43.2719 0.999102 45.6136 2.00415C46.0654 2.19807 46.5091 2.35672 46.5996 2.35672C46.928 2.35672 50.675 4.27249 52.1092 5.17366C55.9429 7.58267 59.6705 11.1856 62.198 14.9252C62.5535 15.4513 63.3091 16.7356 63.877 17.7793C68.7385 26.7141 69.3289 37.2917 65.4988 46.8341C64.5503 49.1971 62.7638 52.5266 62.3591 52.6853C62.2796 52.7165 62.2146 52.8332 62.2146 52.9445C62.2146 53.2937 59.5694 56.5632 58.0705 58.0668C56.5513 59.5908 53.2766 62.2406 52.9125 62.2406C52.7934 62.2406 52.696 62.3045 52.696 62.3825C52.696 62.6442 48.9187 64.6732 46.9303 65.4796C43.8237 66.7395 41.0144 67.4562 37.6532 67.8463C35.6259 68.0817 31.608 68.0409 29.4944 67.7636ZM39.5018 64.7093C50.5139 62.6949 59.713 54.7886 63.4614 44.1169C63.8766 42.9349 64.3787 40.9543 64.754 39.0186C65.0634 37.423 65.1727 32.955 64.9559 30.7676C64.1711 22.8494 60.184 15.3333 54.0289 10.1688C52.6882 9.04397 51.3381 8.02882 50.7413 7.69684C50.5543 7.59285 49.9041 7.2213 49.2965 6.87119C46.1586 5.06323 42.4456 3.76282 38.758 3.18037C37.8834 3.04222 35.9047 2.77595 33.7438 2.77678C30.7004 2.77807 29.8897 3.01243 28.2431 3.34509C26.3698 3.72358 24.0774 4.37323 23.0353 4.82094C22.7549 4.94144 21.9907 5.25927 21.3371 5.52722C19.7192 6.19057 16.6737 8.02362 14.8545 9.42906C13.2886 10.6388 10.7513 13.0998 9.92147 14.2136C9.65627 14.5696 9.39412 14.8992 9.33893 14.946C8.76596 15.4316 6.16293 19.8322 5.5149 21.4107C5.26522 22.0189 4.96319 22.7462 4.84373 23.0269C4.39554 24.0801 3.74773 26.3705 3.3695 28.2393C3.03069 29.9133 2.6291 30.7484 2.63197 33.9899C2.63447 36.8366 3.05766 38.0572 3.28874 39.3268C3.9626 43.029 5.58149 47.3686 7.29906 50.0767C7.53643 50.451 7.8087 50.8841 7.9041 51.0393C10.0697 54.5606 14.401 58.6319 18.5893 61.083C21.9032 63.0225 26.278 64.6702 30.5992 65.0243C34.2125 65.3203 35.0547 65.454 39.5018 64.7093ZM31.7722 58.315C27.8157 57.9871 23.6468 56.4879 20.2454 54.1697C14.6138 50.3316 10.833 44.227 9.85577 37.3943C9.51806 35.033 9.72514 30.4045 10.2626 28.3007C10.8979 25.8144 12.6406 21.6187 13.1127 21.4391C13.1947 21.4079 13.2618 21.2912 13.2618 21.1798C13.2618 20.8625 15.924 17.5131 16.9824 16.4988C18.0364 15.4887 20.9622 13.2447 21.2252 13.2447C21.3171 13.2447 21.4177 13.1776 21.4489 13.0955C21.5249 12.8955 23.6519 11.8366 25.2697 11.1934C27.8203 10.1793 29.7122 9.81677 32.9707 9.71771C37.7607 9.5721 40.5798 10.1272 44.5165 11.9913C45.9067 12.6496 48.3698 14.1062 48.6166 14.4159C48.6633 14.4746 48.9693 14.7248 49.2965 14.972C50.7906 16.1007 52.8779 18.3635 54.1508 20.2345C58.9475 27.2852 59.7255 36.5964 56.1538 44.2074C55.5485 45.4973 54.0353 48.1061 53.663 48.5014C53.5518 48.6195 53.1681 49.0807 52.8102 49.5263C51.9362 50.6145 50.7697 51.7858 49.6364 52.7129C49.1222 53.1335 48.6051 53.5691 48.4872 53.6808C48.0913 54.0561 45.4839 55.5687 44.1972 56.1696C41.6649 57.3522 39.2241 57.9971 36.0629 58.3188C34.1513 58.5133 34.1641 58.5134 31.7722 58.315ZM31.6191 51.2676L31.7041 48.2053H32.9789H34.2537L34.3387 51.2676L34.4237 54.3298H36.2084H37.9931L38.0781 51.2676L38.1631 48.2053L38.843 48.1641C40.6808 48.0528 42.8577 47.7271 43.7936 47.4236C47.4634 46.2332 49.3628 43.4893 49.376 39.3588C49.3805 37.9412 49.3106 37.4749 48.9565 36.5622C48.4284 35.2009 47.2613 33.9755 45.7222 33.1664C45.1172 32.8483 44.6008 32.5717 44.5746 32.5517C44.5484 32.5317 44.9691 32.0613 45.5095 31.5063C46.851 30.1284 47.2746 29.2134 47.3841 27.4575C47.4951 25.6756 47.2276 24.5354 46.4537 23.4926C45.1118 21.6844 42.2847 20.3325 39.0555 19.9547L38.0781 19.8403V16.7069V13.5734L36.2509 13.6217L34.4237 13.67L34.3387 16.6472L34.2537 19.6244H32.9789H31.7041L31.6191 16.6472L31.5341 13.67L29.7069 13.6217L27.8796 13.5734V16.6414V19.7094H24.2391C22.2368 19.7094 20.4775 19.7559 20.3296 19.8127C20.1083 19.8977 20.0608 20.2291 20.0608 21.6883C20.0608 23.789 19.9819 23.7174 22.3554 23.7698C24.1004 23.8083 24.7452 24.0018 24.8866 24.5294C24.9409 24.7322 24.9848 28.994 24.984 33.9999C24.9822 44.9475 25.2396 43.9101 22.4932 44.0373L20.6557 44.1223L20.5059 45.8553C20.4235 46.8085 20.402 47.708 20.4581 47.8543C20.5462 48.0841 21.0576 48.1203 24.2198 48.1203H27.8796V51.1542C27.8796 52.8228 27.9331 54.2416 27.9985 54.307C28.0639 54.3725 28.8862 54.4044 29.8257 54.3779L31.5341 54.3298L31.6191 51.2676ZM31.7324 43.5836C31.6701 43.5213 31.6191 41.6773 31.6191 39.486V35.5018L35.231 35.5658C38.2926 35.6201 38.9596 35.6788 39.6079 35.9512C41.3553 36.6854 41.99 37.5572 41.9838 39.2144C41.9755 41.4175 40.778 42.8121 38.3331 43.4658C37.4483 43.7023 31.9491 43.8005 31.7324 43.5836ZM31.844 31.3627C31.658 31.2261 31.6211 30.4823 31.658 27.6199L31.7041 24.0476L33.3188 23.9962C36.5468 23.8933 38.7748 24.4929 39.6297 25.6944C40.1521 26.4288 40.2739 28.1054 39.8783 29.1163C39.5458 29.9656 39.2196 30.3734 38.4181 30.9414C37.8559 31.3398 37.6652 31.3677 34.9496 31.4481C33.159 31.5011 31.9886 31.4689 31.844 31.3627Z" fill="#F49526"/>
</g>
<defs>
<clipPath id="clip0_167_32307">
<rect width="68" height="68" fill="white"/>
</clipPath>
</defs>
</svg>
