<svg width="67" height="67" viewBox="0 0 67 67" fill="none" xmlns="http://www.w3.org/2000/svg">
<g clip-path="url(#clip0_167_32403)">
<g clip-path="url(#clip1_167_32403)">
<path d="M33.5 67C52.0015 67 67 52.0015 67 33.5C67 14.9985 52.0015 0 33.5 0C14.9985 0 0 14.9985 0 33.5C0 52.0015 14.9985 67 33.5 67Z" fill="#2573C2"/>
<path d="M55.362 24.6827C55.317 23.932 55.0967 23.2023 54.7188 22.5521C54.3838 21.8821 53.7875 21.3595 53.0907 21.0915C52.3801 20.7374 51.5928 20.5648 50.7993 20.589H21.0647L18.9341 26.9741H45.8748L41.6203 40.0257H14.6863L12.5557 46.4108H42.431C43.3212 46.3851 44.2013 46.2154 45.0373 45.9083C45.8748 45.4326 46.8329 44.9502 47.6436 44.2802C48.435 43.6563 49.1502 42.9411 49.7742 42.1496C50.29 41.3742 50.7297 40.5507 51.0874 39.6907L55.0337 27.2823C55.3927 26.4659 55.5067 25.5628 55.362 24.6827Z" fill="white"/>
<path d="M29.5536 30.5386H13.7014L11.5708 36.4413H27.5838L29.5536 30.5386Z" fill="white"/>
</g>
</g>
<defs>
<clipPath id="clip0_167_32403">
<rect width="67" height="67" fill="white"/>
</clipPath>
<clipPath id="clip1_167_32403">
<rect width="67" height="67" fill="white"/>
</clipPath>
</defs>
</svg>
