<svg width="41" height="67" viewBox="0 0 41 67" fill="none" xmlns="http://www.w3.org/2000/svg">
<g clip-path="url(#clip0_167_32351)">
<path d="M0 36.1686C7.22474 39.9979 14.7636 44.0216 20.5823 47.1329L41 36.1836C33.6107 47.1628 27.448 56.3021 20.5823 66.4287C13.7165 56.3171 6.11784 45.1883 0 36.1686ZM0.792776 33.1471L20.6122 22.5717L40.1773 33.0723L20.6271 43.6626L0.792776 33.1471ZM20.5823 19.1763L0 30.0208L20.4925 0.0150146L41 30.0956L20.5823 19.1763Z" fill="#3AB83A"/>
<path d="M20.5824 47.1328L41.0002 36.1835C33.6109 47.1627 20.5824 66.4137 20.5824 66.4137V47.1328ZM20.6123 22.5717L40.1775 33.0722L20.6273 43.6625L20.6123 22.5717ZM20.5824 19.1762L20.4927 0L41.0002 30.0806L20.5824 19.1762Z" fill="#0B8311"/>
<path d="M0.792969 33.147L20.6124 34.7625L40.1775 33.0573L20.6273 43.6625L0.792969 33.147Z" fill="#0B8311"/>
<path d="M20.6123 34.7625L40.1774 33.0573L20.6273 43.6625V34.7625H20.6123Z" fill="#146714"/>
</g>
<defs>
<clipPath id="clip0_167_32351">
<rect width="41" height="66.4287" fill="white"/>
</clipPath>
</defs>
</svg>
