<svg width="67" height="67" viewBox="0 0 67 67" fill="none" xmlns="http://www.w3.org/2000/svg">
<g clip-path="url(#clip0_167_32344)">
<path d="M33.4593 60.2757C48.2695 60.2757 60.2755 48.2697 60.2755 33.4595C60.2755 18.6493 48.2695 6.64331 33.4593 6.64331C18.6491 6.64331 6.64307 18.6493 6.64307 33.4595C6.64307 48.2697 18.6491 60.2757 33.4593 60.2757Z" fill="white"/>
<path d="M33.4594 -2.39794e-05C26.8222 -4.6174e-06 20.3343 1.96917 14.8169 5.65825C9.29942 9.34732 5.00051 14.5904 2.46431 20.7239C-0.0718973 26.8573 -0.731364 33.6053 0.569384 40.1138C1.87013 46.6222 5.07261 52.5984 9.77144 57.2859C14.4703 61.9734 20.4542 65.1614 26.9657 66.4464C33.4773 67.7314 40.2237 67.0556 46.351 64.5046C52.4783 61.9535 57.711 57.642 61.3867 52.1156C65.0624 46.5892 67.0159 40.0966 66.9999 33.4595C66.9999 29.0587 66.1318 24.7011 64.4452 20.6363C62.7586 16.5716 60.2868 12.8794 57.1712 9.77135C54.0556 6.66328 50.3575 4.20036 46.2886 2.52364C42.2198 0.846912 37.8601 -0.0106796 33.4594 -2.39794e-05ZM34.0265 34.5937L30.5428 46.341H49.1764C49.3041 46.341 49.4305 46.3661 49.5485 46.415C49.6664 46.4638 49.7736 46.5354 49.8639 46.6257C49.9541 46.716 50.0258 46.8232 50.0746 46.9411C50.1235 47.0591 50.1486 47.1855 50.1486 47.3132C50.1523 47.3571 50.1471 47.4012 50.1331 47.443C50.1192 47.4848 50.0969 47.5233 50.0676 47.5562L48.4473 53.1463C48.3773 53.418 48.2209 53.6597 48.0018 53.835C47.7827 54.0104 47.5125 54.1098 47.232 54.1185H18.7955L23.5755 37.8343L18.3094 39.4546L19.4437 35.6469L24.7907 34.0266L31.515 11.1801C31.5877 10.9165 31.7473 10.6852 31.9678 10.5234C32.1883 10.3617 32.4569 10.2791 32.7302 10.289H39.9406C40.0643 10.2777 40.1889 10.2924 40.3066 10.3321C40.4243 10.3718 40.5323 10.4356 40.6238 10.5195C40.7154 10.6034 40.7884 10.7055 40.8381 10.8193C40.8879 10.9331 40.9133 11.056 40.9128 11.1801V11.5042L35.2417 30.786L40.5077 29.1656L39.3735 33.0544L34.0265 34.5937Z" fill="#A5A8A9"/>
</g>
<defs>
<clipPath id="clip0_167_32344">
<rect width="67" height="67" fill="white"/>
</clipPath>
</defs>
</svg>
