<svg width="65" height="67" viewBox="0 0 65 67" fill="none" xmlns="http://www.w3.org/2000/svg">
<g clip-path="url(#clip0_167_32389)">
<path d="M21.3389 49.445C24.3164 51.5579 29.7759 48.9234 33.6461 43.5641C33.7007 43.4931 33.7593 43.4267 33.8106 43.3524C35.9395 40.3102 35.2059 36.1043 32.1755 33.9536C29.1451 31.8029 24.9632 32.5262 22.8373 35.5676C22.7851 35.6423 22.7422 35.7201 22.6936 35.7961C18.9855 41.2713 18.3617 47.3342 21.3389 49.445Z" fill="#ED8117"/>
<path d="M24.3851 45.3925C26.4575 46.8273 30.2832 45.0012 33.0087 41.3135C33.0486 41.2646 33.0894 41.2191 33.1266 41.1678C33.483 40.6751 33.7374 40.1162 33.8749 39.5238C34.0123 38.9315 34.0301 38.3176 33.9271 37.7183C33.8242 37.119 33.6025 36.5463 33.2752 36.0338C32.9479 35.5213 32.5215 35.0793 32.0211 34.7338C29.9106 33.2712 26.9844 33.7834 25.486 35.8762C25.4478 35.9277 25.419 35.981 25.3855 36.0326C22.7714 39.799 22.3115 43.9567 24.3851 45.3925Z" fill="#EEBB18"/>
<path d="M11.5177 27.9798C11.2052 28.3818 11.0511 28.9875 11.9003 28.7232C14.3227 27.9698 19.8144 27.0904 26.1887 31.5121C34.7982 37.4831 34.0991 22.0068 34.0991 22.0068C32.0546 20.59 21.7674 14.8394 11.5177 27.9798ZM44.2462 51.3116C44.2828 52.1862 44.799 51.8425 45.0697 51.4198C53.9318 37.5702 45.1085 29.9402 43.0972 28.5165C43.0972 28.5165 28.3873 32.9934 36.8548 38.9939C43.1243 43.4364 44.1404 48.8175 44.2462 51.3116Z" fill="#5B6A72"/>
<path d="M35.303 41.3413C36.984 42.5842 38.0007 42.7868 39.2225 41.2777C40.4442 39.7685 46.8695 32.2327 53.2888 23.9247C59.708 15.6167 55.7922 1.32021 55.0217 0.750714L55.0117 0.762774L55.0184 0.747699C54.2479 0.178199 40.0898 1.12591 34.7917 10.2617C29.4937 19.3975 24.8905 28.279 23.9475 29.9929C23.0044 31.7067 23.5284 32.6454 25.2091 33.8872C25.9749 34.4517 28.1313 36.045 30.2558 37.6141C32.3804 39.1833 34.5371 40.7768 35.303 41.3413Z" fill="#DCF2F9"/>
<path d="M37.1972 43.1771H37.1275C36.3603 43.1563 35.5604 42.8133 34.4528 42.0294C33.674 41.4787 31.5048 39.9437 29.3418 38.4114L29.2145 38.3213L25.8115 35.914L23.9744 34.6142C22.8689 33.831 22.2776 33.1908 22.0009 32.4729C21.5677 31.3499 22.0344 30.3202 22.422 29.6431C22.6253 29.2887 22.9975 28.6184 23.5124 27.6907C25.4048 24.2808 29.3414 17.1848 33.6927 9.99771C35.2585 7.41118 37.6528 5.24071 40.8091 3.54327C42.4774 2.64681 45.2646 1.41267 49.0602 0.623741C50.5607 0.311856 52.0986 0.100471 53.3907 0.027776C55.3713 -0.083444 55.7227 0.165796 55.8918 0.285726L55.9076 0.297116C56.0811 0.420731 56.4292 0.703136 56.9796 2.57311C57.3481 3.82634 57.668 5.3593 57.8804 6.88958C58.4633 11.0871 58.7685 18.9623 54.2648 24.5441C48.9932 31.0806 43.6684 37.1954 41.1093 40.1323C40.4125 40.9326 39.909 41.5105 39.6453 41.8224C39.2614 42.2763 38.8846 42.6046 38.4929 42.8274C38.0991 43.0553 37.6523 43.1759 37.1972 43.1771ZM54.3307 1.67062C52.9442 1.67062 49.9134 1.95637 46.4954 3.00291C42.7903 4.13622 37.8092 6.42092 35.1225 10.8623C30.7866 18.0223 26.8594 25.0998 24.972 28.5008C24.4538 29.4347 24.0792 30.1088 23.8699 30.4743C23.419 31.2602 23.4679 31.634 23.5583 31.8719C23.704 32.2494 24.1425 32.6876 24.9385 33.2511L26.776 34.5509L30.1789 36.9582L30.3066 37.0486C32.4696 38.5796 34.6384 40.1142 35.4173 40.6666C37.0588 41.8281 37.5456 41.7199 38.3703 40.7454C38.6417 40.4244 39.1485 39.8409 39.85 39.0369C42.4024 36.1066 47.7132 30.0089 52.9636 23.4985C56.2232 19.4578 56.6868 13.9742 56.5022 10.0855C56.3012 5.87319 55.2986 2.52252 54.8979 1.6944C54.7094 1.6763 54.5201 1.66792 54.3307 1.66928" fill="#5B6A72"/>
<path d="M40.4861 20.8525C43.1685 22.7432 46.8749 22.1003 48.7606 19.4177C50.6464 16.735 50.0065 13.0285 47.3242 11.1378C44.6418 9.24706 40.9367 9.88858 39.0497 12.5723C37.1626 15.256 37.8048 18.9614 40.4861 20.8525Z" fill="#FEFEFE"/>
<path d="M43.8936 22.7766C42.6531 22.773 41.4373 22.4292 40.3785 21.7827C39.3197 21.1362 38.4585 20.2117 37.8886 19.1098C37.3187 18.008 37.0618 16.7709 37.146 15.5332C37.2302 14.2955 37.6522 13.1046 38.3661 12.0901C38.8782 11.3621 39.5288 10.7421 40.2808 10.2658C41.0327 9.78938 41.8711 9.4659 42.7481 9.31382C43.6252 9.16173 44.5236 9.18403 45.392 9.37944C46.2604 9.57484 47.0817 9.93952 47.8091 10.4526C50.8653 12.607 51.6003 16.8451 49.4476 19.8996C48.9372 20.6291 48.2872 21.2501 47.535 21.7264C46.7829 22.2028 45.9437 22.5252 45.0661 22.6748C44.6789 22.7422 44.2866 22.7763 43.8936 22.7766ZM43.9147 10.8888C43.6188 10.8888 43.3235 10.9142 43.032 10.9648C42.3717 11.0776 41.7404 11.3204 41.1747 11.679C40.609 12.0376 40.12 12.5049 39.7362 13.0539C38.1172 15.3547 38.6703 18.5459 40.9694 20.1673C41.5169 20.5534 42.1351 20.8277 42.7887 20.9748C43.4423 21.1218 44.1185 21.1386 44.7786 21.0241C45.4386 20.9097 46.0697 20.6663 46.6357 20.3079C47.2017 19.9494 47.6915 19.483 48.0771 18.9351C49.6981 16.6347 49.1444 13.4442 46.8433 11.8221C45.9873 11.2152 44.964 10.889 43.9147 10.8888Z" fill="#5B6A72"/>
<path d="M4.79395 66.5136L14.2037 53.2728L14.8866 53.7582L5.47688 66.999L4.79395 66.5136ZM10.1888 64.8258L15.6933 57.0436L16.3804 57.5295L10.8758 65.3118L10.1888 64.8258Z" fill="#979797"/>
</g>
<defs>
<clipPath id="clip0_167_32389">
<rect width="67" height="67" fill="white" transform="translate(-2)"/>
</clipPath>
</defs>
</svg>
