<svg width="67" height="67" viewBox="0 0 67 67" fill="none" xmlns="http://www.w3.org/2000/svg">
<g clip-path="url(#clip0_167_32331)">
<path d="M33.5 0C52.0007 0 67 14.9993 67 33.5C67 52.0007 52 67 33.5 67C15 67 0 52.0047 0 33.5C0 14.9953 14.9973 0 33.5 0Z" fill="#53AE94"/>
<path d="M37.6347 29.0364V24.0529H49.0307V16.4598H17.999V24.0529H29.3963V29.0324C20.1336 29.4578 13.1689 31.2923 13.1689 33.4899C13.1689 35.6875 20.1369 37.522 29.3963 37.9501V53.9128H37.6373V37.9488C46.8833 37.522 53.8339 35.6888 53.8339 33.4932C53.8339 31.2977 46.8833 29.4645 37.6373 29.0377M37.6373 36.5967V36.5927C37.4049 36.6074 36.2102 36.6791 33.5503 36.6791C31.4238 36.6791 29.9277 36.6188 29.4004 36.5913V36.598C21.217 36.2356 15.1086 34.8105 15.1086 33.1053C15.1086 31.4002 21.2177 29.9771 29.4004 29.6139V35.1783C29.9364 35.2151 31.4693 35.3056 33.5852 35.3056C36.1265 35.3056 37.4042 35.1997 37.6387 35.1783V29.6139C45.806 29.9778 51.9003 31.4042 51.9003 33.1033C51.9003 34.8024 45.8033 36.2295 37.6387 36.5933" fill="white"/>
</g>
<defs>
<clipPath id="clip0_167_32331">
<rect width="67" height="67" fill="white"/>
</clipPath>
</defs>
</svg>
