<svg width="68" height="68" viewBox="0 0 68 68" fill="none" xmlns="http://www.w3.org/2000/svg">
<g clip-path="url(#clip0_167_32361)">
<path d="M35.3259 63.8728C51.5481 63.8728 64.6987 50.7221 64.6987 34.5C64.6987 18.2778 51.5481 5.1272 35.3259 5.1272C19.1038 5.1272 5.95312 18.2778 5.95312 34.5C5.95312 50.7221 19.1038 63.8728 35.3259 63.8728Z" fill="url(#paint0_linear_167_32361)"/>
<path d="M34.5 68C16.075 68 1 52.925 1 34.5C1 16.075 16.075 1 34.5 1C52.925 1 68 16.075 68 34.5C68 52.925 52.925 68 34.5 68ZM34.5 8.44772C20.1727 8.44772 8.44772 20.1727 8.44772 34.5C8.44772 48.8273 20.1727 60.5523 34.5 60.5523C48.8273 60.5523 60.5523 48.8273 60.5523 34.5C60.5523 20.1727 48.8273 8.44772 34.5 8.44772Z" fill="black"/>
<path d="M33.7257 43.5744H48.2406V50.8319H39.6753V56.9744H32.2276V51.0222H23.2925C23.2925 48.5994 22.9253 46.1874 23.4828 43.955C23.6757 42.8374 24.9675 41.7226 25.9082 40.605C28.7007 37.255 31.4906 33.905 34.4734 30.555C35.591 29.2472 36.7059 28.1323 38.0137 26.6476H24.0563V19.3874H32.241V13.2476H39.4984V19.1972H48.4309C48.4309 21.6226 48.8007 24.0319 48.2406 26.267C48.0503 27.3819 46.7559 28.4994 45.8179 29.617C43.0253 32.967 40.2328 36.317 37.2526 39.667C36.135 40.9722 35.0175 42.2666 33.7257 43.5744Z" fill="black"/>
</g>
<defs>
<linearGradient id="paint0_linear_167_32361" x1="15.2037" y1="54.623" x2="55.7958" y2="14.031" gradientUnits="userSpaceOnUse">
<stop stop-color="#CF8724"/>
<stop offset="1" stop-color="#FDCE58"/>
</linearGradient>
<clipPath id="clip0_167_32361">
<rect width="67" height="67" fill="white" transform="translate(1 1)"/>
</clipPath>
</defs>
</svg>
