<svg width="144" height="24" viewBox="0 0 144 24" fill="none" xmlns="http://www.w3.org/2000/svg">
<g opacity="0.5" clip-path="url(#clip0_222_566)">
<path d="M126.96 10.2178C126.24 10.6931 125.04 10.9307 123.6 10.9307H122.16L123.12 4.75248H124.32C125.52 4.75248 126.48 4.9901 127.2 5.22772C127.68 5.70297 128.16 6.17822 128.16 7.60396C128.16 9.0297 127.68 9.74257 126.96 10.2178ZM36.24 18.0594H24.48L25.2 13.7822H32.64L33.36 9.26733H26.16L26.88 5.22772H38.64L36.24 18.0594ZM133.44 1.66337C131.52 0.475248 128.88 0 125.52 0H116.64L113.28 18.0594H101.52L102.24 13.7822H109.2L110.16 9.26733H102.96L103.92 5.22772H111.12L112.08 0H97.2L94.08 17.1089H88.56L91.92 0H84L80.88 17.1089H75.6L78.72 0H71.04L67.68 18.0594H55.92L56.64 13.7822H63.6L64.56 9.26733H57.36L58.08 5.22772H65.52L66.48 0H20.16L17.52 14.2574L12.48 0H4.32L0 23.2871H7.68L10.32 8.55446L15.36 23.2871H42.96L46.32 5.22772H50.64L47.28 23.2871H119.76L121.92 11.8812L125.28 23.2871H132.96L129.36 14.0198L130.32 13.7822C132 13.3069 133.44 12.5941 134.4 11.4059C135.36 10.2178 135.84 8.55446 135.84 6.65347C135.84 4.51485 135.12 2.85149 133.44 1.66337ZM139.68 20.4356H141.36C141.36 20.198 141.36 20.198 141.6 20.198V19.7228C141.6 19.4851 141.6 19.4851 141.36 19.2475H139.68V20.4356ZM139.2 22.5743V19.0099L140.64 18.7723H141.6C141.6 19.0099 141.84 19.0099 141.84 19.2475C142.08 19.2475 142.08 19.4851 142.08 19.7228C142.08 19.9604 142.08 20.198 141.84 20.4356C141.84 20.6733 141.36 20.6733 141.12 20.9109H141.36L141.84 21.3861L142.56 22.3366H141.84L141.36 21.6238C141.36 21.3861 141.12 21.3861 141.12 21.1485C140.88 21.1485 140.88 20.9109 140.88 20.9109H139.68V22.5743H139.2Z" fill="white"/>
<path d="M137.761 20.673C137.761 19.9601 138.001 19.2472 138.481 18.772C138.961 18.2967 139.681 17.8215 140.401 17.8215C142.081 17.8215 143.281 19.0096 143.521 20.4353V20.673C143.521 22.0987 142.321 23.2868 140.641 23.5244C139.201 23.5244 137.761 22.3363 137.761 20.673ZM140.401 17.3462C139.441 17.3462 138.721 17.5838 138.001 18.2967C137.281 19.0096 137.041 19.9601 137.041 20.9106C137.281 22.8116 138.721 24.2373 140.641 23.9997C142.561 23.9997 144.001 22.3363 144.001 20.4353C144.001 18.5343 142.321 17.1086 140.401 17.3462Z" fill="white"/>
</g>
<defs>
<clipPath id="clip0_222_566">
<rect width="144" height="24" fill="white"/>
</clipPath>
</defs>
</svg>
