<svg width="187" height="24" viewBox="0 0 187 24" fill="none" xmlns="http://www.w3.org/2000/svg">
<g opacity="0.5" clip-path="url(#clip0_222_571)">
<path d="M152.515 1.62524C154.406 0.101025 157.041 0.311551 159.302 0.639972C159.213 1.89892 159.141 3.16208 159.094 4.42524C157.976 4.1726 156.259 3.87787 155.69 5.18313C155.337 6.36629 155.528 7.62524 155.494 8.83787C156.586 8.84208 157.683 8.84208 158.784 8.84629C158.779 9.96629 158.779 11.0863 158.779 12.2063C157.683 12.2105 156.586 12.2105 155.494 12.2147C155.49 15.861 155.49 19.5073 155.494 23.1537C154.007 23.1621 152.523 23.1579 151.04 23.1494C151.049 19.5031 151.044 15.861 151.044 12.2147C150.05 12.2105 149.06 12.2105 148.065 12.2063C148.069 11.0863 148.069 9.96629 148.069 8.84629C149.06 8.84208 150.05 8.84208 151.044 8.83787C151.134 6.42524 150.556 3.4905 152.515 1.62524ZM51.7389 0.842078H56.2099C56.2227 5.38102 56.1972 9.91576 56.2227 14.4505C57.8674 12.5894 59.4909 10.7073 61.1314 8.84208C62.9717 8.84208 64.8119 8.84629 66.6564 8.83787C64.6759 10.9516 62.7804 13.141 60.8594 15.3094C62.8739 17.8947 64.7524 20.5852 66.7839 23.1621C64.9054 23.1579 63.0269 23.1537 61.1527 23.1621C59.4867 20.7537 57.8972 18.2947 56.2227 15.8947C56.2014 18.3158 56.2184 20.7368 56.2099 23.1579H51.7389C51.7347 15.7179 51.7347 8.28208 51.7389 0.842078ZM0.424438 2.10524C4.60219 2.3326 8.93294 1.52418 12.9874 2.80418C15.9879 3.82313 16.9187 7.89471 15.0699 10.3031C14.3899 11.1958 13.3444 11.6926 12.2862 12.0084C13.3614 12.3284 14.5132 12.6189 15.3462 13.4147C17.5179 15.3684 17.5774 19.1916 15.3759 21.1452C13.7779 22.6358 11.4872 23.0821 9.36219 23.1579C6.38294 23.1705 3.40369 23.1494 0.424438 23.1579V2.10524ZM5.09944 5.89892V10.5221C6.68894 10.4589 8.33369 10.7368 9.88069 10.2947C11.6742 9.81892 11.9462 6.91787 10.1527 6.25681C8.55469 5.61681 6.77819 5.97892 5.09944 5.89892ZM5.09944 14.32V19.3642C6.96519 19.2631 8.90319 19.6337 10.7222 19.1242C12.5114 18.5937 12.9874 15.84 11.3044 14.9052C9.40044 13.9158 7.15644 14.4379 5.09944 14.32ZM75.4539 2.10524C80.9874 2.10524 86.5209 2.10102 92.0587 2.10945C92.0544 3.51155 92.0544 4.90945 92.0587 6.31155C90.0484 6.31997 88.0424 6.29892 86.0322 6.34102C86.0662 11.9452 86.0407 17.5494 86.0449 23.1579H81.4294C81.4294 17.5452 81.4252 11.9326 81.4337 6.31997C79.4362 6.31155 77.4429 6.31576 75.4539 6.31576C75.4497 4.91366 75.4497 3.50734 75.4539 2.10524Z" fill="white"/>
<path d="M18.7031 10.6404C21.4486 8.48043 25.3543 7.73937 28.6438 9.02359C30.6881 9.84043 31.5891 12.0973 31.6868 14.1394C31.8483 17.1415 31.7208 20.1478 31.7633 23.1541C30.3821 23.1583 28.9966 23.1583 27.6153 23.1583C27.6238 22.7457 27.6451 21.9162 27.6536 21.4994C25.7538 23.9204 21.8438 24.2657 19.4213 22.4467C17.1051 20.6699 17.3856 16.5773 19.9823 15.192C22.3368 13.9204 25.1248 13.891 27.7386 13.8741C27.5473 12.851 26.9736 11.8404 25.8983 11.5415C24.1346 10.8888 22.3751 11.8825 21.1086 13.0404C20.3138 12.232 19.5106 11.4362 18.7031 10.6404ZM22.8681 17.6089C21.8991 18.1604 21.8608 19.8278 22.9233 20.291C24.2408 21.0067 25.9876 20.5857 27.0203 19.571C27.7258 18.8383 27.5771 17.7562 27.6706 16.8383C26.0556 16.8552 24.2748 16.6615 22.8681 17.6089ZM38.9416 10.6783C41.0241 7.43201 47.0463 7.5878 48.1938 11.5331C49.0608 15.3394 48.4786 19.2888 48.6443 23.1583H44.1988C44.1861 20.6236 44.2243 18.0931 44.1903 15.5583C44.1563 14.4762 44.1096 13.1373 43.0811 12.4804C41.9888 11.9036 40.4078 12.152 39.7151 13.2257C39.1966 14.0425 39.2051 15.0446 39.1626 15.9794C39.1328 18.371 39.1668 20.7625 39.1541 23.1583H34.7383C34.7341 18.3836 34.7341 13.6131 34.7383 8.84253C36.1578 8.84253 37.5773 8.84253 39.0011 8.84674C38.9841 9.30569 38.9543 10.2194 38.9416 10.6783ZM98.1993 8.88885C99.3128 8.29516 100.613 8.4299 101.829 8.41306C101.82 9.78148 101.82 11.1499 101.863 12.5183C100.439 12.1731 98.7858 11.9162 97.5108 12.8131C96.4356 13.4952 96.2358 14.8467 96.1806 16.0131C96.1211 18.392 96.1848 20.7752 96.1593 23.1583H91.6883C91.6841 18.3836 91.6841 13.6131 91.6883 8.84253C93.1801 8.84253 94.6761 8.84253 96.1721 8.84674C96.1593 9.57516 96.1423 10.3036 96.1211 11.0362C96.7203 10.2446 97.2728 9.33938 98.1993 8.88885ZM103.282 10.6531C106.007 8.47201 109.925 7.7478 113.206 9.01938C115.255 9.8278 116.164 12.0888 116.262 14.131C116.423 17.1373 116.292 20.1478 116.338 23.1541C114.953 23.1583 113.572 23.1583 112.19 23.1583C112.199 22.7457 112.22 21.9162 112.229 21.4994C110.337 23.9162 106.44 24.2657 104.013 22.4636C101.68 20.6952 101.952 16.5857 104.557 15.192C106.912 13.9204 109.7 13.8867 112.314 13.8741C112.122 12.8383 111.532 11.8194 110.439 11.5288C108.688 10.9099 106.942 11.8741 105.701 13.0446C104.897 12.2446 104.094 11.4446 103.282 10.6531ZM107.443 17.6089C106.653 18.0804 106.508 19.1794 106.988 19.9204C108.263 21.1036 110.41 20.7331 111.583 19.5878C112.301 18.8594 112.152 17.7646 112.246 16.8383C110.631 16.851 108.85 16.6615 107.443 17.6089ZM123.092 10.6741C125.183 7.4278 131.209 7.59201 132.348 11.5457C133.207 15.3478 132.629 19.2931 132.794 23.1583H128.349C128.332 20.6194 128.374 18.0804 128.34 15.5457C128.298 14.5352 128.272 13.3688 127.456 12.6362C126.377 11.8404 124.583 12.0888 123.852 13.2425C123.347 14.0552 123.351 15.0446 123.313 15.9667C123.283 18.3625 123.317 20.7583 123.304 23.1583H118.884C118.884 18.3836 118.884 13.6131 118.888 8.84253C120.308 8.84253 121.727 8.84253 123.151 8.84674C123.134 9.30148 123.109 10.2152 123.092 10.6741ZM137.72 9.29306C140.593 7.81937 144.371 8.1899 146.87 10.2404C145.957 11.1457 145.043 12.0467 144.129 12.9478C143.147 12.0846 141.724 11.3352 140.436 12.0215C139.73 12.2825 139.543 13.4994 140.355 13.752C142.187 14.5604 144.431 14.4131 146.029 15.752C148.196 17.4994 147.652 21.352 145.179 22.5815C141.983 24.1815 137.792 23.9373 134.941 21.7225C135.837 20.7204 136.734 19.7183 137.644 18.7204C138.6 19.571 139.752 20.4173 141.124 20.2236C141.987 20.2783 143.449 19.6931 142.756 18.6194C140.831 17.3141 138.081 17.7857 136.369 16.0594C134.482 14.0931 135.332 10.4973 137.72 9.29306ZM162.391 10.1352C165.213 7.97937 169.744 7.63832 172.417 10.2278C174.287 12.0425 174.576 14.8004 174.453 17.2636C170.981 17.2889 167.508 17.2089 164.036 17.3099C164.495 18.8131 165.694 20.2994 167.428 20.232C168.783 20.3415 169.837 19.4278 170.704 18.5225C171.75 19.272 172.795 20.0257 173.837 20.792C170.985 24.1436 165.468 24.5225 162.145 21.6594C158.719 18.7962 158.83 12.851 162.391 10.1352ZM163.985 14.2783C166.025 14.3373 168.065 14.3204 170.109 14.3078C169.88 13.4783 169.608 12.5646 168.766 12.1562C166.943 11.0994 164.414 12.2362 163.985 14.2783ZM183.48 8.76253C184.534 8.30359 185.711 8.43832 186.829 8.41306C186.82 9.78148 186.82 11.1499 186.863 12.5183C184.942 11.8952 182.056 12.0299 181.427 14.3415C180.87 17.2383 181.291 20.2236 181.159 23.1583H176.688C176.684 18.3836 176.684 13.6131 176.688 8.84253C178.18 8.84253 179.676 8.84253 181.172 8.84674C181.159 9.57516 181.142 10.3036 181.121 11.0362C181.776 10.1646 182.405 9.15832 183.48 8.76253Z" fill="white"/>
</g>
<defs>
<clipPath id="clip0_222_571">
<rect width="187" height="24" fill="white"/>
</clipPath>
</defs>
</svg>
