<svg width="122" height="26" viewBox="0 0 122 26" fill="none" xmlns="http://www.w3.org/2000/svg">
<g opacity="0.5" clip-path="url(#clip0_222_578)">
<path fill-rule="evenodd" clip-rule="evenodd" d="M9.65269 25.6122C16.4771 27.3488 23.3883 23.1105 25.0896 16.1463C26.7908 9.18163 22.6384 2.12681 15.8144 0.39052C8.99194 -1.34577 2.08072 2.89298 0.380287 9.85803C-1.32174 16.8219 2.83104 23.8759 9.65269 25.6122ZM15.5493 7.86949C17.3138 8.48982 18.6043 9.41971 18.3507 11.1495C18.1672 12.4158 17.4794 13.0288 16.5663 13.2437C17.8201 13.9099 18.4582 14.9316 17.8504 16.7028C17.0961 18.9027 15.3041 19.0883 12.921 18.628L12.3427 20.9936L10.9452 20.6381L11.516 18.3043C11.1537 18.2125 10.7836 18.1149 10.4022 18.0093L9.82945 20.3542L8.43352 19.9987L9.01186 17.6287C8.8814 17.5946 8.75011 17.5596 8.61789 17.5244C8.41933 17.4716 8.21867 17.4182 8.01557 17.3662L6.19691 16.9035L6.8907 15.2708C6.8907 15.2708 7.92044 15.5503 7.90651 15.5296C8.30216 15.6295 8.47769 15.3663 8.54695 15.1908L9.46086 11.4513C9.49514 11.4597 9.52871 11.4683 9.56109 11.4766C9.57722 11.4807 9.59305 11.4848 9.60854 11.4887C9.55281 11.466 9.50225 11.4513 9.46324 11.4412L10.1152 8.77174C10.1324 8.46869 10.0301 8.08641 9.46405 7.9422C9.48594 7.92717 8.44904 7.68464 8.44904 7.68464L8.82081 6.16122L10.7481 6.65238L10.7465 6.65969C11.0363 6.73322 11.3348 6.80309 11.6389 6.87377L12.2117 4.53138L13.6085 4.88684L13.0472 7.18334C13.4222 7.27068 13.7995 7.35883 14.1669 7.45227L14.7242 5.17081L16.1217 5.52627L15.5493 7.86949ZM11.1289 16.3651C12.2692 16.6725 14.7614 17.3443 15.1576 15.7193C15.5636 14.0578 13.1466 13.5043 11.9672 13.2342C11.8354 13.204 11.719 13.1773 11.6238 13.1531L10.8564 16.2929C10.9346 16.3128 11.0263 16.3375 11.1289 16.3651ZM12.2041 11.7771C13.1549 12.036 15.2287 12.6008 15.5899 11.1239C15.9588 9.61321 13.9432 9.15782 12.9589 8.93542C12.8481 8.9104 12.7504 8.88833 12.6707 8.86804L11.9749 11.7158C12.0406 11.7325 12.1177 11.7535 12.2041 11.7771Z" fill="white"/>
<path d="M37.3254 7.86703C38.3583 7.86703 39.2507 8.05593 40.0006 8.42683C40.7541 8.80139 41.3759 9.30595 41.8746 9.9405C42.3666 10.5783 42.7328 11.3238 42.9692 12.1781C43.2041 13.0349 43.3219 13.9558 43.3219 14.9418C43.3219 16.4562 43.05 17.887 42.5011 19.2358C41.9522 20.5865 41.2075 21.7581 40.2602 22.7575C39.3136 23.7556 38.1959 24.5425 36.9071 25.1239C35.6202 25.7056 34.2211 25.9965 32.7189 25.9965C32.5246 25.9965 32.1831 25.9908 31.7007 25.9806C31.2182 25.9705 30.6638 25.9197 30.0428 25.834C29.4179 25.745 28.7571 25.6134 28.0594 25.4371C27.362 25.264 26.6997 25.0215 26.0759 24.7135L31.6533 0.795556L36.6487 0.00540924L34.6517 8.49306C35.0792 8.29644 35.5099 8.14409 35.9398 8.03318C36.3701 7.9239 36.8318 7.86703 37.3254 7.86703ZM33.1352 21.9519C33.8875 21.9519 34.5964 21.763 35.2623 21.3921C35.9303 21.0208 36.5066 20.5195 36.9895 19.8951C37.4723 19.2679 37.8544 18.5614 38.133 17.7721C38.4117 16.9827 38.5526 16.1593 38.5526 15.3025C38.5526 14.2499 38.3802 13.4289 38.0367 12.8354C37.6932 12.2443 37.0575 11.9469 36.1345 11.9469C35.8319 11.9469 35.4423 12.0058 34.959 12.1111C34.4742 12.2228 34.0404 12.4547 33.6515 12.8037L31.5251 21.8174C31.6533 21.8406 31.7667 21.8625 31.8635 21.8833C31.9582 21.9056 32.0629 21.9214 32.1672 21.9324C32.2774 21.945 32.4036 21.9515 32.5561 21.9515C32.7085 21.9515 32.8992 21.9519 33.1352 21.9519Z" fill="white"/>
<path d="M48.5024 25.5386H43.7311L47.7605 8.23387H52.5644L48.5024 25.5386ZM50.8242 6.12547C50.1583 6.12547 49.5544 5.92316 49.0187 5.51772C48.4785 5.11473 48.211 4.4944 48.211 3.65835C48.211 3.19848 48.3026 2.76705 48.4841 2.35999C48.6684 1.95375 48.9092 1.60397 49.2109 1.3066C49.5122 1.01167 49.8613 0.776046 50.2578 0.598517C50.6566 0.423832 51.0809 0.336494 51.5331 0.336494C52.1986 0.336494 52.7993 0.538805 53.337 0.944236C53.8728 1.3517 54.1423 1.97203 54.1423 2.80361C54.1423 3.2651 54.0511 3.69816 53.868 4.1044C53.6861 4.51065 53.4453 4.86042 53.1436 5.15779C52.8447 5.45313 52.4924 5.68794 52.0967 5.86384C51.6975 6.04137 51.2748 6.12547 50.8242 6.12547Z" fill="white"/>
<path d="M56.7459 3.92241L61.7433 3.13226L60.5162 8.23306H65.8682L64.9018 12.2459H59.582L58.1649 18.299C58.0343 18.8035 57.9603 19.2748 57.9396 19.7127C57.9161 20.1527 57.9707 20.5305 58.0996 20.8486C58.2278 21.1675 58.4583 21.4132 58.7926 21.5871C59.1254 21.7638 59.6019 21.8528 60.2268 21.8528C60.7414 21.8528 61.243 21.8028 61.7278 21.7037C62.2098 21.6062 62.6982 21.4705 63.1926 21.293L63.5484 25.045C62.9036 25.2864 62.2054 25.4939 61.4531 25.6686C60.6996 25.8458 59.8076 25.9311 58.7767 25.9311C57.2944 25.9311 56.1452 25.7064 55.3265 25.2591C54.5089 24.8086 53.9309 24.1932 53.585 23.414C53.2439 22.6377 53.0915 21.7427 53.1341 20.7344C53.1782 19.7237 53.3275 18.6613 53.585 17.5425L56.7459 3.92241Z" fill="white"/>
<path d="M65.6581 18.6284C65.6581 17.1379 65.8945 15.7323 66.367 14.4165C66.8387 13.0995 67.5181 11.9477 68.3998 10.9594C69.2783 9.97584 70.3486 9.19666 71.6084 8.62467C72.8623 8.05593 74.2661 7.76913 75.8133 7.76913C76.7818 7.76913 77.6467 7.86257 78.4078 8.04985C79.172 8.23875 79.8634 8.4829 80.4887 8.78921L78.8432 12.6079C78.4134 12.43 77.9672 12.2731 77.5058 12.131C77.0441 11.9859 76.4805 11.9161 75.8137 11.9161C74.2212 11.9161 72.9622 12.4763 72.0252 13.593C71.0918 14.7106 70.6217 16.2149 70.6217 18.1019C70.6217 19.2203 70.8581 20.1246 71.3326 20.8165C71.8047 21.5083 72.6768 21.8524 73.9429 21.8524C74.5679 21.8524 75.1709 21.7858 75.7485 21.6558C76.3304 21.5241 76.8443 21.3584 77.2968 21.1626L77.6531 25.0771C77.0497 25.316 76.3841 25.5317 75.6541 25.7206C74.9225 25.903 74.0516 25.9977 73.0418 25.9977C71.7087 25.9977 70.5803 25.7986 69.6572 25.4066C68.7338 25.0085 67.9707 24.48 67.3697 23.8105C66.7654 23.1394 66.3316 22.3557 66.0633 21.4563C65.795 20.5577 65.6581 19.6136 65.6581 18.6284Z" fill="white"/>
<path d="M86.8538 25.9977C85.715 25.9977 84.7258 25.8206 83.8867 25.47C83.0501 25.1194 82.3571 24.6274 81.809 23.9896C81.2601 23.3551 80.8493 22.6031 80.5679 21.7366C80.2865 20.8705 80.1511 19.9113 80.1511 18.8604C80.1511 17.5421 80.3585 16.2243 80.7776 14.9101C81.1948 13.593 81.8137 12.4097 82.6329 11.3579C83.4457 10.3045 84.4484 9.44325 85.629 8.77173C86.8084 8.10468 88.1649 7.76913 89.6886 7.76913C90.8067 7.76913 91.7907 7.94665 92.6413 8.29724C93.4879 8.64701 94.1853 9.14304 94.7366 9.7776C95.2819 10.4154 95.6963 11.1641 95.9749 12.0318C96.2555 12.8963 96.394 13.8579 96.394 14.9097C96.394 16.2239 96.1894 17.5417 95.7834 18.86C95.377 20.1717 94.774 21.358 93.9779 22.4122C93.1834 23.4639 92.1899 24.3248 90.9966 24.9935C89.8048 25.6621 88.4228 25.9977 86.8538 25.9977ZM89.2384 11.9165C88.5311 11.9165 87.9058 12.1261 87.3704 12.54C86.8331 12.9589 86.3817 13.4854 86.0179 14.1203C85.6501 14.7581 85.3774 15.4536 85.1931 16.2097C85.0104 16.9673 84.9209 17.6835 84.9209 18.364C84.9209 19.462 85.0944 20.3172 85.4355 20.9326C85.7814 21.5449 86.4028 21.8528 87.3059 21.8528C88.0156 21.8528 88.6378 21.6448 89.1763 21.2264C89.7105 20.8108 90.1623 20.2839 90.5289 19.6477C90.8943 19.0131 91.1693 18.3156 91.3536 17.5584C91.5339 16.8032 91.6259 16.0829 91.6259 15.4037C91.6259 14.3084 91.4531 13.4513 91.1088 12.8366C90.7649 12.2244 90.1408 11.9165 89.2384 11.9165Z" fill="white"/>
<path d="M101.593 25.5386H96.818L100.847 8.23387H105.654L101.593 25.5386ZM103.912 6.12547C103.246 6.12547 102.643 5.92316 102.108 5.51772C101.57 5.11473 101.3 4.4944 101.3 3.65835C101.3 3.19848 101.393 2.76705 101.575 2.35999C101.757 1.95375 101.999 1.60397 102.301 1.3066C102.601 1.01167 102.953 0.776046 103.349 0.598517C103.745 0.423832 104.169 0.336494 104.62 0.336494C105.287 0.336494 105.89 0.538805 106.426 0.944236C106.963 1.3517 107.234 1.97203 107.234 2.80361C107.234 3.2651 107.138 3.69816 106.958 4.1044C106.777 4.51065 106.535 4.86042 106.234 5.15779C105.932 5.45313 105.584 5.68794 105.188 5.86384C104.788 6.04137 104.364 6.12547 103.912 6.12547Z" fill="white"/>
<path d="M109.092 9.02076C109.455 8.9127 109.859 8.7827 110.299 8.64133C110.74 8.49996 111.234 8.36834 111.784 8.24972C112.329 8.12744 112.944 8.02831 113.621 7.95153C114.297 7.87312 115.068 7.83493 115.924 7.83493C118.44 7.83493 120.175 8.58283 121.132 10.0742C122.089 11.5655 122.255 13.6064 121.634 16.1934L119.439 25.537H114.636L116.764 16.39C116.893 15.8188 116.995 15.2668 117.07 14.7273C117.147 14.1926 117.142 13.7214 117.053 13.3135C116.969 12.9105 116.769 12.5807 116.459 12.3251C116.144 12.0737 115.668 11.9473 115.023 11.9473C114.401 11.9473 113.768 12.0156 113.122 12.1472L109.994 25.5366H105.19L109.092 9.02076Z" fill="white"/>
</g>
<defs>
<clipPath id="clip0_222_578">
<rect width="122" height="26" fill="white"/>
</clipPath>
</defs>
</svg>
