<svg width="40" height="40" viewBox="0 0 40 40" fill="none" xmlns="http://www.w3.org/2000/svg">
<mask id="mask0_1_283" style="mask-type:alpha" maskUnits="userSpaceOnUse" x="0" y="0" width="39" height="39">
<circle cx="19.75" cy="19.75" r="19.125" fill="#D9D9D9"/>
</mask>
<g mask="url(#mask0_1_283)">
</g>
<g clip-path="url(#clip0_1_283)">
<path d="M20.0002 3.33334C29.2052 3.33334 36.6668 10.795 36.6668 20C36.6668 29.205 29.2052 36.6667 20.0002 36.6667C10.7952 36.6667 3.3335 29.205 3.3335 20C3.3335 10.795 10.7952 3.33334 20.0002 3.33334ZM21.6668 10C21.2248 10 20.8009 10.1756 20.4883 10.4882C20.1758 10.8007 20.0002 11.2246 20.0002 11.6667V13.3333H18.3335V11.6667C18.3335 11.2246 18.1579 10.8007 17.8453 10.4882C17.5328 10.1756 17.1089 10 16.6668 10C16.2248 10 15.8009 10.1756 15.4883 10.4882C15.1758 10.8007 15.0002 11.2246 15.0002 11.6667V13.3333H13.3335C12.8915 13.3333 12.4675 13.5089 12.155 13.8215C11.8424 14.1341 11.6668 14.558 11.6668 15C11.6668 15.442 11.8424 15.866 12.155 16.1785C12.4675 16.4911 12.8915 16.6667 13.3335 16.6667V23.3333C12.8915 23.3333 12.4675 23.5089 12.155 23.8215C11.8424 24.1341 11.6668 24.558 11.6668 25C11.6668 25.442 11.8424 25.866 12.155 26.1785C12.4675 26.4911 12.8915 26.6667 13.3335 26.6667H15.0002V28.3333C15.0002 28.7754 15.1758 29.1993 15.4883 29.5119C15.8009 29.8244 16.2248 30 16.6668 30C17.1089 30 17.5328 29.8244 17.8453 29.5119C18.1579 29.1993 18.3335 28.7754 18.3335 28.3333V26.6667H20.0002V28.3333C20.0002 28.7754 20.1758 29.1993 20.4883 29.5119C20.8009 29.8244 21.2248 30 21.6668 30C22.1089 30 22.5328 29.8244 22.8453 29.5119C23.1579 29.1993 23.3335 28.7754 23.3335 28.3333V26.6667H24.1668C24.9406 26.6667 25.6991 26.4512 26.3574 26.0444C27.0156 25.6376 27.5476 25.0555 27.8936 24.3634C28.2397 23.6713 28.3862 22.8965 28.3167 22.1258C28.2472 21.3551 27.9644 20.619 27.5002 20C27.9644 19.381 28.2472 18.6449 28.3167 17.8742C28.3862 17.1035 28.2397 16.3287 27.8936 15.6366C27.5476 14.9445 27.0156 14.3624 26.3574 13.9556C25.6991 13.5488 24.9406 13.3333 24.1668 13.3333H23.3335V11.6667C23.3335 11.2246 23.1579 10.8007 22.8453 10.4882C22.5328 10.1756 22.1089 10 21.6668 10ZM24.1668 21.6667C24.3878 21.6667 24.5998 21.7545 24.7561 21.9108C24.9124 22.067 25.0002 22.279 25.0002 22.5C25.0002 22.721 24.9124 22.933 24.7561 23.0893C24.5998 23.2455 24.3878 23.3333 24.1668 23.3333H16.6668V21.6667H24.1668ZM24.1668 16.6667C24.3751 16.6663 24.5759 16.7439 24.7298 16.8842C24.8837 17.0245 24.9795 17.2173 24.9983 17.4247C25.0171 17.6321 24.9576 17.839 24.8315 18.0047C24.7053 18.1704 24.5217 18.2829 24.3168 18.32L24.1668 18.3333H16.6668V16.6667H24.1668Z" fill="url(#paint0_linear_1_283)"/>
</g>
<defs>
<linearGradient id="paint0_linear_1_283" x1="9.06268" y1="8.12506" x2="22.1877" y2="30.6251" gradientUnits="userSpaceOnUse">
<stop stop-color="#29FFCB"/>
<stop offset="1" stop-color="#0073FF"/>
</linearGradient>
<clipPath id="clip0_1_283">
<rect width="40" height="40" fill="white"/>
</clipPath>
</defs>
</svg>
