<svg width="178" height="86" viewBox="0 0 178 86" fill="none" xmlns="http://www.w3.org/2000/svg">
<path d="M94.1922 39V23.88H101.579C103.48 23.88 104.906 24.24 105.856 24.96C106.821 25.68 107.303 26.6304 107.303 27.8112C107.303 28.6032 107.109 29.2944 106.72 29.8848C106.331 30.4608 105.799 30.9072 105.122 31.224C104.445 31.5408 103.667 31.6992 102.789 31.6992L103.199 30.8136C104.15 30.8136 104.992 30.972 105.727 31.2888C106.461 31.5912 107.03 32.0448 107.433 32.6496C107.851 33.2544 108.059 33.996 108.059 34.8744C108.059 36.1704 107.548 37.1856 106.526 37.92C105.503 38.64 103.999 39 102.011 39H94.1922ZM97.6698 36.3648H101.752C102.659 36.3648 103.343 36.2208 103.804 35.9328C104.279 35.6304 104.517 35.1552 104.517 34.5072C104.517 33.8736 104.279 33.4056 103.804 33.1032C103.343 32.7864 102.659 32.628 101.752 32.628H97.4106V30.0792H101.147C101.997 30.0792 102.645 29.9352 103.091 29.6472C103.552 29.3448 103.783 28.8912 103.783 28.2864C103.783 27.696 103.552 27.2568 103.091 26.9688C102.645 26.6664 101.997 26.5152 101.147 26.5152H97.6698V36.3648ZM114.575 29.9712H121.854V32.6928H114.575V29.9712ZM114.834 36.192H123.064V39H111.357V23.88H122.783V26.688H114.834V36.192ZM129.628 39V26.7312H124.79V23.88H137.966V26.7312H133.127V39H129.628ZM94.1922 62V46.88H97.6914V62H94.1922ZM101.928 62V46.88H104.822L113.743 57.7664H112.339V46.88H115.795V62H112.922L103.98 51.1136H105.384V62H101.928ZM124.493 62L117.97 46.88H121.75L127.452 60.272H125.227L131.016 46.88H134.494L127.949 62H124.493ZM139.623 52.9712H146.902V55.6928H139.623V52.9712ZM139.882 59.192H148.111V62H136.404V46.88H147.831V49.688H139.882V59.192ZM156.512 62.2592C155.302 62.2592 154.143 62.1008 153.034 61.784C151.925 61.4528 151.032 61.028 150.356 60.5096L151.544 57.8744C152.192 58.3352 152.955 58.7168 153.833 59.0192C154.726 59.3072 155.626 59.4512 156.533 59.4512C157.224 59.4512 157.779 59.3864 158.196 59.2568C158.628 59.1128 158.945 58.9184 159.147 58.6736C159.348 58.4288 159.449 58.148 159.449 57.8312C159.449 57.428 159.291 57.1112 158.974 56.8808C158.657 56.636 158.24 56.4416 157.721 56.2976C157.203 56.1392 156.627 55.9952 155.993 55.8656C155.374 55.7216 154.748 55.5488 154.114 55.3472C153.495 55.1456 152.926 54.8864 152.408 54.5696C151.889 54.2528 151.464 53.8352 151.133 53.3168C150.816 52.7984 150.658 52.136 150.658 51.3296C150.658 50.4656 150.888 49.6808 151.349 48.9752C151.824 48.2552 152.53 47.6864 153.466 47.2688C154.416 46.8368 155.604 46.6208 157.03 46.6208C157.98 46.6208 158.916 46.736 159.838 46.9664C160.76 47.1824 161.573 47.5136 162.279 47.96L161.199 50.6168C160.493 50.2136 159.788 49.9184 159.082 49.7312C158.376 49.5296 157.685 49.4288 157.008 49.4288C156.332 49.4288 155.777 49.508 155.345 49.6664C154.913 49.8248 154.604 50.0336 154.416 50.2928C154.229 50.5376 154.136 50.8256 154.136 51.1568C154.136 51.5456 154.294 51.8624 154.611 52.1072C154.928 52.3376 155.345 52.5248 155.864 52.6688C156.382 52.8128 156.951 52.9568 157.57 53.1008C158.204 53.2448 158.83 53.4104 159.449 53.5976C160.083 53.7848 160.659 54.0368 161.177 54.3536C161.696 54.6704 162.113 55.088 162.43 55.6064C162.761 56.1248 162.927 56.78 162.927 57.572C162.927 58.4216 162.689 59.1992 162.214 59.9048C161.739 60.6104 161.026 61.1792 160.076 61.6112C159.14 62.0432 157.952 62.2592 156.512 62.2592ZM168.887 62V49.7312H164.048V46.88H177.224V49.7312H172.386V62H168.887Z" fill="white"/>
<mask id="mask0_1_165" style="mask-type:alpha" maskUnits="userSpaceOnUse" x="8" y="9" width="68" height="68">
<circle cx="42.4643" cy="42.6907" r="33.4688" transform="rotate(-15 42.4643 42.6907)" fill="#D9D9D9"/>
</mask>
<g mask="url(#mask0_1_165)">
</g>
<g clip-path="url(#clip0_1_165)">
<circle cx="43.5175" cy="44.9319" r="21" transform="rotate(-15 43.5175 44.9319)" fill="white"/>
<path d="M35.4512 14.8272C51.011 10.6579 67.0036 19.8913 71.1729 35.4511C75.3421 51.011 66.1088 67.0036 50.5489 71.1729C34.9891 75.3421 18.9965 66.1088 14.8272 50.5489C10.658 34.989 19.8913 18.9964 35.4512 14.8272ZM41.288 25.3414C40.5408 25.5416 39.9038 26.0305 39.517 26.7004C39.1302 27.3703 39.0254 28.1664 39.2256 28.9136L39.9805 31.7309L37.1632 32.4858L36.4083 29.6685C36.2081 28.9213 35.7193 28.2842 35.0494 27.8975C34.3795 27.5107 33.5833 27.4059 32.8361 27.6061C32.089 27.8063 31.4519 28.2951 31.0651 28.965C30.6784 29.635 30.5735 30.4311 30.7737 31.1783L31.5286 33.9955L28.7114 34.7504C27.9642 34.9506 27.3271 35.4395 26.9403 36.1094C26.5536 36.7793 26.4488 37.5754 26.649 38.3226C26.8492 39.0698 27.338 39.7069 28.0079 40.0936C28.6778 40.4804 29.4739 40.5852 30.2211 40.385L33.2407 51.6541C32.4935 51.8543 31.8564 52.3432 31.4697 53.0131C31.0829 53.683 30.9781 54.4791 31.1783 55.2263C31.3785 55.9735 31.8673 56.6106 32.5372 56.9973C33.2072 57.3841 34.0033 57.4889 34.7505 57.2887L37.5677 56.5338L38.3226 59.3511C38.5228 60.0983 39.0117 60.7353 39.6816 61.1221C40.3515 61.5089 41.1476 61.6137 41.8948 61.4135C42.642 61.2133 43.2791 60.7245 43.6658 60.0545C44.0526 59.3846 44.1574 58.5885 43.9572 57.8413L43.2023 55.024L46.0196 54.2691L46.7745 57.0864C46.9747 57.8336 47.4635 58.4707 48.1334 58.8575C48.8034 59.2442 49.5995 59.349 50.3467 59.1488C51.0939 58.9486 51.7309 58.4598 52.1177 57.7899C52.5045 57.12 52.6093 56.3238 52.4091 55.5767L51.6542 52.7594L53.0628 52.3819C54.3708 52.0314 55.5554 51.3237 56.4838 50.3379C57.4122 49.3521 58.0477 48.1272 58.3192 46.8006C58.5907 45.4739 58.4874 44.0978 58.0209 42.8266C57.5543 41.5554 56.743 40.4391 55.6778 39.603C56.1822 38.3463 56.3268 36.974 56.0952 35.6398C55.8636 34.3056 55.265 33.0622 54.3666 32.0491C53.4681 31.0359 52.3053 30.2929 51.0084 29.9034C49.7115 29.5139 48.3317 29.4932 47.0237 29.8437L45.6151 30.2211L44.8602 27.4038C44.66 26.6566 44.1711 26.0196 43.5012 25.6328C42.8313 25.246 42.0352 25.1412 41.288 25.3414ZM50.7981 43.9301C51.1717 43.83 51.5698 43.8824 51.9048 44.0758C52.2397 44.2691 52.4841 44.5877 52.5842 44.9613C52.6843 45.3349 52.6319 45.7329 52.4385 46.0679C52.2452 46.4028 51.9266 46.6473 51.553 46.7474L38.8753 50.1444L38.1204 47.3271L50.7981 43.9301ZM48.5335 35.4782C48.8853 35.3833 49.26 35.4235 49.5836 35.5909C49.9073 35.7584 50.1565 36.0409 50.2823 36.383C50.408 36.725 50.4011 37.1018 50.263 37.439C50.1249 37.7762 49.8655 38.0495 49.5359 38.205L49.2884 38.2955L36.6106 41.6925L35.8557 38.8752L48.5335 35.4782Z" fill="url(#paint0_linear_1_165)"/>
</g>
<defs>
<linearGradient id="paint0_linear_1_165" x1="19.1331" y1="27.8809" x2="51.5102" y2="59.9695" gradientUnits="userSpaceOnUse">
<stop stop-color="#2DE3DA"/>
<stop offset="1" stop-color="#0066FF"/>
</linearGradient>
<clipPath id="clip0_1_165">
<rect width="70" height="70" fill="white" transform="translate(0.133789 18.2513) rotate(-15)"/>
</clipPath>
</defs>
</svg>
