<svg width="42" height="43" viewBox="0 0 42 43" fill="none" xmlns="http://www.w3.org/2000/svg">
<path d="M19.9166 39.6571C21.1481 39.6581 22.3493 39.2762 23.3529 38.5645L23.353 38.5644L39.5939 27.0391C39.5939 27.0391 39.5939 27.039 39.5939 27.039C40.1312 26.6581 40.513 26.0968 40.6691 25.4578C40.8253 24.8189 40.7452 24.1452 40.4437 23.5603C40.1422 22.9755 39.6395 22.5187 39.0279 22.2735C38.4162 22.0283 37.7365 22.0112 37.1131 22.2252L37.1129 22.2252L25.3381 26.2842C25.3381 26.2842 25.3381 26.2842 25.338 26.2843C25.1567 26.3467 25.0076 26.4784 24.9235 26.6507C24.8394 26.823 24.8274 27.0215 24.8902 27.2027C24.9529 27.3838 25.0851 27.5325 25.2577 27.6162C25.4302 27.6999 25.6289 27.7119 25.8103 27.6494L37.5814 23.5967C37.5814 23.5967 37.5815 23.5966 37.5815 23.5966C37.8751 23.4965 38.1949 23.5047 38.4829 23.6199C38.7709 23.7351 39.0077 23.9495 39.1503 24.224C39.2929 24.4986 39.3319 24.8149 39.2602 25.1157C39.1886 25.4162 39.0112 25.6812 38.7601 25.8624C38.7599 25.8626 38.7598 25.8627 38.7596 25.8628L22.5142 37.3863C21.8756 37.8389 21.1292 38.1167 20.3493 38.192C19.5695 38.2673 18.7835 38.1374 18.0698 37.8154C18.0697 37.8154 18.0696 37.8153 18.0695 37.8153L10.1482 34.2213L10.1481 34.2212C9.9735 34.1421 9.77451 34.1353 9.5949 34.2024C9.41527 34.2696 9.2696 34.4052 9.19008 34.5796C9.11055 34.754 9.10375 34.9528 9.1712 35.1322C9.23864 35.3116 9.37472 35.4568 9.54935 35.536C9.54937 35.536 9.54938 35.536 9.54939 35.536L17.4705 39.1296L17.4705 39.1296C18.2387 39.4778 19.0728 39.6576 19.9166 39.6571ZM19.9166 39.6571L19.9168 39.4912M19.9166 39.6571C19.9167 39.6571 19.9168 39.6571 19.9169 39.6571L19.9168 39.4912M19.9168 39.4912C19.0965 39.4917 18.2857 39.3169 17.539 38.9785L37.167 22.3821C37.7527 22.181 38.3914 22.1971 38.9661 22.4275C39.5409 22.6579 40.0131 23.087 40.2962 23.6364C40.5794 24.1857 40.6546 24.8184 40.508 25.4185C40.3613 26.0185 40.0027 26.5458 39.4979 26.9037L23.257 38.4291C22.2814 39.1209 21.1138 39.4922 19.9168 39.4912Z" fill="white" stroke="white" stroke-width="0.331825"/>
<path d="M17.9269 29.5935L17.9276 29.7594C17.9853 29.7592 18.0427 29.7522 18.0987 29.7386L18.0989 29.7386L24.9366 28.0727L24.9366 28.0728L24.9409 28.0716C25.6086 27.8899 26.1874 27.4721 26.5691 26.8961C26.9509 26.32 27.1095 25.6251 27.0152 24.941C26.9209 24.2569 26.5803 23.6304 26.057 23.1784C25.5337 22.7265 24.8634 22.4798 24.1713 22.4844L24.1694 22.4844L18.096 22.5949L16.0146 21.5113C16.0145 21.5112 16.0145 21.5112 16.0145 21.5112C14.158 20.5433 12.0746 20.0912 9.9827 20.2021L9.82006 20.2081L9.82006 20.2081L9.8196 20.2082C9.72469 20.212 9.63144 20.2344 9.54519 20.2741C9.45894 20.3139 9.38135 20.3702 9.31689 20.4399C9.25243 20.5097 9.20234 20.5914 9.16953 20.6804C9.13683 20.7692 9.12192 20.8635 9.12567 20.958C9.12857 21.053 9.1504 21.1465 9.18989 21.233C9.22952 21.3198 9.28611 21.3978 9.35634 21.4624C9.42656 21.527 9.50899 21.577 9.59878 21.6094C9.68834 21.6417 9.78344 21.6559 9.87853 21.6512L10.049 21.644L10.049 21.644L10.0508 21.6439C11.8871 21.5468 13.7157 21.9437 15.3454 22.793L15.3456 22.7931L17.5934 23.9608L17.5934 23.9608L17.5962 23.9622C17.7023 24.0147 17.819 24.0421 17.9373 24.0423L17.9405 24.0423L24.1993 23.9311C24.5374 23.9323 24.8638 24.0551 25.1184 24.2769C25.3734 24.4991 25.5392 24.8055 25.5854 25.1398C25.6317 25.474 25.5552 25.8137 25.3701 26.0963C25.1855 26.3781 24.9053 26.5842 24.5807 26.6768L17.7564 28.3357C17.7564 28.3357 17.7564 28.3357 17.7563 28.3357L17.7561 28.3358L17.7953 28.497L17.9269 29.5935Z" fill="white" stroke="white" stroke-width="0.331825"/>
<path d="M3.52144 19.5514C3.33855 19.5516 3.16328 19.624 3.03405 19.7528C2.90486 19.8816 2.83223 20.056 2.83195 20.2379V34.7886C2.83223 34.9706 2.90486 35.1452 3.03406 35.274C3.16331 35.4029 3.33866 35.4755 3.52166 35.4757H8.43506C8.61806 35.4755 8.7934 35.4029 8.92266 35.274C9.0519 35.1451 9.12453 34.9705 9.12476 34.7885V20.2381C9.12452 20.0561 9.0519 19.8816 8.92266 19.7528C8.79344 19.624 8.61816 19.5516 8.43527 19.5514M3.52144 19.5514L8.43527 19.3855L8.43516 19.5514M3.52144 19.5514L3.52155 19.5514M3.52144 19.5514L3.52155 19.5514M8.43527 19.5514C8.43524 19.5514 8.4352 19.5514 8.43516 19.5514M8.43527 19.5514L8.43516 19.5514M8.43527 19.5514L3.52155 19.5514M8.43516 19.5514H3.52155M8.43527 36.9196H8.43546C9.00171 36.919 9.54469 36.6944 9.94524 36.295C10.3458 35.8956 10.5712 35.3539 10.5718 34.7889V34.7887L10.5718 20.2379L10.5718 20.2377C10.571 19.6727 10.3456 19.1312 9.94502 18.7319C9.54449 18.3327 9.00161 18.1082 8.43546 18.1075H8.43527L3.52144 18.1075L3.5213 18.1075C2.95509 18.108 2.4121 18.3325 2.01153 18.7318C1.61094 19.1311 1.38551 19.6727 1.38487 20.2377V20.2379L1.38487 34.7887L1.38487 34.7889C1.38551 35.3539 1.61091 35.8956 2.01148 36.295C2.41203 36.6944 2.955 36.919 3.52126 36.9196H3.52144H8.43527Z" fill="white" stroke="white" stroke-width="0.331825"/>
<path d="M17.7959 22.7998L17.7958 22.7998C17.8087 22.9876 17.7477 23.1729 17.6258 23.3163C17.5039 23.4597 17.3308 23.55 17.1434 23.568C16.956 23.586 16.7688 23.5304 16.6218 23.413C16.4747 23.2955 16.3793 23.1253 16.356 22.9385L16.3554 22.9341L16.3555 22.9341C16.2611 21.9634 16.4861 20.8413 16.8968 19.6746C17.3082 18.5056 17.9107 17.279 18.5842 16.0946C19.9311 13.7258 21.5705 11.5112 22.5611 10.2418L22.5613 10.2415C22.6531 10.1245 22.7787 10.0387 22.9211 9.99558C23.0625 9.95276 23.2137 9.95419 23.3542 9.99964C23.3656 10.0029 23.3775 10.0044 23.3893 10.004L23.3939 10.0039V10.004H28.702H28.7065L28.7065 10.004C28.7188 10.0043 28.7311 10.0027 28.7428 9.99906C28.8851 9.94974 29.0393 9.94596 29.1839 9.98827C29.3293 10.0308 29.4578 10.1179 29.551 10.2374C30.6983 11.7052 32.5679 14.2462 33.9576 16.867C34.6523 18.1771 35.2305 19.5136 35.5369 20.7501C35.8425 21.9835 35.8832 23.1394 35.4748 24.0727L35.334 24.0111L35.4748 24.0727C35.4184 24.2015 35.3255 24.3111 35.2077 24.388C35.0898 24.4649 34.9521 24.5058 34.8113 24.5057C34.6913 24.5056 34.5732 24.4758 34.4676 24.4188C34.3619 24.3618 34.2722 24.2795 34.2064 24.1792C34.1406 24.0789 34.1008 23.9638 34.0907 23.8443C34.0806 23.7248 34.1005 23.6047 34.1486 23.4948L17.7959 22.7998ZM17.7959 22.7998L17.7954 22.7952M17.7959 22.7998L17.7954 22.7952M17.7954 22.7952C17.7187 22.0068 17.9237 21.0366 18.3138 19.9788C18.7027 18.924 19.2698 17.7976 19.9012 16.7024C21.139 14.5551 22.6157 12.542 23.4556 11.4473H28.6595M17.7954 22.7952L28.6595 11.4473M28.6595 11.4473C30.344 13.634 31.9675 16.0688 33.0447 18.2523C33.5888 19.355 33.9906 20.388 34.1921 21.2889C34.3945 22.1933 34.39 22.943 34.1486 23.4948L28.6595 11.4473Z" fill="white" stroke="white" stroke-width="0.331825"/>
<path d="M29.458 9.1495C29.4085 9.23195 29.3385 9.30023 29.2548 9.34769C29.171 9.39514 29.0764 9.42016 28.9801 9.42029M29.458 9.1495L28.7018 9.37581C28.734 9.37508 28.766 9.37978 28.7966 9.38971C28.8556 9.40993 28.9176 9.42026 28.9801 9.42029M29.458 9.1495L29.6002 9.23488C29.536 9.34191 29.4452 9.43049 29.3366 9.49204C29.2279 9.5536 29.1052 9.58603 28.9803 9.5862L28.9801 9.42029M29.458 9.1495L29.6003 9.2348L31.311 6.3841L31.3111 6.38416L31.314 6.37886L31.3146 6.37781C31.3203 6.3676 31.3275 6.35444 31.3344 6.34074M28.9801 9.42029L28.98 9.5862C28.8999 9.58617 28.8203 9.573 28.7445 9.54723C28.7319 9.54326 28.7188 9.54138 28.7055 9.54168L28.7018 9.54176V9.54172H23.396H23.3904L23.3904 9.54163C23.379 9.54125 23.3676 9.5423 23.3564 9.54475C23.2015 9.58898 23.0361 9.58034 22.8865 9.52009C22.7354 9.45923 22.6093 9.34923 22.5286 9.20781L22.5286 9.20774L20.7737 6.12844L20.771 6.12367L20.7711 6.12363C20.6119 5.82159 20.542 5.48069 20.5694 5.14054C20.5968 4.80052 20.7203 4.47527 20.9256 4.20253C21.1266 3.93305 21.3998 3.72567 21.7136 3.60419C22.0275 3.48269 22.3695 3.45204 22.7001 3.51577L22.6999 3.51574L22.6688 3.67868L22.7002 3.5158L23.0289 3.57857L23.0353 3.57978L23.0353 3.57991C23.2902 3.63895 23.5551 3.64017 23.8105 3.58347L23.8465 3.74543M31.3344 6.34074C31.4944 6.02702 31.5585 5.67332 31.5188 5.32355C31.4791 4.97377 31.3372 4.64337 31.111 4.37332C30.8847 4.10328 30.584 3.90548 30.2461 3.80438C29.9082 3.70328 29.548 3.7033 29.2102 3.80445L29.2102 3.80439L29.2056 3.8059C28.8102 3.93685 28.3812 3.92533 27.9934 3.77334L27.9926 3.77302L27.0831 3.42207L27.0222 3.5764M31.3344 6.34074C31.3346 6.34041 31.3348 6.34007 31.3349 6.33974L31.1866 6.26537L31.3344 6.34074ZM27.0222 3.5764L27.082 3.42161L27.0825 3.42184C26.4888 3.18767 25.8385 3.1353 25.2147 3.2714L25.2141 3.27154L23.8106 3.58346L23.8465 3.74543M27.0222 3.5764C26.4589 3.35412 25.8419 3.30436 25.2501 3.4335M27.0222 3.5764L25.2501 3.4335M23.8465 3.74543L25.2501 3.4335M23.8465 3.74543C23.5669 3.80751 23.2769 3.80618 22.9978 3.74154L22.6688 3.67871C22.3688 3.62084 22.0584 3.64864 21.7735 3.75892C21.4886 3.86919 21.2407 4.05745 21.0584 4.30202M21.0584 4.30202C20.8719 4.54972 20.7596 4.8451 20.7348 5.15386C20.7099 5.46262 20.7734 5.77208 20.9179 6.04629M21.0584 4.30202L20.9179 6.04629M21.0584 4.30202L25.2501 3.4335M20.9179 6.04629L20.9179 6.04629L20.9179 6.04629ZM22.4318 4.9317L22.7348 4.99201C23.1931 5.09507 23.6686 5.09495 24.1269 4.99163C24.127 4.9916 24.1272 4.99157 24.1273 4.99154L25.5236 4.68373C25.5237 4.68372 25.5238 4.6837 25.5238 4.68369C25.8677 4.60851 26.2263 4.63756 26.5535 4.7671L26.5535 4.76711L26.5548 4.7676L27.4661 5.11976C27.4663 5.11982 27.4665 5.11988 27.4666 5.11994C28.162 5.39345 28.9313 5.41615 29.6416 5.18423C29.7147 5.16603 29.7917 5.17132 29.8617 5.19937C29.933 5.22799 29.9931 5.27873 30.0331 5.34398L30.033 5.34399L30.0346 5.34645C30.0655 5.39497 30.0834 5.45058 30.0864 5.50792C30.0894 5.56327 30.0785 5.61847 30.0547 5.66857L28.5967 8.09783H23.5621L22.0506 5.44245C22.0217 5.38417 22.0092 5.31912 22.0147 5.25432C22.0202 5.18835 22.044 5.12517 22.0835 5.07186C22.1231 5.01854 22.1767 4.97718 22.2386 4.95246C22.2998 4.92797 22.3667 4.92078 22.4318 4.9317Z" fill="white" stroke="white" stroke-width="0.331825"/>
<path d="M21.715 9.77377C21.7145 10.1325 21.8302 10.4818 22.0446 10.7698C22.2587 11.0574 22.56 11.2685 22.9037 11.3719L29.1624 8.33941C29.0138 8.28863 28.8578 8.26307 28.7007 8.26379V8.09787H28.7003H23.3959C23.2578 8.09617 23.1202 8.11343 22.9868 8.14919C22.6229 8.23775 22.2994 8.446 22.0686 8.74047C21.8375 9.03534 21.7129 9.39941 21.715 9.77377ZM21.715 9.77377C21.715 9.77398 21.715 9.77419 21.715 9.7744L21.8809 9.77341L21.715 9.77315C21.715 9.77336 21.715 9.77357 21.715 9.77377ZM23.3893 9.54167L23.3893 9.54176H23.3948L28.7005 9.54176C28.7005 9.54176 28.7006 9.54176 28.7006 9.54176C28.7214 9.54179 28.7421 9.54549 28.7616 9.55268L28.7615 9.55297L28.7712 9.55589C28.8094 9.56735 28.8439 9.58854 28.8712 9.61732C28.8986 9.64609 28.9178 9.68145 28.9272 9.71987C28.9366 9.75828 28.9357 9.79846 28.9247 9.83644C28.9137 9.87428 28.893 9.90866 28.8646 9.93619C28.834 9.96528 28.7962 9.98585 28.755 9.99577L28.7549 9.99531L28.743 9.99914C28.7308 10.0031 28.718 10.0049 28.7051 10.0046L28.7051 10.0045H28.7007H23.3924C23.3732 10.0044 23.3542 10.0011 23.3362 9.99467L23.3363 9.99437L23.3265 9.99153C23.2789 9.97782 23.2372 9.94909 23.2076 9.90976C23.178 9.87044 23.162 9.82265 23.1621 9.77359L23.1621 9.7728C23.1618 9.71359 23.1831 9.6563 23.222 9.61149C23.2576 9.57908 23.3012 9.55658 23.3485 9.54635L23.3485 9.5464L23.3525 9.54544C23.3645 9.54253 23.3769 9.54126 23.3893 9.54167ZM29.9307 8.63455C29.7348 8.4248 29.4881 8.26891 29.2143 8.18181L23.3953 11.4484H28.6999C28.8646 11.45 29.0285 11.4246 29.1849 11.3731C29.4491 11.2957 29.6897 11.1535 29.8847 10.9595C30.0892 10.7572 30.238 10.5057 30.3166 10.2292C30.3952 9.95272 30.401 9.66069 30.3334 9.38133C30.2658 9.10197 30.1271 8.84476 29.9307 8.63455Z" fill="white" stroke="white" stroke-width="0.331825"/>
</svg>
