<svg width="38" height="37" viewBox="0 0 38 37" fill="none" xmlns="http://www.w3.org/2000/svg">
<g clip-path="url(#clip0_149_635)">
<path d="M3.54375 33.1522H3.54392H32.1453V32.9871L32.1455 33.1522C32.8376 33.1513 33.5024 32.8857 33.9935 32.4117C34.4849 31.9376 34.7625 31.2934 34.7633 30.6202V30.62V24.1408C34.7633 23.9664 34.6915 23.8004 34.5656 23.6789C34.44 23.5577 34.2708 23.4906 34.0955 23.4906C33.9203 23.4906 33.7511 23.5577 33.6255 23.6789C33.4996 23.8004 33.4278 23.9664 33.4278 24.1408V30.6198C33.4273 30.9445 33.2935 31.2569 33.0537 31.4884C32.8136 31.72 32.487 31.8513 32.1451 31.8518H3.54414C3.20222 31.8513 2.87558 31.72 2.63555 31.4884C2.39575 31.257 2.26195 30.9446 2.26144 30.62V9.31612L32.1451 9.31612C32.1452 9.31612 32.1452 9.31612 32.1452 9.31612C32.4871 9.3165 32.8138 9.44777 33.0538 9.67939C33.2937 9.91084 33.4274 10.2234 33.4278 10.548V17.0276C33.4278 17.202 33.4996 17.368 33.6255 17.4894C33.7511 17.6107 33.9203 17.6778 34.0955 17.6778C34.2708 17.6778 34.44 17.6107 34.5656 17.4894C34.6915 17.368 34.7633 17.202 34.7633 17.0276V10.5479V10.5476C34.7625 9.87445 34.4849 9.23031 33.9935 8.75615C33.5024 8.28218 32.8376 8.01655 32.1455 8.01573H32.1453H1.59366C1.41843 8.01573 1.24923 8.08285 1.12358 8.20409C0.997731 8.32554 0.925884 8.49154 0.925884 8.66593L0.925884 30.62L0.925884 30.6202C0.926597 31.2935 1.20412 31.9377 1.69553 32.4119C2.18674 32.8859 2.85154 33.1515 3.54375 33.1522Z" fill="white" stroke="white" stroke-width="0.331825"/>
<path d="M29.004 17.6813H29.0039C28.6071 17.6813 28.2142 17.7568 27.8479 17.9032C27.4815 18.0496 27.149 18.2641 26.8692 18.5341C26.5894 18.8041 26.3678 19.1243 26.2168 19.4763C26.0657 19.8282 25.988 20.2052 25.988 20.5858C25.988 20.9664 26.0657 21.3434 26.2168 21.6953C26.3678 22.0473 26.5894 22.3675 26.8692 22.6375C27.149 22.9075 27.4815 23.122 27.8479 23.2684C28.2142 23.4148 28.6071 23.4903 29.0039 23.4903L34.8811 23.4903M29.004 17.6813L34.8811 23.4903M29.004 17.6813L34.881 17.6794C34.9285 17.6796 34.9729 17.698 35.0047 17.7287C35.0364 17.7593 35.0531 17.7995 35.0531 17.8402L35.0531 23.3269L35.0531 23.3284C35.0533 23.3487 35.0493 23.369 35.0413 23.3882C35.0332 23.4074 35.0211 23.4252 35.0054 23.4406C34.9897 23.4559 34.9706 23.4684 34.9492 23.477C34.9278 23.4857 34.9048 23.4902 34.8813 23.4903M29.004 17.6813L34.8813 23.4903M34.8811 23.4903L34.8813 23.4903M34.8811 23.4903C34.8811 23.4903 34.8812 23.4903 34.8813 23.4903M34.8813 24.7887H34.8815C35.2795 24.7883 35.6622 24.6355 35.9452 24.362C36.2285 24.0884 36.3887 23.7162 36.3887 23.3269V17.8399V17.8397C36.3882 17.4506 36.2278 17.0788 35.9447 16.8054C35.6617 16.5323 35.2793 16.3796 34.8815 16.379H34.8813H29.0039C27.8517 16.379 26.7456 16.8206 25.9291 17.6085C25.1124 18.3966 24.6524 19.4667 24.6524 20.5839C24.6524 21.701 25.1124 22.7711 25.9291 23.5592C26.7456 24.3471 27.8517 24.7887 29.0039 24.7887H34.8813Z" fill="white" stroke="white" stroke-width="0.331825"/>
<path d="M1.37889 8.0511L1.3789 8.05109L20.6124 1.69292C20.6124 1.69292 20.6124 1.69291 20.6124 1.69291C21.1863 1.50311 21.7986 1.44827 22.3986 1.53286C22.9986 1.61744 23.5695 1.83908 24.0636 2.17974C24.5578 2.52042 24.9611 2.97041 25.2396 3.4927C25.518 4.01502 25.6635 4.59431 25.6634 5.18234V8.66676C25.6634 8.84115 25.5915 9.00714 25.4657 9.12859C25.34 9.24984 25.1708 9.31695 24.9956 9.31695C24.8204 9.31695 24.6512 9.24984 24.5255 9.12859C24.3997 9.00714 24.3278 8.84115 24.3278 8.66676V5.18232C24.3278 4.80337 24.2341 4.42962 24.054 4.09209C23.874 3.75452 23.6128 3.46269 23.2916 3.24124C22.9703 3.01978 22.5985 2.87522 22.2069 2.82C21.8154 2.76478 21.4159 2.80055 21.0418 2.92423L20.9897 2.76671L21.0418 2.92424L1.80848 9.28235L1.37889 8.0511ZM1.37889 8.0511C1.2304 8.1002 1.10339 8.199 1.02153 8.33143C0.93957 8.46401 0.908651 8.62112 0.935116 8.7745C0.961567 8.92781 1.04332 9.06583 1.16418 9.16466C1.28487 9.26335 1.43699 9.31689 1.59339 9.31695M1.37889 8.0511L1.59339 9.31695M1.59339 9.31695C1.66642 9.31704 1.73902 9.30539 1.80826 9.28242L1.59339 9.31695Z" fill="white" stroke="white" stroke-width="0.331825"/>
<path d="M31.1688 20.5849V20.5848C31.1688 20.2067 31.0525 19.8376 30.8356 19.5242C30.6186 19.2109 30.3109 18.9676 29.952 18.8241C29.5932 18.6806 29.1986 18.6431 28.818 18.7161C28.4373 18.7892 28.0869 18.9696 27.8113 19.2355C27.5356 19.5014 27.3471 19.841 27.2706 20.2117C27.1942 20.5824 27.2334 20.9665 27.383 21.3154C27.5326 21.6641 27.7856 21.9613 28.1091 22.1699C28.4325 22.3786 28.8121 22.4896 29.2001 22.4897H29.2002C29.7203 22.4895 30.2201 22.2901 30.5896 21.9336C30.9593 21.577 31.1683 21.092 31.1688 20.5849ZM28.8464 20.0841C28.9506 20.0169 29.0737 19.9807 29.2001 19.9807C29.3697 19.9807 29.5312 20.0457 29.6494 20.1597C29.7674 20.2735 29.8326 20.4265 29.8327 20.5849C29.8328 20.7031 29.7965 20.8193 29.7278 20.9186C29.6591 21.018 29.5607 21.0964 29.4444 21.1429C29.3281 21.1895 29.1998 21.2018 29.0759 21.1781C28.952 21.1543 28.839 21.0958 28.7509 21.0108C28.6628 20.9259 28.6035 20.8184 28.5795 20.7022C28.5556 20.5861 28.5678 20.4657 28.6149 20.3559C28.662 20.2461 28.7422 20.1512 28.8464 20.0841Z" fill="white" stroke="white" stroke-width="0.331825"/>
</g>
<defs>
<clipPath id="clip0_149_635">
<rect width="37.1381" height="35.8371" fill="white" transform="translate(0.0878906 0.509766)"/>
</clipPath>
</defs>
</svg>
