<?xml version="1.0" encoding="utf-8"?><svg viewBox="0 0 32 32" xmlns="http://www.w3.org/2000/svg" xmlns:xlink="http://www.w3.org/1999/xlink"><style>:root>svg{display:none}:root>svg:target{display:block}</style><svg viewBox="0 0 11 18" id="arrow-profit" xmlns="http://www.w3.org/2000/svg"><path d="M5.405 1.415l4.285 4.5m-4.285-4.5L.69 5.915m4.715-4.5v16"/></svg><svg viewBox="0 0 32 32" id="burger" xmlns="http://www.w3.org/2000/svg"><path fill-rule="evenodd" clip-rule="evenodd" d="M4.4 9.333c0-.515.418-.933.933-.933h21.334a.933.933 0 010 1.867H5.333a.933.933 0 01-.933-.934zM4.4 16c0-.515.418-.933.933-.933h21.334a.933.933 0 110 1.866H5.333A.933.933 0 014.4 16zM4.4 22.666c0-.515.418-.933.933-.933h21.334a.933.933 0 110 1.867H5.333a.933.933 0 01-.933-.934z"/></svg><svg viewBox="0 0 32 32" id="close" xmlns="http://www.w3.org/2000/svg"><path fill-rule="evenodd" clip-rule="evenodd" d="M8.74 8.74a.933.933 0 011.32 0l13.2 13.2a.933.933 0 11-1.32 1.32l-13.2-13.2a.933.933 0 010-1.32z"/><path fill-rule="evenodd" clip-rule="evenodd" d="M8.74 23.26a.933.933 0 010-1.32l13.2-13.2a.933.933 0 111.32 1.32l-13.2 13.2a.933.933 0 01-1.32 0z"/></svg><svg viewBox="0 0 24 24" id="dropdown" xmlns="http://www.w3.org/2000/svg"><path d="M6 9.5l6 6 6-6"/></svg></svg>