<svg width="36" height="36" viewBox="0 0 36 36" fill="none" xmlns="http://www.w3.org/2000/svg">
<g clip-path="url(#clip0_169_1971)">
<path d="M35.4597 22.3544C33.0556 31.9973 23.2884 37.8653 13.6443 35.4612C4.00475 33.0571 -1.86382 23.2898 0.54087 13.6474C2.94387 4.00337 12.7106 -1.86575 22.3518 0.538373C31.9953 2.9425 37.8639 12.7109 35.4597 22.3544Z" fill="#F7931A"/>
<path d="M25.9367 15.4356C26.2944 13.0405 24.4708 11.7529 21.9772 10.894L22.7861 7.64946L20.8106 7.15727L20.0231 10.3163C19.5045 10.1869 18.9712 10.0648 18.4414 9.94389L19.2345 6.76408L17.2607 6.27189L16.4512 9.51527C16.0215 9.41739 15.5996 9.32064 15.1901 9.21883L15.1924 9.20871L12.4687 8.52864L11.9434 10.638C11.9434 10.638 13.4087 10.9738 13.3777 10.9946C14.1776 11.1943 14.3227 11.7236 14.298 12.1433L13.3766 15.8395C13.4317 15.8535 13.5032 15.8738 13.5819 15.9053L13.3738 15.8535L12.0817 21.0313C11.9839 21.2743 11.7358 21.6388 11.1767 21.5005C11.1964 21.5291 9.74118 21.1421 9.74118 21.1421L8.76074 23.4034L11.3314 24.0441C11.8095 24.1639 12.2781 24.2893 12.7387 24.4075L11.9214 27.6896L13.8941 28.1818L14.7041 24.9351C15.2424 25.0813 15.7656 25.2163 16.2774 25.3435L15.4708 28.575L17.4457 29.0672L18.2631 25.7918C21.6307 26.4291 24.1637 26.172 25.2285 23.1266C26.0874 20.6741 25.1863 19.2595 23.4144 18.3364C24.7048 18.0377 25.6774 17.1889 25.9367 15.4356ZM21.4237 21.7631C20.8129 24.2156 16.6841 22.8904 15.3448 22.5574L16.4293 18.2098C17.7681 18.544 22.0599 19.2055 21.4237 21.7631ZM22.0341 15.4001C21.4772 17.631 18.0403 16.4976 16.9249 16.2197L17.9081 12.2766C19.0236 12.5545 22.6146 13.0731 22.0341 15.4001Z" fill="white"/>
</g>
<defs>
<clipPath id="clip0_169_1971">
<rect width="36" height="36" fill="white"/>
</clipPath>
</defs>
</svg>
