<svg width="44" height="37" viewBox="0 0 44 37" fill="none" xmlns="http://www.w3.org/2000/svg">
<path fill-rule="evenodd" clip-rule="evenodd" d="M21.9566 34.1759C23.8453 35.9162 26.3817 36.9718 29.1407 36.9718C35.0658 36.9718 39.8614 32.1391 39.8614 26.1953C39.8614 20.2333 35.0658 15.4005 29.1407 15.4005C26.3817 15.4005 23.8453 16.4559 21.9566 18.1964C19.7902 20.1776 18.4199 23.0291 18.4199 26.1953C18.4201 29.3615 19.7902 32.2132 21.9566 34.1759Z" fill="#E9B040"/>
<path fill-rule="evenodd" clip-rule="evenodd" d="M38.4365 32.1945C38.4365 32.0093 38.5847 31.8613 38.7697 31.8613C38.9733 31.8613 39.1212 32.0095 39.1212 32.1945C39.1212 32.3985 38.9731 32.5464 38.7697 32.5464C38.5847 32.5464 38.4365 32.3985 38.4365 32.1945ZM38.7697 32.4726C38.9179 32.4726 39.0471 32.3427 39.0471 32.1947C39.0471 32.0467 38.9177 31.9356 38.7697 31.9356C38.6398 31.9356 38.5106 32.0467 38.5106 32.1947C38.5106 32.3427 38.6401 32.4726 38.7697 32.4726ZM38.7327 32.3614H38.6586V32.0465H38.788C38.8068 32.0465 38.8438 32.0465 38.8621 32.0653C38.8992 32.0836 38.8992 32.1023 38.8992 32.1394C38.8992 32.1764 38.8809 32.2134 38.8438 32.2134L38.9179 32.3616H38.8251L38.788 32.2318H38.7327V32.3614V32.1762H38.8068C38.8251 32.1762 38.8251 32.1574 38.8251 32.1391C38.8251 32.1204 38.8251 32.1204 38.8068 32.1021H38.7327V32.3614Z" fill="#E9B040"/>
<path fill-rule="evenodd" clip-rule="evenodd" d="M25.4191 25.0475C25.3821 24.6587 25.308 24.2885 25.2339 23.8995H18.6792C18.7533 23.5107 18.8644 23.1405 18.9753 22.77H24.9192C24.7902 22.3802 24.6419 21.9971 24.4748 21.622H19.4384C19.6237 21.2298 19.8276 20.8467 20.0495 20.474H23.8455C23.6012 20.0785 23.329 19.701 23.0309 19.3445H20.8643C21.1994 18.9352 21.5646 18.5515 21.9567 18.1964C20.0497 16.4744 17.5314 15.4005 14.7539 15.4005C8.84734 15.4005 4.0332 20.2334 4.0332 26.1953C4.0332 32.1392 8.84734 36.9718 14.7539 36.9718C17.5314 36.9718 20.0495 35.9162 21.9567 34.1759C22.3429 33.8271 22.702 33.4494 23.0309 33.0462H20.8643C20.5679 32.6759 20.3088 32.3057 20.0495 31.8981H23.8455C24.0842 31.532 24.2946 31.1482 24.4751 30.7501H19.4384C19.2717 30.3799 19.1052 30.0096 18.9753 29.6204H24.9192C25.0486 29.2502 25.1415 28.8616 25.2336 28.4724C25.3077 28.1021 25.3818 27.7136 25.4189 27.3244C25.4564 26.949 25.475 26.5719 25.4747 26.1947C25.4747 25.8065 25.4561 25.4178 25.4191 25.0475Z" fill="#CC2131"/>
<path fill-rule="evenodd" clip-rule="evenodd" d="M38.4365 28.6951C38.4365 28.4916 38.5847 28.3436 38.7697 28.3436C38.9733 28.3436 39.1212 28.4918 39.1212 28.6951C39.1212 28.8803 38.9731 29.047 38.7697 29.047C38.5847 29.047 38.4365 28.8801 38.4365 28.6951ZM38.7697 28.9542C38.9179 28.9542 39.0471 28.8431 39.0471 28.6951C39.0471 28.5471 38.9177 28.436 38.7697 28.436C38.6398 28.436 38.5106 28.5471 38.5106 28.6951C38.5106 28.8431 38.6401 28.9542 38.7697 28.9542ZM38.7327 28.8431H38.6586V28.5469H38.8621C38.8992 28.5657 38.8992 28.6027 38.8992 28.6397C38.8992 28.6581 38.8809 28.6951 38.8438 28.7138L38.9179 28.8433H38.8251L38.788 28.7321H38.7327V28.8431V28.6766H38.7697C38.788 28.6766 38.8068 28.6766 38.8068 28.6578C38.8251 28.6578 38.8251 28.6395 38.8251 28.6208C38.8251 28.6208 38.8251 28.6025 38.8068 28.6025C38.8068 28.5837 38.788 28.6025 38.7697 28.6025H38.7327V28.8431Z" fill="white"/>
<path fill-rule="evenodd" clip-rule="evenodd" d="M18.3086 29.3062C17.9568 29.3986 17.6975 29.4544 17.4384 29.4544C16.8829 29.4544 16.5495 29.1024 16.5495 28.4728C16.5495 28.3434 16.568 28.2137 16.5865 28.0655L16.6606 27.6399L16.7162 27.288L17.2161 24.2514H18.3271L18.1974 24.9181H18.9011L18.7344 26.029H18.0307L17.7345 27.8435C17.716 27.9363 17.716 27.9917 17.716 28.0287C17.716 28.2695 17.8272 28.3619 18.1048 28.3619C18.2345 28.3619 18.3454 28.3436 18.4565 28.3249L18.3086 29.3062ZM21.9008 29.2691C21.4935 29.3803 21.1232 29.4356 20.7157 29.4356C19.4566 29.4356 18.7344 28.769 18.7344 27.4547C18.7344 25.9177 19.5862 24.8067 20.7711 24.8067C21.7153 24.8067 22.3264 25.4363 22.3264 26.4174C22.3264 26.751 22.2894 27.0657 22.197 27.51H19.8824C19.8639 27.5841 19.8639 27.6212 19.8639 27.6582C19.8639 28.1767 20.2156 28.4358 20.8822 28.4358C21.308 28.4358 21.6783 28.3434 22.0858 28.1584L21.9008 29.2691ZM21.2157 26.6214V26.3991C21.2157 26.0288 21.0119 25.8251 20.6602 25.8251C20.2897 25.8251 20.0306 26.1027 19.9194 26.6211L21.2157 26.6214ZM9.42077 29.3615H8.27276L8.93938 25.1587L7.43963 29.3615H6.64356L6.55094 25.1772L5.84727 29.3615H4.71777L5.62499 23.8995H7.30997L7.34702 27.2697L8.47651 23.8995H10.3282L9.42077 29.3615ZM12.2169 27.3806C12.1058 27.3619 12.0688 27.3619 11.9947 27.3619C11.328 27.3619 10.9948 27.621 10.9948 28.0285C10.9948 28.3063 11.1615 28.4916 11.4207 28.4916C11.9761 28.4916 12.1982 28.0285 12.2169 27.3806ZM13.1427 29.3615H12.1429L12.1614 28.8989C11.902 29.2504 11.5503 29.4356 10.9393 29.4356C10.3838 29.4356 9.90239 28.9359 9.90239 28.2137C9.90239 28.0102 9.93943 27.8252 9.995 27.6399C10.18 26.9546 10.8652 26.529 11.9206 26.5102C12.0502 26.5102 12.2538 26.5102 12.439 26.529C12.4758 26.3808 12.4758 26.325 12.4758 26.2326C12.4758 25.9362 12.2353 25.8436 11.6983 25.8436C11.3651 25.8436 10.9946 25.8992 10.7355 25.9918L10.5688 26.0288L10.4947 26.0471L10.6614 25.0473C11.1984 24.8806 11.5871 24.8067 12.0132 24.8067C13.013 24.8067 13.55 25.2696 13.55 26.1212C13.55 26.3435 13.5685 26.5102 13.4944 26.9916L13.2353 28.584L13.1983 28.8618L13.1797 29.0841L13.1612 29.2323L13.1427 29.3615ZM27.4927 24.9549C27.8259 24.9549 28.1223 25.0475 28.5296 25.2511L28.7331 24.066C28.622 24.0104 28.5849 24.0104 28.437 23.9548L27.9743 23.8252C27.8261 23.7881 27.6411 23.7696 27.4371 23.7696C26.8629 23.7696 26.5297 23.7881 26.1782 23.9919C25.993 24.1216 25.7522 24.2883 25.4928 24.5844L25.3446 24.5474L24.1596 25.3805L24.2154 24.9176H22.993L22.2713 29.3613H23.438L23.8636 26.9731C23.8636 26.9731 24.0306 26.6394 24.1044 26.5287C24.3267 26.2509 24.5117 26.2509 24.7523 26.2509H24.8452C24.8063 26.5331 24.7877 26.8177 24.7894 27.1025C24.7894 28.5467 25.604 29.4541 26.8631 29.4541C27.178 29.4541 27.4561 29.4171 27.8817 29.3059L28.0857 28.047C27.7154 28.2505 27.382 28.3432 27.1042 28.3432C26.4192 28.3432 26.0115 27.8247 26.0115 27.0101C26.011 25.8065 26.6223 24.9549 27.4927 24.9549ZM37.3243 23.8995L37.0654 25.4548C36.7876 25.029 36.4541 24.8252 36.0098 24.8252C35.3985 24.8252 34.8247 25.177 34.4728 25.8436V25.8253L33.7323 25.3807L33.8064 24.9178H32.5657L31.8621 29.3615H33.0101L33.3991 26.9733C33.3991 26.9733 33.6952 26.6397 33.7693 26.529C33.9546 26.3067 34.1396 26.2694 34.2878 26.2511C34.1583 26.6214 34.0842 27.0657 34.0842 27.5658C34.0842 28.6768 34.658 29.4173 35.5097 29.4173C35.9357 29.4173 36.2689 29.2691 36.5836 28.9172L36.5282 29.3615H37.6209L38.5096 23.8995H37.3243ZM35.8989 28.3063C35.5099 28.3063 35.3063 28.0102 35.3063 27.436C35.3063 26.5656 35.6766 25.9362 36.2133 25.9362C36.6206 25.9362 36.8246 26.2511 36.8246 26.8066C36.8246 27.6953 36.4544 28.3063 35.8989 28.3063ZM30.548 27.3806C30.4369 27.3619 30.3998 27.3619 30.3257 27.3619C29.6586 27.3619 29.3254 27.621 29.3254 28.0285C29.3254 28.3063 29.4924 28.4916 29.7515 28.4916C30.307 28.4916 30.5293 28.0285 30.548 27.3806ZM31.4737 29.3615H30.4552L30.4922 28.8989C30.2331 29.2504 29.8809 29.4356 29.2703 29.4356C28.6961 29.4356 28.1964 28.9542 28.1964 28.2137C28.1964 27.1585 28.9922 26.5104 30.2514 26.5104C30.3813 26.5104 30.5846 26.5104 30.7515 26.5292C30.7886 26.381 30.8073 26.3252 30.8073 26.2328C30.8073 25.9364 30.5665 25.8438 30.011 25.8438C29.6961 25.8438 29.3074 25.8994 29.0482 25.992L28.9001 26.029L28.826 26.0473L28.9925 25.0475C29.5296 24.8808 29.9186 24.8069 30.3442 24.8069C31.3441 24.8069 31.8625 25.2698 31.8625 26.1214C31.8625 26.3437 31.8996 26.5104 31.8072 26.9918L31.5663 28.5842L31.5293 28.862L31.4923 29.0843L31.4739 29.2325V29.3615H31.4737ZM15.5682 25.8621C15.7905 25.8621 16.1051 25.8806 16.4386 25.9362L16.6053 24.8993C16.2718 24.8623 15.8275 24.8067 15.5682 24.8067C14.2722 24.8067 13.8464 25.5104 13.8464 26.325C13.8464 26.8622 14.0869 27.2507 14.7165 27.5469C15.1794 27.7692 15.2535 27.806 15.2535 28.01C15.2535 28.2874 15.0129 28.4543 14.5683 28.4543C14.2166 28.4543 13.8832 28.3985 13.5129 28.2691L13.3833 29.2872L13.4016 29.3059L13.6239 29.343C13.698 29.3613 13.7906 29.38 13.9202 29.3983C14.1979 29.4171 14.4387 29.4354 14.5869 29.4354C15.8831 29.4354 16.42 28.9357 16.42 27.9542C16.42 27.3433 16.1237 26.9731 15.5496 26.714C15.0497 26.4915 14.9942 26.4549 14.9942 26.2509C14.9942 26.0473 15.2164 25.8621 15.5682 25.8621Z" fill="#1B3771"/>
<path fill-rule="evenodd" clip-rule="evenodd" d="M29.0486 23.7143L28.8446 24.8993C28.4373 24.6956 28.141 24.6032 27.8078 24.6032C26.9374 24.6032 26.3265 25.4548 26.3265 26.6584C26.3265 27.4918 26.7338 27.9915 27.4192 27.9915C27.6966 27.9915 28.0301 27.8991 28.4003 27.714L28.1968 28.9542C27.7707 29.0654 27.4931 29.1212 27.1782 29.1212C25.9192 29.1212 25.1415 28.2137 25.1415 26.7513C25.1415 24.8069 26.2154 23.4366 27.7522 23.4366C27.9557 23.4366 28.1408 23.4552 28.2889 23.4922L28.752 23.6034C28.9004 23.6589 28.9375 23.6775 29.0486 23.7143ZM25.3082 24.5291H25.1971C24.8085 24.5291 24.5862 24.7143 24.2343 25.2511L24.3454 24.5659H23.2898L22.568 29.0098H23.7348C24.1604 26.288 24.2715 25.8251 24.827 25.8251H24.9011C25.0123 25.2881 25.1602 24.8991 25.3455 24.5474L25.3082 24.5291ZM18.6055 28.9542C18.2908 29.0654 18.0315 29.1024 17.7724 29.1024C17.1799 29.1024 16.8464 28.7692 16.8464 28.1213C16.8464 28.0102 16.865 27.8622 16.8835 27.7324L16.9576 27.288L17.0132 26.9365L17.5131 23.8995H18.6611L18.5314 24.5661H19.124L18.9758 25.6586H18.3832L18.0686 27.5103C18.05 27.5844 18.05 27.6402 18.05 27.6955C18.05 27.9178 18.1612 28.0104 18.4388 28.0104C18.5685 28.0104 18.6794 28.0104 18.7535 27.9734L18.6055 28.9542ZM14.1431 25.9733C14.1431 26.529 14.4022 26.9175 15.0133 27.2139C15.4947 27.4362 15.5688 27.5101 15.5688 27.6953C15.5688 27.9732 15.365 28.1026 14.9021 28.1026C14.5504 28.1026 14.2355 28.0472 13.8653 27.9361L13.6985 28.9542L13.7541 28.973L13.9579 29.01C14.0318 29.0283 14.1246 29.0471 14.2726 29.0471C14.5317 29.0841 14.7539 29.0841 14.9021 29.0841C16.124 29.0841 16.6983 28.621 16.6983 27.6029C16.6983 26.9916 16.4577 26.6397 15.8837 26.3623C15.3837 26.14 15.3282 26.0846 15.3282 25.8809C15.3282 25.6403 15.5319 25.5291 15.9022 25.5291C16.1245 25.5291 16.4391 25.5477 16.7355 25.5847L16.902 24.5664C16.6059 24.5108 16.143 24.4737 15.8837 24.4737C14.5875 24.4735 14.1246 25.1587 14.1431 25.9733ZM37.9179 29.01H36.8252L36.881 28.584C36.5661 28.9172 36.2327 29.0654 35.8066 29.0654C34.955 29.0654 34.3995 28.3436 34.3995 27.2327C34.3995 25.7512 35.2699 24.492 36.288 24.492C36.7511 24.492 37.0843 24.6958 37.3994 25.1031L37.6586 23.5478H38.8066L37.9179 29.01ZM36.2142 27.9732C36.7513 27.9732 37.1216 27.3436 37.1216 26.4732C37.1216 25.8992 36.9176 25.6028 36.5103 25.6028C35.9919 25.6028 35.6033 26.2139 35.6033 27.0842C35.6033 27.677 35.8069 27.9732 36.2142 27.9732ZM22.1605 28.9172C21.753 29.0471 21.3827 29.1024 20.9569 29.1024C19.6607 29.1024 18.9941 28.4175 18.9941 27.1028C18.9941 25.5845 19.8459 24.455 21.0125 24.455C21.9753 24.455 22.5861 25.0846 22.5861 26.0659C22.5861 26.3993 22.5491 26.7142 22.4379 27.1769H20.1423C20.1238 27.2327 20.1238 27.2697 20.1238 27.3067C20.1238 27.8252 20.4757 28.0843 21.1422 28.0843C21.568 28.0843 21.9382 28.0102 22.3457 27.8064L22.1605 28.9172ZM21.5124 26.2694V26.0474C21.5124 25.6771 21.3086 25.4734 20.9569 25.4734C20.5867 25.4734 20.3273 25.7512 20.2162 26.2694H21.5124ZM9.71774 29.01H8.56972L9.23635 24.8067L7.7366 29.01H6.94031L6.84769 24.8438L6.14424 29.01H5.07031L5.97753 23.5478H7.64399L7.69956 26.9363L8.81031 23.5478H10.625L9.71774 29.01ZM12.5878 27.0287C12.4767 27.0287 12.4211 27.0104 12.3285 27.0104C11.6804 27.0104 11.3472 27.251 11.3472 27.6953C11.3472 27.9732 11.4953 28.1397 11.7545 28.1397C12.2358 28.1397 12.5693 27.6953 12.5878 27.0287ZM13.4394 29.01H12.4764L12.495 28.5469C12.1986 28.9172 11.8098 29.0841 11.2728 29.0841C10.6433 29.0841 10.2174 28.6027 10.2174 27.8805C10.2174 26.7883 10.9579 26.1587 12.2542 26.1587C12.3838 26.1587 12.5505 26.1773 12.7355 26.1956C12.7726 26.0476 12.7726 25.992 12.7726 25.9179C12.7726 25.6218 12.5688 25.5106 12.0319 25.5106C11.6987 25.5106 11.3282 25.5477 11.0691 25.6218L10.9024 25.6773L10.7912 25.6959L10.9579 24.696C11.532 24.5293 11.9207 24.4737 12.3468 24.4737C13.3466 24.4737 13.8836 24.9181 13.8836 25.7697C13.8836 25.992 13.865 26.1587 13.7909 26.6586L13.5316 28.2327L13.4946 28.5101L13.476 28.7324L13.4575 28.8993L13.4394 29.01ZM30.9188 27.0287C30.789 27.0287 30.7336 27.0104 30.6597 27.0104C29.9931 27.0104 29.6595 27.251 29.6595 27.6953C29.6595 27.9732 29.8264 28.1397 30.0855 28.1397C30.5486 28.1397 30.9001 27.6953 30.9188 27.0287ZM31.7705 29.01H30.8077L30.826 28.5469C30.5299 28.9172 30.1411 29.0841 29.6041 29.0841C28.9745 29.0841 28.5485 28.6027 28.5485 27.8805C28.5485 26.7883 29.289 26.1587 30.5852 26.1587C30.7151 26.1587 30.8818 26.1773 31.0483 26.1956C31.0853 26.0476 31.1041 25.992 31.1041 25.9179C31.1041 25.6218 30.9001 25.5106 30.3636 25.5106C30.0299 25.5106 29.6414 25.5477 29.382 25.6218L29.2339 25.6773L29.1227 25.6959L29.2892 24.696C29.8634 24.5293 30.252 24.4737 30.678 24.4737C31.6779 24.4737 32.1963 24.9181 32.1963 25.7697C32.1963 25.992 32.1963 26.1587 32.1039 26.6586L31.8631 28.2327L31.8261 28.5101L31.789 28.7324L31.7707 28.8993L31.7705 29.01ZM34.8811 24.5291H34.77C34.3814 24.5291 34.1591 24.7143 33.8072 25.2511L33.9183 24.5659H32.8627L32.159 29.0098H33.3071C33.7331 26.288 33.8442 25.8251 34.3997 25.8251H34.4738C34.585 25.2881 34.7329 24.8991 34.9182 24.5474L34.8811 24.5291Z" fill="white"/>
<path d="M19.0744 14.0366H15.4841L17.728 0.246412H21.3187L19.0744 14.0366ZM12.4637 0.246412L9.04088 9.73142L8.63585 7.68893L8.63622 7.68967L7.42814 1.48806C7.42814 1.48806 7.28206 0.246412 5.72502 0.246412H0.0663985L0 0.479912C0 0.479912 1.73042 0.839939 3.75557 2.05614L6.87482 14.037H10.6156L16.3277 0.246412H12.4637ZM40.7033 14.0366H44L41.1257 0.246043H38.2396C36.9068 0.246043 36.5822 1.27374 36.5822 1.27374L31.2275 14.0366H34.9702L35.7186 11.9882H40.2828L40.7033 14.0366ZM36.7526 9.15855L38.6391 3.99792L39.7003 9.15855H36.7526ZM31.5082 3.56264L32.0206 0.601273C32.0206 0.601273 30.4396 0 28.7914 0C27.0098 0 22.7787 0.778705 22.7787 4.56526C22.7787 8.1279 27.7446 8.17217 27.7446 10.0435C27.7446 11.9148 23.2903 11.5795 21.8204 10.3995L21.2866 13.4958C21.2866 13.4958 22.8897 14.2746 25.3391 14.2746C27.7892 14.2746 31.4854 13.006 31.4854 9.55325C31.4854 5.96774 26.4749 5.6339 26.4749 4.07502C26.4753 2.51576 29.9719 2.71606 31.5082 3.56264Z" fill="#2566AF"/>
<path d="M8.63622 7.68929L7.42814 1.48768C7.42814 1.48768 7.28206 0.246029 5.72502 0.246029H0.0663985L0 0.47953C0 0.47953 2.71975 1.04318 5.32847 3.15502C7.82284 5.17353 8.63622 7.68929 8.63622 7.68929Z" fill="#E6A540"/>
</svg>
