<svg width="20" height="20" viewBox="0 0 20 20" fill="none" xmlns="http://www.w3.org/2000/svg">
<g clip-path="url(#clip0_169_6027)">
<path d="M10 0C4.47801 0 1.30844e-05 4.478 1.30844e-05 10C-0.00172903 11.0733 0.170504 12.1398 0.510013 13.158H3.50001V4.744L10 11.244L16.5 4.744V13.158H19.49C19.8284 12.1395 20.0006 11.0732 20 10C20 4.478 15.522 0 10 0Z" fill="#FA6800"/>
<path d="M8.5061 12.74L5.6681 9.90198V15.196H1.4541C3.2101 18.076 6.3801 20 10.0001 20C13.6201 20 16.7901 18.076 18.5441 15.196H14.3301V9.90198L11.4941 12.74L10.0001 14.234L8.5061 12.74Z" fill="#4C4C4C"/>
</g>
<defs>
<clipPath id="clip0_169_6027">
<rect width="20" height="20" fill="white"/>
</clipPath>
</defs>
</svg>
