<?xml version="1.0" encoding="utf-8"?>
<!-- Generator: Adobe Illustrator 18.0.0, SVG Export Plug-In . SVG Version: 6.00 Build 0)  -->
<!DOCTYPE svg PUBLIC "-//W3C//DTD SVG 1.1//EN" "http://www.w3.org/Graphics/SVG/1.1/DTD/svg11.dtd">
<svg version="1.1" id="Слой_1" xmlns="http://www.w3.org/2000/svg" xmlns:xlink="http://www.w3.org/1999/xlink" x="0px" y="0px"
	 viewBox="0 0 314 110" enable-background="new 0 0 314 110" xml:space="preserve">
<g opacity="0.5">
	<defs>
		<rect id="SVGID_1_" width="314" height="110"/>
	</defs>
	<clipPath id="SVGID_2_">
		<use xlink:href="#SVGID_1_"  overflow="visible"/>
	</clipPath>
	<path clip-path="url(#SVGID_2_)" fill="#ffffff" d="M301,55c0-7.2,5.8-13,13-13V7c0-3.9-3.1-7-7-7H7C3.1,0,0,3.1,0,7v35
		c7.2,0,13,5.8,13,13S7.2,68,0,68v35c0,3.9,3.1,7,7,7h300c3.9,0,7-3.1,7-7V68C306.8,68,301,62.2,301,55"/>
	
		<path clip-path="url(#SVGID_2_)" fill="none" stroke="#FFFFFF" stroke-width="0.5" stroke-miterlimit="10" stroke-dasharray="1,1" d="
		M296.8,55.2c0-8.2,5.5-15.1,13-17.3V8.4c0-2.8-2.2-5-5-5H9.2c-2.8,0-5,2.2-5,5V38c7.3,2.3,12.7,9.1,12.7,17.2S11.5,70.2,4.2,72.4
		v29.1c0,2.8,2.2,5,5,5h295.6c2.8,0,5-2.2,5-5V72.5C302.3,70.3,296.8,63.4,296.8,55.2z"/>
</g>
</svg>
