<svg width="179" height="32" viewBox="0 0 179 32" fill="none" xmlns="http://www.w3.org/2000/svg">
<path d="M13.6322 12.3618H8.55586V21.6063C8.55586 22.0894 8.39579 22.4407 8.12139 22.7042C7.82411 22.9677 7.43538 23.0994 6.97807 23.0994C6.49785 23.0994 6.13199 22.9677 5.88046 22.6823C5.62894 22.3968 5.46886 21.9137 5.42315 21.233L0.369629 22.1772C0.575427 23.8021 1.26142 25.0757 2.42762 25.998C3.57095 26.9422 5.10301 27.4033 6.97807 27.4033C8.96747 27.4033 10.5681 26.8763 11.8029 25.8223C13.0148 24.7683 13.6322 23.363 13.6322 21.6063V12.3618Z" fill="white"/>
<path d="M24.8468 12.0322C22.4915 12.0322 20.5022 12.7788 18.9015 14.272C17.3008 15.7651 16.5005 17.5657 16.5005 19.7176C16.5005 21.8696 17.3008 23.6921 18.9015 25.1853C20.5022 26.6784 22.4915 27.4031 24.8468 27.4031C27.1792 27.4031 29.1686 26.6784 30.7692 25.1853C32.3699 23.6921 33.1931 21.8696 33.1931 19.7176C33.1931 17.5657 32.3699 15.7651 30.7692 14.272C29.1686 12.7788 27.1792 12.0322 24.8468 12.0322ZM24.8468 23.0992C23.8864 23.0992 23.0861 22.7918 22.4915 22.1331C21.8741 21.4963 21.5768 20.6838 21.5768 19.7176C21.5768 18.7515 21.8741 17.961 22.4915 17.3022C23.0861 16.6654 23.8864 16.3361 24.8468 16.3361C25.8072 16.3361 26.5846 16.6654 27.202 17.3022C27.7966 17.961 28.1167 18.7515 28.1167 19.7176C28.1167 20.6838 27.7966 21.4963 27.202 22.1331C26.5846 22.7918 25.8072 23.0992 24.8468 23.0992Z" fill="white"/>
<path d="M50.3789 12.3618H44.868L41.9869 17.8514L39.0599 12.3618H33.5491L39.197 22.6603V27.0739H44.5022V22.6603L50.3789 12.3618Z" fill="white"/>
<path d="M87.7377 17.7524H94.2951V21.3253H87.7377V17.7524ZM88.074 23.2589H95.43V27H83.198V12.2879H95.1568V16.029H88.074V23.2589ZM102.599 27L96.3776 12.2879H101.716L106.781 24.7091H103.608L108.82 12.2879H113.696L107.475 27H102.599ZM119.57 17.7524H126.127V21.3253H119.57V17.7524ZM119.906 23.2589H127.262V27H115.03V12.2879H126.989V16.029H119.906V23.2589ZM130.012 27V12.2879H134.09L141.572 21.2413H139.68V12.2879H144.514V27H140.437L132.955 18.0466H134.846V27H130.012ZM154.786 27.3363C152.53 27.3363 150.771 26.7268 149.51 25.5078C148.249 24.2888 147.619 22.5794 147.619 20.3796V12.2879H152.579V20.2324C152.579 21.3534 152.782 22.152 153.188 22.6284C153.595 23.0908 154.141 23.322 154.828 23.322C155.528 23.322 156.075 23.0908 156.467 22.6284C156.873 22.152 157.077 21.3534 157.077 20.2324V12.2879H161.953V20.3796C161.953 22.5794 161.322 24.2888 160.061 25.5078C158.8 26.7268 157.042 27.3363 154.786 27.3363ZM169.607 17.7524H176.164V21.3253H169.607V17.7524ZM169.943 23.2589H177.299V27H165.067V12.2879H177.026V16.029H169.943V23.2589Z" fill="white"/>
<path d="M135.416 8.21089H132.44L131.824 9.92179H131L133.536 3.07821H134.328L136.872 9.92179H136.032L135.416 8.21089ZM135.136 7.42877L133.928 4.07542L132.72 7.42877H135.136Z" fill="white"/>
<path d="M138.507 3.92877V6.31425H141.315V7.15503H138.507V9.92179H137.707V3.07821H141.659V3.92877H138.507Z" fill="white"/>
<path d="M143.586 3.92877V6.31425H146.394V7.15503H143.586V9.92179H142.786V3.07821H146.738V3.92877H143.586Z" fill="white"/>
<path d="M147.864 3.07821H148.664V9.92179H147.864V3.07821Z" fill="white"/>
<path d="M150.34 3.07821H151.14V9.07123H154.172V9.92179H150.34V3.07821Z" fill="white"/>
<path d="M155.09 3.07821H155.89V9.92179H155.09V3.07821Z" fill="white"/>
<path d="M161.135 8.21089H158.159L157.543 9.92179H156.719L159.255 3.07821H160.047L162.591 9.92179H161.751L161.135 8.21089ZM160.855 7.42877L159.647 4.07542L158.439 7.42877H160.855Z" fill="white"/>
<path d="M164.257 3.92877H162.337V3.07821H166.969V3.92877H165.049V9.92179H164.257V3.92877Z" fill="white"/>
<path d="M171.905 9.07123V9.92179H167.841V3.07821H171.793V3.92877H168.641V6.03073H171.449V6.86173H168.641V9.07123H171.905Z" fill="white"/>
<path d="M174.832 10C174.411 10 174.003 9.92179 173.608 9.76536C173.219 9.60242 172.912 9.39385 172.688 9.13966L172.984 8.37709C173.197 8.61173 173.469 8.804 173.8 8.95391C174.136 9.0973 174.48 9.16899 174.832 9.16899C175.296 9.16899 175.643 9.07449 175.872 8.88547C176.101 8.68994 176.216 8.43249 176.216 8.11313C176.216 7.87849 176.152 7.68948 176.024 7.54609C175.901 7.39618 175.747 7.28212 175.56 7.20391C175.379 7.1257 175.12 7.03771 174.784 6.93994C174.363 6.81611 174.021 6.69227 173.76 6.56844C173.504 6.4446 173.283 6.25559 173.096 6.0014C172.915 5.74069 172.824 5.39199 172.824 4.95531C172.824 4.59032 172.901 4.26117 173.056 3.96788C173.216 3.67458 173.456 3.43994 173.776 3.26397C174.096 3.08799 174.493 3 174.968 3C175.299 3 175.624 3.05214 175.944 3.15642C176.264 3.26071 176.539 3.41061 176.768 3.60614L176.504 4.38827C176.269 4.20577 176.019 4.0689 175.752 3.97765C175.485 3.87989 175.224 3.83101 174.968 3.83101C174.515 3.83101 174.173 3.93203 173.944 4.13408C173.72 4.33613 173.608 4.59683 173.608 4.9162C173.608 5.15084 173.672 5.34311 173.8 5.49302C173.928 5.63641 174.085 5.75047 174.272 5.8352C174.464 5.91341 174.723 5.99814 175.048 6.08939C175.469 6.21322 175.808 6.33706 176.064 6.46089C176.32 6.58473 176.539 6.77374 176.72 7.02793C176.907 7.28212 177 7.6243 177 8.05447C177 8.41294 176.92 8.74209 176.76 9.0419C176.6 9.3352 176.357 9.56983 176.032 9.74581C175.707 9.91527 175.307 10 174.832 10Z" fill="white"/>
<path d="M58 27V5H68.4186C70.5023 5 72.293 5.32476 73.7907 5.97429C75.3101 6.62381 76.4822 7.56667 77.307 8.80286C78.1318 10.0181 78.5442 11.4638 78.5442 13.14C78.5442 14.7952 78.1318 16.2305 77.307 17.4457C76.4822 18.64 75.3101 19.5619 73.7907 20.2114C72.293 20.84 70.5023 21.1543 68.4186 21.1543H61.5814L64.4465 18.5457V27H58ZM71.5 27L66.4326 18.9857H73.3023L79 27H71.5ZM64.4465 19.2057L64 17C66.5 17 69.0157 17.2413 71.0233 15.4971C71.6961 14.9314 72 14.0057 72 13C72 11.9733 71.6729 10.5657 71 10C69 8.5 64.2519 9.59113 61.7111 8.80286L64.4465 7.04286V19.2057Z" fill="url(#paint0_linear_1_2152)"/>
<defs>
<linearGradient id="paint0_linear_1_2152" x1="68.093" y1="-3.17143" x2="68.093" y2="35.1714" gradientUnits="userSpaceOnUse">
<stop stop-color="#F8BF03"/>
<stop offset="1" stop-color="#FFDF58"/>
</linearGradient>
</defs>
</svg>
