<?xml version="1.0" encoding="utf-8"?><svg xmlns="http://www.w3.org/2000/svg" xmlns:xlink="http://www.w3.org/1999/xlink"><symbol viewBox="0 0 36 36" id="arrow" xmlns="http://www.w3.org/2000/svg"><path d="m25.092 10.575-14.85 14.85M14.667 10.5l10.425.073L25.167 21"/></symbol><symbol viewBox="0 0 58 58" id="award" xmlns="http://www.w3.org/2000/svg"><path d="M14.805 33.35 7.25 41.083l6.042 3.625 3.625 6.042 9.422-9.896M31.66 40.854l9.423 9.896 3.625-6.042 6.042-3.625-7.554-7.733"/><path d="M40.962 12.205c6.606 6.606 6.606 17.317 0 23.924-6.607 6.606-17.318 6.606-23.924 0-6.606-6.607-6.606-17.318 0-23.924 6.606-6.607 17.317-6.607 23.924 0"/><path fill-rule="evenodd" clip-rule="evenodd" d="m28.997 30.411 4.343 2.282a1.152 1.152 0 0 0 1.673-1.216l-.83-4.836 3.514-3.422c.684-.667.307-1.83-.638-1.967l-4.854-.705-2.17-4.401a1.151 1.151 0 0 0-2.067 0l-2.17 4.4-4.858.709c-.945.137-1.322 1.3-.638 1.967l3.514 3.422-.829 4.836a1.152 1.152 0 0 0 1.673 1.215l4.342-2.281h-.005v-.003Z"/></symbol><symbol viewBox="0 0 27 18" id="burger" xmlns="http://www.w3.org/2000/svg"><path d="M0 0h27v2H0zM0 8h27v2H0zM0 16h27v2H0z"/></symbol><symbol viewBox="0 0 58 58" id="card" xmlns="http://www.w3.org/2000/svg"><path d="M7.25 21.75h43.5M22.958 31.417h-6.041M26.583 45.917H7.25M21.75 41.083l4.833 4.834-4.833 4.833"/><path d="M7.25 36.25V19.333a7.25 7.25 0 0 1 7.25-7.25h29a7.25 7.25 0 0 1 7.25 7.25v19.334a7.25 7.25 0 0 1-7.25 7.25h-7.25"/></symbol><symbol viewBox="0 0 58 58" id="chip" xmlns="http://www.w3.org/2000/svg"><path d="M45.234 12.766c8.966 8.966 8.966 23.502 0 32.468-8.966 8.966-23.502 8.966-32.468 0-8.966-8.966-8.966-23.502 0-32.468 8.966-8.966 23.502-8.966 32.468 0"/><path d="M45.234 12.766c8.966 8.966 8.966 23.502 0 32.468-8.966 8.966-23.502 8.966-32.468 0-8.966-8.966-8.966-23.502 0-32.468 8.966-8.966 23.502-8.966 32.468 0"/><path d="M39.253 18.747c5.663 5.663 5.663 14.843 0 20.506s-14.843 5.663-20.506 0-5.663-14.843 0-20.506 14.843-5.663 20.506 0"/><path d="M39.253 18.747c5.663 5.663 5.663 14.843 0 20.506s-14.843 5.663-20.506 0-5.663-14.843 0-20.506 14.843-5.663 20.506 0M18.73 8.482l3.793 7.565M35.477 41.953l3.794 7.564M35.477 16.047l3.794-7.565M22.523 41.953l-3.794 7.564M49.517 18.73l-7.564 3.793M16.047 35.477 8.483 39.27M49.517 39.27l-7.564-3.793M16.047 22.523 8.483 18.73"/><path fill-rule="evenodd" clip-rule="evenodd" d="M29 36.25 35.646 29 29 21.75 22.354 29 29 36.25Z"/></symbol><symbol viewBox="0 0 22 22" id="close" xmlns="http://www.w3.org/2000/svg"><path d="m2 1 19.092 19.092-1.414 1.414L.586 2.414z"/><path d="M1 20 20.092.908l1.414 1.414L2.414 21.414z"/></symbol><symbol viewBox="0 0 58 58" id="currency-exchange" xmlns="http://www.w3.org/2000/svg"><path d="M33.833 46.721h6.446a8.054 8.054 0 0 0 8.054-8.054"/><path d="m37.862 50.75-4.029-4.029 4.029-4.026M24.167 11.279H17.72a8.054 8.054 0 0 0-8.054 8.054"/><path d="m20.138 7.25 4.029 4.029-4.029 4.026M9.667 42.898v.297a3.93 3.93 0 0 0 3.93 3.93h4.226a3.93 3.93 0 0 0 .894-7.755l-6.015-1.409a3.924 3.924 0 0 1-3.035-3.823 3.93 3.93 0 0 1 3.93-3.93h4.226a3.93 3.93 0 0 1 3.927 3.93v.297"/><path fill-rule="evenodd" clip-rule="evenodd" d="M44.17 27.792h-7.9c-.01 0-.02-.01-.02-.02v-8.289c0-.01.01-.02.02-.02h7.9c2.3 0 4.163 1.864 4.163 4.165 0 2.3-1.863 4.164-4.164 4.164Z"/><path d="M36.25 19.464v-8.589h6.86a4.296 4.296 0 0 1 4.295 4.294c0 2.371-1.935 4.295-4.32 4.295M41.083 10.875V8.458M41.083 30.208v-2.416M15.708 30.208v-2.416M15.708 49.542v-2.417"/></symbol><symbol viewBox="0 0 58 58" id="diagram" xmlns="http://www.w3.org/2000/svg"><path fill-rule="evenodd" clip-rule="evenodd" d="M31.719 35.796a4.077 4.077 0 1 1 4.077 4.077 4.057 4.057 0 0 1-4.077-4.046v-.031Z"/><path d="m32.915 32.915-7.83-7.83M38.69 32.915l7.807-7.83"/><path fill-rule="evenodd" clip-rule="evenodd" d="M26.281 22.204a4.078 4.078 0 0 1-8.156 0 4.077 4.077 0 0 1 4.08-4.079 4.057 4.057 0 0 1 4.076 4.046v.033Z"/><path d="m11.503 32.915 7.806-7.83"/><path fill-rule="evenodd" clip-rule="evenodd" d="M53.469 22.204a4.078 4.078 0 1 1-4.08-4.077 4.057 4.057 0 0 1 4.077 4.046c.003.01.003.02.003.031ZM4.531 35.796a4.078 4.078 0 1 1 4.08 4.077 4.057 4.057 0 0 1-4.077-4.046c-.003-.01-.003-.02-.003-.031Z"/><path d="M7.465 31.902A22.113 22.113 0 0 1 7.25 29C7.25 16.987 16.987 7.25 29 7.25c8.156 0 15.256 4.497 18.978 11.14M10.022 39.61C13.744 46.251 20.844 50.75 29 50.75c12.013 0 21.75-9.737 21.75-21.75 0-.986-.09-1.95-.215-2.902"/></symbol><symbol viewBox="0 0 58 58" id="exchange" xmlns="http://www.w3.org/2000/svg"><path fill-rule="evenodd" clip-rule="evenodd" d="M29.691 53.167H7.596a2.76 2.76 0 0 1-2.763-2.763V36.596a2.76 2.76 0 0 1 2.763-2.763H29.69a2.762 2.762 0 0 1 2.762 2.763v13.809a2.762 2.762 0 0 1-2.762 2.762ZM50.404 24.167H28.31a2.762 2.762 0 0 1-2.762-2.763V7.596a2.762 2.762 0 0 1 2.762-2.763h22.095a2.76 2.76 0 0 1 2.763 2.763v13.808a2.76 2.76 0 0 1-2.763 2.763Z"/><path d="M31.071 11.48v6.04M47.642 11.48v6.04M6.042 20.542l3.625 3.625 3.625-3.625"/><path d="M9.667 24.167v-4.834a7.25 7.25 0 0 1 7.25-7.25M51.958 37.458l-3.625-3.625-3.625 3.625"/><path d="M48.333 33.833v4.834a7.25 7.25 0 0 1-7.25 7.25"/><path fill-rule="evenodd" clip-rule="evenodd" d="M18.642 46.52a3.02 3.02 0 1 0 0-6.04 3.02 3.02 0 0 0 0 6.04ZM39.358 17.52a3.02 3.02 0 1 0 0-6.04 3.02 3.02 0 0 0 0 6.04Z"/><path d="M26.583 39.754a.12.12 0 0 1 .121.121.12.12 0 0 1-.12.12.12.12 0 0 1-.122-.12.12.12 0 0 1 .121-.12M10.704 47.004a.12.12 0 0 1 .12.121.12.12 0 0 1-.12.12.12.12 0 0 1-.121-.12.12.12 0 0 1 .12-.12"/></symbol><symbol viewBox="0 0 58 58" id="game" xmlns="http://www.w3.org/2000/svg"><path fill-rule="evenodd" clip-rule="evenodd" d="M35.351 38.667H22.649c-.58 0-1.14.207-1.58.587l-8.582 7.417c-3.434 2.967-8.695.002-7.924-4.469C5.959 34.1 7.378 25.866 8.792 17.685a9.663 9.663 0 0 1 9.524-8.018h21.37a9.665 9.665 0 0 1 9.525 8.02c1.413 8.181 2.832 16.415 4.229 24.518.77 4.473-4.493 7.436-7.924 4.468l-8.582-7.417a2.42 2.42 0 0 0-1.583-.59Z"/><path d="M14.5 24.167h9.667M19.333 19.333V29M38.664 18.73a.604.604 0 1 0 .005 1.208.604.604 0 0 0-.005-1.209M43.498 23.563a.604.604 0 1 0 .005 1.208.604.604 0 0 0-.005-1.209M38.664 28.396a.604.604 0 1 0 .005 1.208.604.604 0 0 0-.005-1.208M33.83 23.563a.604.604 0 1 0 .005 1.208.604.604 0 0 0-.004-1.209"/></symbol><symbol viewBox="0 0 58 58" id="hand-money" xmlns="http://www.w3.org/2000/svg"><path fill-rule="evenodd" clip-rule="evenodd" d="M14.5 50.75H9.667a2.417 2.417 0 0 1-2.417-2.417v-14.5a2.418 2.418 0 0 1 2.417-2.416H14.5a2.418 2.418 0 0 1 2.417 2.416v14.5A2.418 2.418 0 0 1 14.5 50.75Z"/><path d="M31.417 41.083h5.638a4.826 4.826 0 0 0 2.9-.966l5.838-4.38a3.662 3.662 0 0 1 4.785.341 3.658 3.658 0 0 1 0 5.177l-5.01 5.01a9.676 9.676 0 0 1-4.939 2.643l-7.08 1.417a9.664 9.664 0 0 1-4.242-.102l-6.404-1.6a9.564 9.564 0 0 0-2.342-.29h-3.644"/><path d="M31.417 41.083h3.588a3.66 3.66 0 0 0 3.662-3.66v-.733a3.658 3.658 0 0 0-2.772-3.55l-5.54-1.385a11.335 11.335 0 0 0-9.048 1.568l-4.39 2.927M41.491 12.459a6.859 6.859 0 1 1-9.7 9.699 6.859 6.859 0 0 1 9.7-9.7"/><path d="M35.358 10.573a6.806 6.806 0 0 0-1.902-3.731 6.858 6.858 0 0 0-9.698 9.698 6.845 6.845 0 0 0 6.131 1.885"/></symbol><symbol viewBox="0 0 58 58" id="head-phone" xmlns="http://www.w3.org/2000/svg"><path fill-rule="evenodd" clip-rule="evenodd" d="M45.917 41.083H43.5a2.418 2.418 0 0 1-2.417-2.416V26.583a2.418 2.418 0 0 1 2.417-2.416h2.417A4.832 4.832 0 0 1 50.75 29v7.25a4.832 4.832 0 0 1-4.833 4.833ZM14.5 41.083h-2.417A4.832 4.832 0 0 1 7.25 36.25V29a4.832 4.832 0 0 1 4.833-4.833H14.5a2.418 2.418 0 0 1 2.417 2.416v12.084a2.418 2.418 0 0 1-2.417 2.416Z"/><path d="M44.708 24.167v-1.209C44.708 14.283 37.676 7.25 29 7.25s-15.708 7.033-15.708 15.708v1.209"/><path fill-rule="evenodd" clip-rule="evenodd" d="M30.51 51.354h-3.02a3.022 3.022 0 0 1 0-6.042h3.02a3.022 3.022 0 0 1 0 6.042Z"/><path d="M33.531 48.333h5.136A4.832 4.832 0 0 0 43.5 43.5v-2.417"/></symbol><symbol viewBox="0 0 54 54" id="hieroglyph" xmlns="http://www.w3.org/2000/svg"><g clip-path="url(#ma)"><path fill-rule="evenodd" clip-rule="evenodd" d="M18.563 5.75a1 1 0 0 1 1 1v4.063h12.5a1 1 0 1 1 0 2h-5.774a21.25 21.25 0 0 1-6.2 14.025l-.026.026a19.256 19.256 0 0 0 11.386 4.189l4.782-9.563a1 1 0 0 1 1.788 0l8.429 16.857a.935.935 0 0 1 .019.038l3.365 6.73a1 1 0 1 1-1.789.895l-3.099-6.197H29.305l-3.098 6.197a1 1 0 1 1-1.789-.895l3.365-6.73.02-.038 2.671-5.344a21.25 21.25 0 0 1-11.91-4.78 21.25 21.25 0 0 1-13.502 4.84 1 1 0 1 1 0-2 19.25 19.25 0 0 0 12.002-4.2 21.25 21.25 0 0 1-5.034-7.967 1 1 0 0 1 1.886-.667 19.25 19.25 0 0 0 4.648 7.305l.11-.11a19.25 19.25 0 0 0 5.613-12.611H5.063a1 1 0 1 1 0-2h12.5V6.75a1 1 0 0 1 1-1Zm14.385 26.778-2.643 5.285h13.64l-6.82-13.64-4.158 8.317a1.003 1.003 0 0 1-.02.038Z"/></g><defs><clipPath id="ma"><path d="M0 0h54v54H0z"/></clipPath></defs></symbol><symbol viewBox="0 0 58 58" id="mail" xmlns="http://www.w3.org/2000/svg"><path fill-rule="evenodd" clip-rule="evenodd" d="M11.204 12.192h35.59a3.956 3.956 0 0 1 3.956 3.956v25.704a3.954 3.954 0 0 1-3.954 3.953H11.204a3.952 3.952 0 0 1-3.954-3.953V16.148a3.956 3.956 0 0 1 3.954-3.956Z"/><path d="m7.538 14.681 18.593 13.3a4.835 4.835 0 0 0 5.62.004l18.7-13.337"/></symbol><symbol viewBox="0 0 58 58" id="man" xmlns="http://www.w3.org/2000/svg"><path fill-rule="evenodd" clip-rule="evenodd" d="M29 30.209c5.675 0 10.275-4.6 10.275-10.275 0-5.675-4.6-10.275-10.275-10.275-5.675 0-10.275 4.6-10.275 10.275 0 5.674 4.6 10.275 10.275 10.275Z"/><path d="M9.659 48.341c0-6.008 4.871-10.88 10.88-10.88h6.244M45.924 40.938l-7.253 7.253-4.35-4.351"/></symbol><symbol viewBox="0 0 28 4" id="minus" xmlns="http://www.w3.org/2000/svg"><path d="M2 2h24"/></symbol><symbol viewBox="0 0 58 58" id="money" xmlns="http://www.w3.org/2000/svg"><path d="M21.75 38.425H9.425a4.59 4.59 0 0 1-4.592-4.592V11.842A4.59 4.59 0 0 1 9.425 7.25h36.733a4.59 4.59 0 0 1 4.592 4.592v12.325M14.5 31.417h-2.417M43.5 14.5h-2.417M44.708 48.333a8.458 8.458 0 1 1 0-16.916 8.457 8.457 0 0 1 8.459 8.458 8.457 8.457 0 0 1-8.459 8.458"/><path d="M37.047 36.294C32.572 36.51 29 40.18 29 44.708a8.458 8.458 0 0 0 8.458 8.459c3.376 0 6.267-1.992 7.625-4.853M31.85 19.263a5.742 5.742 0 0 1 0 8.118 5.742 5.742 0 0 1-8.118 0 5.742 5.742 0 0 1 0-8.118 5.738 5.738 0 0 1 8.117 0"/></symbol><symbol viewBox="0 0 28 28" id="plus" xmlns="http://www.w3.org/2000/svg"><path d="M14 2v24M2 14h24"/></symbol><symbol viewBox="0 0 58 58" id="present" xmlns="http://www.w3.org/2000/svg"><path fill-rule="evenodd" clip-rule="evenodd" d="M48.333 19.333H9.667A2.418 2.418 0 0 0 7.25 21.75v4.833A2.418 2.418 0 0 0 9.667 29h38.666a2.418 2.418 0 0 0 2.417-2.417V21.75a2.418 2.418 0 0 0-2.417-2.417Z"/><path d="M29 50.75V19.333M37.932 15.979c-2.605 2.712-6.706 3.354-8.693 3.354"/><path d="M29.24 19.333s-1.195-7.53 1.742-10.585M37.932 15.979c1.919-1.996 1.919-5.234 0-7.23a4.78 4.78 0 0 0-6.948 0M20.068 15.979c2.605 2.712 6.706 3.354 8.693 3.354"/><path d="M28.76 19.333s1.195-7.53-1.742-10.585M20.068 15.979c-1.919-1.996-1.919-5.234 0-7.23a4.78 4.78 0 0 1 6.948 0M45.917 29v19.333A2.418 2.418 0 0 1 43.5 50.75h-29a2.418 2.418 0 0 1-2.417-2.417V29"/></symbol><symbol viewBox="0 0 58 58" id="skype" xmlns="http://www.w3.org/2000/svg"><path fill-rule="evenodd" clip-rule="evenodd" d="M12.414 9.464c3.746-2.705 9.046-2.937 13.034-.624 4.497-.78 9.253-.039 13.267 2.149 4.48 2.406 7.997 6.539 9.635 11.358 1.126 3.26 1.387 6.803.803 10.2 1.44 2.533 1.94 5.583 1.355 8.442-.616 3.154-2.561 6.01-5.249 7.767-3.721 2.504-8.835 2.644-12.714.399-4.318.742-8.871.1-12.777-1.895-4.54-2.281-8.16-6.317-9.932-11.08-1.283-3.403-1.605-7.149-.996-10.73a12.259 12.259 0 0 1-1.32-8.594c.624-2.963 2.417-5.657 4.894-7.392Z"/><path d="M21.94 34.887c.73 2.127 3.609 3.72 7.06 3.72 4.833 0 7.25-2.137 7.25-4.773v.06a4.347 4.347 0 0 0-3.635-4.29L29 29l-3.615-.602a4.351 4.351 0 0 1-3.635-4.292c0-2.636 2.417-4.773 7.25-4.773 3.453 0 6.33 1.593 7.06 3.72"/></symbol><symbol viewBox="0 0 59 58" id="telegram" xmlns="http://www.w3.org/2000/svg"><path d="m28.838 40.856-4.99 4.855a1.61 1.61 0 0 1-2.664-.686L17.86 34.078"/><path d="M34.418 26.407s-6.257 5.645-9.466 8.543c-.96.865-.88 2.387.16 3.154l12.996 9.601c1.279.945 3.106.251 3.437-1.305l6.382-30.08c.31-1.455-1.119-2.67-2.506-2.137L7.926 28.645c-1.104.425-1.05 2.003.078 2.356l9.853 3.074"/></symbol><symbol viewBox="0 0 58 58" id="thumbs-up" xmlns="http://www.w3.org/2000/svg"><path fill-rule="evenodd" clip-rule="evenodd" d="M22.294 37.449h-3.34a1.35 1.35 0 0 1-1.351-1.351v-10.59c0-.747.604-1.351 1.35-1.351h3.34c.748 0 1.352.604 1.352 1.452V36.2c0 .643-.604 1.25-1.351 1.25Z"/><path d="m23.645 34.585 2.615 2.168c.54.45 1.225.696 1.928.696h8.659c1.085 0 2.04-.72 2.34-1.764l1.768-6.192a3.32 3.32 0 0 0-.427-2.753 3.273 3.273 0 0 0-2.726-1.464h-4.024l.012-4.113c.01-3.057-4.005-4.193-5.6-1.586l-4.548 7.446"/><path fill-rule="evenodd" clip-rule="evenodd" d="M30.467 7.905 33.97 6.19a3.338 3.338 0 0 1 4.415 1.436l1.83 3.446a3.344 3.344 0 0 0 2.373 1.723l3.842.675a3.338 3.338 0 0 1 2.729 3.755l-.546 3.862c-.145 1.02.19 2.05.906 2.789l2.711 2.803a3.339 3.339 0 0 1 0 4.642l-2.711 2.804a3.337 3.337 0 0 0-.906 2.789l.546 3.861a3.338 3.338 0 0 1-2.729 3.756l-3.842.674a3.344 3.344 0 0 0-2.373 1.723l-1.83 3.446a3.34 3.34 0 0 1-4.415 1.436l-3.504-1.714a3.339 3.339 0 0 0-2.931 0l-3.505 1.714a3.338 3.338 0 0 1-4.415-1.436l-1.83-3.448a3.345 3.345 0 0 0-2.373-1.723l-3.842-.675a3.339 3.339 0 0 1-2.728-3.755l.546-3.862a3.337 3.337 0 0 0-.906-2.789L5.77 31.32a3.339 3.339 0 0 1 0-4.642l2.712-2.804a3.337 3.337 0 0 0 .906-2.789l-.544-3.861a3.334 3.334 0 0 1 2.728-3.754l3.843-.674a3.345 3.345 0 0 0 2.37-1.723l1.83-3.446a3.34 3.34 0 0 1 4.415-1.436l3.505 1.714a3.339 3.339 0 0 0 2.93 0Z"/></symbol><symbol viewBox="0 0 58 58" id="wallet" xmlns="http://www.w3.org/2000/svg"><path fill-rule="evenodd" clip-rule="evenodd" d="M43.498 16.917H14.502c-1.798 0-2.967 1.897-2.158 3.504l1.216 2.416a2.42 2.42 0 0 0 2.16 1.33h26.562c.914 0 1.747-.515 2.158-1.33l1.216-2.416c.81-1.607-.36-3.504-2.158-3.504Z"/><path d="M36.146 14.232c-2.086 2.17-5.365 2.685-6.953 2.685"/><path d="M29.193 16.917s-.954-6.023 1.395-8.468M36.146 14.232c1.535-1.598 1.535-4.188 0-5.786a3.822 3.822 0 0 0-5.558 0M21.854 14.232c2.085 2.17 5.365 2.685 6.953 2.685"/><path d="M28.807 16.917s.954-6.023-1.395-8.468M21.854 14.232c-1.535-1.598-1.535-4.188 0-5.786a3.823 3.823 0 0 1 5.558 0M14.693 23.915c-1.302 2.158-4.345 7.2-6.109 10.126a9.301 9.301 0 0 0 .92 10.868l2.255 2.615a9.297 9.297 0 0 0 7.043 3.226h20.396a9.297 9.297 0 0 0 7.042-3.226l2.255-2.615a9.297 9.297 0 0 0 .918-10.875l-6.106-10.119"/></symbol></svg>