<svg width="95" height="93" viewBox="0 0 95 93" fill="none" xmlns="http://www.w3.org/2000/svg">
<path d="M55.0024 46.0155H50.8644L53.789 43.0872C53.9285 42.9585 54.0406 42.8031 54.1186 42.63C54.1966 42.4569 54.2388 42.2699 54.2426 42.0801C54.2465 41.8903 54.212 41.7016 54.1411 41.5255C54.0703 41.3495 53.9645 41.1895 53.8303 41.0553C53.6961 40.9211 53.5361 40.8155 53.36 40.7446C53.1839 40.6738 52.9953 40.6391 52.8056 40.643C52.6158 40.6468 52.4287 40.6891 52.2557 40.7671C52.0826 40.845 51.9271 40.957 51.7985 41.0966L48.8701 44.0212V39.8832C48.8701 39.5096 48.7216 39.1513 48.4575 38.8871C48.1933 38.6229 47.835 38.4746 47.4614 38.4746C47.0878 38.4746 46.7295 38.6229 46.4654 38.8871C46.2012 39.1513 46.0528 39.5096 46.0528 39.8832V44.0212L43.1243 41.0966C42.8569 40.8501 42.5046 40.7167 42.141 40.7241C41.7773 40.7315 41.4307 40.8792 41.1736 41.1364C40.9164 41.3936 40.7686 41.7402 40.7612 42.1038C40.7538 42.4675 40.8873 42.8198 41.1338 43.0872L44.0584 46.0155H39.9204C39.5468 46.0155 39.1885 46.164 38.9243 46.4282C38.6601 46.6924 38.5117 47.0506 38.5117 47.4243C38.5117 47.7979 38.6601 48.1561 38.9243 48.4203C39.1885 48.6845 39.5468 48.8328 39.9204 48.8328H44.0584L41.1338 51.7613C41.0029 51.892 40.899 52.0471 40.828 52.2179C40.757 52.3888 40.7204 52.572 40.7203 52.757C40.7201 52.942 40.7563 53.1254 40.827 53.2964C40.8976 53.4674 41.0012 53.6226 41.1319 53.7536C41.2626 53.8846 41.4179 53.9886 41.5887 54.0596C41.7596 54.1305 41.9427 54.1671 42.1277 54.1672C42.3127 54.1674 42.496 54.1311 42.667 54.0605C42.838 53.9899 42.9934 53.8864 43.1243 53.7557L46.0528 50.8273V54.9652C46.0528 55.3388 46.2012 55.6972 46.4654 55.9614C46.7295 56.2256 47.0878 56.3739 47.4614 56.3739C47.835 56.3739 48.1933 56.2256 48.4575 55.9614C48.7216 55.6972 48.8701 55.3388 48.8701 54.9652V50.8273L51.7985 53.7557C52.0629 54.0196 52.4214 54.1676 52.7951 54.1672C53.1687 54.1669 53.5269 54.0181 53.7908 53.7536C54.0548 53.4891 54.203 53.1306 54.2026 52.757C54.2023 52.3833 54.0534 52.0253 53.789 51.7613L50.8644 48.8328H55.0024C55.376 48.8328 55.7344 48.6845 55.9985 48.4203C56.2627 48.1561 56.4111 47.7979 56.4111 47.4243C56.4111 47.0506 56.2627 46.6924 55.9985 46.4282C55.7344 46.164 55.376 46.0155 55.0024 46.0155Z" fill="#F2AAC5"/>
<path d="M37.1901 84.4181L35.6283 89.1796L31.8836 87.9513L33.4454 83.1898L34.177 83.4298L32.8389 87.5093L35.1204 88.2577L36.4586 84.1781L37.1901 84.4181Z" fill="#F2AAC5"/>
<path d="M31.8071 82.438L29.7147 86.9914L29.0151 86.6699L31.1075 82.1165L31.8071 82.438ZM29.0102 87.5868C29.1466 87.6495 29.2429 87.75 29.299 87.8882C29.3531 88.0256 29.3502 88.1595 29.2903 88.29C29.2304 88.4204 29.1306 88.5098 28.9911 88.5582C28.8496 88.6057 28.7107 88.5981 28.5743 88.5354C28.438 88.4728 28.3427 88.3727 28.2885 88.2354C28.2324 88.0971 28.2343 87.9627 28.2943 87.8323C28.3542 87.7018 28.4549 87.6129 28.5964 87.5654C28.7359 87.517 28.8739 87.5241 29.0102 87.5868Z" fill="#F2AAC5"/>
<path d="M29.1858 81.1748L26.6302 85.4844L25.968 85.0917L27.0795 83.2175L26.6418 82.958L23.9816 83.9137L23.1287 83.4079L26.0994 82.3633L25.6619 79.0851L26.5148 79.5909L26.8507 82.2475L27.4455 82.6003L28.5237 80.7822L29.1858 81.1748Z" fill="#F2AAC5"/>
<path d="M24.9914 78.5652L24.5404 79.1236L24.3982 79.0088C24.2815 78.9145 24.1658 78.8587 24.051 78.8415C23.9349 78.8261 23.806 78.8575 23.6644 78.936C23.5196 79.0148 23.3499 79.1489 23.155 79.3382C22.9571 79.5278 22.7203 79.7811 22.4447 80.0981L20.9797 81.7664L18.3808 79.6672L21.5297 75.769L22.1286 76.2528L19.4308 79.5927L20.8622 80.7489L22.0465 79.4073C22.3183 79.0985 22.5746 78.84 22.8154 78.6319C23.0532 78.4241 23.2823 78.2737 23.5029 78.1807C23.7217 78.0863 23.9365 78.0557 24.1473 78.0889C24.3581 78.1222 24.5718 78.2263 24.7883 78.4012L24.9914 78.5652Z" fill="#F2AAC5"/>
<path d="M21.5645 73.1623C21.6545 73.2576 21.7269 73.35 21.7815 73.4396C21.8378 73.5278 21.8723 73.5929 21.885 73.635L21.2546 73.9603C21.1604 73.7907 21.0591 73.6581 20.9505 73.5623C20.8419 73.4665 20.7073 73.4179 20.5466 73.4164C20.386 73.4119 20.1806 73.4633 19.9303 73.5706L19.5454 73.736L17.1469 78.5644L16.5706 77.9547L18.5312 74.1896L18.4952 74.1515L14.6257 75.897L14.0494 75.2873L19.7087 72.8782C19.9637 72.7695 20.2018 72.7082 20.4232 72.6943C20.6462 72.679 20.8524 72.7111 21.0418 72.7906C21.2297 72.8685 21.4039 72.9924 21.5645 73.1623Z" fill="#F2AAC5"/>
<path d="M13.8025 71.0642L14.3831 70.6423L15.8329 72.6377L15.2522 73.0595L13.8025 71.0642ZM12.2448 70.1635L12.6973 70.7864C12.5471 70.9681 12.4602 71.1926 12.4365 71.4598C12.4099 71.7265 12.4962 71.9971 12.6957 72.2716C12.8721 72.5144 13.0901 72.6813 13.3498 72.7722C13.6064 72.8627 13.8861 72.8759 14.189 72.8117C14.4889 72.7471 14.7919 72.6036 15.098 72.3811C15.4113 72.1536 15.6482 71.9062 15.8089 71.6389C15.9683 71.3698 16.0463 71.098 16.0431 70.8235C16.0386 70.5471 15.9469 70.2858 15.7679 70.0395C15.6503 69.8776 15.5154 69.7511 15.3632 69.6601C15.211 69.569 15.0489 69.5161 14.8768 69.5013C14.7048 69.4865 14.5308 69.5134 14.3549 69.5821L13.9023 68.9592C14.1672 68.8205 14.446 68.751 14.7388 68.7507C15.0285 68.7499 15.3122 68.822 15.5897 68.9672C15.8642 69.1119 16.1101 69.3338 16.3274 69.6329C16.601 70.0095 16.7487 70.3996 16.7704 70.8032C16.7903 71.2081 16.6963 71.6004 16.4882 71.98C16.2784 72.361 15.9659 72.7023 15.5506 73.004C15.1459 73.2981 14.732 73.4832 14.3088 73.5594C13.8844 73.6339 13.4843 73.5993 13.1084 73.4557C12.7312 73.3103 12.4097 73.0547 12.1438 72.6887C11.9367 72.4036 11.8028 72.1084 11.7422 71.8029C11.6816 71.4975 11.6933 71.2027 11.7772 70.9186C11.8611 70.6345 12.017 70.3828 12.2448 70.1635Z" fill="#F2AAC5"/>
<path d="M12.2304 65.0632L7.90347 65.3348L7.56739 64.6859L13.0134 64.3049L13.3014 64.8612L9.82993 69.0545L9.49985 68.4172L12.2304 65.0632ZM9.61388 68.6374L14.0636 66.3328L14.4177 67.0165L9.96797 69.3211L9.61388 68.6374ZM12.2512 62.8333L7.80145 65.1378L7.44736 64.4542L11.8971 62.1496L12.2512 62.8333Z" fill="#F2AAC5"/>
<path d="M11.0428 59.1225C11.1835 59.5525 11.2046 59.9632 11.1062 60.3547C11.007 60.7441 10.8033 61.09 10.4948 61.3923C10.1858 61.6926 9.78522 61.9232 9.29325 62.0842C8.79715 62.2465 8.33467 62.2983 7.90581 62.2395C7.47628 62.1787 7.10642 62.0206 6.79626 61.7651C6.48542 61.5075 6.25965 61.1637 6.11895 60.7338C5.97825 60.3038 5.95746 59.8941 6.05658 59.5047C6.15503 59.1132 6.35983 58.767 6.67099 58.4661C6.98147 58.1631 7.38477 57.9304 7.88087 57.7681C8.37284 57.6071 8.83256 57.5573 9.26003 57.6188C9.68682 57.6783 10.0556 57.8368 10.3665 58.0943C10.6766 58.3498 10.9021 58.6926 11.0428 59.1225ZM10.3854 59.3376C10.2786 59.011 10.1069 58.7697 9.87048 58.6136C9.63405 58.4576 9.36283 58.3736 9.05683 58.3616C8.75083 58.3496 8.43866 58.3956 8.12033 58.4998C7.80199 58.604 7.52194 58.7517 7.28016 58.9429C7.03838 59.1342 6.86724 59.363 6.76673 59.6293C6.66623 59.8956 6.66941 60.1921 6.77629 60.5187C6.88316 60.8453 7.05585 61.0863 7.29435 61.2416C7.53284 61.397 7.80613 61.4804 8.1142 61.4917C8.42227 61.503 8.73547 61.4566 9.0538 61.3524C9.37213 61.2482 9.65115 61.1009 9.89087 60.9103C10.1306 60.7197 10.2997 60.4916 10.3981 60.226C10.4965 59.9603 10.4923 59.6642 10.3854 59.3376Z" fill="#F2AAC5"/>
<path d="M9.69727 53.5252C9.7799 53.9877 9.74186 54.4054 9.58315 54.7784C9.42444 55.1514 9.16952 55.4621 8.81841 55.7104C8.46729 55.9588 8.04551 56.1269 7.55307 56.2149C7.05206 56.3044 6.59349 56.2913 6.17734 56.1757C5.75867 56.0583 5.41157 55.853 5.13603 55.5597C4.85796 55.2647 4.67915 54.8946 4.59958 54.4492C4.53761 54.1024 4.54599 53.7783 4.62472 53.477C4.70346 53.1757 4.84257 52.9156 5.04205 52.6966C5.24153 52.4775 5.4916 52.3191 5.79227 52.2212L5.92768 52.9791C5.7132 53.0771 5.53704 53.2411 5.39919 53.4712C5.25881 53.6996 5.21846 53.9807 5.27814 54.3147C5.33093 54.6102 5.45429 54.8555 5.64823 55.0506C5.83965 55.244 6.08562 55.3779 6.38614 55.4524C6.68414 55.5251 7.01942 55.5281 7.39196 55.4616C7.77307 55.3935 8.09422 55.2742 8.35542 55.1038C8.61623 54.9313 8.80509 54.7208 8.92198 54.4724C9.03849 54.2218 9.06997 53.9466 9.01642 53.6468C8.98122 53.4499 8.91503 53.2772 8.81782 53.1289C8.72062 52.9805 8.59784 52.8622 8.44948 52.7738C8.30113 52.6854 8.13282 52.6337 7.94455 52.6188L7.80914 51.8608C8.10797 51.8516 8.38919 51.9107 8.65278 52.0382C8.91385 52.1639 9.13758 52.3526 9.32395 52.6043C9.5078 52.8542 9.63224 53.1612 9.69727 53.5252Z" fill="#F2AAC5"/>
<path d="M6.0034 50.2274L5.93928 48.7934C5.91305 48.2067 6.04183 47.7514 6.32561 47.4274C6.60939 47.1034 6.97942 46.9312 7.4357 46.9108C7.73555 46.8973 8.01134 46.9547 8.26309 47.0828C8.51265 47.2109 8.71625 47.4065 8.87387 47.6694C9.02932 47.9324 9.11579 48.2595 9.13328 48.6506L9.22712 50.7495L4.22102 50.9733L4.18663 50.2042L8.47571 50.0124L8.41626 48.6826C8.40266 48.3785 8.31109 48.1322 8.14156 47.9438C7.97203 47.7555 7.76125 47.6669 7.5092 47.6782C7.24412 47.69 7.0323 47.7975 6.87374 48.0005C6.71518 48.2035 6.6427 48.4571 6.6563 48.7613L6.72042 50.1954L6.0034 50.2274Z" fill="#F2AAC5"/>
<path d="M9.36535 42.6917L4.42559 41.8491L5.08826 37.9642L10.028 38.8068L9.89855 39.5658L5.66632 38.8439L5.26257 41.2108L9.49481 41.9327L9.36535 42.6917Z" fill="#F2AAC5"/>
<path d="M12.2588 37.7025L5.72194 35.5242L5.9571 34.8185L6.7123 35.0701L6.74118 34.9835C6.67652 34.9023 6.59604 34.793 6.49974 34.6554C6.40207 34.5151 6.33259 34.3384 6.2913 34.1252C6.24864 33.9092 6.27888 33.6465 6.38202 33.337C6.51541 32.9367 6.73307 32.6172 7.03499 32.3785C7.3369 32.1398 7.70004 31.996 8.12439 31.9472C8.54875 31.8983 9.0106 31.957 9.50995 32.1234C10.0134 32.2912 10.4213 32.5223 10.7336 32.8166C11.0438 33.1103 11.2495 33.4425 11.3506 33.8132C11.4497 34.1832 11.4332 34.5663 11.3012 34.9625C11.1994 35.2678 11.0674 35.4955 10.9051 35.6455C10.7407 35.7947 10.577 35.8972 10.414 35.9529C10.249 36.008 10.1142 36.0479 10.0096 36.0727L9.98899 36.1346L12.5022 36.9721L12.2588 37.7025ZM8.33827 35.5982C8.6973 35.7179 9.03157 35.7708 9.34107 35.757C9.6485 35.7425 9.91329 35.66 10.1354 35.5093C10.3555 35.358 10.5144 35.1358 10.612 34.8428C10.7138 34.5375 10.7182 34.2558 10.6253 33.9979C10.5311 33.7372 10.3639 33.5096 10.1239 33.315C9.88247 33.1176 9.59255 32.9625 9.25415 32.8498C8.91988 32.7384 8.60144 32.6896 8.29881 32.7034C7.99481 32.7144 7.73003 32.7969 7.50445 32.951C7.27749 33.1024 7.11244 33.3328 7.0093 33.6423C6.91029 33.9394 6.9024 34.2142 6.98565 34.4666C7.06683 34.7183 7.22435 34.9405 7.45821 35.133C7.69001 35.3249 7.98336 35.48 8.33827 35.5982Z" fill="#F2AAC5"/>
<path d="M13.5316 29.7727C13.3247 30.175 13.0475 30.4788 12.6999 30.684C12.3532 30.8873 11.964 30.9856 11.5322 30.9788C11.1014 30.97 10.6558 30.8473 10.1954 30.6106C9.73119 30.3719 9.36922 30.0794 9.10951 29.7331C8.85079 29.3849 8.70326 29.0107 8.66691 28.6105C8.63156 28.2084 8.71731 27.8061 8.92416 27.4038C9.13102 27.0015 9.40777 26.6987 9.7544 26.4954C10.102 26.2901 10.4922 26.1924 10.925 26.2021C11.3587 26.2099 11.8077 26.3332 12.2719 26.5719C12.7323 26.8086 13.0909 27.1005 13.3477 27.4478C13.6054 27.7931 13.752 28.1668 13.7874 28.5689C13.8237 28.9691 13.7384 29.3704 13.5316 29.7727ZM12.9165 29.4565C13.0736 29.1508 13.1246 28.8591 13.0693 28.5813C13.0141 28.3034 12.8832 28.0515 12.6766 27.8254C12.47 27.5993 12.2178 27.4097 11.9199 27.2566C11.622 27.1034 11.3201 27.0081 11.0141 26.9706C10.7081 26.9331 10.4251 26.9723 10.165 27.088C9.90498 27.2038 9.69639 27.4144 9.53926 27.72C9.38213 28.0257 9.33215 28.3179 9.38932 28.5967C9.44649 28.8756 9.57934 29.1285 9.78786 29.3556C9.99639 29.5826 10.2496 29.7727 10.5475 29.9259C10.8453 30.079 11.1463 30.1739 11.4504 30.2104C11.7544 30.2469 12.0355 30.2067 12.2936 30.09C12.5517 29.9732 12.7594 29.7621 12.9165 29.4565Z" fill="#F2AAC5"/>
<path d="M13.4031 21.7339L12.8456 21.2819L15.4101 18.1195L15.9676 18.5716L14.9319 19.8487L18.2666 22.5529L17.7816 23.1509L14.447 20.4467L13.4031 21.7339Z" fill="#F2AAC5"/>
<path d="M21.333 19.5453C20.9853 19.8785 20.6119 20.0891 20.2127 20.1773C19.8136 20.2624 19.4131 20.2316 19.0112 20.085C18.6094 19.9353 18.2314 19.6757 17.8773 19.3061C17.5231 18.9366 17.2783 18.5463 17.1428 18.1354C17.0074 17.7214 16.9853 17.319 17.0765 16.9282C17.1677 16.5344 17.3761 16.1814 17.7019 15.8692C17.8898 15.6891 18.1054 15.5426 18.3486 15.4297C18.5919 15.3167 18.8562 15.2587 19.1416 15.2556C19.4255 15.2509 19.7224 15.3208 20.0322 15.4655C20.3421 15.6102 20.6583 15.8508 20.981 16.1875L21.2061 16.4224L18.425 19.0877L17.9657 18.6085L20.1831 16.4835C19.988 16.2799 19.7732 16.1373 19.5387 16.0556C19.3058 15.9724 19.0707 15.9559 18.8334 16.006C18.5976 16.0547 18.3795 16.1751 18.1791 16.3672C17.9583 16.5788 17.8198 16.8167 17.7635 17.0809C17.7073 17.342 17.7195 17.6008 17.7999 17.8571C17.8804 18.1135 18.0159 18.3411 18.2065 18.54L18.5126 18.8594C18.7738 19.1319 19.0421 19.3179 19.3177 19.4173C19.5933 19.5137 19.8629 19.5302 20.1266 19.4667C20.3887 19.4018 20.6318 19.262 20.8557 19.0474C21.0014 18.9078 21.1134 18.7614 21.1918 18.6081C21.2703 18.4518 21.3129 18.2908 21.3194 18.1253C21.3245 17.9582 21.2905 17.7895 21.2175 17.6192L21.8971 17.2563C22.0148 17.492 22.0731 17.7425 22.0721 18.0078C22.0695 18.2716 22.0072 18.5357 21.885 18.8C21.7612 19.0628 21.5772 19.3112 21.333 19.5453Z" fill="#F2AAC5"/>
<path d="M22.7388 9.57288L23.3284 9.72635C23.2908 9.93445 23.208 10.1203 23.08 10.2839C22.952 10.4476 22.7896 10.6078 22.5928 10.7647C22.396 10.9216 22.1763 11.0949 21.9337 11.2846C21.6594 11.497 21.4752 11.7329 21.381 11.9922C21.2869 12.2515 21.2754 12.5369 21.3465 12.8484C21.4177 13.1599 21.564 13.5001 21.7856 13.8691L21.8385 13.8313C21.7942 13.4792 21.8508 13.1562 22.0081 12.8623C22.1655 12.5684 22.3833 12.3219 22.6616 12.1225C22.9788 11.8955 23.3171 11.7651 23.6768 11.7314C24.0364 11.6978 24.3943 11.7733 24.7505 11.958C25.1066 12.1427 25.4373 12.4483 25.7426 12.8746C26.0466 13.2992 26.2332 13.7199 26.3025 14.1366C26.3735 14.5522 26.3332 14.9407 26.1818 15.3024C26.0308 15.661 25.7739 15.9702 25.411 16.2301C25.0481 16.4899 24.6689 16.6322 24.2735 16.6568C23.8768 16.6797 23.4816 16.5763 23.0879 16.3465C22.6929 16.115 22.3163 15.7491 21.958 15.2487L21.6477 14.8154C21.0005 13.9116 20.6631 13.1165 20.6353 12.4302C20.6094 11.7426 20.8999 11.1695 21.5069 10.7108C21.7203 10.5473 21.9137 10.4062 22.0871 10.2874C22.2605 10.1685 22.4037 10.054 22.5167 9.94379C22.6296 9.83358 22.7037 9.70995 22.7388 9.57288ZM25.0098 15.6699C25.2547 15.4945 25.4211 15.2821 25.5089 15.0326C25.5986 14.7819 25.6108 14.5106 25.5458 14.2188C25.4794 13.9251 25.3371 13.6259 25.1189 13.3212C24.907 13.0252 24.6781 12.808 24.4324 12.6695C24.1884 12.5297 23.9383 12.4689 23.6822 12.4871C23.4261 12.5053 23.1738 12.6033 22.9254 12.7812C22.7439 12.9111 22.603 13.0586 22.5027 13.2237C22.4024 13.3888 22.3441 13.5678 22.3277 13.7608C22.3113 13.9538 22.3367 14.1568 22.4039 14.3698C22.473 14.5815 22.5852 14.7997 22.7406 15.0242C23.0661 15.4787 23.4331 15.7661 23.8418 15.8866C24.2505 16.007 24.6399 15.9348 25.0098 15.6699Z" fill="#F2AAC5"/>
<path d="M30.2427 13.2732C29.8146 13.4966 29.3961 13.5948 28.987 13.5678C28.5789 13.538 28.2019 13.3962 27.856 13.1424C27.5111 12.8858 27.2199 12.5299 26.9824 12.0748C26.7449 11.6198 26.6185 11.1755 26.6032 10.7419C26.5888 10.3053 26.6802 9.91169 26.8775 9.56097C27.0756 9.20731 27.3752 8.92583 27.7763 8.71652C28.0076 8.59576 28.2563 8.51508 28.5221 8.47446C28.7879 8.43385 29.0587 8.45201 29.3344 8.52894C29.609 8.60394 29.8753 8.75448 30.1331 8.98056C30.391 9.20664 30.628 9.52696 30.8444 9.94151L30.9953 10.2307L27.5709 12.0179L27.263 11.4279L29.9933 10.003C29.8625 9.75233 29.6956 9.55483 29.4927 9.41048C29.2917 9.26513 29.0699 9.18338 28.8274 9.16521C28.5868 9.14604 28.3431 9.20086 28.0963 9.32967C27.8244 9.47156 27.6244 9.66181 27.4962 9.90043C27.369 10.1361 27.3082 10.3886 27.3138 10.658C27.3195 10.9274 27.3862 11.1845 27.514 11.4294L27.7193 11.8227C27.8944 12.1582 28.1007 12.4125 28.3381 12.5854C28.5765 12.7554 28.8315 12.8468 29.1031 12.8596C29.3738 12.8704 29.647 12.8039 29.9227 12.66C30.102 12.5664 30.2509 12.4568 30.3693 12.3312C30.4887 12.2027 30.5747 12.0596 30.6275 11.9021C30.6792 11.7426 30.6937 11.5707 30.671 11.3862L31.4271 11.2272C31.4744 11.4871 31.4604 11.7446 31.385 11.9998C31.3087 12.2531 31.1747 12.4899 30.983 12.7102C30.7902 12.9285 30.5435 13.1162 30.2427 13.2732Z" fill="#F2AAC5"/>
<path d="M35.7173 10.8738L34.4102 6.03614L38.2148 5.00816L39.5219 9.84578L38.7786 10.0466L37.6587 5.90188L35.3407 6.5282L36.4606 10.6729L35.7173 10.8738Z" fill="#F2AAC5"/>
<path d="M43.2897 9.41598C42.8403 9.46735 42.4337 9.40545 42.07 9.2303C41.7084 9.0549 41.4106 8.78574 41.1765 8.42284C40.9445 8.05969 40.7991 7.62096 40.7404 7.10667C40.6811 6.58806 40.7234 6.12461 40.8671 5.71632C41.0131 5.30779 41.2424 4.9773 41.555 4.72484C41.8699 4.47214 42.252 4.3201 42.7015 4.26874C43.1509 4.21737 43.5564 4.27938 43.918 4.45478C44.2817 4.62994 44.5796 4.90017 44.8118 5.26549C45.0462 5.63055 45.193 6.07239 45.2523 6.59101C45.3111 7.1053 45.2674 7.56563 45.1212 7.972C44.9771 8.37813 44.7477 8.70754 44.4329 8.96024C44.1203 9.2127 43.7392 9.36461 43.2897 9.41598ZM43.2112 8.72881C43.5526 8.68979 43.8235 8.57017 44.0239 8.36995C44.2243 8.16973 44.3612 7.92094 44.4345 7.62361C44.5078 7.32627 44.5254 7.01121 44.4873 6.67843C44.4493 6.34565 44.3609 6.04162 44.2222 5.76632C44.0835 5.49102 43.8938 5.27737 43.6531 5.12537C43.4125 4.97337 43.1214 4.91688 42.78 4.9559C42.4386 4.99492 42.1678 5.11562 41.9676 5.318C41.7675 5.52039 41.6309 5.77133 41.5578 6.07083C41.4848 6.37033 41.4673 6.68647 41.5053 7.01925C41.5434 7.35202 41.6316 7.65498 41.7701 7.92812C41.9086 8.20125 42.098 8.41274 42.3384 8.56258C42.5789 8.71242 42.8698 8.76783 43.2112 8.72881Z" fill="#F2AAC5"/>
<path d="M46.9989 9.05849L47.1318 4.04916L47.9015 4.06958L47.8437 6.24812L48.3524 6.26162L50.2105 4.13085L51.2019 4.15716L49.1159 6.51686L51.0951 9.16719L50.1037 9.14088L48.516 6.98395L47.8246 6.9656L47.7686 9.07892L46.9989 9.05849Z" fill="#F2AAC5"/>
<path d="M53.0715 8.33263L56.1018 4.91692L56.9766 5.06582L56.1358 10.0059L55.3768 9.87668L56.0271 6.05586L53.0096 9.47376L52.122 9.32267L52.9629 4.38262L53.7219 4.51181L53.0715 8.33263Z" fill="#F2AAC5"/>
<path d="M61.7983 7.22337L62.0639 6.55588L65.8504 8.06234L65.5848 8.72984L64.0557 8.12146L62.4671 12.1143L61.7511 11.8294L63.3396 7.83658L61.7983 7.22337Z" fill="#F2AAC5"/>
<path d="M65.8005 12.4429L69.8014 10.2423L70.5755 10.6762L68.1254 15.0475L67.4538 14.671L69.3488 11.2901L65.3592 13.497L64.5738 13.0568L67.0238 8.68548L67.6954 9.06193L65.8005 12.4429Z" fill="#F2AAC5"/>
<path d="M71.7543 17.7337L75.1118 14.0255L78.0281 16.6659L74.6707 20.3742L74.1009 19.8583L76.9775 16.6812L75.2006 15.0724L72.3241 18.2495L71.7543 17.7337Z" fill="#F2AAC5"/>
<path d="M74.439 22.8229L79.7634 18.4495L80.2355 19.0242L79.6204 19.5295L79.6784 19.6001C79.7815 19.5886 79.9169 19.5787 80.0846 19.5704C80.2554 19.5624 80.442 19.5977 80.6444 19.6763C80.85 19.7552 81.0562 19.9206 81.2633 20.1727C81.5311 20.4988 81.6857 20.8531 81.727 21.2358C81.7683 21.6184 81.6966 22.0024 81.5121 22.3876C81.3275 22.7728 81.0318 23.1325 80.6251 23.4666C80.215 23.8034 79.8023 24.0256 79.3869 24.1333C78.9731 24.2395 78.5824 24.2367 78.2148 24.125C77.8488 24.0118 77.5333 23.7939 77.2683 23.4712C77.064 23.2225 76.9415 22.9895 76.901 22.7723C76.8622 22.5537 76.8626 22.3605 76.9022 22.1929C76.9435 22.0239 76.9815 21.8885 77.0162 21.7868L76.9748 21.7364L74.9277 23.4179L74.439 22.8229ZM78.3077 20.6247C78.0152 20.8649 77.7924 21.1197 77.6393 21.389C77.4879 21.6569 77.4168 21.925 77.426 22.1933C77.4369 22.4601 77.5404 22.7129 77.7365 22.9515C77.9408 23.2003 78.1768 23.354 78.4446 23.4127C78.7154 23.4717 78.9971 23.4514 79.2896 23.3518C79.5853 23.2526 79.8709 23.0897 80.1465 22.8633C80.4188 22.6397 80.6296 22.3961 80.7791 22.1326C80.9316 21.8694 81.0027 21.6013 80.9924 21.3283C80.9851 21.0556 80.878 20.7933 80.6709 20.5412C80.4721 20.2991 80.2437 20.1462 79.9857 20.0822C79.7294 20.0169 79.4575 20.032 79.17 20.1274C78.8842 20.2215 78.5967 20.3872 78.3077 20.6247Z" fill="#F2AAC5"/>
<path d="M80.1854 27.6611C80.0213 27.3892 79.9235 27.1116 79.8921 26.8283C79.8625 26.5437 79.9061 26.2773 80.0229 26.0289C80.1416 25.7794 80.3405 25.5703 80.6198 25.4016C80.8655 25.2532 81.094 25.1813 81.3051 25.1859C81.5181 25.1894 81.7173 25.2457 81.9026 25.3548C82.0879 25.464 82.261 25.6033 82.4219 25.773C82.5858 25.9433 82.7409 26.1202 82.8873 26.3037C83.0782 26.5441 83.231 26.7402 83.3455 26.8921C83.4631 27.0447 83.5658 27.1453 83.6536 27.1939C83.7425 27.2444 83.84 27.2375 83.9461 27.1735L83.9685 27.16C84.244 26.9935 84.4126 26.7888 84.4742 26.5458C84.5369 26.3047 84.4766 26.0324 84.2933 25.7289C84.1033 25.4143 83.8854 25.2092 83.6397 25.1137C83.394 25.0182 83.171 24.9813 82.9708 25.0032L82.8164 24.2427C83.1445 24.197 83.4374 24.2234 83.695 24.3218C83.9557 24.421 84.1818 24.564 84.3733 24.7507C84.5678 24.9381 84.7303 25.1398 84.8607 25.3558C84.9439 25.4935 85.0227 25.6619 85.0972 25.8609C85.1746 26.0606 85.2136 26.2746 85.2143 26.5028C85.2161 26.733 85.1492 26.9652 85.0138 27.1994C84.8783 27.4337 84.6402 27.6537 84.2995 27.8595L81.4734 29.5664L81.0753 28.9073L81.6562 28.5565L81.6359 28.523C81.5159 28.5345 81.3713 28.5202 81.2022 28.48C81.0331 28.4399 80.859 28.3557 80.68 28.2275C80.501 28.0994 80.3361 27.9105 80.1854 27.6611ZM80.8382 27.404C80.9956 27.6647 81.1795 27.8534 81.3898 27.9703C81.6013 28.0891 81.8156 28.1452 82.0326 28.1386C82.2508 28.1338 82.4493 28.0775 82.628 27.9695L83.2312 27.6052C83.1808 27.5975 83.113 27.5547 83.0278 27.4766C82.9455 27.3992 82.857 27.3053 82.7623 27.1948C82.6706 27.085 82.5824 26.9769 82.4978 26.8705C82.4162 26.7648 82.3494 26.6794 82.2973 26.6143C82.1715 26.4565 82.0385 26.3183 81.8983 26.1997C81.7611 26.0819 81.6156 26.0071 81.4618 25.9755C81.311 25.9446 81.1519 25.9797 80.9843 26.0809C80.7553 26.2192 80.6333 26.4085 80.6184 26.6488C80.6064 26.8898 80.6797 27.1415 80.8382 27.404Z" fill="#F2AAC5"/>
<path d="M88.23 32.5026L84.2759 34.1754L84.5505 34.8244L82.3992 35.7344L82.0992 35.0253L83.5895 34.3949L82.0795 30.8254L86.6946 28.873L86.9946 29.5821L83.0405 31.2548L83.976 33.4663L87.9301 31.7935L88.23 32.5026Z" fill="#F2AAC5"/>
<path d="M87.4995 37.8492L86.8008 38.0134L86.1949 35.4345L86.8936 35.2703L87.4995 37.8492ZM89.1771 35.4042L84.2988 36.5502L84.1227 35.8006L89.001 34.6546L89.1771 35.4042ZM85.0059 40.0168C84.9025 39.5764 84.9165 39.1654 85.048 38.7837C85.1801 38.4042 85.4126 38.077 85.7457 37.8021C86.0794 37.5294 86.4981 37.3338 87.002 37.2154C87.5102 37.096 87.9754 37.0839 88.3977 37.1791C88.8205 37.2764 89.1754 37.4656 89.4627 37.7466C89.7504 38.0298 89.9459 38.3916 90.0494 38.832C90.1529 39.2724 90.1386 39.6824 90.0066 40.0619C89.875 40.4436 89.6414 40.771 89.3057 41.0443C88.9705 41.3196 88.5488 41.517 88.0406 41.6364C87.5367 41.7548 87.0744 41.765 86.6537 41.6673C86.2336 41.5716 85.8797 41.3822 85.5919 41.099C85.3047 40.8179 85.1094 40.4572 85.0059 40.0168ZM85.6793 39.8586C85.7578 40.1932 85.9083 40.4483 86.1305 40.6239C86.3527 40.7996 86.6158 40.9065 86.9196 40.9446C87.2235 40.9827 87.5385 40.9634 87.8645 40.8868C88.1906 40.8102 88.4822 40.687 88.7395 40.5171C88.9967 40.3472 89.1868 40.1339 89.3096 39.8771C89.4325 39.6204 89.4547 39.3247 89.3761 38.9902C89.2975 38.6556 89.146 38.4008 88.9217 38.2256C88.6973 38.0504 88.4322 37.944 88.1262 37.9064C87.8202 37.8688 87.5042 37.8883 87.1781 37.9649C86.8521 38.0415 86.5615 38.1645 86.3064 38.3339C86.0512 38.5034 85.8633 38.7162 85.7425 38.9724C85.6218 39.2287 85.6007 39.5241 85.6793 39.8586Z" fill="#F2AAC5"/>
<path d="M88.5196 45.0389L87.8038 45.0908L87.6253 42.6309L88.3411 42.579L88.5196 45.0389ZM89.3675 46.626L89.3118 45.858C89.5353 45.7829 89.7276 45.6382 89.8887 45.4237C90.052 45.2112 90.1215 44.9357 90.0969 44.5973C90.0752 44.298 89.9781 44.0412 89.8055 43.8269C89.6353 43.6146 89.4046 43.4558 89.1135 43.3505C88.8247 43.2471 88.4915 43.2092 88.1141 43.2365C87.7279 43.2646 87.3961 43.3497 87.1186 43.492C86.8412 43.6364 86.6315 43.826 86.4893 44.061C86.3473 44.2981 86.2874 44.5685 86.3094 44.8722C86.3239 45.0717 86.3717 45.2503 86.453 45.408C86.5342 45.5657 86.644 45.6962 86.7823 45.7995C86.9206 45.9029 87.0826 45.9718 87.2683 46.0063L87.324 46.7742C87.0259 46.7522 86.7523 46.6642 86.5035 46.5099C86.2569 46.3577 86.0541 46.1468 85.8949 45.877C85.7381 45.6092 85.6463 45.291 85.6196 44.9222C85.5859 44.458 85.6663 44.0487 85.8609 43.6944C86.0576 43.34 86.3445 43.0564 86.7216 42.8437C87.1008 42.6308 87.5464 42.5058 88.0584 42.4686C88.5573 42.4324 89.0066 42.4936 89.4062 42.6521C89.8061 42.8128 90.1277 43.0534 90.3712 43.3737C90.6149 43.6962 90.7531 44.0831 90.7858 44.5343C90.8113 44.8857 90.7692 45.2071 90.6595 45.4986C90.5498 45.79 90.3844 46.0343 90.1631 46.2313C89.9419 46.4284 89.6767 46.5599 89.3675 46.626Z" fill="#F2AAC5"/>
<path d="M90.9351 48.5872L90.8658 49.3572L86.5724 48.9708L86.4021 50.863L90.6955 51.2494L90.6262 52.0193L86.3328 51.6329L86.1625 53.5251L90.4559 53.9115L90.3866 54.6815L85.3755 54.2305L85.924 48.1362L90.9351 48.5872Z" fill="#F2AAC5"/>
<path d="M71.7232 77.6289C64.8503 83.1652 56.2873 86.178 47.4619 86.1651C45.6574 86.1618 43.8553 86.0339 42.0684 85.7823" stroke="#F2AAC5" stroke-width="0.191396" stroke-miterlimit="10"/>
</svg>
