<svg width="16" height="16" viewBox="0 0 16 16" fill="none" xmlns="http://www.w3.org/2000/svg">
<path d="M14.7671 6.75984H11.0685L13.6849 4.18542C13.9055 3.95004 14.0249 3.64009 14.0183 3.32003C14.0117 2.99998 13.8795 2.69483 13.6494 2.46847C13.4193 2.24211 13.1092 2.11238 12.7839 2.10587C12.4586 2.09936 12.1433 2.21663 11.9041 2.4336L9.28765 5.00802V1.36882C9.30604 1.19604 9.28733 1.02137 9.23272 0.856167C9.1781 0.690967 9.08882 0.539061 8.97064 0.409986C8.85247 0.280911 8.70806 0.177251 8.54674 0.10661C8.38543 0.0359678 8.21083 0 8.03426 0C7.85769 0 7.68308 0.0359678 7.52177 0.10661C7.36046 0.177251 7.21605 0.280911 7.09787 0.409986C6.9797 0.539061 6.89041 0.690967 6.8358 0.856167C6.78118 1.02137 6.76244 1.19604 6.78083 1.36882V5.00802L4.16439 2.4336C3.92515 2.21663 3.60991 2.09936 3.2846 2.10587C2.9593 2.11238 2.64915 2.24211 2.41908 2.46847C2.18901 2.69483 2.05685 2.99998 2.05023 3.32003C2.04362 3.64009 2.16306 3.95004 2.38359 4.18542L5.00002 6.75984H1.26029C0.926045 6.75984 0.605483 6.89057 0.369137 7.1231C0.13279 7.35564 0 7.67082 0 7.99967C0 8.32852 0.13279 8.64371 0.369137 8.87624C0.605483 9.10877 0.926045 9.2395 1.26029 9.2395H4.9726L2.35616 11.8139C2.12027 12.0464 1.98778 12.3613 1.98778 12.6898C1.98778 13.0183 2.12027 13.3333 2.35616 13.5657C2.47163 13.6828 2.61016 13.7756 2.76326 13.8382C2.91635 13.9008 3.08084 13.9318 3.2466 13.9297C3.5807 13.9293 3.90096 13.7984 4.137 13.5657L6.75344 10.992V14.6305C6.73506 14.8033 6.75376 14.978 6.80837 15.1432C6.86299 15.3084 6.95227 15.4609 7.07045 15.59C7.18862 15.7191 7.33308 15.8221 7.49439 15.8927C7.6557 15.9634 7.83027 16 8.00683 16C8.1834 16 8.35801 15.9634 8.51932 15.8927C8.68063 15.8221 8.82505 15.7191 8.94322 15.59C9.0614 15.4609 9.15072 15.3084 9.20534 15.1432C9.25995 14.978 9.27865 14.8033 9.26027 14.6305V10.992L11.8767 13.5657C12.1128 13.7984 12.433 13.9293 12.7671 13.9297C12.9326 13.9302 13.0967 13.8987 13.2495 13.8362C13.4024 13.7737 13.5411 13.6815 13.6575 13.5657C13.8934 13.3333 14.0259 13.0183 14.0259 12.6898C14.0259 12.3613 13.8934 12.0464 13.6575 11.8139L11.0411 9.2395H14.7397C15.074 9.2395 15.3945 9.10877 15.6309 8.87624C15.8672 8.64371 16 8.32852 16 7.99967C16 7.67082 15.8672 7.35564 15.6309 7.1231C15.3945 6.89057 15.074 6.75984 14.7397 6.75984H14.7671Z" fill="#F2AAC5"/>
</svg>
