<svg width="41" height="45" viewBox="0 0 41 45" fill="none" xmlns="http://www.w3.org/2000/svg">
<path d="M40.3 24.519C28.7701 25.849 20.9799 33.4589 20.1499 44.6689C18.9599 33.5489 10.94 25.609 0 24.519C11.07 23.459 19.4099 15.4091 20.1499 4.36914C21.2499 15.4091 29 22.999 40.3 24.519Z" fill="#5450EA"/>
<path d="M40.3501 6.64014C36.5501 7.08014 33.9802 9.59027 33.7102 13.2803C33.5711 11.5657 32.8267 9.95613 31.6104 8.73975C30.394 7.52336 28.7849 6.77924 27.0703 6.64014C28.7965 6.53365 30.4241 5.79958 31.647 4.57666C32.8699 3.35374 33.6037 1.72618 33.7102 0C33.8493 1.7146 34.5934 3.32414 35.8098 4.54053C37.0262 5.75692 38.6355 6.50103 40.3501 6.64014Z" fill="#5450EA"/>
</svg>
