<svg width="16" height="16" viewBox="0 0 16 16" fill="none" xmlns="http://www.w3.org/2000/svg">
<path d="M1 3.2C1 2.88174 1.12292 2.57652 1.34171 2.35147C1.5605 2.12643 1.85725 2 2.16667 2H13.8333C14.1428 2 14.4395 2.12643 14.6583 2.35147C14.8771 2.57652 15 2.88174 15 3.2C15 3.51826 14.8771 3.82348 14.6583 4.04853C14.4395 4.27357 14.1428 4.4 13.8333 4.4H2.16667C1.85725 4.4 1.5605 4.27357 1.34171 4.04853C1.12292 3.82348 1 3.51826 1 3.2ZM3.33333 8C3.33333 7.68174 3.45625 7.37652 3.67504 7.15147C3.89383 6.92643 4.19058 6.8 4.5 6.8H11.5C11.8094 6.8 12.1062 6.92643 12.325 7.15147C12.5437 7.37652 12.6667 7.68174 12.6667 8C12.6667 8.31826 12.5437 8.62348 12.325 8.84853C12.1062 9.07357 11.8094 9.2 11.5 9.2H4.5C4.19058 9.2 3.89383 9.07357 3.67504 8.84853C3.45625 8.62348 3.33333 8.31826 3.33333 8ZM6.83333 11.6C6.52391 11.6 6.22717 11.7264 6.00838 11.9515C5.78958 12.1765 5.66667 12.4817 5.66667 12.8C5.66667 13.1183 5.78958 13.4235 6.00838 13.6485C6.22717 13.8736 6.52391 14 6.83333 14H9.16667C9.47609 14 9.77283 13.8736 9.99162 13.6485C10.2104 13.4235 10.3333 13.1183 10.3333 12.8C10.3333 12.4817 10.2104 12.1765 9.99162 11.9515C9.77283 11.7264 9.47609 11.6 9.16667 11.6H6.83333Z" fill="black"/>
</svg>
