<svg width="102" height="43" viewBox="0 0 102 43" fill="none" xmlns="http://www.w3.org/2000/svg">
<path d="M95.866 0.326134L95.7838 20.757C94.9422 20.9325 94.0849 21.0213 93.2252 21.0217C91.938 21.0772 90.664 20.7432 89.57 20.0635C88.6764 19.4617 87.9551 18.6376 87.4774 17.6727C86.9872 16.6475 86.6781 15.5455 86.5636 14.4152C86.4356 13.2486 86.3746 12.0756 86.3809 10.902C86.3809 10.1173 86.3809 9.93485 86.3809 8.68474C86.4641 7.23401 86.6875 5.79474 87.0479 4.38692C87.4457 2.98564 87.9404 1.61361 88.5283 0.280687H82.9724C82.0401 2.39461 81.3651 4.61261 80.9621 6.88715C80.825 7.74489 80.7245 8.53866 80.6605 9.29604C80.6605 4.73356 80.5143 0.26242 80.5143 0.26242H74.1726C72.834 6.93501 71.1008 13.5225 68.9822 19.9905C67.374 24.5529 65.5768 26.8372 63.5909 26.8433C62.4852 26.8433 61.9278 26.0313 61.9278 24.4161C61.9221 22.65 62.1557 20.8912 62.6222 19.1876C63.0791 17.5086 63.6183 15.7838 64.2122 14.0318C64.8062 12.2798 65.3545 10.674 65.8388 8.9494C66.3172 7.24758 66.5601 5.48841 66.5607 3.72081C66.62 2.73404 66.3143 1.75987 65.7017 0.983327C65.3305 0.631278 64.888 0.36266 64.4041 0.195809C63.9202 0.0289586 63.406 -0.0323007 62.8964 0.0160279C61.5593 0.088523 60.2894 0.624087 59.3052 1.53069C56.9094 3.87953 54.8381 6.53719 53.1462 9.43304L50.085 14.6799C50.0746 17.4602 49.7683 20.2313 49.1712 22.9469C51.7694 20.432 53.9942 17.5591 55.7779 14.4152C56.6917 12.8731 58.1538 10.3454 58.7752 9.46936C59.2834 8.73572 59.8487 8.04312 60.4657 7.39797C60.1002 8.91272 59.6524 10.4366 59.1224 11.9605C58.5924 13.4843 58.0807 14.981 57.6055 16.4501C57.1303 17.9192 56.6917 19.4156 56.3536 20.9395C56.0165 22.4371 55.8449 23.967 55.8419 25.502C55.7941 27.2534 56.2237 28.9849 57.0847 30.5116C57.5964 31.2723 58.2598 31.9195 59.0333 32.4125C59.8069 32.9055 60.6741 33.2338 61.5805 33.3769C61.8591 33.4621 62.1482 33.508 62.4395 33.5137H63.3533C64.9458 33.5374 66.4935 32.9867 67.7121 31.9625C69.0105 30.8569 70.1079 29.5356 70.956 28.057C71.9104 26.4268 72.7001 24.7058 73.3136 22.9195C73.9533 21.0489 74.5107 19.3152 74.9676 17.7001C74.4193 24.3917 73.2009 29.2584 71.3124 32.3C69.43 35.3295 67.4653 37.0542 63.6457 36.9904C59.826 36.9265 56.9476 33.6962 54.8184 31.4149C52.6871 29.0477 50.3908 26.8339 47.9467 24.7902C48.487 22.9841 48.8452 21.1285 49.0159 19.2513C49.2256 17.2537 49.3293 15.2466 49.3265 13.2381C49.3234 11.6552 49.1981 10.075 48.9519 8.51141C48.7329 7.03354 48.2762 5.60058 47.5995 4.26818C46.9969 3.06906 46.1204 2.02812 45.0409 1.2295C43.866 0.415821 42.458 0.00605921 41.0293 0.0616973C39.5804 0.0487312 38.1381 0.257939 36.7528 0.682132C35.3497 1.12324 34.0373 1.81246 32.8783 2.71698C31.5186 3.78388 30.2915 5.00923 29.2231 6.36696C27.8571 8.07532 26.6085 9.87391 25.4857 11.7506V21.2041C27.6469 17.397 30.1618 13.8011 32.9971 10.4641C35.2085 8.03074 37.3772 6.81407 39.5033 6.81407C40.0909 6.79604 40.6652 6.99055 41.1207 7.36166C41.5742 7.75723 41.9412 8.24161 42.199 8.78499C42.4927 9.43098 42.6898 10.1166 42.7838 10.8198C42.8978 11.6209 42.9558 12.429 42.9574 13.2381C42.9574 14.7072 42.8843 16.1398 42.7472 17.5176C42.6453 18.6787 42.4621 19.8313 42.199 20.9669C39.9978 20.0861 37.6527 19.619 35.2816 19.589C33.5433 19.5659 31.8136 19.8343 30.1643 20.383C28.7151 20.8689 27.3853 21.6555 26.2624 22.6914C25.1705 23.7144 24.3106 24.9589 23.7403 26.3414C23.5667 26.7429 23.2926 27.6007 23.2926 27.6007C23.281 27.2401 23.2475 26.8806 23.1921 26.5241C23.0695 25.8464 22.8606 25.1869 22.5707 24.5621C22.0869 23.488 21.4327 22.499 20.6334 21.633C19.8197 20.7535 18.8617 20.0192 17.8007 19.4614C16.7203 18.8865 15.5311 18.5444 14.31 18.4575L13.3414 18.5943C14.3444 18.4366 15.2804 17.993 16.0371 17.3169C16.7678 16.6726 17.3855 15.9108 17.8647 15.0631C18.3255 14.25 18.6641 13.3737 18.8698 12.4624C19.0626 11.7041 19.1699 10.9267 19.1897 10.1446C19.2509 8.53065 18.8516 6.93273 18.0383 5.53667C17.261 4.29144 16.1668 3.27442 14.8674 2.58933C13.3412 1.79667 11.6911 1.26883 9.98776 1.02877C7.95305 0.715178 5.89671 0.562621 3.83793 0.572526H0V42.3466H5.48276C7.96259 42.3718 10.4362 42.093 12.8479 41.5163C14.8719 41.0411 16.7778 40.1593 18.4495 38.9247C20.0006 37.7486 21.2347 36.2059 22.0407 34.4353C22.4354 33.6217 22.7417 32.7682 22.9545 31.8894C23.0165 33.1002 23.1846 34.3032 23.4571 35.4846C23.7839 36.7776 24.3579 37.9955 25.1476 39.0709C25.9026 40.0796 26.8858 40.8956 28.0169 41.4524C29.3135 42.0594 30.734 42.3562 32.1655 42.3192C33.7262 42.32 35.2742 42.0388 36.7345 41.4889C38.2231 40.9385 39.6213 40.1696 40.8831 39.2077C43.4991 37.2068 45.3215 34.346 46.0278 31.132C45.0591 30.3564 44.1453 29.6356 43.2864 28.9878C42.4436 28.3666 41.5681 27.7908 40.6638 27.263C40.2794 29.4245 39.3342 31.4477 37.9224 33.1305C37.2288 33.8809 36.3775 34.4688 35.4296 34.8521C34.4818 35.2355 33.4607 35.4047 32.4397 35.3478C31.884 35.3726 31.3292 35.2806 30.8114 35.0778C30.2935 34.8751 29.824 34.566 29.4333 34.1707C29.0504 33.7653 28.7523 33.2878 28.5561 32.7661C28.36 32.2444 28.2699 31.6888 28.291 31.132C28.2907 30.3555 28.4204 29.5845 28.6748 28.8508C28.9273 28.1134 29.325 27.434 29.8445 26.8524C30.4081 26.2334 31.1047 25.7498 31.8822 25.438C32.8524 25.0664 33.8865 24.8898 34.9252 24.9181C36.4726 24.9705 37.9918 25.3466 39.3845 26.0222C41.086 26.7969 42.708 27.7351 44.2276 28.8236C45.8398 29.9061 47.3343 31.1537 48.6869 32.5464C50.9085 35.0143 53.4179 37.2079 56.1617 39.08C59.7529 41.4343 63.0517 42.4927 65.6012 42.2463C67.9757 42.1081 70.2558 41.2696 72.1531 39.8372C74.296 38.1494 75.9828 35.9538 77.0602 33.4498C78.4398 30.2984 79.3954 26.9786 79.9021 23.5767C80.3739 20.6748 80.6608 17.7458 80.761 14.8075C80.8483 16.5003 81.1775 18.1718 81.7388 19.7715C82.3254 21.4664 83.2874 23.0072 84.5533 24.2791C85.5995 25.3166 86.8914 26.0732 88.309 26.4784C89.5747 26.8443 90.8841 27.0376 92.2017 27.0532C92.8742 27.0651 93.5465 27.0225 94.2121 26.9255C94.8152 26.8434 95.3634 26.7521 95.8752 26.6609L95.8295 42.1276H101.376L101.522 6.9874V0.362669L95.866 0.326134ZM5.52844 7.27032C6.30517 7.27032 7.18241 7.27039 8.16931 7.34339C9.0961 7.37887 10.0158 7.51966 10.9107 7.76311C11.7163 7.96568 12.4579 8.36736 13.0672 8.93113C13.3794 9.23344 13.6227 9.59932 13.7804 10.004C13.9381 10.4087 14.0065 10.8426 13.981 11.2761C13.9846 11.9915 13.8213 12.698 13.5041 13.3394C13.1869 13.9809 12.7244 14.5397 12.1534 14.9717C10.691 16.0475 8.89424 16.5713 7.0819 16.4501H6.32345C6.04801 16.4515 5.77293 16.4301 5.50103 16.3861L5.52844 7.27032ZM13.8714 33.5776C12.2448 34.7943 9.46385 35.4026 5.52844 35.4026V22.7645C6.65441 22.4943 7.80649 22.3475 8.96431 22.3265C10.1009 22.2985 11.2317 22.4969 12.2905 22.9104C13.1475 23.2481 13.9299 23.7504 14.5933 24.3887C15.1726 24.967 15.6185 25.6646 15.9 26.4327C16.1624 27.1273 16.3016 27.8621 16.3112 28.6044C16.3492 29.5703 16.1461 30.5306 15.7203 31.3987C15.2944 32.2668 14.659 33.0156 13.8714 33.5776Z" fill="#D1EA75"/>
</svg>
