<svg width="73" height="24" viewBox="0 0 73 24" fill="none" xmlns="http://www.w3.org/2000/svg">
<g opacity="0.5" clip-path="url(#clip0_222_562)">
<path fill-rule="evenodd" clip-rule="evenodd" d="M0.00830078 8.39341C0.00830078 15.487 8.73174 15.1323 10.0833 15.6052C11.8034 16.1964 11.6805 19.152 7.74882 19.152C5.66011 19.152 3.93999 18.9156 1.97415 18.3244C1.48268 18.2062 0.991223 17.9698 0.499762 17.8515V23.1717C1.97415 23.8811 7.01162 23.9993 9.10033 23.9993C14.5064 23.9993 19.421 20.4525 18.0695 15.1323C16.718 9.33922 8.8546 9.93035 7.74882 9.33922C6.3973 8.74809 6.3973 7.09292 7.87168 6.50178C9.83753 5.6742 13.7692 6.50178 15.7351 7.09292C16.3494 7.32937 16.9637 7.56582 17.4552 7.68405V2.6003C16.5951 2.36385 16.1037 2.1274 14.3835 1.77272C11.9262 1.29981 10.9433 1.29981 8.48601 1.29981C4.06286 1.29981 0.00830078 4.13725 0.00830078 8.39341ZM19.7896 2.48208V23.7629H26.1786V17.3786C26.3015 17.6151 26.1786 17.4969 26.3015 17.7333L26.9158 18.7973C27.1615 19.2703 27.4073 19.7432 27.653 20.3343C27.8987 20.9254 28.6359 23.0535 28.6359 23.7629H36.3764C36.2536 23.5264 36.1307 23.0535 36.0078 22.6988L34.5335 19.5067C31.4618 13.4772 32.0761 16.6693 34.7792 11.5855C35.2706 10.8762 36.6222 8.15695 36.745 7.21114H29.496C29.2502 8.39341 26.9158 12.2949 26.1786 12.886V1.29981C24.95 1.29981 20.7725 2.48208 19.7896 2.48208ZM58.0007 2.36385V23.7629H64.144V1.29981C63.1611 1.29981 59.3522 2.24562 58.0007 2.36385ZM66.847 2.36385V23.7629H72.9903V1.29981C72.2531 1.29981 67.5842 2.36385 66.847 2.36385ZM37.4822 14.3047V23.7629H43.6255V16.6693C43.6255 13.3589 44.1169 12.0584 47.5572 12.0584V7.09292C46.4514 7.09292 47.4343 6.97469 45.5913 7.09292C43.7484 7.32937 42.3968 7.32937 40.431 8.51163C38.7109 9.57567 37.4822 11.5855 37.4822 14.3047ZM49.4002 23.7629H55.5434V7.32937H49.4002V23.7629ZM49.523 2.71853C49.523 3.66434 49.6459 4.25548 50.3831 4.96484C53.0861 7.56582 57.3864 3.66434 54.5605 0.826905C52.7175 -1.06472 49.523 0.590452 49.523 2.71853Z" fill="white"/>
</g>
<defs>
<clipPath id="clip0_222_562">
<rect width="73" height="24" fill="white"/>
</clipPath>
</defs>
</svg>
