<?xml version="1.0" encoding="utf-8"?><svg xmlns="http://www.w3.org/2000/svg" xmlns:xlink="http://www.w3.org/1999/xlink"><symbol viewBox="0 0 41 41" id="burger" xmlns="http://www.w3.org/2000/svg"><path d="M11.958 13.667H20.5M11.958 20.5h17.083M20.5 27.333h8.541"/></symbol><symbol viewBox="0 0 22 22" id="close" xmlns="http://www.w3.org/2000/svg"><path d="m2 1 19.092 19.092-1.414 1.414L.586 2.414z"/><path d="M1 20 20.092.908l1.414 1.414L2.414 21.414z"/></symbol><symbol viewBox="0 0 24 24" id="deal" xmlns="http://www.w3.org/2000/svg"><path d="M15.592 17.033H20c1.105 0 2-.988 2-2.206V8.57c0-.835-.428-1.6-1.106-1.973l-2.05-1.131A3.697 3.697 0 0 0 17.057 5h-2.134c-1.215 0-2.364.61-3.123 1.656l-.025.035m0 0-1.94 2.675c-.475.655-.427 1.6.11 2.193a1.396 1.396 0 0 0 2.111 0l1.416-1.562 2.29 4.634c.627 1.268 0 2.847-1.27 3.198l-3.53.973a5.48 5.48 0 0 1-3.819-.337l-3.93-1.859C2.477 16.26 2 15.461 2 14.578V8.57c0-.835.428-1.6 1.106-1.973l2.05-1.131A3.697 3.697 0 0 1 6.943 5h1.681c1.241 0 2.398.634 3.149 1.691Z"/></symbol><symbol viewBox="0 0 24 24" id="diamond" xmlns="http://www.w3.org/2000/svg"><path d="M14.126 3h2.826c.607 0 1.185.263 1.589.723l2.922 3.328c.678.773.718 1.925.096 2.744L13.685 20.16a2.11 2.11 0 0 1-3.37 0L2.44 9.795a2.174 2.174 0 0 1 .096-2.744L5.46 3.723C5.863 3.263 6.441 3 7.05 3h3.06m4.017 0 2.127 5.383M14.126 3H10.11m6.143 5.383h5.315m-5.315 0L12 20.763 7.747 8.383m8.506 0H7.747M10.11 3 7.747 8.383m-5.315 0h5.315"/></symbol><symbol viewBox="0 0 32 32" id="exchange" xmlns="http://www.w3.org/2000/svg"><path d="M5.333 17.333v-3a5 5 0 0 1 5-5h16.333l-4-4M26.667 14.667v3a5 5 0 0 1-5 5H5.334l4 4"/></symbol><symbol viewBox="0 0 10 10" id="exchange-small" xmlns="http://www.w3.org/2000/svg"><path d="m7 1 2 2H1M3 9 1 7h8"/></symbol><symbol viewBox="0 0 24 24" id="help" xmlns="http://www.w3.org/2000/svg"><path d="m13.683 10.08.63.407-.63-.406ZM9.25 9a.75.75 0 0 0 1.5 0h-1.5Zm2 4.5a.75.75 0 0 0 1.5 0h-1.5Zm1.5 2.5a.75.75 0 0 0-1.5 0h1.5Zm-1.5 1a.75.75 0 0 0 1.5 0h-1.5Zm10-5A9.25 9.25 0 0 1 12 21.25v1.5c5.937 0 10.75-4.813 10.75-10.75h-1.5ZM12 21.25A9.25 9.25 0 0 1 2.75 12h-1.5c0 5.937 4.813 10.75 10.75 10.75v-1.5ZM2.75 12A9.25 9.25 0 0 1 12 2.75v-1.5C6.063 1.25 1.25 6.063 1.25 12h1.5ZM12 2.75A9.25 9.25 0 0 1 21.25 12h1.5c0-5.937-4.813-10.75-10.75-10.75v1.5ZM13.25 9c0 .25-.073.48-.198.675l1.262.812A2.74 2.74 0 0 0 14.75 9h-1.5Zm-2.5 0c0-.69.56-1.25 1.25-1.25v-1.5A2.75 2.75 0 0 0 9.25 9h1.5ZM12 7.75c.69 0 1.25.56 1.25 1.25h1.5A2.75 2.75 0 0 0 12 6.25v1.5ZM11.25 13v.5h1.5V13h-1.5Zm1.802-3.325a7.594 7.594 0 0 1-.468.628c-.178.22-.386.473-.573.73-.369.507-.761 1.168-.761 1.967h1.5c0-.305.15-.64.474-1.084.159-.219.334-.43.528-.672.187-.232.389-.489.562-.757l-1.262-.812ZM11.25 16v1h1.5v-1h-1.5Z"/></symbol><symbol viewBox="0 0 24 24" id="money" xmlns="http://www.w3.org/2000/svg"><path d="M20 18h-6m6 0a2 2 0 0 1 0 4h-6a2 2 0 1 1 0-4m6 0a2 2 0 0 0 0-4h-.666M14 18a2 2 0 1 1 0-4h5.334m-5.658 8h-3.351c-4.095 0-6.987-4.012-5.692-7.897l1-3A6 6 0 0 1 11.325 7h1.35a6 6 0 0 1 5.693 4.103L19.334 14"/><path d="M14.086 7H9.914L8.513 5.393c-1.373-1.575.229-3.93 2.234-3.283l.928.3c.211.067.439.067.65 0l.928-.3c2.005-.647 3.607 1.708 2.234 3.283L14.086 7Z"/></symbol><symbol viewBox="0 0 17 15" id="scan" xmlns="http://www.w3.org/2000/svg"><path d="M4.632 8.98H2.61c0 1.032-.054 2.061.017 3.08.058.829.92 1.492 1.8 1.515.415.01.83 0 1.238.004.408.004.662.237.65.58-.007.326-.248.563-.629.563-.658 0-1.325.07-1.97-.097-1.379-.352-2.28-1.508-2.3-2.945-.01-.89 0-1.782 0-2.719-.268 0-.51.008-.752 0C.26 8.944 0 8.705 0 8.373c0-.347.249-.566.668-.566h15.67c.413 0 .662.225.662.572 0 .321-.249.559-.626.58-.249.014-.497 0-.787 0v2.067c0 .438.032.88-.064 1.314a3.065 3.065 0 0 1-2.894 2.38c-.425.016-.853.011-1.278 0-.403-.01-.663-.255-.65-.594.01-.317.266-.544.645-.551.399-.008.797 0 1.196 0 1.045-.02 1.85-.808 1.871-1.851.018-.853 0-1.704 0-2.557 0-.054 0-.107-.007-.183h-1.998c-.014.303-.011.614-.046.92-.104.904-.775 1.533-1.68 1.543-1.458.015-2.915.015-4.371 0-.904-.011-1.574-.643-1.674-1.549-.031-.296-.005-.598-.005-.917ZM8.48 6.64H5.1c-.452 0-.506-.051-.502-.493 0-.331-.024-.656.043-.985.17-.841.829-1.45 1.695-1.462 1.443-.021 2.886-.024 4.328 0 .985.015 1.718.765 1.734 1.784.022 1.322.158 1.147-1.073 1.153-.948.006-1.896.002-2.845.002ZM5.005.8c.233 0 .468-.012.7 0 .373.022.615.265.61.59-.005.341-.232.552-.626.56-.393.008-.797 0-1.195.004-1.095.022-1.89.821-1.9 1.906 0 .426.005.852 0 1.278-.009.414-.223.669-.559.687-.37.025-.627-.214-.643-.642-.02-.672-.06-1.35.082-2.012.289-1.32 1.514-2.32 2.871-2.37.22-.007.44 0 .663 0h-.003ZM12.105.8c.947-.055 1.847.179 2.59.899.64.623.893 1.396.916 2.264.01.357.006.715 0 1.072-.007.538-.215.801-.621.795-.38-.005-.58-.275-.585-.785V3.849a1.877 1.877 0 0 0-1.874-1.892c-.398-.01-.797 0-1.195-.004-.363-.007-.632-.249-.641-.558-.01-.309.254-.572.614-.592.246-.01.495-.003.796-.003Z"/></symbol><symbol viewBox="0 0 39 39" id="sent-fast" xmlns="http://www.w3.org/2000/svg"><path d="M14.193 19.702h5.501M3.978 16.559H7.12m-3.143 6.286H7.12m8.57-15.307 17.652 8.82c2.757 1.378 2.757 5.31 0 6.688l-17.651 8.82c-3.14 1.569-6.517-1.657-5.092-4.863l2.572-5.782c.43-.967.43-2.07 0-3.038L10.6 12.4c-1.425-3.205 1.953-6.43 5.092-4.862Z"/></symbol><symbol viewBox="0 0 24 24" id="shield" xmlns="http://www.w3.org/2000/svg"><path d="m9 12 1.753 1.402a1 1 0 0 0 1.377-.122L15 10"/><path d="M10.375 2.722 5.378 4.943c-1.446.643-2.4 2.082-2.308 3.66.36 6.175 2.168 8.893 6.866 12.074a3.686 3.686 0 0 0 4.129 0c4.712-3.197 6.456-5.954 6.847-12.052.102-1.59-.854-3.044-2.31-3.69l-4.977-2.213a4 4 0 0 0-3.25 0Z"/></symbol><symbol viewBox="0 0 24 24" id="time" xmlns="http://www.w3.org/2000/svg"><path d="M12 22c5.523 0 10-4.477 10-10S17.523 2 12 2 2 6.477 2 12"/><path d="M12 22C6.477 22 2 17.523 2 12M13.5 12a1.5 1.5 0 1 1-3 0 1.5 1.5 0 0 1 3 0ZM12 13.5V16m-6-4h4.5"/></symbol><symbol viewBox="0 0 80 55" id="time-stars" xmlns="http://www.w3.org/2000/svg"><path d="M10.52 3.478c.138-.482.822-.482.96 0l1.345 4.67a1.5 1.5 0 0 0 1.026 1.028l4.67 1.344c.483.138.483.822 0 .96l-4.67 1.345a1.5 1.5 0 0 0-1.027 1.026l-1.344 4.67c-.138.483-.822.483-.96 0l-1.344-4.67a1.5 1.5 0 0 0-1.027-1.027l-4.67-1.344c-.483-.138-.483-.822 0-.96l4.67-1.344a1.5 1.5 0 0 0 1.027-1.027l1.344-4.67ZM73.203 43.153c.085-.298.508-.298.594 0l.763 2.651a.928.928 0 0 0 .636.636l2.65.763c.3.085.3.508 0 .594l-2.65.763a.928.928 0 0 0-.636.636l-.763 2.65c-.085.3-.508.3-.594 0l-.763-2.65a.928.928 0 0 0-.636-.636l-2.65-.763c-.3-.085-.3-.508 0-.594l2.65-.763a.928.928 0 0 0 .636-.636l.763-2.65ZM58.709 33.125c0-9.78-7.929-17.708-17.709-17.708s-17.708 7.928-17.708 17.708c0 9.78 7.928 17.708 17.708 17.708H58.71M47.25 10.03A22.933 22.933 0 0 0 41 9.166c-2.167 0-4.263.3-6.25.862"/><path d="M44.125 34.167a3.125 3.125 0 1 1-6.25 0 3.125 3.125 0 0 1 6.25 0ZM41 30v-6.25M49.333 44.583h9.375M53.5 38.333h5.208"/></symbol><symbol viewBox="0 0 24 24" id="transfer" xmlns="http://www.w3.org/2000/svg"><rect x="2" y="2" width="10" height="8" rx="2"/><rect x="12" y="14" width="10" height="8" rx="2"/><path d="m20.414 4 1.293 1.293a1 1 0 0 1 0 1.414L20.414 8M16 6h5.414M3.586 16l-1.293 1.293a1 1 0 0 0 0 1.414L3.586 20M8 18H2.586"/></symbol></svg>