<svg width="24" height="24" viewBox="0 0 24 24" fill="none" xmlns="http://www.w3.org/2000/svg">
<path fill-rule="evenodd" clip-rule="evenodd" d="M5.4375 5.73958C5.4375 3.57072 7.19571 1.8125 9.36458 1.8125C11.5335 1.8125 13.2917 3.57072 13.2917 5.73958C13.2917 7.90845 11.5335 9.66667 9.36458 9.66667C7.19571 9.66667 5.4375 7.90845 5.4375 5.73958ZM9.36458 0C6.1947 0 3.625 2.5697 3.625 5.73958C3.625 8.90947 6.1947 11.4792 9.36458 11.4792C12.5345 11.4792 15.1042 8.90947 15.1042 5.73958C15.1042 2.5697 12.5345 0 9.36458 0ZM1.8125 18.4271C1.8125 17.7874 2.35461 16.9643 3.78893 16.2472C5.16904 15.5571 7.13906 15.1042 9.36458 15.1042C11.5901 15.1042 13.5601 15.5571 14.9402 16.2472C16.3746 16.9643 16.9167 17.7874 16.9167 18.4271C16.9167 19.0667 16.3746 19.8898 14.9402 20.607C13.5601 21.297 11.5901 21.75 9.36458 21.75C7.13906 21.75 5.16904 21.297 3.78893 20.607C2.35461 19.8898 1.8125 19.0667 1.8125 18.4271ZM9.36458 13.2917C6.91869 13.2917 4.65955 13.7854 2.97835 14.626C1.35136 15.4395 0 16.731 0 18.4271C0 20.1231 1.35136 21.4146 2.97835 22.2281C4.65955 23.0687 6.91869 23.5625 9.36458 23.5625C11.8105 23.5625 14.0696 23.0687 15.7508 22.2281C17.3778 21.4146 18.7292 20.1231 18.7292 18.4271C18.7292 16.731 17.3778 15.4395 15.7508 14.626C14.0696 13.7854 11.8105 13.2917 9.36458 13.2917ZM16.9167 10.5729C16.9167 10.0724 17.3224 9.66667 17.8229 9.66667H19.3333V8.15625C19.3333 7.65574 19.7391 7.25 20.2396 7.25C20.7401 7.25 21.1458 7.65574 21.1458 8.15625V9.66667H22.6562C23.1568 9.66667 23.5625 10.0724 23.5625 10.5729C23.5625 11.0734 23.1568 11.4792 22.6562 11.4792H21.1458V12.9896C21.1458 13.4901 20.7401 13.8958 20.2396 13.8958C19.7391 13.8958 19.3333 13.4901 19.3333 12.9896V11.4792H17.8229C17.3224 11.4792 16.9167 11.0734 16.9167 10.5729Z" />
<defs>
<linearGradient id="paint0_linear_169_1815" x1="11.7812" y1="0" x2="11.7813" y2="23.5625" gradientUnits="userSpaceOnUse">
<stop stop-color="#2D59FB"/>
<stop offset="1" stop-color="#3DBDEB"/>
</linearGradient>
</defs>
</svg>
