<svg width="38" height="36" viewBox="0 0 38 36" fill="none" xmlns="http://www.w3.org/2000/svg">
<path d="M19.0116 6.33517L19.1498 6.11244C20.0711 4.62085 21.3083 3.34942 22.7744 2.38794C23.9941 1.56831 25.3872 1.0426 26.8444 0.852089C28.1913 0.650132 29.5657 0.732134 30.879 1.09319C32.1922 1.45425 33.4155 2.08635 34.4699 2.94851C36.1666 4.31629 37.3319 6.23408 37.7643 8.3701C37.9447 9.23074 38.022 10.1095 37.9946 10.9885C37.9822 12.2279 37.8614 13.4638 37.6337 14.6822C37.2437 16.717 36.4012 18.6383 35.1687 20.3037C34.2481 21.5315 33.2201 22.6749 32.097 23.7207C30.6533 25.1106 29.1328 26.4163 27.62 27.7294C24.9476 30.0332 22.2445 32.3369 19.7104 34.7866L19.0116 35.4469C18.9676 35.4175 18.9265 35.3842 18.8887 35.3472C15.8861 32.4905 12.7453 29.7799 9.61983 27.0691C8.23756 25.8712 6.863 24.6653 5.55752 23.3829C4.47964 22.3525 3.50014 21.2238 2.63174 20.0116C1.47234 18.36 0.686232 16.476 0.327964 14.4902C0.0661672 13.0519 -0.0394217 11.5897 0.0130894 10.1287C0.0649826 8.02149 0.810133 5.9899 2.13313 4.34899C3.45613 2.70809 5.28319 1.54917 7.33143 1.05157C8.83241 0.671332 10.4013 0.645672 11.914 0.976202C13.4267 1.30673 14.8417 1.98437 16.0473 2.95601C17.1565 3.82744 18.1028 4.88821 18.8426 6.0892L19.0116 6.33517Z" fill="#D60001"/>
<path d="M32.3504 13.9987C28.5108 14.4441 25.9536 16.9627 25.6772 20.6794C25.5389 18.955 24.7915 17.336 23.5689 16.112C22.3463 14.888 20.7282 14.139 19.0039 13.9987C20.738 13.8933 22.3737 13.1574 23.6029 11.9297C24.832 10.7019 25.5698 9.06698 25.6772 7.33301C26.0381 10.9883 28.6106 13.4996 32.3504 13.9987Z" fill="#F2AAC5"/>
</svg>
