<svg width="24" height="24" viewBox="0 0 24 24" fill="none" xmlns="http://www.w3.org/2000/svg">
<path d="M17.912 5.02972L11.999 10.9427L6.08604 5.02972C5.94382 4.89958 5.75688 4.82933 5.56415 4.8336C5.37142 4.83787 5.18777 4.91634 5.05146 5.05265C4.91515 5.18896 4.83669 5.37261 4.83242 5.56534C4.82814 5.75806 4.8984 5.94501 5.02854 6.08722L10.9385 12.0002L5.02704 17.9117C4.95482 17.9806 4.89708 18.0631 4.85723 18.1546C4.81738 18.246 4.79621 18.3445 4.79498 18.4443C4.79374 18.5441 4.81246 18.6431 4.85004 18.7355C4.88761 18.8279 4.94328 18.9119 5.01378 18.9825C5.08427 19.0531 5.16817 19.1089 5.26053 19.1466C5.3529 19.1843 5.45187 19.2031 5.55163 19.202C5.65139 19.2009 5.74992 19.1799 5.84144 19.1402C5.93296 19.1005 6.01561 19.0428 6.08454 18.9707L11.999 13.0592L17.912 18.9722C18.0543 19.1024 18.2412 19.1726 18.4339 19.1683C18.6267 19.1641 18.8103 19.0856 18.9466 18.9493C19.0829 18.813 19.1614 18.6293 19.1657 18.4366C19.1699 18.2439 19.0997 18.0569 18.9695 17.9147L13.0565 12.0017L18.9695 6.08722C19.0418 6.0184 19.0995 5.93583 19.1393 5.84437C19.1792 5.75291 19.2004 5.6544 19.2016 5.55464C19.2028 5.45489 19.1841 5.35589 19.1465 5.26347C19.109 5.17105 19.0533 5.08708 18.9828 5.01648C18.9123 4.94589 18.8284 4.8901 18.736 4.85239C18.6437 4.81469 18.5447 4.79583 18.4449 4.79692C18.3452 4.79801 18.2467 4.81904 18.1551 4.85876C18.0636 4.89848 17.981 4.9561 17.912 5.02822V5.02972Z" fill="black"/>
</svg>
