<svg width="24" height="24" viewBox="0 0 24 24" fill="none" xmlns="http://www.w3.org/2000/svg">
<path d="M12.0002 6.11444L11.1935 5.27918C9.30007 3.31852 5.82822 3.99512 4.57493 6.46011C3.98654 7.61951 3.85378 9.29343 4.92819 11.4298C5.96322 13.4868 8.11654 15.9506 12.0002 18.6343C15.8838 15.9506 18.036 13.4868 19.0721 11.4298C20.1465 9.2923 20.0149 7.61951 19.4254 6.46011C18.1721 3.99512 14.7002 3.31739 12.8068 5.27805L12.0002 6.11444ZM12.0002 20C-5.25 8.5171 6.68887 -0.445267 11.8021 4.29545C11.8697 4.35778 11.936 4.42238 12.0002 4.48925C12.0636 4.42244 12.1297 4.35817 12.1982 4.29658C17.3103 -0.447534 29.2503 8.51597 12.0002 20Z" fill="#EA481C"/>
<path d="M12.0002 6.11444L11.1935 5.27918C9.30007 3.31852 5.82822 3.99512 4.57493 6.46011C3.98654 7.61951 3.85378 9.29343 4.92819 11.4298C5.96322 13.4868 8.11654 15.9506 12.0002 18.6343C15.8838 15.9506 18.036 13.4868 19.0721 11.4298C20.1465 9.2923 20.0149 7.61951 19.4254 6.46011C18.1721 3.99512 14.7002 3.31739 12.8068 5.27805L12.0002 6.11444Z" fill="#EA481C"/>
</svg>
