<svg width="299" height="208" viewBox="0 0 299 208" fill="none" xmlns="http://www.w3.org/2000/svg">
<path d="M258.169 1.15469C257.42 0.41488 256.41 0 255.357 0H4C1.79086 0 0 1.79086 0 4V204C0 206.209 1.79086 208 4 208H295C297.209 208 299 206.209 299 204V43.1709C299 42.1017 298.572 41.0771 297.811 40.3256L258.169 1.15469Z" fill="#6A54FF"/>
<g opacity="0.15">
<path d="M251.433 124.829L188 15.322L219.508 40.6069L259.783 110.365L251.433 124.829Z" fill="#000001"/>
<path d="M310.979 58.5303L247.86 168.218L254.003 128.289L294.278 58.5303L310.979 58.5303Z" fill="#000001"/>
<path d="M262.058 102.101L285.916 60.7775H238.2L262.058 102.101Z" fill="#000001"/>
<path d="M224.158 40.8049L350.71 40.6237L313.058 55.2681L232.508 55.2681L224.158 40.8049Z" fill="#000001"/>
</g>
</svg>
