<svg width="24" height="24" viewBox="0 0 24 24" fill="none" xmlns="http://www.w3.org/2000/svg">
<path d="M20.0004 18H14.0004M20.0004 18C21.1049 18 22.0004 18.8954 22.0004 20C22.0004 21.1046 21.1049 22 20.0004 22H14.0004C12.8958 22 12.0004 21.1046 12.0004 20C12.0004 18.8954 12.8958 18 14.0004 18M20.0004 18C21.1049 18 22.0004 17.1046 22.0004 16C22.0004 14.8954 21.1049 14 20.0004 14H19.3337M14.0004 18C12.8958 18 12.0004 17.1046 12.0004 16C12.0004 14.8954 12.8958 14 14.0004 14H19.3337M13.6758 22H10.3249C6.22957 22 3.33775 17.9878 4.63281 14.1026L5.63281 11.1026C6.4495 8.65258 8.74233 7 11.3249 7H12.6758C15.2584 7 17.5512 8.65258 18.3679 11.1026L19.3337 14" stroke="#111111" stroke-width="1.5" stroke-linejoin="round"/>
<path d="M14.0859 7L9.91411 7L8.51303 5.39296C7.13959 3.81763 8.74185 1.46298 10.7471 2.10985L11.6748 2.40914C11.8861 2.47728 12.1139 2.47728 12.3252 2.40914L13.2529 2.10985C15.2582 1.46298 16.8604 3.81763 15.487 5.39296L14.0859 7Z" stroke="#111111" stroke-width="1.5" stroke-linejoin="round"/>
</svg>
