<svg width="17" height="15" viewBox="0 0 17 15" fill="none" xmlns="http://www.w3.org/2000/svg">
<path d="M4.63215 8.98087H2.60895C2.60895 10.0124 2.5551 11.0414 2.62552 12.0604C2.68351 12.8889 3.54598 13.5517 4.42668 13.5749C4.84093 13.5857 5.25518 13.5749 5.66363 13.579C6.07208 13.5832 6.32643 13.816 6.31483 14.159C6.30737 14.4846 6.06628 14.7215 5.68517 14.7215C5.02734 14.7215 4.35957 14.792 3.715 14.6254C2.33637 14.2725 1.43413 13.1167 1.41591 11.6801C1.40514 10.7895 1.41591 9.89802 1.41591 8.96099C1.14747 8.96099 0.904722 8.96927 0.6628 8.96099C0.260978 8.94442 0 8.70498 0 8.37275C0 8.02644 0.24855 7.80688 0.667771 7.80688C5.89064 7.80688 11.1138 7.80688 16.3372 7.80688C16.7514 7.80688 17 8.03224 17 8.37938C17 8.70001 16.7514 8.93779 16.3737 8.95933C16.1251 8.97341 15.8766 8.95933 15.5866 8.95933C15.5866 9.65941 15.5866 10.3421 15.5866 11.0256C15.5866 11.4639 15.6189 11.9063 15.5228 12.3396C15.3716 13.0005 15.0055 13.5927 14.4818 14.0234C13.9582 14.4541 13.3065 14.699 12.6288 14.7199C12.2038 14.7356 11.7763 14.7315 11.3505 14.7199C10.9478 14.71 10.6877 14.4647 10.7009 14.1259C10.7109 13.8085 10.9669 13.5824 11.3463 13.5749C11.7448 13.5666 12.1433 13.5749 12.5418 13.5749C13.5874 13.5542 14.3919 12.7671 14.4134 11.724C14.4308 10.8715 14.4134 10.0198 14.4134 9.16728C14.4134 9.11343 14.4134 9.06041 14.406 8.98418H12.4085C12.3944 9.28742 12.3969 9.5981 12.3621 9.90382C12.2585 10.8077 11.5874 11.4365 10.6819 11.4465C9.22425 11.462 7.76719 11.462 6.31069 11.4465C5.40679 11.4357 4.73654 10.8044 4.63712 9.89802C4.60563 9.60225 4.63215 9.29984 4.63215 8.98087Z" fill="#A0A0A0"/>
<path d="M8.48029 6.6391C7.35353 6.6391 6.22676 6.6391 5.1 6.6391C4.64847 6.6391 4.59379 6.58857 4.59793 6.14698C4.59793 5.81557 4.57391 5.4908 4.64102 5.16189C4.81086 4.32096 5.46952 3.71201 6.33613 3.69959C7.77855 3.67887 9.22179 3.67639 10.6642 3.69959C11.6485 3.71533 12.3817 4.46512 12.3983 5.48418C12.4198 6.80563 12.5557 6.63082 11.3254 6.63745C10.3767 6.64325 9.42892 6.6391 8.48029 6.6391Z" fill="#A0A0A0"/>
<path d="M5.00471 0.800077C5.23834 0.800077 5.47281 0.788478 5.70562 0.800077C6.07844 0.822447 6.31954 1.0652 6.31457 1.3908C6.30959 1.73131 6.08259 1.94175 5.68905 1.95004C5.29551 1.95832 4.89203 1.95004 4.49352 1.95418C3.39907 1.97572 2.60454 2.77522 2.59377 3.85973C2.59377 4.28558 2.59874 4.71226 2.59377 5.1381C2.58548 5.55236 2.3709 5.8067 2.03536 5.82493C1.66502 5.84979 1.40819 5.61118 1.39162 5.18284C1.37256 4.51093 1.33114 3.83239 1.47447 3.17125C1.76278 1.85062 2.98814 0.850616 4.34522 0.801734C4.56477 0.794277 4.78515 0.801734 5.00802 0.801734L5.00471 0.800077Z" fill="#A0A0A0"/>
<path d="M12.1047 0.799609C13.0525 0.744928 13.9523 0.978565 14.6946 1.69853C15.3359 2.32156 15.5877 3.09538 15.6109 3.96282C15.6209 4.31991 15.6167 4.67782 15.6109 5.0349C15.6043 5.57343 15.3963 5.83606 14.9896 5.83026C14.6109 5.82529 14.4096 5.5552 14.4046 5.04485C14.4046 4.64634 14.4046 4.24783 14.4046 3.84932C14.4066 3.60187 14.3596 3.35648 14.2664 3.12725C14.1732 2.89803 14.0356 2.68949 13.8615 2.51363C13.6874 2.33777 13.4803 2.19806 13.252 2.10254C13.0237 2.00701 12.7788 1.95756 12.5314 1.95702C12.1329 1.94791 11.7344 1.95702 11.3359 1.95288C10.973 1.94625 10.7045 1.70433 10.6946 1.3953C10.6847 1.08627 10.949 0.822807 11.3094 0.802923C11.5554 0.792152 11.804 0.799609 12.1047 0.799609Z" fill="#A0A0A0"/>
</svg>
