<svg width="80" height="55" viewBox="0 0 80 55" fill="none" xmlns="http://www.w3.org/2000/svg">
<path d="M10.5195 3.47811C10.6583 2.99579 11.3417 2.99579 11.4805 3.47811L12.8245 8.14882C12.9672 8.64494 13.3551 9.03279 13.8512 9.17555L18.5219 10.5195C19.0042 10.6583 19.0042 11.3417 18.5219 11.4805L13.8512 12.8245C13.3551 12.9672 12.9672 13.3551 12.8245 13.8512L11.4805 18.5219C11.3417 19.0042 10.6583 19.0042 10.5195 18.5219L9.17555 13.8512C9.03279 13.3551 8.64494 12.9672 8.14882 12.8245L3.47811 11.4805C2.99579 11.3417 2.99579 10.6583 3.47811 10.5195L8.14882 9.17555C8.64494 9.03279 9.03279 8.64494 9.17555 8.14882L10.5195 3.47811Z" stroke="black"/>
<path d="M73.2025 43.1531C73.2885 42.8545 73.7115 42.8545 73.7975 43.1531L74.5603 45.8041C74.6486 46.1113 74.8887 46.3514 75.1959 46.4397L77.8469 47.2025C78.1455 47.2885 78.1455 47.7115 77.8469 47.7975L75.1959 48.5603C74.8887 48.6486 74.6486 48.8887 74.5603 49.1959L73.7975 51.8469C73.7115 52.1455 73.2885 52.1455 73.2025 51.8469L72.4397 49.1959C72.3514 48.8887 72.1113 48.6486 71.8041 48.5603L69.1531 47.7975C68.8545 47.7115 68.8545 47.2885 69.1531 47.2025L71.8041 46.4397C72.1113 46.3514 72.3514 46.1113 72.4397 45.8041L73.2025 43.1531Z" stroke="black" stroke-width="0.619048"/>
<path d="M58.7087 33.125C58.7087 23.3449 50.7804 15.4167 41.0003 15.4167C31.2203 15.4167 23.292 23.3449 23.292 33.125C23.292 42.905 31.2203 50.8333 41.0003 50.8333H58.7087" stroke="#111111" stroke-width="1.5" stroke-linecap="round"/>
<path d="M47.25 10.0293C45.2632 9.46735 43.1667 9.16666 41 9.16666C38.8333 9.16666 36.7368 9.46735 34.75 10.0293" stroke="#111111" stroke-width="1.5" stroke-linecap="round"/>
<path d="M44.125 34.1667C44.125 35.8925 42.7259 37.2917 41 37.2917C39.2741 37.2917 37.875 35.8925 37.875 34.1667C37.875 32.4408 39.2741 31.0417 41 31.0417C42.7259 31.0417 44.125 32.4408 44.125 34.1667Z" stroke="#111111" stroke-width="1.5"/>
<path d="M41 30V23.75" stroke="#111111" stroke-width="1.5" stroke-linecap="round" stroke-linejoin="round"/>
<path d="M49.333 44.5833L58.708 44.5833" stroke="#111111" stroke-width="1.5" stroke-linecap="round" stroke-linejoin="round"/>
<path d="M53.5 38.3333H58.7083" stroke="#111111" stroke-width="1.5" stroke-linecap="round" stroke-linejoin="round"/>
</svg>
