<svg width="134" height="40" viewBox="0 0 134 40" fill="none" xmlns="http://www.w3.org/2000/svg">
<rect width="134" height="40" rx="4" fill="#0094FF" fill-opacity="0.08"/>
<path d="M29.7791 19.7925C29.7504 16.6076 32.3876 15.0581 32.5082 14.986C31.0146 12.809 28.6997 12.5115 27.8862 12.4878C25.9419 12.2833 24.0559 13.6509 23.0655 13.6509C22.0553 13.6509 20.5301 12.5076 18.8863 12.5412C16.7711 12.5738 14.7922 13.7981 13.7069 15.6994C11.467 19.5761 13.1375 25.273 15.2834 28.4065C16.3569 29.9422 17.6112 31.6547 19.2531 31.5944C20.8593 31.5292 21.4593 30.5717 23.3976 30.5717C25.3182 30.5717 25.8816 31.5944 27.556 31.5559C29.2799 31.5292 30.3652 30.0143 31.4011 28.4658C32.6416 26.7078 33.1398 24.9746 33.1596 24.8856C33.12 24.8718 29.8127 23.6089 29.7791 19.7925ZM26.616 10.4264C27.4799 9.34636 28.071 7.87692 27.9069 6.38574C26.6566 6.44108 25.0928 7.25041 24.1923 8.30678C23.3957 9.23766 22.684 10.7634 22.8678 12.1983C24.2724 12.303 25.7146 11.4897 26.616 10.4264Z" fill="#151C22"/>
<path d="M53.0442 31.3738H50.7994L49.5698 27.511H45.2957L44.1244 31.3738H41.939L46.1745 18.223H48.7899L53.0442 31.3738ZM49.1991 25.8904L48.0871 22.4564C47.9695 22.1056 47.7481 21.2795 47.4239 19.979H47.3843C47.2539 20.5383 47.0453 21.3645 46.7596 22.4564L45.6664 25.8904H49.1991ZM63.9152 26.5159C63.9152 28.1286 63.4773 29.4034 62.6006 30.3392C61.8157 31.1722 60.8401 31.5883 59.6767 31.5883C58.4204 31.5883 57.517 31.1406 56.9684 30.2433V35.2189H54.861V25.0079C54.861 23.995 54.8343 22.9564 54.7829 21.8912H56.6362L56.7539 23.3942H56.7934C57.4962 22.2617 58.5627 21.6955 59.994 21.6955C61.1129 21.6955 62.047 22.1372 62.7943 23.0216C63.5406 23.9081 63.9152 25.0721 63.9152 26.5159ZM61.7683 26.593C61.7683 25.67 61.5607 24.9091 61.1436 24.3093C60.6879 23.6857 60.076 23.3734 59.309 23.3734C58.7891 23.3734 58.3166 23.5474 57.8945 23.8903C57.4715 24.2361 57.1947 24.6877 57.0652 25.2471C57.0074 25.4562 56.9746 25.6715 56.9674 25.8884V27.4705C56.9674 28.1593 57.1789 28.7413 57.602 29.2176C58.025 29.6919 58.5746 29.9301 59.2507 29.9301C60.0444 29.9301 60.6622 29.6228 61.104 29.0131C61.5469 28.4014 61.7683 27.595 61.7683 26.593ZM74.8247 26.5159C74.8247 28.1286 74.3868 29.4034 73.5101 30.3392C72.7243 31.1722 71.7497 31.5883 70.5853 31.5883C69.3289 31.5883 68.4255 31.1406 67.8769 30.2433V35.2189H65.7695V25.0079C65.7695 23.995 65.7428 22.9564 65.6914 21.8912H67.5448L67.6624 23.3942H67.702C68.4038 22.2617 69.4703 21.6955 70.9026 21.6955C72.0205 21.6955 72.9546 22.1372 73.7038 23.0216C74.4491 23.9081 74.8247 25.0721 74.8247 26.5159ZM72.6768 26.593C72.6768 25.67 72.4683 24.9091 72.0511 24.3093C71.5955 23.6857 70.9856 23.3734 70.2185 23.3734C69.6986 23.3734 69.2261 23.5474 68.8021 23.8903C68.379 24.2361 68.1033 24.6877 67.9738 25.2471C67.9095 25.5079 67.8749 25.7204 67.8749 25.8884V27.4705C67.8749 28.1593 68.0874 28.7413 68.5085 29.2176C68.9316 29.691 69.4812 29.9301 70.1592 29.9301C70.954 29.9301 71.5717 29.6228 72.0126 29.0131C72.4554 28.4014 72.6768 27.595 72.6768 26.593ZM87.0222 27.6849C87.0222 28.8045 86.6308 29.7147 85.8529 30.4173C84.9969 31.1841 83.8018 31.5685 82.2697 31.5685C80.8543 31.5685 79.7195 31.2958 78.8635 30.7493L79.3508 28.9933C80.275 29.5407 81.2902 29.8135 82.3953 29.8135C83.19 29.8135 83.8078 29.6336 84.2486 29.2769C84.6905 28.9192 84.9138 28.4409 84.9138 27.844C84.9138 27.3094 84.729 26.8618 84.3662 26.4971C84.0015 26.1335 83.3986 25.7945 82.5514 25.4832C80.2484 24.6245 79.0958 23.3685 79.0958 21.7162C79.0958 20.6371 79.5031 19.7537 80.3156 19.063C81.1281 18.3732 82.2055 18.0283 83.5458 18.0283C84.7429 18.0283 85.7402 18.2368 86.5319 18.6529L86.0031 20.3703C85.2578 19.9671 84.4167 19.7656 83.4757 19.7656C82.7323 19.7656 82.1492 19.9484 81.732 20.312C81.3811 20.6371 81.2032 21.0334 81.2032 21.5038C81.2032 22.0226 81.4058 22.4534 81.8091 22.7914C82.159 23.1027 82.7976 23.4416 83.7208 23.8053C84.8535 24.2618 85.6858 24.7935 86.2186 25.4042C86.7553 26.0149 87.0222 26.7768 87.0222 27.6849ZM94.0076 23.4723H91.6847V28.0762C91.6847 29.2473 92.094 29.8313 92.9144 29.8313C93.291 29.8313 93.6033 29.7997 93.8504 29.7334L93.9088 31.3333C93.4936 31.4885 92.947 31.5665 92.2699 31.5665C91.4376 31.5665 90.7872 31.3126 90.3177 30.8046C89.8502 30.2967 89.6149 29.4459 89.6149 28.2482V23.4683H88.2311V21.8872H89.6149V20.151L91.6847 19.5264V21.8872H94.0076V23.4723ZM104.467 26.5544C104.467 28.012 104.05 29.2087 103.218 30.1445C102.347 31.108 101.189 31.5883 99.7446 31.5883C98.3509 31.5883 97.2428 31.1268 96.4165 30.2048C95.5901 29.2809 95.1769 28.1168 95.1769 26.7125C95.1769 25.2431 95.6039 24.0395 96.455 23.1037C97.308 22.1669 98.4566 21.6985 99.9007 21.6985C101.292 21.6985 102.41 22.1609 103.257 23.0839C104.065 23.9792 104.467 25.1354 104.467 26.5544ZM102.283 26.6029C102.283 25.7342 102.095 24.9891 101.719 24.3656C101.277 23.6126 100.644 23.2361 99.8246 23.2361C98.9805 23.2361 98.3331 23.6126 97.8922 24.3656C97.5146 24.9891 97.3268 25.7471 97.3268 26.6424C97.3268 27.512 97.5146 28.2591 97.8922 28.8806C98.3479 29.6336 98.9835 30.0101 99.8068 30.0101C100.612 30.0101 101.244 29.6257 101.701 28.8619C102.088 28.2235 102.283 27.4734 102.283 26.6029ZM111.32 23.744C111.101 23.7045 110.879 23.6849 110.656 23.6857C109.915 23.6857 109.341 23.9644 108.938 24.5257C108.588 25.0198 108.412 25.6443 108.412 26.3983V31.3738H106.305V24.8775C106.307 23.882 106.286 22.8867 106.244 21.8921H108.079L108.156 23.7065H108.215C108.438 23.0829 108.788 22.5799 109.268 22.2034C109.708 21.8744 110.242 21.6963 110.791 21.6955C110.986 21.6955 111.162 21.7093 111.318 21.734L111.32 23.744ZM120.745 26.1839C120.751 26.5041 120.725 26.8242 120.668 27.1394H114.346C114.37 28.0762 114.676 28.7937 115.263 29.2878C115.796 29.7285 116.485 29.9499 117.331 29.9499C118.267 29.9499 119.121 29.8016 119.889 29.5022L120.219 30.9637C119.322 31.3551 118.262 31.5497 117.039 31.5497C115.569 31.5497 114.414 31.1169 113.574 30.2532C112.736 29.3886 112.316 28.2265 112.316 26.7708C112.316 25.3419 112.706 24.1512 113.488 23.2015C114.306 22.1876 115.413 21.6807 116.804 21.6807C118.171 21.6807 119.206 22.1876 119.909 23.2015C120.465 24.0049 120.745 25.001 120.745 26.1839ZM118.736 25.6374C118.751 25.0119 118.612 24.4733 118.326 24.0177C117.962 23.4308 117.4 23.1383 116.648 23.1383C115.959 23.1383 115.398 23.4238 114.971 23.997C114.62 24.4525 114.411 25 114.347 25.6354L118.736 25.6374Z" fill="#151C22"/>
<path d="M44.6902 13.5738C44.1041 13.5738 43.597 13.5452 43.1749 13.4968V7.13874C43.7652 7.04758 44.3618 7.00264 44.9591 7.00435C47.3758 7.00435 48.4888 8.19314 48.4888 10.131C48.4888 12.3663 47.1742 13.5738 44.6902 13.5738ZM45.0441 7.81961C44.7179 7.81961 44.4401 7.83937 44.2098 7.8868V12.72C44.3344 12.7398 44.5736 12.7487 44.9097 12.7487C46.4932 12.7487 47.3946 11.8475 47.3946 10.1596C47.3946 8.65463 46.5792 7.81961 45.0441 7.81961ZM51.9573 13.6223C50.5952 13.6223 49.7125 12.6054 49.7125 11.2249C49.7125 9.7861 50.614 8.76036 52.0344 8.76036C53.3767 8.76036 54.2792 9.72879 54.2792 11.1488C54.2792 12.6054 53.3491 13.6223 51.9573 13.6223ZM51.9969 9.51731C51.2486 9.51731 50.7692 10.217 50.7692 11.1953C50.7692 12.1548 51.2585 12.8544 51.987 12.8544C52.7155 12.8544 53.2047 12.1064 53.2047 11.1755C53.2047 10.2268 52.7253 9.51731 51.9969 9.51731ZM62.0464 8.85622L60.5885 13.5165H59.6386L59.0346 11.4927C58.8845 10.9977 58.7594 10.4954 58.66 9.98769H58.6402C58.5641 10.4956 58.4198 11.0045 58.2666 11.4927L57.6241 13.5165H56.6643L55.2923 8.85622H56.3569L56.8847 11.0717C57.0093 11.5994 57.1141 12.0975 57.201 12.5679H57.2208C57.2969 12.1755 57.4215 11.6854 57.6043 11.0816L58.2666 8.8572H59.1107L59.7443 11.0342C59.8975 11.5619 60.0221 12.0797 60.119 12.5688H60.1466C60.2138 12.0896 60.3196 11.5807 60.4629 11.0342L61.0293 8.8572L62.0464 8.85622ZM67.4137 13.5165H66.3778V10.8405C66.3778 10.0164 66.0615 9.60329 65.4378 9.60329C64.824 9.60329 64.4019 10.131 64.4019 10.7446V13.5165H63.366V10.1883C63.366 9.77622 63.3561 9.3345 63.3275 8.85523H64.2388L64.2873 9.57463H64.3159C64.5947 9.07658 65.16 8.76036 65.7936 8.76036C66.7722 8.76036 67.4147 9.50842 67.4147 10.7259L67.4137 13.5165ZM70.2703 13.5165H69.2335V6.71777H70.2703V13.5165ZM74.0472 13.6223C72.6861 13.6223 71.8024 12.6054 71.8024 11.2249C71.8024 9.7861 72.7039 8.76036 74.1233 8.76036C75.4666 8.76036 76.3681 9.72879 76.3681 11.1488C76.3691 12.6054 75.438 13.6223 74.0472 13.6223ZM74.0858 9.51731C73.3375 9.51731 72.8581 10.217 72.8581 11.1953C72.8581 12.1548 73.3484 12.8544 74.0749 12.8544C74.8044 12.8544 75.2927 12.1064 75.2927 11.1755C75.2937 10.2268 74.8152 9.51731 74.0858 9.51731ZM80.4524 13.5165L80.3773 12.9799H80.3496C80.0333 13.4118 79.5717 13.6223 78.9865 13.6223C78.1513 13.6223 77.5582 13.0372 77.5582 12.2506C77.5582 11.1004 78.5555 10.5055 80.2824 10.5055V10.4195C80.2824 9.80587 79.9572 9.49854 79.3147 9.49854C78.855 9.49854 78.4518 9.61416 78.0969 9.84441L77.8864 9.16354C78.3173 8.89476 78.855 8.76036 79.4867 8.76036C80.7044 8.76036 81.3192 9.40268 81.3192 10.6883V12.4048C81.3192 12.8752 81.34 13.2398 81.3865 13.5175L80.4524 13.5165ZM80.31 11.1953C79.1595 11.1953 78.5822 11.4739 78.5822 12.135C78.5822 12.6242 78.8798 12.8633 79.2929 12.8633C79.8198 12.8633 80.31 12.4611 80.31 11.9147V11.1953ZM86.3495 13.5165L86.301 12.7685H86.2724C85.9749 13.3337 85.4747 13.6223 84.7759 13.6223C83.652 13.6223 82.8197 12.6341 82.8197 11.2437C82.8197 9.7861 83.6826 8.75937 84.8609 8.75937C85.4846 8.75937 85.9264 8.96986 86.1755 9.3928H86.1963V6.71777H87.2332V12.2605C87.2332 12.7111 87.244 13.1331 87.2717 13.5165H86.3495ZM86.1963 10.7743C86.1963 10.1221 85.7643 9.56574 85.105 9.56574C84.337 9.56574 83.8675 10.2466 83.8675 11.2051C83.8675 12.1449 84.3548 12.7882 85.0843 12.7882C85.7357 12.7882 86.1963 12.222 86.1963 11.551V10.7743ZM93.8073 13.6223C92.4462 13.6223 91.5636 12.6054 91.5636 11.2249C91.5636 9.7861 92.465 8.76036 93.8844 8.76036C95.2277 8.76036 96.1292 9.72879 96.1292 11.1488C96.1302 12.6054 95.2001 13.6223 93.8073 13.6223ZM93.8459 9.51731C93.0986 9.51731 92.6192 10.217 92.6192 11.1953C92.6192 12.1548 93.1085 12.8544 93.836 12.8544C94.5655 12.8544 95.0538 12.1064 95.0538 11.1755C95.0558 10.2268 94.5764 9.51731 93.8459 9.51731ZM101.7 13.5165H100.663V10.8405C100.663 10.0164 100.347 9.60329 99.7232 9.60329C99.1094 9.60329 98.6883 10.131 98.6883 10.7446V13.5165H97.6514V10.1883C97.6514 9.77622 97.6415 9.3345 97.6129 8.85523H98.5242L98.5727 9.57463H98.6013C98.8791 9.07658 99.4455 8.75937 100.078 8.75937C101.057 8.75937 101.7 9.50743 101.7 10.7249V13.5165ZM108.67 9.63293H107.53V11.8959C107.53 12.472 107.73 12.7596 108.133 12.7596C108.316 12.7596 108.469 12.7398 108.593 12.7111L108.621 13.4977C108.421 13.5748 108.152 13.6134 107.818 13.6134C107.001 13.6134 106.513 13.1627 106.513 11.9828V9.63293H105.833V8.85622H106.513V8.00242L107.53 7.69509V8.85523H108.67V9.63293ZM114.154 13.5165H113.119V10.8603C113.119 10.0262 112.803 9.60428 112.179 9.60428C111.642 9.60428 111.142 9.96892 111.142 10.7071V13.5165H110.107V6.71777H111.142V9.51731H111.163C111.489 9.00938 111.961 8.75937 112.564 8.75937C113.551 8.75937 114.154 9.52621 114.154 10.7446V13.5165ZM119.772 11.4354H116.663C116.683 12.3178 117.267 12.8159 118.132 12.8159C118.592 12.8159 119.015 12.7388 119.388 12.5955L119.55 13.3149C119.109 13.5066 118.59 13.6025 117.986 13.6025C116.528 13.6025 115.665 12.6815 115.665 11.2536C115.665 9.82464 116.549 8.75048 117.869 8.75048C119.06 8.75048 119.808 9.63293 119.808 10.966C119.814 11.1233 119.802 11.2809 119.772 11.4354ZM118.822 10.6972C118.822 9.97781 118.459 9.46988 117.797 9.46988C117.202 9.46988 116.731 9.98769 116.664 10.6972H118.822Z" fill="#151C22"/>
</svg>
