<svg width="134" height="40" viewBox="0 0 134 40" fill="none" xmlns="http://www.w3.org/2000/svg">
<rect x="0.333008" width="133.333" height="40" rx="4" fill="#151C22"/>
<path d="M30.1132 19.7925C30.0845 16.6076 32.7217 15.0581 32.8423 14.986C31.3487 12.809 29.0338 12.5115 28.2203 12.4878C26.276 12.2833 24.39 13.6509 23.3996 13.6509C22.3894 13.6509 20.8642 12.5076 19.2204 12.5412C17.1052 12.5738 15.1263 13.7981 14.041 15.6994C11.8011 19.5761 13.4716 25.273 15.6175 28.4065C16.691 29.9422 17.9453 31.6547 19.5872 31.5944C21.1934 31.5292 21.7934 30.5717 23.7317 30.5717C25.6523 30.5717 26.2157 31.5944 27.8901 31.5559C29.614 31.5292 30.6993 30.0143 31.7352 28.4658C32.9757 26.7078 33.4739 24.9746 33.4937 24.8856C33.4541 24.8718 30.1468 23.6089 30.1132 19.7925ZM26.9501 10.4264C27.814 9.34636 28.4051 7.87692 28.241 6.38574C26.9907 6.44108 25.4269 7.25041 24.5265 8.30678C23.7298 9.23766 23.0181 10.7634 23.2019 12.1983C24.6065 12.303 26.0487 11.4897 26.9501 10.4264Z" fill="white"/>
<path d="M53.3787 31.3738H51.1339L49.9043 27.511H45.6302L44.4589 31.3738H42.2734L46.509 18.223H49.1244L53.3787 31.3738ZM49.5336 25.8904L48.4216 22.4564C48.304 22.1056 48.0826 21.2795 47.7584 19.979H47.7188C47.5883 20.5383 47.3798 21.3645 47.0941 22.4564L46.0009 25.8904H49.5336ZM64.2497 26.5159C64.2497 28.1286 63.8118 29.4034 62.935 30.3392C62.1502 31.1722 61.1746 31.5883 60.0112 31.5883C58.7549 31.5883 57.8514 31.1406 57.3028 30.2433V35.2189H55.1955V25.0079C55.1955 23.995 55.1688 22.9564 55.1174 21.8912H56.9707L57.0883 23.3942H57.1279C57.8307 22.2617 58.8972 21.6955 60.3285 21.6955C61.4474 21.6955 62.3815 22.1372 63.1288 23.0216C63.875 23.9081 64.2497 25.0721 64.2497 26.5159ZM62.1028 26.593C62.1028 25.67 61.8952 24.9091 61.4781 24.3093C61.0224 23.6857 60.4105 23.3734 59.6435 23.3734C59.1236 23.3734 58.6511 23.5474 58.229 23.8903C57.806 24.2361 57.5292 24.6877 57.3997 25.2471C57.3419 25.4562 57.3091 25.6715 57.3018 25.8884V27.4705C57.3018 28.1593 57.5134 28.7413 57.9364 29.2176C58.3595 29.6919 58.9091 29.9301 59.5852 29.9301C60.3789 29.9301 60.9967 29.6228 61.4385 29.0131C61.8813 28.4014 62.1028 27.595 62.1028 26.593ZM75.1592 26.5159C75.1592 28.1286 74.7213 29.4034 73.8446 30.3392C73.0588 31.1722 72.0841 31.5883 70.9197 31.5883C69.6634 31.5883 68.76 31.1406 68.2114 30.2433V35.2189H66.104V25.0079C66.104 23.995 66.0773 22.9564 66.0259 21.8912H67.8793L67.9969 23.3942H68.0364C68.7382 22.2617 69.8048 21.6955 71.237 21.6955C72.355 21.6955 73.2891 22.1372 74.0383 23.0216C74.7836 23.9081 75.1592 25.0721 75.1592 26.5159ZM73.0113 26.593C73.0113 25.67 72.8027 24.9091 72.3856 24.3093C71.9299 23.6857 71.3201 23.3734 70.553 23.3734C70.0331 23.3734 69.5606 23.5474 69.1366 23.8903C68.7135 24.2361 68.4377 24.6877 68.3083 25.2471C68.244 25.5079 68.2094 25.7204 68.2094 25.8884V27.4705C68.2094 28.1593 68.4219 28.7413 68.843 29.2176C69.2661 29.691 69.8156 29.9301 70.4937 29.9301C71.2884 29.9301 71.9062 29.6228 72.3471 29.0131C72.7899 28.4014 73.0113 27.595 73.0113 26.593ZM87.3567 27.6849C87.3567 28.8045 86.9653 29.7147 86.1874 30.4173C85.3314 31.1841 84.1363 31.5685 82.6042 31.5685C81.1888 31.5685 80.054 31.2958 79.198 30.7493L79.6853 28.9933C80.6095 29.5407 81.6247 29.8135 82.7298 29.8135C83.5245 29.8135 84.1423 29.6336 84.5831 29.2769C85.0249 28.9192 85.2483 28.4409 85.2483 27.844C85.2483 27.3094 85.0635 26.8618 84.7007 26.4971C84.336 26.1335 83.733 25.7945 82.8859 25.4832C80.5828 24.6245 79.4303 23.3685 79.4303 21.7162C79.4303 20.6371 79.8375 19.7537 80.6501 19.063C81.4626 18.3732 82.54 18.0283 83.8803 18.0283C85.0773 18.0283 86.0747 18.2368 86.8664 18.6529L86.3376 20.3703C85.5923 19.9671 84.7511 19.7656 83.8101 19.7656C83.0668 19.7656 82.4836 19.9484 82.0665 20.312C81.7156 20.6371 81.5377 21.0334 81.5377 21.5038C81.5377 22.0226 81.7403 22.4534 82.1436 22.7914C82.4935 23.1027 83.1321 23.4416 84.0553 23.8053C85.188 24.2618 86.0203 24.7935 86.5531 25.4042C87.0898 26.0149 87.3567 26.7768 87.3567 27.6849ZM94.3421 23.4723H92.0192V28.0762C92.0192 29.2473 92.4284 29.8313 93.2489 29.8313C93.6255 29.8313 93.9378 29.7997 94.1849 29.7334L94.2432 31.3333C93.8281 31.4885 93.2815 31.5665 92.6044 31.5665C91.7721 31.5665 91.1217 31.3126 90.6522 30.8046C90.1847 30.2967 89.9494 29.4459 89.9494 28.2482V23.4683H88.5656V21.8872H89.9494V20.151L92.0192 19.5264V21.8872H94.3421V23.4723ZM104.802 26.5544C104.802 28.012 104.385 29.2087 103.552 30.1445C102.682 31.108 101.523 31.5883 100.079 31.5883C98.6853 31.5883 97.5773 31.1268 96.7509 30.2048C95.9246 29.2809 95.5114 28.1168 95.5114 26.7125C95.5114 25.2431 95.9384 24.0395 96.7895 23.1037C97.6425 22.1669 98.7911 21.6985 100.235 21.6985C101.627 21.6985 102.745 22.1609 103.591 23.0839C104.4 23.9792 104.802 25.1354 104.802 26.5544ZM102.617 26.6029C102.617 25.7342 102.43 24.9891 102.053 24.3656C101.611 23.6126 100.979 23.2361 100.159 23.2361C99.315 23.2361 98.6675 23.6126 98.2267 24.3656C97.8491 24.9891 97.6613 25.7471 97.6613 26.6424C97.6613 27.512 97.8491 28.2591 98.2267 28.8806C98.6824 29.6336 99.3179 30.0101 100.141 30.0101C100.947 30.0101 101.579 29.6257 102.035 28.8619C102.423 28.2235 102.617 27.4734 102.617 26.6029ZM111.655 23.744C111.436 23.7045 111.213 23.6849 110.991 23.6857C110.249 23.6857 109.676 23.9644 109.273 24.5257C108.923 25.0198 108.747 25.6443 108.747 26.3983V31.3738H106.639V24.8775C106.641 23.882 106.621 22.8867 106.578 21.8921H108.414L108.491 23.7065H108.549C108.772 23.0829 109.122 22.5799 109.603 22.2034C110.042 21.8744 110.577 21.6963 111.126 21.6955C111.321 21.6955 111.497 21.7093 111.653 21.734L111.655 23.744ZM121.08 26.1839C121.085 26.5041 121.059 26.8242 121.003 27.1394H114.68C114.704 28.0762 115.011 28.7937 115.598 29.2878C116.131 29.7285 116.819 29.9499 117.666 29.9499C118.602 29.9499 119.456 29.8016 120.224 29.5022L120.554 30.9637C119.656 31.3551 118.597 31.5497 117.374 31.5497C115.903 31.5497 114.749 31.1169 113.908 30.2532C113.07 29.3886 112.65 28.2265 112.65 26.7708C112.65 25.3419 113.041 24.1512 113.822 23.2015C114.641 22.1876 115.747 21.6807 117.139 21.6807C118.506 21.6807 119.541 22.1876 120.243 23.2015C120.8 24.0049 121.08 25.001 121.08 26.1839ZM119.07 25.6374C119.085 25.0119 118.947 24.4733 118.661 24.0177C118.296 23.4308 117.735 23.1383 116.983 23.1383C116.294 23.1383 115.732 23.4238 115.305 23.997C114.954 24.4525 114.746 25 114.681 25.6354L119.07 25.6374Z" fill="white"/>
<path d="M45.0221 13.5738C44.436 13.5738 43.9289 13.5452 43.5068 13.4968V7.13874C44.0971 7.04758 44.6937 7.00264 45.291 7.00435C47.7078 7.00435 48.8207 8.19314 48.8207 10.131C48.8207 12.3663 47.5061 13.5738 45.0221 13.5738ZM45.376 7.81961C45.0498 7.81961 44.7721 7.83937 44.5417 7.8868V12.72C44.6663 12.7398 44.9055 12.7487 45.2416 12.7487C46.8251 12.7487 47.7265 11.8475 47.7265 10.1596C47.7265 8.65463 46.9111 7.81961 45.376 7.81961ZM52.2892 13.6223C50.9271 13.6223 50.0444 12.6054 50.0444 11.2249C50.0444 9.7861 50.9459 8.76036 52.3663 8.76036C53.7086 8.76036 54.6111 9.72879 54.6111 11.1488C54.6111 12.6054 53.681 13.6223 52.2892 13.6223ZM52.3288 9.51731C51.5805 9.51731 51.1011 10.217 51.1011 11.1953C51.1011 12.1548 51.5904 12.8544 52.3189 12.8544C53.0474 12.8544 53.5366 12.1064 53.5366 11.1755C53.5366 10.2268 53.0572 9.51731 52.3288 9.51731ZM62.3783 8.85622L60.9204 13.5165H59.9705L59.3665 11.4927C59.2164 10.9977 59.0913 10.4954 58.9919 9.98769H58.9721C58.896 10.4956 58.7517 11.0045 58.5985 11.4927L57.956 13.5165H56.9962L55.6243 8.85622H56.6888L57.2167 11.0717C57.3412 11.5994 57.446 12.0975 57.533 12.5679H57.5527C57.6288 12.1755 57.7534 11.6854 57.9362 11.0816L58.5985 8.8572H59.4426L60.0762 11.0342C60.2295 11.5619 60.354 12.0797 60.4509 12.5688H60.4785C60.5458 12.0896 60.6515 11.5807 60.7948 11.0342L61.3612 8.8572L62.3783 8.85622ZM67.7456 13.5165H66.7097V10.8405C66.7097 10.0164 66.3934 9.60329 65.7697 9.60329C65.1559 9.60329 64.7338 10.131 64.7338 10.7446V13.5165H63.6979V10.1883C63.6979 9.77622 63.688 9.3345 63.6594 8.85523H64.5707L64.6192 9.57463H64.6478C64.9266 9.07658 65.492 8.76036 66.1256 8.76036C67.1041 8.76036 67.7466 9.50842 67.7466 10.7259L67.7456 13.5165ZM70.6023 13.5165H69.5654V6.71777H70.6023V13.5165ZM74.3791 13.6223C73.018 13.6223 72.1344 12.6054 72.1344 11.2249C72.1344 9.7861 73.0358 8.76036 74.4552 8.76036C75.7985 8.76036 76.7 9.72879 76.7 11.1488C76.701 12.6054 75.7699 13.6223 74.3791 13.6223ZM74.4177 9.51731C73.6694 9.51731 73.19 10.217 73.19 11.1953C73.19 12.1548 73.6803 12.8544 74.4068 12.8544C75.1363 12.8544 75.6246 12.1064 75.6246 11.1755C75.6256 10.2268 75.1472 9.51731 74.4177 9.51731ZM80.7843 13.5165L80.7092 12.9799H80.6815C80.3652 13.4118 79.9036 13.6223 79.3184 13.6223C78.4832 13.6223 77.8901 13.0372 77.8901 12.2506C77.8901 11.1004 78.8875 10.5055 80.6143 10.5055V10.4195C80.6143 9.80587 80.2891 9.49854 79.6466 9.49854C79.187 9.49854 78.7837 9.61416 78.4288 9.84441L78.2183 9.16354C78.6492 8.89476 79.187 8.76036 79.8186 8.76036C81.0363 8.76036 81.6512 9.40268 81.6512 10.6883V12.4048C81.6512 12.8752 81.6719 13.2398 81.7184 13.5175L80.7843 13.5165ZM80.642 11.1953C79.4914 11.1953 78.9141 11.4739 78.9141 12.135C78.9141 12.6242 79.2117 12.8633 79.6248 12.8633C80.1517 12.8633 80.642 12.4611 80.642 11.9147V11.1953ZM86.6814 13.5165L86.633 12.7685H86.6043C86.3068 13.3337 85.8066 13.6223 85.1078 13.6223C83.9839 13.6223 83.1516 12.6341 83.1516 11.2437C83.1516 9.7861 84.0145 8.75937 85.1928 8.75937C85.8165 8.75937 86.2583 8.96986 86.5074 9.3928H86.5282V6.71777H87.5651V12.2605C87.5651 12.7111 87.5759 13.1331 87.6036 13.5165H86.6814ZM86.5282 10.7743C86.5282 10.1221 86.0962 9.56574 85.4369 9.56574C84.6689 9.56574 84.1994 10.2466 84.1994 11.2051C84.1994 12.1449 84.6867 12.7882 85.4162 12.7882C86.0676 12.7882 86.5282 12.222 86.5282 11.551V10.7743ZM94.1393 13.6223C92.7782 13.6223 91.8955 12.6054 91.8955 11.2249C91.8955 9.7861 92.7969 8.76036 94.2164 8.76036C95.5597 8.76036 96.4611 9.72879 96.4611 11.1488C96.4621 12.6054 95.532 13.6223 94.1393 13.6223ZM94.1778 9.51731C93.4305 9.51731 92.9511 10.217 92.9511 11.1953C92.9511 12.1548 93.4404 12.8544 94.1679 12.8544C94.8974 12.8544 95.3857 12.1064 95.3857 11.1755C95.3877 10.2268 94.9083 9.51731 94.1778 9.51731ZM102.032 13.5165H100.995V10.8405C100.995 10.0164 100.679 9.60329 100.055 9.60329C99.4413 9.60329 99.0202 10.131 99.0202 10.7446V13.5165H97.9833V10.1883C97.9833 9.77622 97.9735 9.3345 97.9448 8.85523H98.8561L98.9046 9.57463H98.9332C99.211 9.07658 99.7774 8.75937 100.41 8.75937C101.389 8.75937 102.032 9.50743 102.032 10.7249V13.5165ZM109.002 9.63293H107.862V11.8959C107.862 12.472 108.062 12.7596 108.465 12.7596C108.648 12.7596 108.801 12.7398 108.925 12.7111L108.953 13.4977C108.753 13.5748 108.484 13.6134 108.15 13.6134C107.333 13.6134 106.845 13.1627 106.845 11.9828V9.63293H106.165V8.85622H106.845V8.00242L107.862 7.69509V8.85523H109.002V9.63293ZM114.486 13.5165H113.451V10.8603C113.451 10.0262 113.135 9.60428 112.511 9.60428C111.974 9.60428 111.474 9.96892 111.474 10.7071V13.5165H110.439V6.71777H111.474V9.51731H111.494C111.821 9.00939 112.293 8.75937 112.896 8.75937C113.883 8.75937 114.486 9.52621 114.486 10.7446V13.5165ZM120.104 11.4354H116.995C117.015 12.3178 117.599 12.8159 118.464 12.8159C118.924 12.8159 119.347 12.7388 119.72 12.5955L119.881 13.3149C119.441 13.5066 118.922 13.6025 118.318 13.6025C116.86 13.6025 115.997 12.6815 115.997 11.2536C115.997 9.82464 116.881 8.75048 118.201 8.75048C119.392 8.75048 120.139 9.63293 120.139 10.966C120.146 11.1233 120.134 11.2809 120.104 11.4354ZM119.154 10.6972C119.154 9.97781 118.791 9.46988 118.129 9.46988C117.534 9.46988 117.063 9.98769 116.996 10.6972H119.154Z" fill="white"/>
</svg>
