<svg width="48" height="40" viewBox="0 0 48 40" fill="none" xmlns="http://www.w3.org/2000/svg">
<path d="M41.6479 27.7843C41.6479 27.7843 43.1301 24.9332 44.4005 23.8431C45.6709 22.7529 47.6471 22.1659 48 21.0758C48 21.0758 47.9294 23.5636 46.6237 25.2127C45.8474 26.191 44.3299 26.7221 43.3771 26.9737C42.636 27.1414 41.6479 27.7843 41.6479 27.7843Z" fill="url(#paint0_linear_1_7784)"/>
<path d="M41.3303 8.30175C41.3303 8.30175 39.954 6.26126 39.8129 5.11522C39.6717 3.96919 39.6364 2.18026 39.1071 1.53736C39.1071 1.53736 41.295 2.93496 41.7891 4.30461C42.1067 5.11522 41.7891 6.20535 41.5068 6.90415C41.3303 7.49114 41.3303 8.30175 41.3303 8.30175Z" fill="url(#paint1_linear_1_7784)"/>
<path d="M41.3656 27.6166C41.3656 27.6166 43.2007 24.7655 42.6007 23.6474C42.0008 22.5293 40.2364 21.5231 39.9893 20.9361C39.9893 20.9361 39.2483 22.8927 39.46 24.0946C39.5659 24.7934 40.4481 25.632 40.9774 26.219C41.4009 26.6942 41.3656 27.6166 41.3656 27.6166Z" fill="url(#paint2_linear_1_7784)"/>
<path d="M40.8363 8.18995C40.8363 8.18995 40.1305 6.12149 38.6836 5.75812C37.625 5.4786 35.7546 5.17113 35.1547 4.94751C35.1547 4.94751 35.8252 6.68054 37.4132 7.35139C37.9426 7.575 38.5425 7.51909 39.213 7.65885C40.1305 7.88247 40.8363 8.18995 40.8363 8.18995Z" fill="url(#paint3_linear_1_7784)"/>
<path d="M42.4949 12.8579C42.4949 12.8579 41.6479 10.2304 42.0714 8.80489C42.4949 7.37933 44.0123 6.26125 43.73 5.28293C43.73 5.28293 45.071 7.26753 44.8945 9.11236C44.7887 10.2304 44.224 10.9572 43.5535 11.6001C43.0242 12.1312 42.4949 12.8579 42.4949 12.8579Z" fill="url(#paint4_linear_1_7784)"/>
<path d="M41.8597 13.0256C41.8597 13.0256 41.7538 9.95092 40.6951 9.30803C39.6364 8.66513 37.3426 8.41356 36.778 8.02223C36.778 8.02223 37.4132 9.95092 38.1896 10.8454C38.6483 11.3765 40.0952 11.8517 40.801 12.1032C41.4362 12.2989 41.8597 13.0256 41.8597 13.0256Z" fill="url(#paint5_linear_1_7784)"/>
<path d="M38.8248 5.05932C37.5191 4.27666 35.8252 4.081 35.1547 2.96292C34.0607 1.09013 32.6845 0 32.6845 0C32.6845 0 35.2253 0.0559092 36.9545 1.48146C38.119 2.43183 38.8248 5.05932 38.8248 5.05932Z" fill="url(#paint6_linear_1_7784)"/>
<path d="M28.0616 39.7757C27.9557 39.8875 27.991 39.9714 28.1321 39.9993C28.3792 40.0273 29.0497 39.1608 29.579 38.7974C30.4965 38.1545 31.0964 38.1266 31.7669 38.2384C32.1198 38.3222 32.6845 38.462 33.2138 38.8533C33.8843 39.3285 34.6959 39.5242 35.4723 39.4123C38.0484 39.049 38.8248 37.1482 38.8248 37.1482C38.8248 37.1482 38.1896 37.4837 36.7074 37.2041C35.6135 37.0085 34.6607 36.7849 33.5314 36.8967C31.167 37.1482 29.2967 38.6576 28.0616 39.7757Z" fill="url(#paint7_linear_1_7784)"/>
<path d="M34.2372 35.6388C34.2372 35.6388 36.9545 33.7381 38.5425 33.4586C40.0952 33.1791 42.5302 33.4586 43.483 32.7877C43.483 32.7877 42.4949 35.2195 39.4247 35.9743C38.2249 36.2538 36.9192 36.0581 36.0369 35.7786C35.3312 35.527 34.2372 35.6388 34.2372 35.6388Z" fill="url(#paint8_linear_1_7784)"/>
<path d="M34.096 35.3593C34.096 35.3593 37.0956 33.6263 37.2721 32.3684C37.4838 31.1106 36.7074 29.4335 36.8486 28.7906C36.8486 28.7906 35.19 30.1602 34.6607 31.3342C34.343 32.033 34.5548 33.1231 34.5901 33.9058C34.6607 34.5207 34.096 35.3593 34.096 35.3593Z" fill="url(#paint9_linear_1_7784)"/>
<path d="M39.0012 32.033C39.0012 32.033 40.9069 29.4614 42.3184 28.6508C43.73 27.8123 45.7768 28.1477 46.3767 27.1414C46.3767 27.1414 45.8826 29.4894 44.3299 30.8311C43.4124 31.6417 41.7538 31.474 40.7657 31.5299C40.0246 31.5858 39.0012 32.033 39.0012 32.033Z" fill="url(#paint10_linear_1_7784)"/>
<path d="M38.7542 31.8373C38.7542 31.8373 40.9069 29.6571 40.6245 28.4831C40.3422 27.2812 38.7895 26.0513 38.6836 25.4084C38.6836 25.4084 37.9426 26.3028 37.9073 27.5048C37.872 28.2315 38.5072 29.2658 38.8601 30.3559C39.0718 30.9429 38.7542 31.8373 38.7542 31.8373Z" fill="url(#paint11_linear_1_7784)"/>
<path d="M43.6947 17.9732C43.6947 17.9732 42.8478 15.4016 43.5183 14.004C44.1182 12.7182 46.2708 11.6839 45.9532 10.5938C45.9532 10.5938 47.4001 12.1032 46.906 14.004C46.5178 15.4016 45.4592 15.9886 44.7534 16.5756C44.1535 17.0507 43.6947 17.9732 43.6947 17.9732Z" fill="url(#paint12_linear_1_7784)"/>
<path d="M43.3418 17.9732C43.3418 17.9732 43.2007 14.7866 42.0008 14.0319C40.801 13.2772 39.1071 13.0536 38.5072 12.6343C38.5072 12.6343 38.8954 14.7866 39.8129 15.737C40.3422 16.296 41.3303 16.6035 42.142 16.911C42.8125 17.1346 43.3418 17.9732 43.3418 17.9732Z" fill="url(#paint13_linear_1_7784)"/>
<path d="M43.5535 22.7809C43.5535 22.7809 43.73 20.1814 44.5064 18.9235C45.2474 17.6657 47.4001 16.7153 47.3295 15.6252C47.3295 15.6252 48.3176 17.8893 47.753 19.6503C47.4001 20.7125 45.8474 21.1876 45.0357 21.6069C44.3652 21.9423 43.5535 22.7809 43.5535 22.7809Z" fill="url(#paint14_linear_1_7784)"/>
<path d="M43.1654 22.9486C43.1654 22.9486 44.0829 20.2932 43.2007 19.2869C42.3537 18.2806 40.3069 17.6098 39.9188 17.0507C39.9188 17.0507 39.6717 18.1129 40.2364 19.231C40.554 19.9018 41.6479 20.6845 42.5302 21.551C43.0242 22.0262 43.1654 22.9486 43.1654 22.9486Z" fill="url(#paint15_linear_1_7784)"/>
<path d="M29.332 38.3781C29.332 38.3781 29.7554 38.1266 30.6377 37.5675C31.4846 37.0085 32.755 36.142 33.0021 35.6109C33.4961 34.5207 33.2844 32.9275 33.602 32.3684C33.602 32.3684 31.8375 33.4027 31.0964 34.381C30.6377 34.968 30.4965 35.9743 30.3554 36.673C30.2142 37.2041 29.332 38.3781 29.332 38.3781Z" fill="url(#paint16_linear_1_7784)"/>
<path d="M6.34088 27.7843C6.34088 27.7843 4.86134 24.9332 3.59317 23.8431C2.32499 22.7529 0.352271 22.1659 0 21.0758C0 21.0758 0.0704534 23.5636 1.37386 25.2127C2.14885 26.191 3.66362 26.7221 4.61475 26.9737C5.38975 27.1414 6.34088 27.7843 6.34088 27.7843Z" fill="url(#paint17_linear_1_7784)"/>
<path d="M6.69315 8.30175C6.69315 8.30175 8.06701 6.26126 8.20792 5.11522C8.34883 3.96919 8.38405 2.18026 8.91246 1.53736C8.91246 1.53736 6.72838 2.93496 6.2352 4.30461C5.91815 5.11522 6.2352 6.20535 6.51702 6.90415C6.69315 7.49114 6.69315 8.30175 6.69315 8.30175Z" fill="url(#paint18_linear_1_7784)"/>
<path d="M6.65793 27.6166C6.65793 27.6166 4.82612 24.7655 5.42498 23.6474C6.02384 22.5293 7.78519 21.5231 8.03178 20.9361C8.03178 20.9361 8.77155 22.8927 8.56019 24.0946C8.45451 24.7934 7.57383 25.632 7.04543 26.219C6.6227 26.6942 6.65793 27.6166 6.65793 27.6166Z" fill="url(#paint19_linear_1_7784)"/>
<path d="M7.18633 8.18995C7.18633 8.18995 7.89088 6.12149 9.33519 5.75812C10.392 5.4786 12.259 5.17113 12.8579 4.94751C12.8579 4.94751 12.1886 6.68054 10.6034 7.35139C10.075 7.575 9.4761 7.51909 8.80678 7.65885C7.89088 7.88247 7.18633 8.18995 7.18633 8.18995Z" fill="url(#paint20_linear_1_7784)"/>
<path d="M5.53066 12.8579C5.53066 12.8579 6.37611 10.2304 5.95338 8.80489C5.53066 7.37933 4.01589 6.26125 4.29771 5.28293C4.29771 5.28293 2.95908 7.26753 3.13522 9.11236C3.2409 10.2304 3.80453 10.9572 4.47384 11.6001C5.00225 12.1312 5.53066 12.8579 5.53066 12.8579Z" fill="url(#paint21_linear_1_7784)"/>
<path d="M6.16475 13.0256C6.16475 13.0256 6.27043 9.95092 7.32724 9.30803C8.38405 8.66513 10.6738 8.41356 11.2375 8.02223C11.2375 8.02223 10.6034 9.95092 9.82837 10.8454C9.37042 11.3765 7.9261 11.8517 7.22156 12.1032C6.58747 12.2989 6.16475 13.0256 6.16475 13.0256Z" fill="url(#paint22_linear_1_7784)"/>
<path d="M9.19428 5.05932C10.4977 4.27666 12.1886 4.081 12.8579 2.96292C13.9499 1.09013 15.3238 0 15.3238 0C15.3238 0 12.7874 0.0559092 11.0613 1.48146C9.89882 2.43183 9.19428 5.05932 9.19428 5.05932Z" fill="url(#paint23_linear_1_7784)"/>
<path d="M19.9386 39.7757C20.0442 39.8875 20.009 39.9714 19.8681 39.9993C19.6215 40.0273 18.9522 39.1608 18.4238 38.7974C17.5079 38.1545 16.909 38.1266 16.2397 38.2384C15.8874 38.3222 15.3238 38.462 14.7954 38.8533C14.1261 39.3285 13.3159 39.5242 12.5409 39.4123C9.96928 39.049 9.19428 37.1482 9.19428 37.1482C9.19428 37.1482 9.82837 37.4837 11.3079 37.2041C12.3999 37.0085 13.3511 36.7849 14.4783 36.8967C16.8386 37.1482 18.7056 38.6576 19.9386 39.7757Z" fill="url(#paint24_linear_1_7784)"/>
<path d="M13.7738 35.6388C13.7738 35.6388 11.0613 33.7381 9.4761 33.4586C7.9261 33.1791 5.49543 33.4586 4.5443 32.7877C4.5443 32.7877 5.53066 35.2195 8.59542 35.9743C9.79314 36.2538 11.0965 36.0581 11.9772 35.7786C12.6818 35.527 13.7738 35.6388 13.7738 35.6388Z" fill="url(#paint25_linear_1_7784)"/>
<path d="M13.9147 35.3593C13.9147 35.3593 10.9204 33.6263 10.7443 32.3684C10.5329 31.1106 11.3079 29.4335 11.167 28.7906C11.167 28.7906 12.8227 30.1602 13.3511 31.3342C13.6681 32.033 13.4568 33.1231 13.4215 33.9058C13.3511 34.5207 13.9147 35.3593 13.9147 35.3593Z" fill="url(#paint26_linear_1_7784)"/>
<path d="M9.01814 32.033C9.01814 32.033 7.11588 29.4614 5.70679 28.6508C4.29771 27.8123 2.25453 28.1477 1.65567 27.1414C1.65567 27.1414 2.14885 29.4894 3.69885 30.8311C4.61475 31.6417 6.27043 31.474 7.25679 31.5299C7.99656 31.5858 9.01814 32.033 9.01814 32.033Z" fill="url(#paint27_linear_1_7784)"/>
<path d="M9.26473 31.8373C9.26473 31.8373 7.11588 29.6571 7.39769 28.4831C7.67951 27.2812 9.2295 26.0513 9.33519 25.4084C9.33519 25.4084 10.075 26.3028 10.1102 27.5048C10.1454 28.2315 9.51132 29.2658 9.15905 30.3559C8.94769 30.9429 9.26473 31.8373 9.26473 31.8373Z" fill="url(#paint28_linear_1_7784)"/>
<path d="M4.33293 17.9732C4.33293 17.9732 5.17839 15.4016 4.50907 14.004C3.91021 12.7182 1.76136 11.6839 2.0784 10.5938C2.0784 10.5938 0.634087 12.1032 1.12727 14.004C1.51477 15.4016 2.57158 15.9886 3.27612 16.5756C3.87498 17.0507 4.33293 17.9732 4.33293 17.9732Z" fill="url(#paint29_linear_1_7784)"/>
<path d="M4.68521 17.9732C4.68521 17.9732 4.82612 14.7866 6.02384 14.0319C7.22156 13.2772 8.91246 13.0536 9.51132 12.6343C9.51132 12.6343 9.12382 14.7866 8.20792 15.737C7.67951 16.296 6.69315 16.6035 5.88293 16.911C5.21361 17.1346 4.68521 17.9732 4.68521 17.9732Z" fill="url(#paint30_linear_1_7784)"/>
<path d="M4.47384 22.7809C4.47384 22.7809 4.29771 20.1814 3.52271 18.9235C2.78294 17.6657 0.634088 16.7153 0.704542 15.6252C0.704542 15.6252 -0.281818 17.8893 0.281816 19.6503C0.634088 20.7125 2.18408 21.1876 2.99431 21.6069C3.66362 21.9423 4.47384 22.7809 4.47384 22.7809Z" fill="url(#paint31_linear_1_7784)"/>
<path d="M4.86134 22.9486C4.86134 22.9486 3.94544 20.2932 4.82612 19.2869C5.67157 18.2806 7.71474 17.6098 8.10224 17.0507C8.10224 17.0507 8.34883 18.1129 7.78519 19.231C7.46815 19.9018 6.37611 20.6845 5.49543 21.551C5.00225 22.0262 4.86134 22.9486 4.86134 22.9486Z" fill="url(#paint32_linear_1_7784)"/>
<path d="M18.6704 38.3781C18.6704 38.3781 18.2476 38.1266 17.367 37.5675C16.5215 37.0085 15.2533 36.142 15.0068 35.6109C14.5136 34.5207 14.7249 32.9275 14.4079 32.3684C14.4079 32.3684 16.1692 33.4027 16.909 34.381C17.367 34.968 17.5079 35.9743 17.6488 36.673C17.7897 37.2041 18.6704 38.3781 18.6704 38.3781Z" fill="url(#paint33_linear_1_7784)"/>
<defs>
<linearGradient id="paint0_linear_1_7784" x1="38" y1="0" x2="38" y2="40" gradientUnits="userSpaceOnUse">
<stop stop-color="#FFE600"/>
<stop offset="1" stop-color="#FFD53E"/>
</linearGradient>
<linearGradient id="paint1_linear_1_7784" x1="38" y1="0" x2="38" y2="40" gradientUnits="userSpaceOnUse">
<stop stop-color="#FFE600"/>
<stop offset="1" stop-color="#FFD53E"/>
</linearGradient>
<linearGradient id="paint2_linear_1_7784" x1="38" y1="0" x2="38" y2="40" gradientUnits="userSpaceOnUse">
<stop stop-color="#FFE600"/>
<stop offset="1" stop-color="#FFD53E"/>
</linearGradient>
<linearGradient id="paint3_linear_1_7784" x1="38" y1="0" x2="38" y2="40" gradientUnits="userSpaceOnUse">
<stop stop-color="#FFE600"/>
<stop offset="1" stop-color="#FFD53E"/>
</linearGradient>
<linearGradient id="paint4_linear_1_7784" x1="38" y1="0" x2="38" y2="40" gradientUnits="userSpaceOnUse">
<stop stop-color="#FFE600"/>
<stop offset="1" stop-color="#FFD53E"/>
</linearGradient>
<linearGradient id="paint5_linear_1_7784" x1="38" y1="0" x2="38" y2="40" gradientUnits="userSpaceOnUse">
<stop stop-color="#FFE600"/>
<stop offset="1" stop-color="#FFD53E"/>
</linearGradient>
<linearGradient id="paint6_linear_1_7784" x1="38" y1="0" x2="38" y2="40" gradientUnits="userSpaceOnUse">
<stop stop-color="#FFE600"/>
<stop offset="1" stop-color="#FFD53E"/>
</linearGradient>
<linearGradient id="paint7_linear_1_7784" x1="38" y1="0" x2="38" y2="40" gradientUnits="userSpaceOnUse">
<stop stop-color="#FFE600"/>
<stop offset="1" stop-color="#FFD53E"/>
</linearGradient>
<linearGradient id="paint8_linear_1_7784" x1="38" y1="0" x2="38" y2="40" gradientUnits="userSpaceOnUse">
<stop stop-color="#FFE600"/>
<stop offset="1" stop-color="#FFD53E"/>
</linearGradient>
<linearGradient id="paint9_linear_1_7784" x1="38" y1="0" x2="38" y2="40" gradientUnits="userSpaceOnUse">
<stop stop-color="#FFE600"/>
<stop offset="1" stop-color="#FFD53E"/>
</linearGradient>
<linearGradient id="paint10_linear_1_7784" x1="38" y1="0" x2="38" y2="40" gradientUnits="userSpaceOnUse">
<stop stop-color="#FFE600"/>
<stop offset="1" stop-color="#FFD53E"/>
</linearGradient>
<linearGradient id="paint11_linear_1_7784" x1="38" y1="0" x2="38" y2="40" gradientUnits="userSpaceOnUse">
<stop stop-color="#FFE600"/>
<stop offset="1" stop-color="#FFD53E"/>
</linearGradient>
<linearGradient id="paint12_linear_1_7784" x1="38" y1="0" x2="38" y2="40" gradientUnits="userSpaceOnUse">
<stop stop-color="#FFE600"/>
<stop offset="1" stop-color="#FFD53E"/>
</linearGradient>
<linearGradient id="paint13_linear_1_7784" x1="38" y1="0" x2="38" y2="40" gradientUnits="userSpaceOnUse">
<stop stop-color="#FFE600"/>
<stop offset="1" stop-color="#FFD53E"/>
</linearGradient>
<linearGradient id="paint14_linear_1_7784" x1="38" y1="0" x2="38" y2="40" gradientUnits="userSpaceOnUse">
<stop stop-color="#FFE600"/>
<stop offset="1" stop-color="#FFD53E"/>
</linearGradient>
<linearGradient id="paint15_linear_1_7784" x1="38" y1="0" x2="38" y2="40" gradientUnits="userSpaceOnUse">
<stop stop-color="#FFE600"/>
<stop offset="1" stop-color="#FFD53E"/>
</linearGradient>
<linearGradient id="paint16_linear_1_7784" x1="38" y1="0" x2="38" y2="40" gradientUnits="userSpaceOnUse">
<stop stop-color="#FFE600"/>
<stop offset="1" stop-color="#FFD53E"/>
</linearGradient>
<linearGradient id="paint17_linear_1_7784" x1="10" y1="0" x2="10" y2="40" gradientUnits="userSpaceOnUse">
<stop stop-color="#FFE600"/>
<stop offset="1" stop-color="#FFD53E"/>
</linearGradient>
<linearGradient id="paint18_linear_1_7784" x1="10" y1="0" x2="10" y2="40" gradientUnits="userSpaceOnUse">
<stop stop-color="#FFE600"/>
<stop offset="1" stop-color="#FFD53E"/>
</linearGradient>
<linearGradient id="paint19_linear_1_7784" x1="10" y1="0" x2="10" y2="40" gradientUnits="userSpaceOnUse">
<stop stop-color="#FFE600"/>
<stop offset="1" stop-color="#FFD53E"/>
</linearGradient>
<linearGradient id="paint20_linear_1_7784" x1="10" y1="0" x2="10" y2="40" gradientUnits="userSpaceOnUse">
<stop stop-color="#FFE600"/>
<stop offset="1" stop-color="#FFD53E"/>
</linearGradient>
<linearGradient id="paint21_linear_1_7784" x1="10" y1="0" x2="10" y2="40" gradientUnits="userSpaceOnUse">
<stop stop-color="#FFE600"/>
<stop offset="1" stop-color="#FFD53E"/>
</linearGradient>
<linearGradient id="paint22_linear_1_7784" x1="10" y1="0" x2="10" y2="40" gradientUnits="userSpaceOnUse">
<stop stop-color="#FFE600"/>
<stop offset="1" stop-color="#FFD53E"/>
</linearGradient>
<linearGradient id="paint23_linear_1_7784" x1="10" y1="0" x2="10" y2="40" gradientUnits="userSpaceOnUse">
<stop stop-color="#FFE600"/>
<stop offset="1" stop-color="#FFD53E"/>
</linearGradient>
<linearGradient id="paint24_linear_1_7784" x1="10" y1="0" x2="10" y2="40" gradientUnits="userSpaceOnUse">
<stop stop-color="#FFE600"/>
<stop offset="1" stop-color="#FFD53E"/>
</linearGradient>
<linearGradient id="paint25_linear_1_7784" x1="10" y1="0" x2="10" y2="40" gradientUnits="userSpaceOnUse">
<stop stop-color="#FFE600"/>
<stop offset="1" stop-color="#FFD53E"/>
</linearGradient>
<linearGradient id="paint26_linear_1_7784" x1="10" y1="0" x2="10" y2="40" gradientUnits="userSpaceOnUse">
<stop stop-color="#FFE600"/>
<stop offset="1" stop-color="#FFD53E"/>
</linearGradient>
<linearGradient id="paint27_linear_1_7784" x1="10" y1="0" x2="10" y2="40" gradientUnits="userSpaceOnUse">
<stop stop-color="#FFE600"/>
<stop offset="1" stop-color="#FFD53E"/>
</linearGradient>
<linearGradient id="paint28_linear_1_7784" x1="10" y1="0" x2="10" y2="40" gradientUnits="userSpaceOnUse">
<stop stop-color="#FFE600"/>
<stop offset="1" stop-color="#FFD53E"/>
</linearGradient>
<linearGradient id="paint29_linear_1_7784" x1="10" y1="0" x2="10" y2="40" gradientUnits="userSpaceOnUse">
<stop stop-color="#FFE600"/>
<stop offset="1" stop-color="#FFD53E"/>
</linearGradient>
<linearGradient id="paint30_linear_1_7784" x1="10" y1="0" x2="10" y2="40" gradientUnits="userSpaceOnUse">
<stop stop-color="#FFE600"/>
<stop offset="1" stop-color="#FFD53E"/>
</linearGradient>
<linearGradient id="paint31_linear_1_7784" x1="10" y1="0" x2="10" y2="40" gradientUnits="userSpaceOnUse">
<stop stop-color="#FFE600"/>
<stop offset="1" stop-color="#FFD53E"/>
</linearGradient>
<linearGradient id="paint32_linear_1_7784" x1="10" y1="0" x2="10" y2="40" gradientUnits="userSpaceOnUse">
<stop stop-color="#FFE600"/>
<stop offset="1" stop-color="#FFD53E"/>
</linearGradient>
<linearGradient id="paint33_linear_1_7784" x1="10" y1="0" x2="10" y2="40" gradientUnits="userSpaceOnUse">
<stop stop-color="#FFE600"/>
<stop offset="1" stop-color="#FFD53E"/>
</linearGradient>
</defs>
</svg>
