<svg width="134" height="40" viewBox="0 0 134 40" fill="none" xmlns="http://www.w3.org/2000/svg">
<rect width="134" height="40" rx="4" fill="#0094FF" fill-opacity="0.08"/>
<path d="M105.613 29.8593H107.456V17.4925H105.613L105.613 29.8593ZM122.213 21.9474L120.1 27.309H120.037L117.844 21.9473H115.859L119.147 29.4412L117.272 33.6096H119.195L124.262 21.9473L122.213 21.9474ZM111.761 28.4547C111.157 28.4547 110.315 28.1525 110.315 27.4044C110.315 26.4499 111.364 26.084 112.269 26.084C113.08 26.084 113.46 26.259 113.953 26.4979C113.81 27.6432 112.825 28.4547 111.761 28.4547ZM111.983 21.6768C110.649 21.6768 109.267 22.2656 108.696 23.5703L110.331 24.2543C110.681 23.5703 111.332 23.3473 112.015 23.3473C112.968 23.3473 113.937 23.9204 113.953 24.9386V25.0658C113.619 24.8748 112.905 24.5885 112.031 24.5885C110.268 24.5885 108.472 25.5588 108.472 27.3727C108.472 29.0274 109.918 30.0935 111.538 30.0935C112.778 30.0935 113.46 29.5367 113.89 28.8844H113.953V29.8389H115.732V25.0974C115.732 22.9022 114.096 21.6768 111.983 21.6768ZM100.594 23.4528H97.9726V19.2137H100.594C101.972 19.2137 102.754 20.3563 102.754 21.3332C102.754 22.2916 101.972 23.4528 100.594 23.4528ZM100.546 17.4925H96.1306V29.8593H97.9726V25.174H100.546C102.589 25.174 104.597 23.6927 104.597 21.3332C104.597 18.9737 102.589 17.4925 100.546 17.4925ZM76.4664 28.457C75.1932 28.457 74.1273 27.3893 74.1273 25.9228C74.1273 24.441 75.1932 23.357 76.4664 23.357C77.7234 23.357 78.7099 24.4409 78.7099 25.9228C78.7099 27.3893 77.7234 28.457 76.4664 28.457ZM78.5825 22.6398H78.5189C78.1053 22.1459 77.3093 21.6996 76.3071 21.6996C74.2068 21.6996 72.2816 23.5483 72.2816 25.9228C72.2816 28.2816 74.2067 30.1144 76.3071 30.1144C77.3093 30.1144 78.1053 29.668 78.5189 29.1584H78.5825V29.7639C78.5825 31.3738 77.7234 32.2344 76.3391 32.2344C75.2094 32.2344 74.5093 31.4213 74.2225 30.7361L72.6158 31.4055C73.0772 32.521 74.3024 33.8918 76.3391 33.8918C78.503 33.8918 80.3329 32.6165 80.3329 29.5089V21.9547H78.5825V22.6398ZM81.6057 29.8593H83.4514V17.4921H81.6057V29.8593ZM86.1724 25.7795C86.1246 24.1537 87.4294 23.3252 88.368 23.3252C89.1005 23.3252 89.7207 23.6916 89.9271 24.218L86.1724 25.7795ZM91.9005 24.3771C91.5508 23.4365 90.4842 21.6996 88.3043 21.6996C86.1404 21.6996 84.3426 23.4049 84.3426 25.907C84.3426 28.2658 86.1246 30.1144 88.5112 30.1144C90.4368 30.1144 91.5508 28.935 92.0121 28.2498L90.58 27.2934C90.1029 27.9948 89.4501 28.457 88.5112 28.457C87.5725 28.457 86.9043 28.0266 86.4745 27.1821L92.0911 24.8551L91.9005 24.3771ZM47.1516 22.9906V24.7755H51.4158C51.2885 25.7795 50.9544 26.5125 50.4451 27.0226C49.8248 27.6443 48.8542 28.3295 47.1516 28.3295C44.5261 28.3295 42.4737 26.2099 42.4737 23.5803C42.4737 20.9507 44.5261 18.8308 47.1516 18.8308C48.5678 18.8308 49.6018 19.3887 50.3656 20.1059L51.6226 18.847C50.5567 17.8268 49.1404 17.0459 47.1516 17.0459C43.5555 17.0459 40.5323 19.9784 40.5323 23.5803C40.5323 27.1821 43.5555 30.1144 47.1516 30.1144C49.093 30.1144 50.5567 29.4772 51.7021 28.2816C52.8796 27.1022 53.2458 25.4448 53.2458 24.1063C53.2458 23.6916 53.2141 23.3094 53.15 22.9906H47.1516ZM58.0938 28.457C56.8206 28.457 55.7226 27.4051 55.7226 25.907C55.7226 24.3929 56.8206 23.357 58.0938 23.357C59.3664 23.357 60.4644 24.3929 60.4644 25.907C60.4644 27.4051 59.3664 28.457 58.0938 28.457ZM58.0938 21.6996C55.7704 21.6996 53.8769 23.4686 53.8769 25.907C53.8769 28.3295 55.7704 30.1144 58.0938 30.1144C60.4166 30.1144 62.3101 28.3295 62.3101 25.907C62.3101 23.4686 60.4166 21.6996 58.0938 21.6996ZM67.2919 28.457C66.0193 28.457 64.9212 27.4051 64.9212 25.907C64.9212 24.3929 66.0193 23.357 67.292 23.357C68.5648 23.357 69.6627 24.3929 69.6627 25.907C69.6627 27.4051 68.5647 28.457 67.2919 28.457ZM67.2919 21.6996C64.9687 21.6996 63.0756 23.4686 63.0756 25.907C63.0756 28.3295 64.9687 30.1144 67.292 30.1144C69.6149 30.1144 71.5085 28.3295 71.5085 25.907C71.5085 23.4686 69.6149 21.6996 67.2919 21.6996Z" fill="#151C22"/>
<path d="M75.4998 13.1413H74.5415V7.00796H75.6217L78.3721 11.4175L78.3482 10.5816V7.00796H79.3077V13.1413H78.3594L75.4759 8.50862L75.4998 9.34389V13.1413Z" fill="#151C22"/>
<path fill-rule="evenodd" clip-rule="evenodd" d="M72.7697 12.3441C73.3684 11.7282 73.6712 10.9642 73.6705 10.0747C73.6712 9.19018 73.3672 8.42775 72.7657 7.80909C72.1639 7.188 71.4101 6.87394 70.5258 6.875C69.6369 6.87394 68.8808 7.18653 68.2827 7.80523C67.6828 8.42157 67.3811 9.18511 67.3819 10.0747C67.3811 10.9642 67.6828 11.7282 68.2827 12.3445C68.8808 12.9632 69.6369 13.2747 70.5258 13.2739C71.4143 13.2747 72.1704 12.9628 72.7697 12.3441ZM68.9861 11.709C68.5671 11.2819 68.3576 10.7448 68.3568 10.0747C68.3576 9.40472 68.5671 8.86756 68.9861 8.44049C69.4089 8.01354 69.9139 7.8041 70.5258 7.80294C71.1373 7.8041 71.6434 8.01354 72.0652 8.44049C72.4849 8.86756 72.6944 9.40472 72.6952 10.0747C72.6944 10.7447 72.4849 11.2819 72.0652 11.709C71.6434 12.1359 71.1373 12.3454 70.5258 12.3465C69.9139 12.3454 69.4089 12.1359 68.9861 11.709Z" fill="#151C22"/>
<path d="M63.4335 7.93498V13.1413H62.474V7.93493H60.819V7.00796H65.0886V7.93498H63.4335Z" fill="#151C22"/>
<path d="M60.0557 13.1413H59.097V7.00796H60.0557V13.1413Z" fill="#151C22"/>
<path d="M54.6929 7.93498V13.1413H53.7334V7.93493H52.0783V7.00796H56.348V7.93498H54.6929Z" fill="#151C22"/>
<path d="M51.482 7.00796V7.93498H48.7833V9.6191H51.217V10.5302H48.7833V12.2143H51.482V13.1413H47.825V7.00796H51.482Z" fill="#151C22"/>
<path d="M46.8867 9.84982C46.9157 10.0105 46.9296 10.1651 46.9296 10.3154C46.9302 11.1628 46.6781 11.8529 46.1665 12.365C45.5909 12.9705 44.8323 13.2747 43.9179 13.2739C43.0399 13.2747 42.2822 12.9659 41.668 12.3546C41.0507 11.7437 40.7398 10.9758 40.7406 10.0747C40.7398 9.17315 41.0507 8.40569 41.6676 7.79513C42.2822 7.18337 43.0399 6.87425 43.9179 6.875C44.3551 6.875 44.7752 6.96081 45.1734 7.13207C45.5708 7.30279 45.8941 7.53278 46.1367 7.82252L46.195 7.89179L45.5342 8.55445L45.4647 8.47176C45.0901 8.02543 44.5858 7.80443 43.9179 7.80283C43.3172 7.80363 42.8076 8.01076 42.3682 8.43388C41.933 8.85549 41.7166 9.39376 41.7155 10.0747C41.7166 10.7555 41.933 11.2938 42.3682 11.7154C42.8076 12.1385 43.3173 12.3457 43.9179 12.3465C44.558 12.3453 45.0789 12.1363 45.5032 11.7128C45.7503 11.4642 45.9043 11.1241 45.9602 10.6794H43.8192V9.7686H46.8721L46.8867 9.84982Z" fill="#151C22"/>
<path d="M10.3788 32.2227L10.3054 32.1523C10.018 31.8478 9.84827 31.3748 9.84827 30.7623V30.9065V9.02858V9.17307C9.84827 8.50991 10.0461 8.01033 10.3776 7.7108L22.6144 19.9671L10.3788 32.2227Z" fill="url(#paint0_linear_1_12996)"/>
<path d="M26.6914 24.0547L22.6119 19.9679L26.6911 15.8818L31.6158 18.6841C32.2412 19.0401 32.5923 19.4988 32.651 19.9675V19.9694C32.5923 20.437 32.2412 20.8961 31.6158 21.2519L26.6915 24.0546" fill="url(#paint1_linear_1_12996)"/>
<path d="M11.2494 32.5439C10.9076 32.5443 10.6093 32.4326 10.3767 32.2224V32.2221L22.6124 19.9665L26.6919 24.0533L12.3558 32.212C11.9592 32.4373 11.5834 32.5439 11.2494 32.5439Z" fill="url(#paint2_linear_1_12996)"/>
<path d="M22.6125 19.9668L10.3756 7.71048C10.6082 7.50063 10.9061 7.38935 11.2475 7.38935C11.5824 7.38935 11.9585 7.49636 12.356 7.72204L26.6916 15.8807L22.6125 19.9668" fill="url(#paint3_linear_1_12996)"/>
<defs>
<linearGradient id="paint0_linear_1_12996" x1="17.6684" y1="8.79735" x2="7.12293" y2="19.3597" gradientUnits="userSpaceOnUse">
<stop stop-color="#00A0FF"/>
<stop offset="0.00657" stop-color="#00A1FF"/>
<stop offset="0.2601" stop-color="#00BEFF"/>
<stop offset="0.5122" stop-color="#00D2FF"/>
<stop offset="0.7604" stop-color="#00DFFF"/>
<stop offset="1" stop-color="#00E3FF"/>
</linearGradient>
<linearGradient id="paint1_linear_1_12996" x1="33.4129" y1="19.8973" x2="9.51463" y2="19.8973" gradientUnits="userSpaceOnUse">
<stop stop-color="#FFE000"/>
<stop offset="0.4087" stop-color="#FFBD00"/>
<stop offset="0.7754" stop-color="#FFA500"/>
<stop offset="1" stop-color="#FF9C00"/>
</linearGradient>
<linearGradient id="paint2_linear_1_12996" x1="24.526" y1="23.8521" x2="6.656" y2="41.6202" gradientUnits="userSpaceOnUse">
<stop stop-color="#FF3A44"/>
<stop offset="1" stop-color="#C31162"/>
</linearGradient>
<linearGradient id="paint3_linear_1_12996" x1="7.22182" y1="5.89342" x2="15.1861" y2="13.8244" gradientUnits="userSpaceOnUse">
<stop stop-color="#32A071"/>
<stop offset="0.0685" stop-color="#2DA771"/>
<stop offset="0.4762" stop-color="#15CF74"/>
<stop offset="0.8009" stop-color="#06E775"/>
<stop offset="1" stop-color="#00F076"/>
</linearGradient>
</defs>
</svg>
