<svg width="100" height="32" viewBox="0 0 100 32" fill="none" xmlns="http://www.w3.org/2000/svg">
<g clip-path="url(#clip0_1_8406)">
<path d="M15.0425 23.7527C16.957 23.7527 17.9248 24.6994 17.9248 24.6994L16.9991 26.4036C16.9991 26.4036 16.3258 25.7303 15.2108 25.7303C13.8222 25.7303 13.2542 26.5719 13.2542 27.5397C13.2542 28.6758 14.0116 29.4752 15.1266 29.4752C15.8209 29.4752 16.3679 29.1176 16.431 29.0124V28.6758H15.4843V27.0768H18.3035V31.2635H16.5152V30.948C16.5152 30.8428 16.5152 30.7376 16.5362 30.7165H16.4941C16.41 30.8428 15.7999 31.4108 14.6217 31.4108C12.602 31.4108 10.9609 29.896 10.9609 27.5817C10.9609 25.4148 12.5599 23.7527 15.0425 23.7527Z" fill="#151C22"/>
<path d="M22.7851 23.7527C25.1625 23.7527 26.7615 25.3727 26.7615 27.5397C26.7615 29.7487 25.1625 31.4318 22.7851 31.4318C20.4077 31.4318 18.8088 29.7698 18.8088 27.5397C18.7878 25.3727 20.3867 23.7527 22.7851 23.7527ZM22.7851 29.4332C23.7529 29.4332 24.4682 28.6547 24.4682 27.5397C24.4682 26.4667 23.7529 25.7303 22.7851 25.7303C21.8173 25.7303 21.102 26.4667 21.102 27.5397C21.102 28.6758 21.8173 29.4332 22.7851 29.4332Z" fill="#151C22"/>
<path d="M27.4771 23.8789H30.7171C32.3371 23.8789 33.4521 24.7625 33.4521 26.3194C33.4521 27.161 33.0103 27.9604 32.316 28.4022V28.4233C32.3371 28.4654 32.4843 28.6547 32.6316 28.9282L33.936 31.3056H31.4955L30.3384 28.9703H29.7072V31.3056H27.4561V23.8789H27.4771ZM30.4015 27.2451C30.9064 27.2451 31.1799 26.9506 31.1799 26.4456C31.1799 25.9828 30.9906 25.6672 30.3173 25.6672H29.7282V27.2241H30.4015V27.2451Z" fill="#151C22"/>
<path d="M34.377 23.8789H37.3855C39.6787 23.8789 41.1514 25.2464 41.1514 27.5817C41.1514 29.917 39.6787 31.3056 37.3855 31.3056H34.377V23.8789ZM37.2382 29.4752C38.2481 29.4752 38.8372 28.823 38.8372 27.5817C38.8372 26.3404 38.206 25.7093 37.2382 25.7093H36.6071V29.4752H37.2382Z" fill="#151C22"/>
<path d="M45.5283 23.7527C47.9057 23.7527 49.5046 25.3727 49.5046 27.5397C49.5046 29.7487 47.9057 31.4318 45.5283 31.4318C43.1509 31.4318 41.552 29.7698 41.552 27.5397C41.5309 25.3727 43.1299 23.7527 45.5283 23.7527ZM45.5283 29.4332C46.4961 29.4332 47.2114 28.6547 47.2114 27.5397C47.2114 26.4667 46.4961 25.7303 45.5283 25.7303C44.5605 25.7303 43.8452 26.4667 43.8452 27.5397C43.8452 28.6758 44.5395 29.4332 45.5283 29.4332Z" fill="#151C22"/>
<path d="M50.2402 23.8789H52.3862L54.2166 26.9295C54.5321 27.4345 54.7425 28.0656 54.7425 28.0656H54.7846C54.7846 28.0656 54.7005 27.3924 54.7005 26.9295V23.8789H56.8674V31.3056H54.6794L52.849 28.1287C52.5755 27.6869 52.3231 27.0137 52.3231 27.0137H52.281C52.281 27.0137 52.3651 27.6659 52.3651 28.1287V31.3056H50.2402V23.8789Z" fill="#151C22"/>
<path d="M60.2341 23.8789H62.6746L63.6003 26.8664C63.7475 27.3503 63.9158 28.0656 63.9158 28.0656H63.9579C63.9579 28.0656 64.1052 27.3503 64.2735 26.8664L65.1992 23.8789H67.6397L68.1867 31.3056H66.1039L65.8935 28.2129C65.8514 27.6449 65.8935 27.0137 65.8935 27.0137H65.8514C65.8514 27.0137 65.6621 27.75 65.5148 28.2129L64.8416 30.3168H63.0322L62.3379 28.2129C62.1907 27.75 62.0013 27.0137 62.0013 27.0137H61.9592C61.9592 27.0137 61.9803 27.6449 61.9592 28.2129L61.7699 31.3056H59.666L60.2341 23.8789Z" fill="#151C22"/>
<path d="M72.6894 23.7527C75.0668 23.7527 76.6658 25.3727 76.6658 27.5397C76.6658 29.7487 75.0668 31.4318 72.6894 31.4318C70.312 31.4318 68.7131 29.7698 68.7131 27.5397C68.6921 25.3727 70.291 23.7527 72.6894 23.7527ZM72.6894 29.4332C73.6572 29.4332 74.3725 28.6547 74.3725 27.5397C74.3725 26.4667 73.6572 25.7303 72.6894 25.7303C71.7216 25.7303 71.0063 26.4667 71.0063 27.5397C71.0063 28.6758 71.7216 29.4332 72.6894 29.4332Z" fill="#151C22"/>
<path d="M81.0203 23.7527C83.3977 23.7527 84.9966 25.3727 84.9966 27.5397C84.9966 29.7487 83.3977 31.4318 81.0203 31.4318C78.6429 31.4318 77.0439 29.7698 77.0439 27.5397C77.0439 25.3727 78.6429 23.7527 81.0203 23.7527ZM81.0203 29.4332C81.9881 29.4332 82.7034 28.6547 82.7034 27.5397C82.7034 26.4667 81.9881 25.7303 81.0203 25.7303C80.0525 25.7303 79.3372 26.4667 79.3372 27.5397C79.3372 28.6758 80.0525 29.4332 81.0203 29.4332Z" fill="#151C22"/>
<path d="M85.7334 23.8789H88.7419C91.0352 23.8789 92.5079 25.2464 92.5079 27.5817C92.5079 29.917 91.0352 31.3056 88.7419 31.3056H85.7334V23.8789ZM88.5947 29.4752C89.6045 29.4752 90.1936 28.823 90.1936 27.5817C90.1936 26.3404 89.5625 25.7093 88.5947 25.7093H87.9635V29.4752H88.5947Z" fill="#151C22"/>
<path d="M94.4854 28.3602L92.0449 23.8789H94.4433L95.1587 25.4147C95.369 25.8776 95.5794 26.5298 95.5794 26.5298H95.6215C95.6215 26.5298 95.8319 25.8776 96.0633 25.4147L96.7576 23.8789H99.1771L96.7366 28.3602V31.3056H94.4854V28.3602Z" fill="#151C22"/>
<path d="M4.43903 29.5385C5.51963 29.5385 6.39564 28.6625 6.39564 27.5819C6.39564 26.5012 5.51963 25.6252 4.43903 25.6252C3.35842 25.6252 2.48242 26.5012 2.48242 27.5819C2.48242 28.6625 3.35842 29.5385 4.43903 29.5385Z" fill="#FF5F00"/>
<path d="M4.43929 25.0992L5.32292 24.2156V23.1426H3.55566V24.2156L4.43929 25.0992Z" fill="#FF5F00"/>
<path d="M3.19837 25.4358L3.53499 24.2155L2.98798 23.2898L1.45215 24.1734L1.97812 25.0991L3.19837 25.4358Z" fill="#FF8300"/>
<path d="M2.29342 26.3405L1.9568 25.1202L1.03109 24.5942L0.147461 26.1301L1.07317 26.656L2.29342 26.3405Z" fill="#FF5F00"/>
<path d="M1.95661 27.5819L1.07298 26.6982H0V28.4655H1.07298L1.95661 27.5819Z" fill="#FF8300"/>
<path d="M2.29342 28.823L1.07317 28.4863L0.147461 29.0333L1.03109 30.5692L1.9568 30.0432L2.29342 28.823Z" fill="#FF5F00"/>
<path d="M3.19837 29.7278L1.97812 30.0644L1.45215 30.9901L2.98798 31.8737L3.53499 30.948L3.19837 29.7278Z" fill="#FF8300"/>
<path d="M4.43929 30.0645L3.55566 30.9481V32.0211H5.32292V30.9481L4.43929 30.0645Z" fill="#FF5F00"/>
<path d="M5.68082 29.7278L5.36523 30.948L5.8912 31.8737L7.42704 30.9901L6.90107 30.0644L5.68082 29.7278Z" fill="#FF8300"/>
<path d="M6.58496 28.823L6.92158 30.0432L7.84729 30.5692L8.73092 29.0333L7.80521 28.4863L6.58496 28.823Z" fill="#FF5F00"/>
<path d="M6.92188 27.5819L7.8055 28.4655H8.87848V26.6982H7.8055L6.92188 27.5819Z" fill="#FF8300"/>
<path d="M6.58496 26.3405L7.80521 26.656L8.73092 26.1301L7.84729 24.5942L6.92158 25.1202L6.58496 26.3405Z" fill="#FF5F00"/>
<path d="M5.68082 25.4358L6.90107 25.0991L7.42704 24.1734L5.8912 23.2898L5.36523 24.2155L5.68082 25.4358Z" fill="#FF8300"/>
<path d="M94.9482 11.3188H89.7517H86.9325H0.147461V21.0598H86.9325H89.7517H95.1165L99.8503 16.1367L94.9482 11.3188Z" fill="#FF5F00"/>
<path d="M58.341 0H53.1444H50.3252H0.0214844V9.74096H50.3252H53.1444H58.5093L63.2431 4.81788L58.341 0Z" fill="#FF5F00"/>
<path d="M3.44988 2.33527H1.68262V1.22021H6.47946V2.33527H4.7122V8.56276H3.47091V2.33527H3.44988Z" fill="white"/>
<path d="M7.36328 1.22021H8.62561V4.33396H10.8978V1.22021H12.1391V8.56276H10.8978V5.47005H8.62561V8.56276H7.36328V1.22021Z" fill="white"/>
<path d="M13.5693 1.22021H17.0618V2.33527H14.8317V4.29188H16.62V5.40693H14.8317V7.42666H17.188V8.54171H13.5693V1.22021Z" fill="white"/>
<path d="M18.2607 1.22021H20.3857C20.6592 1.22021 21.0379 1.28333 21.3534 1.45164C22.0056 1.76722 22.4685 2.4615 22.4685 3.40825C22.4685 4.37603 21.9425 5.11239 21.3955 5.42797V5.44901C21.3955 5.44901 21.4797 5.57524 21.6059 5.84875L22.8262 8.58379H21.4376L20.3225 5.84875H19.5231V8.58379H18.2607V1.22021ZM20.1963 4.71265C20.7223 4.71265 21.1851 4.27084 21.1851 3.51344C21.1851 3.07163 21.0379 2.71397 20.7854 2.52462C20.6171 2.41943 20.3857 2.35631 20.2173 2.35631H19.5231V4.71265H20.1963Z" fill="white"/>
<path d="M25.0151 1.22021H26.3826L28.3182 8.56276H27.0559L26.593 6.66926H24.8047L24.3629 8.56276H23.1006L25.0151 1.22021ZM26.4037 5.61732L25.9408 3.63968C25.8356 3.2189 25.7304 2.50358 25.7304 2.50358H25.7094C25.7094 2.50358 25.6042 3.2189 25.499 3.63968L25.0151 5.61732H26.4037Z" fill="white"/>
<path d="M29.1387 1.22021H31.2215C32.5049 1.22021 33.3885 2.188 33.3885 3.61864C33.3885 5.04927 32.5049 6.01706 31.2215 6.01706H30.401V8.54171H29.1387V1.22021ZM31.0111 4.92304C31.6844 4.92304 32.1262 4.39707 32.1262 3.63968C32.1262 2.86124 31.6633 2.35631 31.0322 2.35631H30.401V4.92304H31.0111Z" fill="white"/>
<path d="M35.5131 5.49109L33.6406 1.22021H35.0292L35.8497 3.36617C36.018 3.82903 36.1442 4.33396 36.1442 4.33396H36.1653C36.1653 4.33396 36.2915 3.80799 36.4598 3.36617L37.2593 1.22021H38.6479L36.7754 5.49109V8.56276H35.5341V5.49109H35.5131Z" fill="white"/>
<path d="M41.2568 1.22021H44.6651V2.33527H42.5192V4.46019H44.3075V5.57525H42.5192V8.56276H41.2568V1.22021Z" fill="white"/>
<path d="M48.3041 1.09399C50.1135 1.09399 51.2495 2.62983 51.2495 4.8389C51.2495 7.06901 50.0924 8.66796 48.3041 8.66796C46.4948 8.66796 45.3587 7.06901 45.3587 4.81786C45.3376 2.65086 46.4737 1.09399 48.3041 1.09399ZM48.3041 7.46875C49.335 7.46875 49.9662 6.41681 49.9662 4.8389C49.9662 3.28203 49.3561 2.2932 48.3041 2.2932C47.2522 2.2932 46.6421 3.28203 46.6421 4.81786C46.6421 6.43785 47.2522 7.46875 48.3041 7.46875Z" fill="white"/>
<path d="M52.3857 1.22021H54.5107C54.7842 1.22021 55.1629 1.28333 55.4784 1.45164C56.1307 1.76722 56.5935 2.4615 56.5935 3.40825C56.5935 4.37603 56.0675 5.11239 55.5205 5.42797V5.44901C55.5205 5.44901 55.6047 5.57524 55.7309 5.84875L56.9512 8.58379H55.5626L54.4475 5.84875H53.6481V8.58379H52.3857V1.22021ZM54.3213 4.71265C54.8473 4.71265 55.3101 4.27084 55.3101 3.51344C55.3101 3.07163 55.1629 2.71397 54.9104 2.52462C54.7421 2.41943 54.5107 2.35631 54.3423 2.35631H53.6481V4.71265H54.3213Z" fill="white"/>
<path d="M5.06944 12.4128C5.74268 12.4128 6.50007 12.6443 7.005 13.044L6.458 14.117C6.12138 13.8014 5.63748 13.591 5.11151 13.591C3.87022 13.591 3.17594 14.664 3.17594 16.1788C3.17594 17.7567 3.95438 18.7876 5.00632 18.7876C5.46917 18.7876 5.91099 18.6193 6.18449 18.2616V17.1045H5.36398V15.9894H7.29955V19.8606H6.31072V19.5871C6.31072 19.4608 6.33176 19.3136 6.33176 19.3136H6.31072C6.01618 19.7133 5.42709 19.9868 4.77489 19.9868C3.30218 20.0078 1.89258 18.5982 1.89258 16.2209C1.89258 13.9487 3.15491 12.4128 5.06944 12.4128Z" fill="white"/>
<path d="M9.82469 12.5391H11.1922L13.1278 19.8816H11.8654L11.4026 17.9881H9.6143L9.17248 19.8816H7.91016L9.82469 12.5391ZM11.2132 16.9362L10.7504 14.9585C10.6452 14.5377 10.54 13.8224 10.54 13.8224H10.519C10.519 13.8224 10.4138 14.5377 10.3086 14.9585L9.82469 16.9362H11.2132Z" fill="white"/>
<path d="M14.2007 12.5391H15.5892L16.5781 16.0946C16.6833 16.5364 16.8095 17.2097 16.8095 17.2097H16.8305C16.8305 17.2097 16.9568 16.5364 17.062 16.0946L18.0508 12.5391H19.4393L19.9022 19.8816H18.724L18.4716 15.8001C18.4505 15.3162 18.4716 14.664 18.4716 14.664H18.4505C18.4505 14.664 18.3243 15.4003 18.1981 15.8422L17.4196 18.6193H16.1994L15.4209 15.8422C15.3157 15.4214 15.1895 14.664 15.1895 14.664H15.1474C15.1474 14.664 15.1895 15.3162 15.1474 15.8001L14.895 19.8816H13.7168L14.2007 12.5391Z" fill="white"/>
<path d="M21.1436 12.5391H23.1212C24.2994 12.5391 25.1409 13.2123 25.1409 14.4326C25.1409 15.1268 24.8253 15.7159 24.2783 16.0105V16.0315C25.0357 16.2629 25.3724 16.9782 25.3724 17.7777C25.3724 19.2504 24.4466 19.9026 23.1633 19.9026H21.1436V12.5391ZM23.1843 15.5476C23.6051 15.5476 23.8576 15.1268 23.8576 14.5798C23.8576 14.0328 23.5841 13.6541 23.0791 13.6541H22.4059V15.5476H23.1843ZM23.1422 18.7665C23.7944 18.7665 24.089 18.3037 24.089 17.6936C24.089 17.0414 23.7734 16.5995 23.2895 16.5995H22.4059V18.7665H23.1422Z" fill="white"/>
<path d="M26.4873 12.5391H27.7496V18.7665H30.106V19.8816H26.4873C26.4873 19.8816 26.4873 12.5391 26.4873 12.5391Z" fill="white"/>
<path d="M31.0107 12.5391H32.2731V19.8816H31.0107V12.5391Z" fill="white"/>
<path d="M33.7041 12.5391H35.0295L36.923 16.6837C37.1124 17.1255 37.3017 17.7988 37.3017 17.7988H37.3438C37.3438 17.7988 37.2807 17.1045 37.2807 16.6627V12.5391H38.4589V19.8816H37.1545L35.261 15.7159C35.0716 15.2531 34.8823 14.6009 34.8823 14.6009H34.8402C34.8402 14.6009 34.9033 15.2951 34.9033 15.737V19.8816H33.7251V12.5391H33.7041Z" fill="white"/>
<path d="M42.7296 12.4128C43.4028 12.4128 44.1602 12.6443 44.6652 13.044L44.1182 14.117C43.7815 13.8014 43.2976 13.591 42.7717 13.591C41.5304 13.591 40.8361 14.664 40.8361 16.1788C40.8361 17.7567 41.6145 18.7876 42.6665 18.7876C43.1293 18.7876 43.5711 18.6193 43.8446 18.2616V17.1045H43.0241V15.9894H44.9597V19.8606H43.9709V19.5871C43.9709 19.4608 43.9919 19.3136 43.9919 19.3136H43.9709C43.6763 19.7133 43.0873 19.9868 42.435 19.9868C40.9413 19.9868 39.5527 18.5982 39.5527 16.2209C39.5527 13.9487 40.8151 12.4128 42.7296 12.4128Z" fill="white"/>
<path d="M49.3989 12.5391H50.7664L52.702 19.8816H51.4397L50.9768 17.9881H49.1885L48.7467 19.8816H47.4844L49.3989 12.5391ZM50.7875 16.9362L50.3246 14.9585C50.2194 14.5377 50.1142 13.8224 50.1142 13.8224H50.0721C50.0721 13.8224 49.967 14.5377 49.8618 14.9585L49.3779 16.9362H50.7875Z" fill="white"/>
<path d="M53.5225 12.5391H55.5632C57.3726 12.5391 58.5087 13.8855 58.5087 16.1998C58.5087 18.5141 57.3515 19.8816 55.5632 19.8816H53.5225V12.5391ZM55.5001 18.7455C56.5731 18.7455 57.2042 17.8619 57.2042 16.1998C57.2042 14.5377 56.552 13.6752 55.5001 13.6752H54.7848V18.7665L55.5001 18.7455Z" fill="white"/>
<path d="M59.6445 12.5391H61.6853C63.4946 12.5391 64.6307 13.8855 64.6307 16.1998C64.6307 18.5141 63.4736 19.8816 61.6853 19.8816H59.6445V12.5391ZM61.6432 18.7455C62.7162 18.7455 63.3474 17.8619 63.3474 16.1998C63.3474 14.5377 62.6952 13.6752 61.6432 13.6752H60.9279V18.7665L61.6432 18.7455Z" fill="white"/>
<path d="M65.7881 12.5391H67.0504V19.8816H65.7881V12.5391Z" fill="white"/>
<path d="M71.3837 12.4128C72.0149 12.4128 72.6881 12.6022 73.172 13.023L72.646 14.117C72.3936 13.8435 71.8886 13.6121 71.4258 13.6121C70.1635 13.6121 69.4692 14.7481 69.4692 16.1577C69.4692 17.5884 70.2055 18.8297 71.4048 18.8297C71.9518 18.8297 72.3936 18.5982 72.7723 18.2827L73.2982 19.3556C72.8354 19.7343 72.2253 20.0078 71.3206 20.0078C69.343 20.0078 68.1858 18.3668 68.1858 16.1998C68.1648 14.0118 69.343 12.4128 71.3837 12.4128Z" fill="white"/>
<path d="M75.445 13.6541H73.6777V12.5391H78.4746V13.6541H76.7073V19.8816H75.466V13.6541H75.445Z" fill="white"/>
<path d="M79.3574 12.5391H80.6197V19.8816H79.3574V12.5391Z" fill="white"/>
<path d="M84.7013 12.4128C86.5106 12.4128 87.6467 13.9487 87.6467 16.1577C87.6467 18.3879 86.4896 19.9868 84.7013 19.9868C82.892 19.9868 81.7559 18.3879 81.7559 16.1367C81.7559 13.9697 82.892 12.4128 84.7013 12.4128ZM84.7013 18.7876C85.7322 18.7876 86.3634 17.7357 86.3634 16.1577C86.3634 14.6009 85.7532 13.6121 84.7013 13.6121C83.6494 13.6121 83.0392 14.6009 83.0392 16.1367C83.0392 17.7567 83.6704 18.7876 84.7013 18.7876Z" fill="white"/>
<path d="M88.7832 12.5391H90.1086L92.0021 16.6837C92.1915 17.1255 92.3808 17.7988 92.3808 17.7988H92.4229C92.4229 17.7988 92.3598 17.1045 92.3598 16.6627V12.5391H93.538V19.8816H92.2336L90.3401 15.7159C90.1507 15.2531 89.9614 14.6009 89.9614 14.6009H89.9193C89.9193 14.6009 89.9824 15.2951 89.9824 15.737V19.8816H88.7832V12.5391Z" fill="white"/>
</g>
<defs>
<clipPath id="clip0_1_8406">
<rect width="99.8501" height="32" fill="white"/>
</clipPath>
</defs>
</svg>
