<svg width="20" height="20" viewBox="0 0 20 20" fill="none" xmlns="http://www.w3.org/2000/svg">
<path d="M18.3335 6.33301C18.3335 4.67615 16.9903 3.33301 15.3335 3.33301H4.66699C3.01014 3.33301 1.66699 4.67615 1.66699 6.33301V13.6663C1.66699 15.3232 3.01014 16.6663 4.66699 16.6663H15.3335C16.9903 16.6663 18.3335 15.3232 18.3335 13.6663V6.33301ZM16.6668 13.9997C16.6668 14.552 16.2191 14.9997 15.6668 14.9997H4.33346C3.78118 14.9997 3.33346 14.552 3.33346 13.9997V9.99967H16.6668V13.9997ZM16.6668 6.66634H3.33346V5.99967C3.33346 5.44739 3.78118 4.99967 4.33346 4.99967H15.6668C16.2191 4.99967 16.6668 5.44739 16.6668 5.99967V6.66634Z" fill="#0094FF"/>
</svg>
