<svg width="40" height="40" viewBox="0 0 40 40" fill="none" xmlns="http://www.w3.org/2000/svg">
<path d="M20 37C28.8091 37 36.0573 30.2927 36.9227 21.7C37.0155 20.7882 36.2891 20 35.3773 20C34.5891 20 33.9245 20.5873 33.8473 21.36C33.1673 28.4073 27.2173 33.9091 20 33.9091C15.1782 33.9091 10.9282 31.4518 8.44 27.7273H10.7273C11.5773 27.7273 12.2727 27.0318 12.2727 26.1818C12.2727 25.3318 11.5773 24.6364 10.7273 24.6364H4.54545C3.69545 24.6364 3 25.3318 3 26.1818V32.3636C3 33.2136 3.69545 33.9091 4.54545 33.9091C5.39545 33.9091 6.09091 33.2136 6.09091 32.3636V29.7827C9.16636 34.1409 14.2509 37 20 37ZM20 3C11.1909 3 3.94273 9.70727 3.07727 18.3C3 19.2118 3.71091 20 4.62273 20C5.41091 20 6.07545 19.4127 6.15273 18.64C6.83273 11.5927 12.7827 6.09091 20 6.09091C24.8218 6.09091 29.0718 8.54818 31.56 12.2727H29.2727C28.4227 12.2727 27.7273 12.9682 27.7273 13.8182C27.7273 14.6682 28.4227 15.3636 29.2727 15.3636H35.4545C36.3045 15.3636 37 14.6682 37 13.8182V7.63636C37 6.78636 36.3045 6.09091 35.4545 6.09091C34.6045 6.09091 33.9091 6.78636 33.9091 7.63636V10.2173C30.8336 5.85909 25.7491 3 20 3Z" fill="#0094FF"/>
<path d="M26.448 21.4069C26.4208 21.4052 20.2877 25.0398 20.2073 25.0709C20.1892 25.0604 14.0022 21.3987 13.9727 21.4023C13.9878 21.4243 20.2032 30.2 20.2073 30.2C20.2115 30.2 26.448 21.4069 26.448 21.4069Z" fill="#0094FF"/>
<path d="M20.2104 9.8L13.993 20.1984L20.2104 23.8812L26.4278 20.1984L20.2104 9.8Z" fill="#0094FF"/>
</svg>
