<svg width="32" height="32" viewBox="0 0 32 32" fill="none" xmlns="http://www.w3.org/2000/svg">
<path d="M6.3999 4.7998H19.1999L25.5999 11.1998V27.1998H6.3999V4.7998Z" fill="#0094FF" fill-opacity="0.16"/>
<path fill-rule="evenodd" clip-rule="evenodd" d="M6.5503 4.22266C7.20497 3.56799 8.0929 3.2002 9.01874 3.2002H18.3278C18.6364 3.2002 18.9324 3.32279 19.1507 3.54102L26.1325 10.5228C26.3507 10.7411 26.4733 11.037 26.4733 11.3456V25.3093C26.4733 26.2351 26.1055 27.1231 25.4508 27.7777C24.7962 28.4324 23.9082 28.8002 22.9824 28.8002H9.01874C8.09289 28.8002 7.20497 28.4324 6.5503 27.7777C5.89562 27.1231 5.52783 26.2351 5.52783 25.3093V6.6911C5.52783 5.76526 5.89562 4.87733 6.5503 4.22266ZM9.01874 5.52747C8.71013 5.52747 8.41415 5.65006 8.19593 5.86829C7.9777 6.08651 7.85511 6.38249 7.85511 6.6911V25.3093C7.85511 25.6179 7.9777 25.9139 8.19593 26.1321C8.41415 26.3503 8.71013 26.4729 9.01874 26.4729H22.9824C23.291 26.4729 23.587 26.3503 23.8052 26.1321C24.0234 25.9139 24.146 25.6179 24.146 25.3093V11.8276L17.8458 5.52747H9.01874Z" fill="#0094FF"/>
<path fill-rule="evenodd" clip-rule="evenodd" d="M18.3278 3.2002C18.9705 3.2002 19.4915 3.72117 19.4915 4.36383V10.182H25.3097C25.9523 10.182 26.4733 10.703 26.4733 11.3456C26.4733 11.9883 25.9523 12.5093 25.3097 12.5093H18.3278C17.6852 12.5093 17.1642 11.9883 17.1642 11.3456V4.36383C17.1642 3.72117 17.6852 3.2002 18.3278 3.2002Z" fill="#0094FF"/>
<path fill-rule="evenodd" clip-rule="evenodd" d="M10.1824 17.1638C10.1824 16.5212 10.7034 16.0002 11.346 16.0002H20.6551C21.2978 16.0002 21.8187 16.5212 21.8187 17.1638C21.8187 17.8065 21.2978 18.3275 20.6551 18.3275H11.346C10.7034 18.3275 10.1824 17.8065 10.1824 17.1638Z" fill="#0094FF"/>
<path fill-rule="evenodd" clip-rule="evenodd" d="M10.1824 21.8184C10.1824 21.1757 10.7034 20.6547 11.346 20.6547H20.6551C21.2978 20.6547 21.8187 21.1757 21.8187 21.8184C21.8187 22.461 21.2978 22.982 20.6551 22.982H11.346C10.7034 22.982 10.1824 22.461 10.1824 21.8184Z" fill="#0094FF"/>
<path fill-rule="evenodd" clip-rule="evenodd" d="M10.1824 12.5093C10.1824 11.8666 10.7034 11.3456 11.346 11.3456H13.6733C14.3159 11.3456 14.8369 11.8666 14.8369 12.5093C14.8369 13.1519 14.3159 13.6729 13.6733 13.6729H11.346C10.7034 13.6729 10.1824 13.1519 10.1824 12.5093Z" fill="#0094FF"/>
</svg>
