<svg width="20" height="20" viewBox="0 0 20 20" fill="none" xmlns="http://www.w3.org/2000/svg">
<path d="M10.0003 1.66699C5.40033 1.66699 1.66699 5.40033 1.66699 10.0003C1.66699 14.6003 5.40033 18.3337 10.0003 18.3337C14.6003 18.3337 18.3337 14.6003 18.3337 10.0003C18.3337 5.40033 14.6003 1.66699 10.0003 1.66699ZM10.0003 16.667C6.32533 16.667 3.33366 13.6753 3.33366 10.0003C3.33366 6.32533 6.32533 3.33366 10.0003 3.33366C13.6753 3.33366 16.667 6.32533 16.667 10.0003C16.667 13.6753 13.6753 16.667 10.0003 16.667Z" fill="#0094FF"/>
<path d="M10.7153 14.8004V15.1004C10.7153 15.5004 10.3903 15.8337 9.98202 15.8337C9.58202 15.8337 9.24868 15.5087 9.24868 15.1004V14.7504C8.72368 14.6254 7.64035 14.2421 7.00702 13.0004C6.81535 12.6337 6.99868 12.1754 7.38202 12.0171L7.44035 11.9921C7.78202 11.8504 8.16535 11.9921 8.34035 12.3171C8.60701 12.8254 9.13202 13.4587 10.107 13.4587C10.882 13.4587 11.757 13.0587 11.757 12.1171C11.757 11.3171 11.1737 10.9004 9.85702 10.4254C8.94035 10.1004 7.06535 9.56707 7.06535 7.66707C7.06535 7.58374 7.07368 5.66707 9.24868 5.20041V4.90041C9.24868 4.49207 9.58202 4.16707 9.98202 4.16707C10.382 4.16707 10.7153 4.49207 10.7153 4.90041V5.20874C11.607 5.36707 12.1737 5.84207 12.5153 6.29207C12.7987 6.65874 12.6487 7.19207 12.2153 7.37541C11.9153 7.50041 11.5653 7.40041 11.3653 7.14207C11.132 6.82541 10.7153 6.50041 10.032 6.50041C9.44868 6.50041 8.52368 6.80874 8.52368 7.65874C8.52368 8.45041 9.24035 8.75041 10.7237 9.24207C12.7237 9.93374 13.232 10.9504 13.232 12.1171C13.232 14.3087 11.1487 14.7254 10.7153 14.8004Z" fill="#0094FF"/>
</svg>
