<svg width="28" height="28" viewBox="0 0 28 28" fill="none" xmlns="http://www.w3.org/2000/svg">
<path fill-rule="evenodd" clip-rule="evenodd" d="M6.17472 6.17472C6.63033 5.7191 7.36902 5.7191 7.82463 6.17472L13.9997 12.3498L20.1747 6.17472C20.6303 5.7191 21.369 5.7191 21.8246 6.17472C22.2802 6.63033 22.2802 7.36902 21.8246 7.82463L15.6496 13.9997L21.8246 20.1747C22.2802 20.6303 22.2802 21.369 21.8246 21.8246C21.369 22.2802 20.6303 22.2802 20.1747 21.8246L13.9997 15.6496L7.82463 21.8246C7.36902 22.2802 6.63033 22.2802 6.17472 21.8246C5.7191 21.369 5.7191 20.6303 6.17472 20.1747L12.3498 13.9997L6.17472 7.82463C5.7191 7.36902 5.7191 6.63033 6.17472 6.17472Z" fill="#0094FF"/>
</svg>
