<svg width="20" height="20" viewBox="0 0 20 20" fill="none" xmlns="http://www.w3.org/2000/svg">
<path fill-rule="evenodd" clip-rule="evenodd" d="M2.29887 8.97035C7.09235 6.88191 10.2888 5.50509 11.8881 4.83987C16.4545 2.94055 17.4034 2.61062 18.0218 2.59973C18.1578 2.59733 18.462 2.63104 18.659 2.7909C18.8253 2.92588 18.8711 3.10822 18.893 3.23619C18.9149 3.36417 18.9422 3.6557 18.9205 3.8835C18.673 6.48353 17.6023 12.7931 17.0576 15.7052C16.8271 16.9374 16.3732 17.3505 15.9338 17.391C14.979 17.4788 14.2539 16.7599 13.329 16.1537C11.8818 15.205 11.0643 14.6145 9.65949 13.6888C8.03605 12.6189 9.08846 12.0309 10.0137 11.07C10.2558 10.8185 14.463 6.99174 14.5444 6.6446C14.5546 6.60118 14.5641 6.43934 14.4679 6.35389C14.3718 6.26843 14.2299 6.29765 14.1275 6.32089C13.9823 6.35384 11.6704 7.88193 7.1917 10.9052C6.53547 11.3558 5.94108 11.5753 5.40852 11.5638C4.82142 11.5512 3.69207 11.2319 2.85252 10.959C1.82277 10.6242 1.00435 10.4473 1.07562 9.8788C1.11273 9.5827 1.52049 9.27989 2.29887 8.97035Z" fill="#0094FF"/>
</svg>
