<svg width="20" height="20" viewBox="0 0 20 20" fill="none" xmlns="http://www.w3.org/2000/svg">
<path d="M10 18.5C14.4045 18.5 18.0286 15.1464 18.4614 10.85C18.5077 10.3941 18.1445 10 17.6886 10C17.2945 10 16.9623 10.2936 16.9236 10.68C16.5836 14.2036 13.6086 16.9545 10 16.9545C7.58909 16.9545 5.46409 15.7259 4.22 13.8636H5.36364C5.78864 13.8636 6.13636 13.5159 6.13636 13.0909C6.13636 12.6659 5.78864 12.3182 5.36364 12.3182H2.27273C1.84773 12.3182 1.5 12.6659 1.5 13.0909V16.1818C1.5 16.6068 1.84773 16.9545 2.27273 16.9545C2.69773 16.9545 3.04545 16.6068 3.04545 16.1818V14.8914C4.58318 17.0705 7.12545 18.5 10 18.5ZM10 1.5C5.59545 1.5 1.97136 4.85364 1.53864 9.15C1.5 9.60591 1.85545 10 2.31136 10C2.70545 10 3.03773 9.70636 3.07636 9.32C3.41636 5.79636 6.39136 3.04545 10 3.04545C12.4109 3.04545 14.5359 4.27409 15.78 6.13636H14.6364C14.2114 6.13636 13.8636 6.48409 13.8636 6.90909C13.8636 7.33409 14.2114 7.68182 14.6364 7.68182H17.7273C18.1523 7.68182 18.5 7.33409 18.5 6.90909V3.81818C18.5 3.39318 18.1523 3.04545 17.7273 3.04545C17.3023 3.04545 16.9545 3.39318 16.9545 3.81818V5.10864C15.4168 2.92955 12.8745 1.5 10 1.5Z" fill="#0094FF"/>
<path d="M13.224 10.7035C13.2104 10.7026 10.1438 12.5199 10.1037 12.5354C10.0946 12.5302 7.00108 10.6993 6.98636 10.7012C6.99388 10.7122 10.1016 15.1 10.1037 15.1C10.1058 15.1 13.224 10.7035 13.224 10.7035Z" fill="#0094FF"/>
<path d="M10.1052 4.9L6.9965 10.0992L10.1052 11.9406L13.2139 10.0992L10.1052 4.9Z" fill="#0094FF"/>
</svg>
