<svg width="20" height="20" viewBox="0 0 20 20" fill="none" xmlns="http://www.w3.org/2000/svg">
<path fill-rule="evenodd" clip-rule="evenodd" d="M14.0003 2.49967C13.0799 2.49967 12.3337 3.24587 12.3337 4.16634C12.3337 4.45576 12.4074 4.72795 12.5372 4.96514C12.5457 4.978 12.5539 4.99118 12.5617 5.00465C12.5695 5.01803 12.5769 5.03153 12.5839 5.04515C12.878 5.51813 13.4024 5.83301 14.0003 5.83301C14.9208 5.83301 15.667 5.08682 15.667 4.16634C15.667 3.24587 14.9208 2.49967 14.0003 2.49967ZM11.632 6.51205C12.2361 7.12191 13.0741 7.49967 14.0003 7.49967C15.8413 7.49967 17.3337 6.00729 17.3337 4.16634C17.3337 2.32539 15.8413 0.833008 14.0003 0.833008C12.1594 0.833008 10.667 2.32539 10.667 4.16634C10.667 4.48052 10.7105 4.78455 10.7917 5.07274L6.36861 7.65396C5.76452 7.04411 4.92654 6.66634 4.00033 6.66634C2.15938 6.66634 0.666992 8.15873 0.666992 9.99967C0.666992 11.8406 2.15938 13.333 4.00033 13.333C4.92671 13.333 5.76484 12.9551 6.36894 12.345L10.7928 14.9229C10.7108 15.2122 10.667 15.5175 10.667 15.833C10.667 17.674 12.1594 19.1663 14.0003 19.1663C15.8413 19.1663 17.3337 17.674 17.3337 15.833C17.3337 13.9921 15.8413 12.4997 14.0003 12.4997C13.0755 12.4997 12.2386 12.8763 11.6348 13.4846L7.20907 10.9056C7.29024 10.6176 7.33366 10.3137 7.33366 9.99967C7.33366 9.68549 7.29019 9.38146 7.20894 9.09327L11.632 6.51205ZM5.41674 9.12087C5.42372 9.13448 5.43111 9.14799 5.43892 9.16136C5.44678 9.17484 5.45497 9.18801 5.46345 9.20088C5.59322 9.43806 5.66699 9.71025 5.66699 9.99967C5.66699 10.2891 5.59322 10.5613 5.46346 10.7985C5.45487 10.8115 5.4466 10.8248 5.43865 10.8384C5.43094 10.8517 5.42364 10.865 5.41674 10.8785C5.12266 11.3515 4.59826 11.6663 4.00033 11.6663C3.07985 11.6663 2.33366 10.9201 2.33366 9.99967C2.33366 9.0792 3.07985 8.33301 4.00033 8.33301C4.59826 8.33301 5.12266 8.64788 5.41674 9.12087ZM12.513 15.08C12.5336 15.053 12.5528 15.0244 12.5703 14.9942C12.5872 14.9654 12.6021 14.9359 12.6151 14.906C12.9142 14.4599 13.423 14.1663 14.0003 14.1663C14.9208 14.1663 15.667 14.9125 15.667 15.833C15.667 16.7535 14.9208 17.4997 14.0003 17.4997C13.0799 17.4997 12.3337 16.7535 12.3337 15.833C12.3337 15.5621 12.3983 15.3062 12.513 15.08Z" fill="#0094FF"/>
<path fill-rule="evenodd" clip-rule="evenodd" d="M14.0002 2.5C13.0797 2.5 12.3335 3.24619 12.3335 4.16667C12.3335 4.45609 12.4073 4.72828 12.537 4.96546C12.5455 4.97833 12.5537 4.9915 12.5616 5.00498C12.5694 5.01835 12.5768 5.03186 12.5837 5.04548C12.8778 5.51846 13.4022 5.83333 14.0002 5.83333C14.9206 5.83333 15.6668 5.08714 15.6668 4.16667C15.6668 3.24619 14.9206 2.5 14.0002 2.5ZM5.41658 9.12119C5.42356 9.13481 5.43095 9.14831 5.43876 9.16169C5.44662 9.17517 5.4548 9.18834 5.46329 9.2012C5.59306 9.43839 5.66683 9.71058 5.66683 10C5.66683 10.2894 5.59306 10.5616 5.4633 10.7988C5.45471 10.8118 5.44644 10.8251 5.43849 10.8388C5.43078 10.852 5.42348 10.8653 5.41658 10.8788C5.1225 11.3518 4.5981 11.6667 4.00016 11.6667C3.07969 11.6667 2.3335 10.9205 2.3335 10C2.3335 9.07953 3.07969 8.33333 4.00016 8.33333C4.5981 8.33333 5.1225 8.64821 5.41658 9.12119ZM12.5129 15.0804C12.5335 15.0533 12.5526 15.0247 12.5702 14.9946C12.587 14.9657 12.6019 14.9362 12.6149 14.9063C12.914 14.4603 13.4228 14.1667 14.0002 14.1667C14.9206 14.1667 15.6668 14.9129 15.6668 15.8333C15.6668 16.7538 14.9206 17.5 14.0002 17.5C13.0797 17.5 12.3335 16.7538 12.3335 15.8333C12.3335 15.5624 12.3982 15.3065 12.5129 15.0804Z" fill="#0094FF" fill-opacity="0.16"/>
</svg>
