<svg width="20" height="20" viewBox="0 0 20 20" fill="none" xmlns="http://www.w3.org/2000/svg">
<path d="M3.92686 7.10156H3.88417C3.33687 7.10156 2.89062 7.54922 2.89062 8.09511V12.4208C2.89062 12.9689 3.33687 13.4151 3.88417 13.4151H3.92759C4.47489 13.4151 4.92113 12.9674 4.92113 12.4208V8.09507C4.92041 7.54922 4.47347 7.10156 3.92686 7.10156Z" fill="#0094FF"/>
<path d="M5.39654 14.0905C5.39654 14.5929 5.80718 15.0022 6.30964 15.0022H7.2854V17.3387C7.2854 17.8874 7.73306 18.3337 8.27895 18.3337H8.32164C8.86967 18.3337 9.3166 17.8867 9.3166 17.3387V15.0022H10.6802V17.3387C10.6802 17.8874 11.1293 18.3337 11.6752 18.3337H11.7172C12.2652 18.3337 12.7114 17.8867 12.7114 17.3387V15.0022H13.6879C14.1896 15.0022 14.6003 14.5929 14.6003 14.0905V7.26026H5.39654V14.0905Z" fill="#0094FF"/>
<path d="M12.2908 3.11815L13.0659 1.9218C13.1157 1.84634 13.0936 1.74317 13.0175 1.69404C12.942 1.64422 12.8388 1.66487 12.7897 1.74244L11.9862 2.98011C11.3834 2.73315 10.7101 2.59437 9.99911 2.59437C9.2874 2.59437 8.61555 2.73315 8.01133 2.98011L7.20925 1.74244C7.16016 1.66487 7.05623 1.64422 6.98008 1.69404C6.90393 1.74313 6.88186 1.84634 6.93168 1.9218L7.70743 3.11815C6.30892 3.80353 5.36592 5.09527 5.36592 6.57703C5.36592 6.66812 5.37163 6.7578 5.37945 6.84675H14.6195C14.6273 6.7578 14.6323 6.66812 14.6323 6.57703C14.6323 5.09527 13.6886 3.80353 12.2908 3.11815ZM7.85689 5.26037C7.61135 5.26037 7.41207 5.06251 7.41207 4.81628C7.41207 4.57004 7.61135 4.37287 7.85689 4.37287C8.10385 4.37287 8.30171 4.57001 8.30171 4.81628C8.30171 5.06254 8.10243 5.26037 7.85689 5.26037ZM12.1406 5.26037C11.8951 5.26037 11.6958 5.06251 11.6958 4.81628C11.6958 4.57004 11.8951 4.37287 12.1406 4.37287C12.3869 4.37287 12.5847 4.57001 12.5847 4.81628C12.5847 5.06251 12.3869 5.26037 12.1406 5.26037Z" fill="#0094FF"/>
<path d="M16.1126 7.10156H16.0714C15.5241 7.10156 15.0764 7.54922 15.0764 8.09511V12.4208C15.0764 12.9689 15.5248 13.4151 16.0714 13.4151H16.1134C16.6614 13.4151 17.1069 12.9674 17.1069 12.4208V8.09507C17.1069 7.54922 16.6599 7.10156 16.1126 7.10156Z" fill="#0094FF"/>
</svg>
