<svg width="40" height="40" viewBox="0 0 40 40" fill="none" xmlns="http://www.w3.org/2000/svg">
<path d="M19.9997 3.33301C10.7997 3.33301 3.33301 10.7997 3.33301 19.9997C3.33301 29.1997 10.7997 36.6663 19.9997 36.6663C29.1997 36.6663 36.6663 29.1997 36.6663 19.9997C36.6663 10.7997 29.1997 3.33301 19.9997 3.33301ZM19.9997 33.333C12.6497 33.333 6.66634 27.3497 6.66634 19.9997C6.66634 12.6497 12.6497 6.66634 19.9997 6.66634C27.3497 6.66634 33.333 12.6497 33.333 19.9997C33.333 27.3497 27.3497 33.333 19.9997 33.333Z" fill="#0094FF"/>
<path d="M21.4297 29.5998V30.1998C21.4297 30.9998 20.7797 31.6665 19.9631 31.6665C19.1631 31.6665 18.4964 31.0165 18.4964 30.1998V29.4998C17.4464 29.2498 15.2797 28.4832 14.0131 25.9998C13.6297 25.2665 13.9964 24.3498 14.7631 24.0332L14.8797 23.9832C15.5631 23.6998 16.3297 23.9832 16.6797 24.6332C17.2131 25.6498 18.2631 26.9165 20.2131 26.9165C21.7631 26.9165 23.5131 26.1165 23.5131 24.2332C23.5131 22.6332 22.3464 21.7998 19.7131 20.8498C17.8797 20.1998 14.1297 19.1332 14.1297 15.3332C14.1297 15.1665 14.1464 11.3332 18.4964 10.3998V9.79984C18.4964 8.98317 19.1631 8.33317 19.9631 8.33317C20.7631 8.33317 21.4297 8.98317 21.4297 9.79984V10.4165C23.2131 10.7332 24.3464 11.6832 25.0297 12.5832C25.5964 13.3165 25.2964 14.3832 24.4297 14.7498C23.8297 14.9998 23.1297 14.7998 22.7297 14.2832C22.2631 13.6498 21.4297 12.9998 20.0631 12.9998C18.8964 12.9998 17.0464 13.6165 17.0464 15.3165C17.0464 16.8998 18.4797 17.4998 21.4464 18.4832C25.4464 19.8665 26.4631 21.8998 26.4631 24.2332C26.4631 28.6165 22.2964 29.4498 21.4297 29.5998Z" fill="#0094FF"/>
</svg>
