<svg width="16" height="16" viewBox="0 0 16 16" fill="none" xmlns="http://www.w3.org/2000/svg">
<g clip-path="url(#clip0_1_8010)">
<path fill-rule="evenodd" clip-rule="evenodd" d="M8.00033 2.00033C4.68662 2.00033 2.00033 4.68662 2.00033 8.00033C2.00033 11.314 4.68662 14.0003 8.00033 14.0003C11.314 14.0003 14.0003 11.314 14.0003 8.00033C14.0003 4.68662 11.314 2.00033 8.00033 2.00033ZM0.666992 8.00033C0.666992 3.95024 3.95024 0.666992 8.00033 0.666992C12.0504 0.666992 15.3337 3.95024 15.3337 8.00033C15.3337 12.0504 12.0504 15.3337 8.00033 15.3337C3.95024 15.3337 0.666992 12.0504 0.666992 8.00033Z" fill="#0094FF"/>
<path fill-rule="evenodd" clip-rule="evenodd" d="M8.00033 7.33366C8.36852 7.33366 8.66699 7.63214 8.66699 8.00033V10.667C8.66699 11.0352 8.36852 11.3337 8.00033 11.3337C7.63214 11.3337 7.33366 11.0352 7.33366 10.667V8.00033C7.33366 7.63214 7.63214 7.33366 8.00033 7.33366Z" fill="#0094FF"/>
<path fill-rule="evenodd" clip-rule="evenodd" d="M7.33366 5.33366C7.33366 4.96547 7.63214 4.66699 8.00033 4.66699H8.00699C8.37518 4.66699 8.67366 4.96547 8.67366 5.33366C8.67366 5.70185 8.37518 6.00033 8.00699 6.00033H8.00033C7.63214 6.00033 7.33366 5.70185 7.33366 5.33366Z" fill="#0094FF"/>
</g>
<defs>
<clipPath id="clip0_1_8010">
<rect width="16" height="16" fill="white"/>
</clipPath>
</defs>
</svg>
