<svg width="22" height="20" viewBox="0 0 22 20" fill="none" xmlns="http://www.w3.org/2000/svg">
<path d="M0 19.2034V14.3603C0 12.8895 0.26009 11.329 0.780269 9.67873C1.31839 8.01057 2.08969 6.40519 3.09417 4.86259C4.11659 3.30205 5.34529 1.94779 6.78027 0.799805L10.2242 3.59801C9.09417 5.21236 8.10762 6.89846 7.26457 8.65631C6.43946 10.3962 6.02691 12.2617 6.02691 14.2527V19.2034H0ZM11.7758 19.2034V14.3603C11.7758 12.8895 12.0359 11.329 12.5561 9.67873C13.0942 8.01057 13.8655 6.40519 14.87 4.86259C15.8924 3.30205 17.1211 1.94779 18.5561 0.799805L22 3.59801C20.87 5.21236 19.8834 6.89846 19.0404 8.65631C18.2152 10.3962 17.8027 12.2617 17.8027 14.2527V19.2034H11.7758Z" fill="#0094FF"/>
</svg>
