<svg width="16" height="16" viewBox="0 0 16 16" fill="none" xmlns="http://www.w3.org/2000/svg">
<path fill-rule="evenodd" clip-rule="evenodd" d="M6.72445 0.395908C6.83145 0.155156 7.0702 0 7.33366 0C8.0409 0 8.71918 0.280952 9.21928 0.781049C9.71937 1.28115 10.0003 1.95942 10.0003 2.66667V4.66667H13.1036C13.3921 4.664 13.6778 4.72378 13.941 4.84193C14.2055 4.96064 14.4411 5.13544 14.6313 5.35422C14.8215 5.573 14.9619 5.83053 15.0428 6.10896C15.1236 6.38739 15.143 6.68007 15.0994 6.96671L14.1795 12.9666C14.1794 12.9668 14.1795 12.9664 14.1795 12.9666C14.107 13.4433 13.8648 13.8783 13.4974 14.1906C13.1309 14.5021 12.6644 14.6711 12.1835 14.6667H2.66699C2.13656 14.6667 1.62785 14.456 1.25278 14.0809C0.877706 13.7058 0.666992 13.1971 0.666992 12.6667V8C0.666992 7.46957 0.877706 6.96086 1.25278 6.58579C1.62785 6.21071 2.13656 6 2.66699 6H4.23374L6.72445 0.395908ZM5.33366 6.80814L7.73888 1.3964C7.9398 1.4605 8.12457 1.57196 8.27647 1.72386C8.52652 1.97391 8.66699 2.31304 8.66699 2.66667V5.33333C8.66699 5.70152 8.96547 6 9.33366 6H13.107L13.1145 5.99996C13.2112 5.99886 13.3069 6.01879 13.3951 6.05836C13.4832 6.09793 13.5617 6.1562 13.6252 6.22913C13.6886 6.30206 13.7354 6.3879 13.7623 6.48071C13.7892 6.57343 13.7957 6.67089 13.7812 6.76636C13.7813 6.76627 13.7812 6.76645 13.7812 6.76636L12.8612 12.7667C12.8371 12.9257 12.7563 13.0706 12.6338 13.1747C12.5113 13.2788 12.3553 13.3352 12.1945 13.3334L5.33366 13.3333V6.80814ZM4.00033 13.3333V7.33333H2.66699C2.49018 7.33333 2.32061 7.40357 2.19559 7.52859C2.07056 7.65362 2.00033 7.82319 2.00033 8V12.6667C2.00033 12.8435 2.07056 13.013 2.19559 13.1381C2.32061 13.2631 2.49018 13.3333 2.66699 13.3333H4.00033Z" fill="#00D02E"/>
</svg>
