<svg width="21" height="24" viewBox="0 0 21 24" fill="none" xmlns="http://www.w3.org/2000/svg">
<path fill-rule="evenodd" clip-rule="evenodd" d="M4.65883 1.78524C5.76643 1.04685 7.25 1.84083 7.25 3.17199V3.48974V20.4064V20.7242C7.25 22.0553 5.76643 22.8493 4.65883 22.1109L2.24217 20.4998C1.7785 20.1907 1.5 19.6703 1.5 19.113V17.9897V5.90641V4.7831C1.5 4.22585 1.7785 3.70546 2.24217 3.39635L4.65883 1.78524ZM3.82678 0.537165C5.80832 -0.783861 8.42324 0.476536 8.72187 2.73974H12.8333C14.5822 2.73974 16 4.15751 16 5.90641C16 6.32062 15.6642 6.65641 15.25 6.65641C14.8358 6.65641 14.5 6.32062 14.5 5.90641C14.5 4.98593 13.7538 4.23974 12.8333 4.23974H8.75V19.6564H12.8333C13.7538 19.6564 14.5 18.9102 14.5 17.9897C14.5 17.5755 14.8358 17.2397 15.25 17.2397C15.6642 17.2397 16 17.5755 16 17.9897C16 19.7386 14.5822 21.1564 12.8333 21.1564H8.72187C8.42324 23.4196 5.80832 24.68 3.82678 23.359L1.41012 21.7479C0.529154 21.1606 0 20.1718 0 19.113V17.9897V5.90641V4.7831C0 3.72432 0.529154 2.73559 1.41012 2.14828L3.82678 0.537165ZM11.625 10.8763C11.2108 10.8763 10.875 11.212 10.875 11.6263C10.875 12.0405 11.2108 12.3763 11.625 12.3763L18.2727 12.3763L17.1363 13.5126C16.8434 13.8055 16.8434 14.2804 17.1363 14.5733C17.4292 14.8661 17.9041 14.8661 18.197 14.5733L19.9066 12.8637C20.59 12.1803 20.59 11.0722 19.9066 10.3888L18.197 8.67926C17.9041 8.38637 17.4292 8.38637 17.1363 8.67926C16.8434 8.97216 16.8434 9.44703 17.1363 9.73992L18.2727 10.8763L11.625 10.8763Z" fill="url(#paint0_linear_169_1825)"/>
<defs>
<linearGradient id="paint0_linear_169_1825" x1="10.2095" y1="0" x2="10.2095" y2="23.8961" gradientUnits="userSpaceOnUse">
<stop stop-color="#2D59FB"/>
<stop offset="1" stop-color="#3DBDEB"/>
</linearGradient>
</defs>
</svg>
