<?xml version="1.0" encoding="UTF-8"?>
<svg width="14px" height="14px" viewBox="0 0 14 14" version="1.1" xmlns="http://www.w3.org/2000/svg" xmlns:xlink="http://www.w3.org/1999/xlink">
    <!-- Generator: Sketch 52.5 (67469) - http://www.bohemiancoding.com/sketch -->
    <title>bin</title>
    <desc>Created with Sketch.</desc>
    <g id="Main" stroke="none" stroke-width="1" fill="none" fill-rule="evenodd">
        <g id="Mijn-projecten" transform="translate(-738.000000, -325.000000)" fill="#000000">
            <g id="hovered" transform="translate(541.000000, 234.000000)">
                <g id="edit" transform="translate(138.000000, 80.000000)">
                    <g id="delete" transform="translate(47.000000, 0.000000)">
                        <g id="bin" transform="translate(12.000000, 11.000000)">
                            <path d="M4.9,11.2 L6.3,11.2 L6.3,5.6 L4.9,5.6 L4.9,11.2 Z M7.7,11.2 L9.1,11.2 L9.1,5.6 L7.7,5.6 L7.7,11.2 Z M3.5,12.6 L10.5,12.6 L10.5,4.2 L3.5,4.2 L3.5,12.6 Z M4.9,2.8 L9.1,2.8 L9.1,1.4 L4.9,1.4 L4.9,2.8 Z M10.5,2.8 L10.5,0 L3.5,0 L3.5,2.8 L0,2.8 L0,4.2 L2.1,4.2 L2.1,14 L11.9,14 L11.9,4.2 L14,4.2 L14,2.8 L10.5,2.8 Z" id="delete-[#1487]"></path>
                        </g>
                    </g>
                </g>
            </g>
        </g>
    </g>
</svg>