<?xml version="1.0" encoding="UTF-8"?>
<svg width="15px" height="15px" viewBox="0 0 15 15" version="1.1" xmlns="http://www.w3.org/2000/svg" xmlns:xlink="http://www.w3.org/1999/xlink">
    <!-- Generator: Sketch 52.3 (67297) - http://www.bohemiancoding.com/sketch -->
    <title>cart</title>
    <desc>Created with Sketch.</desc>
    <g id="Main" stroke="none" stroke-width="1" fill="none" fill-rule="evenodd">
        <g id="Transition" transform="translate(-1250.000000, -32.000000)" fill="#ffffff" fill-rule="nonzero">
            <g id="navigation" transform="translate(150.000000, 15.000000)">
                <g id="cart" transform="translate(1100.000000, 17.000000)">
                    <path d="M5.27422178,11.1903801 C4.30926649,11.1903801 3.52422178,11.9754248 3.52422178,12.9403801 C3.52422178,13.9053354 4.30926649,14.6903801 5.27422178,14.6903801 C6.23917708,14.6903801 7.02422178,13.9053354 7.02422178,12.9403801 C7.02422178,11.9754248 6.23915,11.1903801 5.27422178,11.1903801 Z M5.27422178,13.6403693 C4.88816928,13.6403693 4.57423261,13.3264326 4.57423261,12.9403801 C4.57423261,12.5543276 4.88816928,12.2403909 5.27422178,12.2403909 C5.66008479,12.2403909 5.97421095,12.5543276 5.97421095,12.9403801 C5.97421095,13.3264055 5.66027428,13.6403693 5.27422178,13.6403693 Z" id="Shape"></path>
                    <path d="M10.8500533,11.1903801 C9.88509796,11.1903801 9.10005325,11.9754248 9.10005325,12.9403801 C9.10005325,13.9053354 9.88509796,14.6903801 10.8500533,14.6903801 C11.8150085,14.6903801 12.6000533,13.9053354 12.6000533,12.9403801 C12.6000533,11.9754248 11.8150085,11.1903801 10.8500533,11.1903801 Z M10.8500533,13.6403693 C10.4640008,13.6403693 10.1500641,13.3264326 10.1500641,12.9403801 C10.1500641,12.5543276 10.4640008,12.2403909 10.8500533,12.2403909 C11.2361058,12.2403909 11.5500424,12.5543276 11.5500424,12.9403801 C11.5500424,13.3264055 11.2361058,13.6403693 10.8500533,13.6403693 Z" id="Shape"></path>
                    <path d="M14.3962482,3.57089315 C14.2877791,3.43998999 14.1233829,3.36377828 13.9494497,3.36377828 L3.95372021,3.36377828 L3.4348052,0.844267203 C3.38932766,0.623606729 3.20818278,0.451953637 2.97773377,0.411373375 L0.694289918,0.00919046353 C0.383570829,-0.0458403301 0.0867157692,0.151801097 0.0298173229,0.449776159 C-0.0270811234,0.747751222 0.178230135,1.03348151 0.488419389,1.08814468 L2.3901462,1.42305202 L4.0654272,9.55796636 C4.11832244,9.81482386 4.35295126,9.99999428 4.62543389,9.99999428 L12.6174727,9.99999428 C12.8833029,9.99999428 13.1137519,9.82395795 13.1736822,9.57476404 L14.5056887,4.03560077 C14.5448671,3.87271414 14.5045407,3.70159835 14.3962482,3.57089315 Z M12.1634331,8.9031395 L5.09427944,8.9031395 L4.17957731,4.46083101 L13.2314931,4.46083101 L12.1634331,8.9031395 Z" id="Shape"></path>
                </g>
            </g>
        </g>
    </g>
</svg>