<?xml version="1.0" encoding="UTF-8"?>
<svg width="20px" height="20px" viewBox="0 0 20 20" version="1.1" xmlns="http://www.w3.org/2000/svg" xmlns:xlink="http://www.w3.org/1999/xlink">
    <!-- Generator: Sketch 52.5 (67469) - http://www.bohemiancoding.com/sketch -->
    <title>target</title>
    <desc>Created with Sketch.</desc>
    <g id="Configurator" stroke="none" stroke-width="1" fill="none" fill-rule="evenodd">
        <g id="My-project" transform="translate(-858.000000, -555.000000)" fill="#000000" fill-rule="nonzero">
            <g id="controls" transform="translate(748.000000, 555.000000)">
                <g id="centre" transform="translate(91.000000, 0.000000)">
                    <g id="target" transform="translate(19.000000, 0.000000)">
                        <path d="M0.803418803,10.7008547 L2.34188034,10.7008547 C2.66666667,14.3931624 5.62393162,17.3333333 9.2991453,17.6581197 L9.2991453,19.1965812 C9.2991453,19.5726496 9.60683761,19.8974359 10,19.8974359 C10.3760684,19.8974359 10.7008547,19.5897436 10.7008547,19.1965812 L10.7008547,17.6581197 C14.3931624,17.3333333 17.3333333,14.3760684 17.6581197,10.7008547 L19.1965812,10.7008547 C19.5726496,10.7008547 19.8974359,10.3931624 19.8974359,10 C19.8974359,9.62393162 19.5897436,9.2991453 19.1965812,9.2991453 L17.6581197,9.2991453 C17.3333333,5.60683761 14.3760684,2.66666667 10.7008547,2.34188034 L10.7008547,0.803418803 C10.7008547,0.427350427 10.3931624,0.102564103 10,0.102564103 C9.62393162,0.102564103 9.2991453,0.41025641 9.2991453,0.803418803 L9.2991453,2.34188034 C5.60683761,2.66666667 2.66666667,5.62393162 2.34188034,9.2991453 L0.803418803,9.2991453 C0.41025641,9.2991453 0.102564103,9.60683761 0.102564103,10 C0.102564103,10.3931624 0.427350427,10.7008547 0.803418803,10.7008547 Z M6.56410256,9.2991453 L3.74358974,9.2991453 C4.06837607,6.37606838 6.39316239,4.05128205 9.2991453,3.74358974 L9.2991453,6.56410256 C9.2991453,6.94017094 9.60683761,7.26495726 10,7.26495726 C10.3760684,7.26495726 10.7008547,6.95726496 10.7008547,6.56410256 L10.7008547,3.74358974 C13.6239316,4.06837607 15.9487179,6.39316239 16.2564103,9.2991453 L13.4358974,9.2991453 C13.0598291,9.2991453 12.7350427,9.60683761 12.7350427,10 C12.7350427,10.3760684 13.042735,10.7008547 13.4358974,10.7008547 L16.2564103,10.7008547 C15.9316239,13.6239316 13.6068376,15.9487179 10.7008547,16.2564103 L10.7008547,13.4358974 C10.7008547,13.0598291 10.3931624,12.7350427 10,12.7350427 C9.62393162,12.7350427 9.2991453,13.042735 9.2991453,13.4358974 L9.2991453,16.2564103 C6.37606838,15.9316239 4.05128205,13.6068376 3.74358974,10.7008547 L6.56410256,10.7008547 C6.94017094,10.7008547 7.26495726,10.3931624 7.26495726,10 C7.26495726,9.62393162 6.94017094,9.2991453 6.56410256,9.2991453 Z" id="Shape"></path>
                    </g>
                </g>
            </g>
        </g>
    </g>
</svg>