<?xml version="1.0" encoding="UTF-8"?>
<svg width="25px" height="27px" viewBox="0 0 25 27" version="1.1" xmlns="http://www.w3.org/2000/svg" xmlns:xlink="http://www.w3.org/1999/xlink">
    <!-- Generator: Sketch 52.5 (67469) - http://www.bohemiancoding.com/sketch -->
    <title>window (1)</title>
    <desc>Created with Sketch.</desc>
    <g id="Configurator" stroke="none" stroke-width="1" fill="none" fill-rule="evenodd">
        <g id="Closet" transform="translate(-46.000000, -428.000000)" fill="#000000" fill-rule="nonzero">
            <g id="sidebar" transform="translate(-1.000000, 81.000000)">
                <g id="Group" transform="translate(1.000000, 235.000000)">
                    <g id="material" transform="translate(30.000000, 98.000000)">
                        <g id="window-(1)" transform="translate(16.000000, 14.000000)">
                            <path d="M24.5502092,24.3 L23.6575837,24.3 L23.2112971,24.3 L23.2112971,2.6274375 C23.7396967,2.44861523 24.1039226,1.95591797 24.1039226,1.35 C24.1039226,0.584982422 23.5237448,0 22.7650105,0 L2.23498954,0 C1.47625523,0 0.896077406,0.584982422 0.896077406,1.35 C0.896077406,1.94916797 1.27939331,2.43785742 1.78870293,2.62158398 L1.78870293,24.3 L1.34241632,24.3 L0.449790795,24.3 C0.182008368,24.3 0.0035041841,24.4799824 0.0035041841,24.7499824 C0.0035041841,25.0199824 0.182008368,25.1999648 0.449790795,25.1999648 L0.896077406,25.1999648 L0.896077406,25.6499473 C0.896077406,26.4149648 1.47625523,26.9999473 2.23498954,26.9999473 L22.7649582,26.9999473 C23.5236925,26.9999473 24.1038703,26.4149648 24.1038703,25.6499473 L24.1038703,25.1999648 L24.5501569,25.1999648 C24.8179393,25.1999648 24.9964435,25.0199824 24.9964435,24.7499824 C24.9964435,24.4799824 24.8179916,24.3 24.5502092,24.3 Z M2.23498954,0.900017578 L22.7649582,0.900017578 C23.0327406,0.900017578 23.2112448,1.08 23.2112448,1.35 C23.2112448,1.62 23.0327406,1.79998242 22.7649582,1.79998242 L2.23498954,1.79998242 C1.96720711,1.79998242 1.78870293,1.57496484 1.78870293,1.35 C1.78870293,1.12503516 2.01187238,0.900017578 2.23498954,0.900017578 Z M2.68132845,2.7 L22.3187238,2.7 L22.3187238,24.3 L21.4260983,24.3 L21.4260983,4.05 C21.4260983,3.78 21.2475941,3.60001758 20.9798117,3.60001758 L13.3926255,3.60001758 L11.6074268,3.60001758 L4.02024059,3.60001758 C3.75245816,3.60001758 3.57395397,3.78 3.57395397,4.05 L3.57395397,24.3 L2.68132845,24.3 L2.68132845,2.7 Z M4.4665272,24.3 L4.4665272,4.49998242 L11.1610879,4.49998242 L11.1610879,24.3 L4.4665272,24.3 Z M12.0537134,4.49998242 L12.9463389,4.49998242 L12.9463389,24.3 L12.0537134,24.3 L12.0537134,4.49998242 Z M13.8389121,4.49998242 L20.5334728,4.49998242 L20.5334728,24.3 L13.8389121,24.3 L13.8389121,4.49998242 Z M23.2112971,25.65 C23.2112971,25.92 23.0327929,26.0999824 22.7650105,26.0999824 L2.23498954,26.0999824 C1.96720711,26.0999824 1.78870293,25.92 1.78870293,25.65 L1.78870293,25.2000176 L2.23498954,25.2000176 L4.02018828,25.2000176 L11.6073745,25.2000176 L13.3925732,25.2000176 L20.9797594,25.2000176 L22.7649582,25.2000176 L23.2112971,25.2000176 L23.2112448,25.65 L23.2112971,25.65 Z" id="Shape"></path>
                            <path d="M8.92955021,12.15 C8.1708159,12.15 7.59063808,12.7349824 7.59063808,13.5 L7.59063808,15.2999824 C7.59063808,16.065 8.1708159,16.6499824 8.92955021,16.6499824 C9.68828452,16.6499824 10.2684623,16.065 10.2684623,15.2999824 L10.2684623,13.5 C10.2684623,12.7349824 9.68828452,12.15 8.92955021,12.15 Z M9.37588912,15.2999824 C9.37588912,15.5699824 9.19738494,15.7499648 8.92960251,15.7499648 C8.66182008,15.7499648 8.4833159,15.5699824 8.4833159,15.2999824 L8.4833159,13.5 C8.4833159,13.23 8.66182008,13.0500176 8.92960251,13.0500176 C9.19738494,13.0500176 9.37588912,13.2750352 9.37588912,13.5 L9.37588912,15.2999824 Z" id="Shape"></path>
                            <path d="M17.4093619,15.2999824 L17.4093619,13.5 C17.4093619,12.7349824 16.8291841,12.15 16.0704498,12.15 C15.3117155,12.15 14.7315377,12.7349824 14.7315377,13.5 L14.7315377,15.2999824 C14.7315377,16.065 15.3117155,16.6499824 16.0704498,16.6499824 C16.8291841,16.6499824 17.4093619,16.065 17.4093619,15.2999824 Z M15.6241109,15.2999824 L15.6241109,13.5 C15.6241109,13.23 15.8026151,13.0500176 16.0703975,13.0500176 C16.3381799,13.0500176 16.5166841,13.2750352 16.5166841,13.5 L16.5166841,15.2999824 C16.5166841,15.5699824 16.3381799,15.7499648 16.0703975,15.7499648 C15.8026151,15.7499648 15.6241109,15.5699824 15.6241109,15.2999824 Z" id="Shape"></path>
                        </g>
                    </g>
                </g>
            </g>
        </g>
    </g>
</svg>