<?xml version="1.0" encoding="UTF-8"?>
<svg width="20px" height="19px" viewBox="0 0 20 19" version="1.1" xmlns="http://www.w3.org/2000/svg" xmlns:xlink="http://www.w3.org/1999/xlink">
    <!-- Generator: Sketch 52.3 (67297) - http://www.bohemiancoding.com/sketch -->
    <title>ham</title>
    <desc>Created with Sketch.</desc>
    <g id="Mobile" stroke="none" stroke-width="1" fill="none" fill-rule="evenodd">
        <g id="Home@mobile" transform="translate(-340.000000, -31.000000)" fill="#000000">
            <g id="header">
                <g id="navigation" transform="translate(15.000000, 20.000000)">
                    <g id="icons" transform="translate(280.000000, 10.000000)">
                        <g id="ham" transform="translate(45.000000, 1.000000)">
                            <path d="M6,17.75 C6,18.1642136 6.33226082,18.5 6.75270081,18.5 L19.2472992,18.5 C19.6630044,18.5 20,18.1671014 20,17.75 L20,17.75 C20,17.3357864 19.6677392,17 19.2472992,17 L6.75270081,17 C6.33699563,17 6,17.3328986 6,17.75 L6,17.75 Z M0,0.75 C0,1.16421356 0.330450833,1.5 0.759601593,1.5 L19.2403984,1.5 C19.6599148,1.5 20,1.16710138 20,0.75 L20,0.75 C20,0.335786438 19.6695492,0 19.2403984,0 L0.759601593,0 C0.340085217,0 0,0.332898617 0,0.75 L0,0.75 Z M0,8.75 C0,9.16421356 0.330450833,9.5 0.759601593,9.5 L19.2403984,9.5 C19.6599148,9.5 20,9.16710138 20,8.75 L20,8.75 C20,8.33578644 19.6695492,8 19.2403984,8 L0.759601593,8 C0.340085217,8 0,8.33289862 0,8.75 L0,8.75 Z" id="align_text_right-[#912]"></path>
                        </g>
                    </g>
                </g>
            </g>
        </g>
    </g>
</svg>