<?xml version="1.0" encoding="UTF-8"?>
<svg width="13px" height="13px" viewBox="0 0 13 13" version="1.1" xmlns="http://www.w3.org/2000/svg" xmlns:xlink="http://www.w3.org/1999/xlink">
    <!-- Generator: Sketch 52.5 (67469) - http://www.bohemiancoding.com/sketch -->
    <title>?</title>
    <desc>Created with Sketch.</desc>
    <g id="Configurator" stroke="none" stroke-width="1" fill="none" fill-rule="evenodd">
        <g id="My-project" transform="translate(-29.000000, -729.000000)">
            <g id="Group-4-Copy" transform="translate(30.000000, 726.000000)">
                <g id="?" transform="translate(0.000000, 4.000000)">
                    <circle id="Oval" stroke="#000000" fill-rule="nonzero" cx="5.5" cy="5.5" r="5.5"></circle>
                    <path d="M4.60753908,8.06563052 C4.60753908,9.04478983 5.92330168,9.04478983 5.92330168,8.06563052 C5.92330168,7.07714588 4.60753908,7.07714588 4.60753908,8.06563052 Z M4.40195118,4.19561992 L3.3,4.19561992 C3.30822352,2.81547156 4.33616305,2.2 5.49567884,2.2 C6.65519463,2.2 7.72425174,2.76884493 7.69958119,4.16764394 C7.69958119,5.51981632 6.60585353,5.65969622 6.12888959,6.02338396 C5.90685465,6.19123984 5.81639597,6.45234899 5.81639597,6.89063935 L5.81639597,6.93726598 L4.73089183,6.93726598 L4.73089183,6.88131402 C4.73911534,5.60374426 5.19963225,5.31465913 5.63547861,5.05354998 C6.07132497,4.79244083 6.57295947,4.71783822 6.57295947,4.15831862 C6.57295947,3.44026846 5.98908981,3.27241258 5.4792318,3.27241258 C4.95292677,3.27241258 4.41017469,3.60812434 4.40195118,4.19561992 Z" fill="#000000"></path>
                </g>
            </g>
        </g>
    </g>
</svg>