<?xml version="1.0" encoding="UTF-8"?>
<svg width="119px" height="48px" viewBox="0 0 119 48" version="1.1" xmlns="http://www.w3.org/2000/svg" xmlns:xlink="http://www.w3.org/1999/xlink">
    <!-- Generator: Sketch 52.3 (67297) - http://www.bohemiancoding.com/sketch -->
    <title>Group</title>
    <desc>Created with Sketch.</desc>
    <g id="Main" stroke="none" stroke-width="1" fill="none" fill-rule="evenodd">
        <g id="Transition" transform="translate(-155.000000, -15.000000)" fill="#ffffff">
            <g id="navigation" transform="translate(150.000000, 15.000000)">
                <g id="Group" transform="translate(5.000000, 0.000000)">
                    <polyline id="Fill-1" points="1.55498171 47.3945823 0.117065041 47.3945823 0.117065041 36.4799856 1.55498171 36.4799856 5.50955488 40.4817759 9.46412805 36.4799856 10.9020447 36.4799856 10.9020447 47.3945823 9.46412805 47.3945823 9.46412805 38.5464839 5.50955488 42.548519 1.55498171 38.5464839 1.55498171 47.3945823"></polyline>
                    <polygon id="Fill-2" points="12.7100224 47.3945823 14.147939 47.3945823 14.147939 36.4799856 12.7100224 36.4799856"></polygon>
                    <path d="M18.8332012,36.4799856 L18.8332012,44.2948349 C18.8332012,45.1535503 18.5313476,45.8957468 17.9416687,46.4925394 C17.3522317,47.0890871 16.6331524,47.3945823 15.7846728,47.3945823 L15.7846728,45.9395638 C16.230439,45.9395638 16.6043699,45.7792278 16.9207358,45.4592902 C17.2371016,45.1388631 17.3952846,44.7459787 17.3952846,44.2948349 L17.3952846,36.4799856 L18.8332012,36.4799856" id="Fill-3"></path>
                    <polyline id="Fill-4" points="22.0517642 36.4799856 27.3869309 44.7315362 27.3869309 36.4799856 28.8248476 36.4799856 28.8248476 47.3945823 27.3869309 47.3945823 22.0517642 39.1574741 22.0517642 47.3945823 20.6138476 47.3945823 20.6138476 36.4799856 22.0517642 36.4799856"></polyline>
                    <polyline id="Fill-5" points="38.2089167 47.3945823 36.771 47.3945823 36.771 36.4799856 38.2089167 36.4799856 42.1634898 40.4817759 46.118063 36.4799856 47.5559797 36.4799856 47.5559797 47.3945823 46.118063 47.3945823 46.118063 38.5464839 42.1634898 42.548519 38.2089167 38.5464839 38.2089167 47.3945823"></polyline>
                    <polyline id="Fill-6" points="82.8820488 36.4799856 81.4441321 36.4799856 81.4441321 47.3945823 82.8820488 47.3945823 86.836622 43.392792 90.7909533 47.3945823 92.2291118 47.3945823 92.2291118 36.4799856 90.7909533 36.4799856 90.7909533 45.328084 86.836622 41.3262937 82.8820488 45.328084 82.8820488 36.4799856"></polyline>
                    <path d="M51.8116809,44.4840558 L50.5607297,47.3945823 L48.9934126,47.3945823 L53.6668232,36.4799856 L55.2341402,36.4799856 L59.9077927,47.3945823 L58.3402337,47.3945823 L57.1035528,44.4840558 L51.8116809,44.4840558 Z M56.4708211,43.0287926 L54.4577378,38.3134459 L52.4444126,43.0287926 L56.4708211,43.0287926 Z" id="Fill-7"></path>
                    <path d="M64.1637358,44.4840558 L62.9125427,47.3945823 L61.3449837,47.3945823 L66.0186362,36.4799856 L67.5859533,36.4799856 L72.2593638,47.3945823 L70.6918049,47.3945823 L69.4553659,44.4840558 L64.1637358,44.4840558 Z M68.8226341,43.0287926 L66.8093089,38.3134459 L64.7962256,43.0287926 L68.8226341,43.0287926 Z" id="Fill-8"></path>
                    <polyline id="Fill-9" points="79.8083659 36.4799856 79.8083659 37.935004 76.572872 37.935004 76.572872 47.3945823 75.1347134 47.3945823 75.1347134 37.935004 71.8992195 37.935004 71.8992195 36.4799856 79.8083659 36.4799856"></polyline>
                    <polyline id="Fill-10" points="99.9762053 36.4799856 99.9762053 37.935004 95.3025528 37.935004 95.3025528 41.2095299 98.5382886 41.2095299 98.5382886 42.6650379 95.3025528 42.6650379 95.3025528 45.9395638 99.9762053 45.9395638 99.9762053 47.3945823 93.864878 47.3945823 93.864878 36.4799856 99.9762053 36.4799856"></polyline>
                    <path d="M102.851555,44.120546 L102.851555,47.3945823 L101.41388,47.3945823 L101.41388,36.4799856 L105.727872,36.4799856 C106.777346,36.4799856 107.66912,36.8581827 108.40247,37.600624 C109.135819,38.3428205 109.50975,39.2304209 109.50975,40.292555 C109.50975,41.180645 109.236437,41.9664137 108.690053,42.6650379 C108.157939,43.348975 107.482154,43.7856763 106.662457,44.0037822 L109.322785,47.3945823 L107.467884,47.3945823 L104.908175,44.120546 L102.851555,44.120546 Z M105.727872,37.935004 L102.851555,37.935004 L102.851555,42.6650379 L105.727872,42.6650379 C106.374874,42.6650379 106.93577,42.432 107.381537,41.9664137 C107.841573,41.5005826 108.071591,40.9478518 108.071591,40.292555 C108.071591,39.6377477 107.841573,39.0850169 107.381537,38.6189411 C106.93577,38.168042 106.374874,37.935004 105.727872,37.935004 Z" id="Fill-11"></path>
                    <polyline id="Fill-12" points="117.001429 47.3945823 113.47811 42.8978311 112.3851 44.2948349 112.3851 47.3945823 110.947425 47.3945823 110.947425 36.4799856 112.3851 36.4799856 112.3851 41.9372839 116.670551 36.4799856 118.511181 36.4799856 114.398425 41.719178 118.856329 47.3945823 117.001429 47.3945823"></polyline>
                    <polyline id="Fill-13" points="45.3331951 27.9848712 43.6393801 27.9848712 43.6393801 15.1278836 45.3331951 15.1278836 49.9913679 19.8420063 54.6492988 15.1278836 56.3431138 15.1278836 56.3431138 26.4867701 54.6492988 26.4867701 54.6492988 17.5622979 49.9913679 22.2761758 45.3331951 17.5622979 45.3331951 27.9848712"></polyline>
                    <polyline id="Fill-14" points="73.6401992 27.9848712 75.3340142 27.9848712 75.3340142 15.1278836 73.6401992 15.1278836 68.9820264 19.8420063 64.3238537 15.1278836 62.6300386 15.1278836 62.6300386 26.4867701 64.3238537 26.4867701 64.3238537 17.5622979 68.9820264 22.2761758 73.6401992 17.5622979 73.6401992 27.9848712"></polyline>
                    <path d="M73.5732012,21.116861 L73.5732012,27.9848712 L75.3340142,27.9848712 L75.3340142,2.81334573 C75.3340142,1.33703075 73.9962317,0.140263387 72.5375142,0.140263387 L46.1253191,0.140263387 C44.6666016,0.140263387 43.6393801,1.33703075 43.6393801,2.81334573 L43.6393801,27.9848712 L45.4001931,27.9848712 L45.4001931,2.81334573 C45.4001931,2.32132233 45.6391606,1.92231828 46.1253191,1.92231828 L59.0951098,1.92231828 L59.0951098,26.4255731 L59.8782846,26.4255731 L59.8782846,1.92231828 L72.5375142,1.92231828 C73.0236728,1.92231828 73.5732012,2.32132233 73.5732012,2.81334573 L73.5732012,18.6290829" id="Fill-15"></path>
                </g>
            </g>
        </g>
    </g>
</svg>