<?xml version="1.0" encoding="UTF-8"?>
<svg width="248px" height="23px" viewBox="0 0 248 23" version="1.1" xmlns="http://www.w3.org/2000/svg" xmlns:xlink="http://www.w3.org/1999/xlink">
    <!-- Generator: Sketch 52.6 (67491) - http://www.bohemiancoding.com/sketch -->
    <title>Mijn Maatwerk 2</title>
    <desc>Created with Sketch.</desc>
    <g id="Main" stroke="none" stroke-width="1" fill="none" fill-rule="evenodd">
        <g id="Coming-soon" transform="translate(-150.000000, -259.000000)" fill="#000000">
            <g id="headline" transform="translate(150.000000, 203.000000)">
                <g id="title">
                    <g id="Mijn-Maatwerk-2" transform="translate(0.000000, 56.000000)">
                        <path d="M3.52711111,4.35466667 L3.52711111,23 L0.440888889,23 L0.440888889,0 L3.52711111,0 L12.0142222,8.43333333 L20.5013333,0 L23.5875556,0 L23.5875556,23 L20.5013333,23 L20.5013333,4.35466667 L12.0142222,12.788 L3.52711111,4.35466667 Z M26.3651556,0 L29.4513778,0 L29.4513778,23 L26.3651556,23 L26.3651556,0 Z M35.6855467,0 L38.7717689,0 L38.7717689,16.468 C38.7717689,18.2773333 38.1236622,19.8413333 36.8583111,21.0986667 C35.59296,22.356 34.0498489,23 32.2289778,23 L32.2289778,19.9333333 C33.1857067,19.9333333 33.9881244,19.596 34.6670933,18.9213333 C35.3460622,18.2466667 35.6855467,17.4186667 35.6855467,16.468 L35.6855467,0 Z M41.8579911,0 L44.9442133,0 L56.3940978,17.388 L56.3940978,0 L59.48032,0 L59.48032,23 L56.3940978,23 L44.9442133,5.64266667 L44.9442133,23 L41.8579911,23 L41.8579911,0 Z M73.36832,4.35466667 L73.36832,23 L70.2820978,23 L70.2820978,0 L73.36832,0 L81.8554311,8.43333333 L90.3425422,0 L93.4287644,0 L93.4287644,23 L90.3425422,23 L90.3425422,4.35466667 L81.8554311,12.788 L73.36832,4.35466667 Z M113.92128,16.8666667 L102.563982,16.8666667 L99.8789689,23 L96.5149867,23 L106.545209,0 L109.909191,0 L119.939413,23 L116.575431,23 L113.92128,16.8666667 Z M103.92192,13.8 L112.563342,13.8 L108.242631,3.864 L103.92192,13.8 Z M140.431929,16.8666667 L129.074631,16.8666667 L126.389618,23 L123.025636,23 L133.055858,0 L136.41984,0 L146.450062,23 L143.08608,23 L140.431929,16.8666667 Z M130.432569,13.8 L139.073991,13.8 L134.75328,3.864 L130.432569,13.8 Z M145.678507,0 L162.652729,0 L162.652729,3.06666667 L155.708729,3.06666667 L155.708729,23 L152.622507,23 L152.622507,3.06666667 L145.678507,3.06666667 L145.678507,0 Z M169.962494,0 L166.876444,0 L166.876444,23 L169.962494,23 L178.449778,14.5671481 L186.936543,23 L190.023111,23 L190.023111,0 L186.936543,0 L186.936543,18.6453306 L178.449778,10.2124787 L169.962494,18.6453306 L169.962494,0 M193.462044,0 L206.578489,0 L206.578489,3.06666667 L196.548267,3.06666667 L196.548267,9.96666667 L203.492267,9.96666667 L203.492267,13.0333333 L196.548267,13.0333333 L196.548267,19.9333333 L206.578489,19.9333333 L206.578489,23 L193.462044,23 L193.462044,0 Z M217.164231,16.1 L212.750933,16.1 L212.750933,23 L209.664711,23 L209.664711,0 L218.923378,0 C221.17632,0 223.089778,0.797333333 224.663751,2.36133333 C226.237724,3.92533333 227.040142,5.796 227.040142,8.03466667 C227.040142,9.90533333 226.45376,11.5613333 225.280996,13.0333333 C224.139093,14.4746667 222.688569,15.3946667 220.929422,15.8546667 L226.638933,23 L222.657707,23 L217.164231,16.1 Z M222.472533,4.508 C221.515804,3.55733333 220.312178,3.06666667 218.923378,3.06666667 L212.750933,3.06666667 L212.750933,13.0333333 L218.923378,13.0333333 C220.312178,13.0333333 221.515804,12.5426667 222.472533,11.5613333 C223.460124,10.58 223.95392,9.41466667 223.95392,8.03466667 C223.95392,6.65466667 223.460124,5.48933333 222.472533,4.508 Z M247.100587,23 L243.11936,23 L235.558116,13.524 L233.212587,16.468 L233.212587,23 L230.126364,23 L230.126364,0 L233.212587,0 L233.212587,11.5 L242.409529,0 L246.359893,0 L237.533298,11.04 L247.100587,23 Z" id="Mijn-Maatwerk"></path>
                    </g>
                </g>
            </g>
        </g>
    </g>
</svg>