<?xml version="1.0" encoding="UTF-8"?>
<svg width="17px" height="24px" viewBox="0 0 17 24" version="1.1" xmlns="http://www.w3.org/2000/svg" xmlns:xlink="http://www.w3.org/1999/xlink">
    <!-- Generator: Sketch 52.5 (67469) - http://www.bohemiancoding.com/sketch -->
    <title>paint-brush (1)</title>
    <desc>Created with Sketch.</desc>
    <g id="Configurator" stroke="none" stroke-width="1" fill="none" fill-rule="evenodd">
        <g id="Closet" transform="translate(-208.000000, -354.000000)" fill="#000000" fill-rule="nonzero">
            <g id="sidebar" transform="translate(-1.000000, 81.000000)">
                <g id="Group" transform="translate(1.000000, 235.000000)">
                    <g id="color" transform="translate(190.000000, 21.000000)">
                        <g id="paint-brush-(1)" transform="translate(18.000000, 17.000000)">
                            <path d="M8.5,21.6 C9.38650278,21.6 10.1118361,20.88 10.1118361,20.0000156 C10.1118361,19.1200313 9.38650278,18.4000313 8.5,18.4000313 C7.61349722,18.4000313 6.88816389,19.1200313 6.88816389,20.0000156 C6.88816389,20.88 7.61349722,21.6 8.5,21.6 Z M8.5,19.2 C8.943275,19.2 9.30594167,19.56 9.30594167,20.0000156 C9.30594167,20.4400313 8.943275,20.8000313 8.5,20.8000313 C8.056725,20.8000313 7.69405833,20.4400313 7.69405833,20.0000156 C7.69405833,19.56 8.056725,19.2 8.5,19.2 Z" id="Shape"></path>
                            <path d="M16.559275,5.19998438 L16.559275,1.2 C16.559275,0.519984375 16.0354389,0 15.3503861,0 L9.30594167,0 L2.45555556,0 L1.64961389,0 C0.964561111,0 0.440725,0.519984375 0.440725,1.2 L0.440725,5.19998437 C0.198947222,5.19998437 0.0377777778,5.35996875 0.0377777778,5.59996875 L0.0377777778,9.19996875 C0.0377777778,9.43996875 0.198947222,9.59995312 0.440725,9.59995312 L0.440725,12.3999375 C0.440725,13.5199219 1.32722778,14.3999531 2.45555556,14.3999531 L3.26149722,14.3999531 C3.74505278,14.3999531 4.18832778,14.5999687 4.51066667,14.9599687 C4.83305278,15.3599531 4.95394167,15.8399531 4.87333333,16.3199531 L4.47038611,18.9999375 C4.18832778,20.6399531 4.91366111,22.3599375 6.324,23.3199375 C6.968725,23.76 7.73438611,24 8.5,24 C9.26561389,24 10.031275,23.7999844 10.676,23.3199844 C12.0460583,22.3599844 12.8117194,20.6799844 12.5296139,18.9999844 L12.1266667,16.32 C12.0460583,15.8000156 12.1669472,15.3200156 12.4893333,14.9600156 C12.8117194,14.6000156 13.2549472,14.4 13.7385028,14.4 L14.5444444,14.4 C15.672725,14.4 16.559275,13.5200156 16.559275,12.3999844 L16.559275,9.6 C16.8010528,9.6 16.9622222,9.44001563 16.9622222,9.20001563 L16.9622222,5.60001563 C16.9622222,5.36001562 16.8010528,5.19998438 16.559275,5.19998438 Z M0.843719444,6 L4.47038611,6 L4.47038611,6.39998437 C4.47038611,7.27996875 5.19571944,7.99996875 6.08222222,7.99996875 C6.968725,7.99996875 7.69405833,7.27996875 7.69405833,6.39998437 L7.69405833,6 L16.1562806,6 L16.1562806,8.79998438 L0.843719444,8.79998438 L0.843719444,6 Z M9.70888889,2.19998437 L9.70888889,0.800015625 L15.3503861,0.800015625 C15.5921639,0.800015625 15.7533333,0.96 15.7533333,1.2 L15.7533333,5.19998437 L7.69405833,5.19998437 L7.69405833,3.48 C7.89555556,3.56001562 8.09700556,3.6 8.29850278,3.6 C9.06416389,3.6 9.70888889,2.96001563 9.70888889,2.19998437 Z M8.90294722,2.19998437 C8.90294722,2.52 8.62088889,2.79998438 8.29850278,2.79998438 C7.97611667,2.79998438 7.69405833,2.52 7.69405833,2.19998438 L7.69405833,1.59998438 C7.69405833,1.35998438 7.53288889,1.2 7.29111111,1.2 C7.04933333,1.2 6.88816389,1.35998438 6.88816389,1.59998438 L6.88816389,2.19998438 L6.88816389,2.4 L6.88816389,5.60001562 L6.88816389,6.40003125 C6.88816389,6.84004687 6.52549722,7.20004687 6.08222222,7.20004687 C5.63894722,7.20004687 5.27628056,6.84004687 5.27628056,6.40003125 L5.27628056,5.60001562 L5.27628056,3.20001562 L5.27628056,2.00001562 C5.27628056,1.76001562 5.11511111,1.60003125 4.87333333,1.60003125 C4.63155556,1.60003125 4.47038611,1.76001562 4.47038611,2.00001562 L4.47038611,3.20001562 C4.47038611,3.64003125 4.10771944,4.00003125 3.66444444,4.00003125 C3.22116944,4.00003125 2.85850278,3.64003125 2.85850278,3.20001562 L2.85850278,0.800015625 L8.90294722,0.800015625 L8.90294722,2.19998437 Z M1.24666667,1.2 C1.24666667,0.999984375 1.44816389,0.800015625 1.64961389,0.800015625 L2.05256111,0.800015625 L2.05256111,3.20001562 C2.05256111,4.08 2.77789444,4.8 3.66439722,4.8 C3.94645556,4.8 4.22856111,4.71998438 4.47033889,4.59998438 L4.47033889,5.19998438 L1.24666667,5.19998438 L1.24666667,1.2 Z M15.7936139,12.3999844 C15.7936139,13.08 15.2697778,13.5999844 14.584725,13.5999844 L13.7787833,13.5999844 C13.05345,13.5999844 12.408725,13.92 11.9251694,14.4399844 C11.4416139,15 11.2401167,15.72 11.3610056,16.44 L11.7639528,19.1199844 C11.96545,20.4799687 11.3610056,21.8799844 10.2326778,22.68 C9.22528611,23.4 7.8149,23.4 6.80750833,22.68 C5.6389,21.8799844 5.07478333,20.4800156 5.27623333,19.1199844 L5.67918056,16.44 C5.80006944,15.72 5.59857222,15 5.11501667,14.4399844 C4.67174167,13.92 3.98673611,13.5999844 3.26140278,13.5999844 L2.45555556,13.5999844 C1.912925,13.5999844 1.471775,13.2735937 1.31164444,12.7999687 L2.45555556,12.7999687 C2.69733333,12.7999687 2.85850278,12.6399844 2.85850278,12.3999844 C2.85850278,12.1599844 2.69733333,12 2.45555556,12 L1.24666667,12 L1.24666667,11.1999844 L3.26149722,11.1999844 C3.503275,11.1999844 3.66444444,11.04 3.66444444,10.8 C3.66444444,10.56 3.503275,10.4000156 3.26149722,10.4000156 L1.24666667,10.4000156 L1.24666667,9.6 L15.7936139,9.6 L15.7936139,12.3999844 Z" id="Shape"></path>
                        </g>
                    </g>
                </g>
            </g>
        </g>
    </g>
</svg>