<?xml version="1.0" encoding="UTF-8"?>
<svg width="15px" height="17px" viewBox="0 0 15 17" version="1.1" xmlns="http://www.w3.org/2000/svg" xmlns:xlink="http://www.w3.org/1999/xlink">
    <!-- Generator: Sketch 52.5 (67469) - http://www.bohemiancoding.com/sketch -->
    <title>Group 2</title>
    <desc>Created with Sketch.</desc>
    <g id="Configurator" stroke="none" stroke-width="1" fill="none" fill-rule="evenodd">
        <g id="My-project" transform="translate(-928.000000, -557.000000)" fill="#000000">
            <g id="controls" transform="translate(748.000000, 555.000000)">
                <g id="reset" transform="translate(173.000000, 2.540000)">
                    <g id="Group-2" transform="translate(7.000000, 0.000000)">
                        <path d="M11.5909091,8.37369065 L11.5909091,3.39745065 L9.79159091,5.15253065 C9.53522727,5.40277065 9.12477273,5.40277065 8.86772727,5.15321065 L8.82068182,5.10697065 C8.55681818,4.85061065 8.55409091,4.42833065 8.81386364,4.16857065 C9.68659091,3.29681065 10.3936364,2.58621065 11.2186364,1.76001065 C11.7511364,1.22757065 12.6184091,1.22621065 13.1515909,1.75865065 C13.9813636,2.58757065 14.7340909,3.34169065 15.5795455,4.18489065 C15.8331818,4.43853065 15.8393182,4.84789065 15.5918182,5.10697065 L15.5911364,5.10765065 C15.3327273,5.37829065 14.9011364,5.38101065 14.6393182,5.11445065 L12.9545455,3.39745065 L12.9545455,8.37369065 C12.9545455,12.1293307 9.90204545,15.1736907 6.13636364,15.1736907 L6.13636364,15.1736907 C2.37068182,15.1736907 -0.681818182,12.1293307 -0.681818182,8.37369065 L-0.681818182,1.57369065 L0.681818182,1.57369065 L0.681818182,8.37369065 C0.681818182,11.3779307 3.12409091,13.8136907 6.13636364,13.8136907 L6.13636364,13.8136907 C9.14863636,13.8136907 11.5909091,11.3779307 11.5909091,8.37369065" id="arrow_up-[#366]" transform="translate(7.545927, 8.266845) scale(-1, 1) rotate(90.000000) translate(-7.545927, -8.266845) "></path>
                    </g>
                </g>
            </g>
        </g>
    </g>
</svg>