<?xml version="1.0" encoding="UTF-8"?>
<svg width="24px" height="24px" viewBox="0 0 24 24" version="1.1" xmlns="http://www.w3.org/2000/svg" xmlns:xlink="http://www.w3.org/1999/xlink">
    <!-- Generator: Sketch 52.5 (67469) - http://www.bohemiancoding.com/sketch -->
    <title>afwerking</title>
    <desc>Created with Sketch.</desc>
    <g id="Configurator" stroke="none" stroke-width="1" fill="none" fill-rule="evenodd">
        <g id="Closet" transform="translate(-205.000000, -431.000000)" fill="#000000" fill-rule="nonzero">
            <g id="sidebar" transform="translate(-1.000000, 81.000000)">
                <g id="Group" transform="translate(1.000000, 235.000000)">
                    <g id="color" transform="translate(190.000000, 98.000000)">
                        <g id="afwerking" transform="translate(15.000000, 17.000000)">
                            <g id="screw-(1)">
                                <path d="M10.9291818,3.83251462 C10.1534091,1.79649123 8.40795455,0.319391813 6.35218182,0 C6.23581818,0 6.11945455,0.0399064327 6.00309091,0.0798596491 C5.9255,0.159719298 5.88672727,0.27948538 5.88672727,0.399251462 L5.88672727,1.59691228 L5.11095455,1.59691228 L5.11095455,0.399251462 C5.11095455,0.27948538 5.07218182,0.159719298 4.99459091,0.0798596491 C4.917,-4.15522068e-17 4.80068182,0 4.68431818,0 C2.58977273,0.319391813 0.844318182,1.79649123 0.0685454545,3.83251462 C0.0297727273,3.99218713 0.0297727273,4.11195322 0.146136364,4.2317193 C0.223727273,4.31157895 0.340090909,4.39139181 0.456454545,4.39139181 L3.17159091,4.39139181 L3.17159091,8.01005848 L2.8225,7.98437427 C2.58977273,7.94446784 2.39581818,8.10414035 2.39581818,8.34367251 C2.35704545,8.58320468 2.51218182,8.78283041 2.74490909,8.78283041 L3.17159091,8.8139883 L3.17159091,9.60697076 L2.8225,9.58128655 C2.58977273,9.54138012 2.39581818,9.70105263 2.39581818,9.9405848 C2.35704545,10.180117 2.51218182,10.3797427 2.74490909,10.3797427 L3.17159091,10.4109006 L3.17159091,11.203883 L2.8225,11.1781988 C2.58977273,11.1382924 2.39581818,11.2979649 2.39581818,11.5374971 C2.35704545,11.7770292 2.51218182,11.976655 2.74490909,11.976655 L3.17159091,12.0078129 L3.17159091,12.8007953 L2.8225,12.7751111 C2.58977273,12.7352047 2.39581818,12.8948772 2.39581818,13.1344094 C2.35704545,13.3739415 2.51218182,13.5735673 2.74490909,13.5735673 L3.17159091,13.6047251 L3.17159091,14.3977076 L2.8225,14.3720234 C2.58977273,14.332117 2.39581818,14.4917895 2.39581818,14.7313216 C2.35704545,14.9708538 2.51218182,15.1704795 2.74490909,15.1704795 L3.17159091,15.2016374 L3.17159091,15.9946199 L2.8225,15.9689357 C2.58977273,15.9290292 2.39581818,16.1286082 2.39581818,16.3282339 C2.35704545,16.5677661 2.51218182,16.7673918 2.74490909,16.7673918 L3.17159091,16.7985497 L3.17159091,17.5915322 L2.8225,17.565848 C2.58977273,17.5259415 2.39581818,17.685614 2.39581818,17.9251462 C2.35704545,18.1646784 2.51218182,18.3643041 2.74490909,18.3643041 L3.17159091,18.395462 L3.17159091,19.1884444 L2.8225,19.1627602 C2.58977273,19.1228538 2.39581818,19.2825263 2.39581818,19.5220585 C2.35704545,19.7615906 2.51218182,19.9612164 2.74490909,19.9612164 L3.17159091,19.9923743 L3.17159091,21.1588772 C3.17159091,21.2387368 3.21036364,21.3585029 3.24918182,21.3984094 L5.18859091,23.793731 C5.26618182,23.9134971 5.38254545,23.9534035 5.49890909,23.9534035 C5.61527273,23.9534035 5.73163636,23.9134971 5.80922727,23.793731 L7.74863636,21.3984094 C7.78740909,21.3585029 7.82622727,21.2387368 7.82622727,21.1588772 L7.82622727,20.332117 L8.21409091,20.3604211 C8.40804545,20.3604211 8.60195455,20.2007485 8.60195455,20.0011228 C8.64072727,19.7615906 8.48559091,19.5619649 8.25286364,19.5619649 L7.82618182,19.5306199 L7.82618182,18.7352515 L8.21404545,18.7635556 C8.408,18.7635556 8.60190909,18.603883 8.60190909,18.4042573 C8.64068182,18.1647251 8.48554545,17.9650994 8.25281818,17.9650994 L7.82613636,17.9337544 L7.82613636,17.138386 L8.214,17.1666901 C8.40795455,17.1666901 8.60186364,17.0070175 8.60186364,16.8073918 C8.64063636,16.5678596 8.4855,16.3682339 8.25277273,16.3682339 L7.82609091,16.3368889 L7.82609091,15.5415205 L8.21395455,15.5698246 C8.40790909,15.5698246 8.60181818,15.410152 8.60181818,15.2105263 C8.64059091,14.9709942 8.48545455,14.7713684 8.25272727,14.7713684 L7.82604545,14.7400234 L7.82604545,13.944655 L8.21390909,13.9729591 C8.40786364,13.9729591 8.60177273,13.8132865 8.60177273,13.6136608 C8.64054545,13.3741287 8.48540909,13.1745029 8.25268182,13.1745029 L7.826,13.1431579 L7.826,12.3477895 L8.21386364,12.3760936 C8.40781818,12.3760936 8.60172727,12.2164211 8.60172727,12.0167953 C8.6405,11.7772632 8.48536364,11.5776374 8.25263636,11.5776374 L7.82595455,11.5462924 L7.82595455,10.750924 L8.21381818,10.7792281 C8.40777273,10.7792281 8.60168182,10.6195556 8.60168182,10.4199298 C8.64045455,10.1803977 8.48531818,9.98077193 8.25259091,9.98077193 L7.82590909,9.9494269 L7.82590909,9.15405848 L8.21377273,9.18236257 C8.40772727,9.18236257 8.60163636,9.02269006 8.60163636,8.82306433 C8.64040909,8.58353216 8.48527273,8.38390643 8.25254545,8.38390643 L7.82586364,8.3525614 L7.82586364,4.3914386 L10.5798182,4.3914386 C10.6961818,4.3914386 10.8125455,4.31157895 10.8901364,4.19181287 C10.9679545,4.11195322 10.9679545,3.9522807 10.9291818,3.83251462 Z M7.05036364,20.9989708 L5.49886364,22.9152281 L3.94736364,20.9989708 L3.94736364,20.0487485 L7.05040909,20.2752749 L7.05040909,20.9989708 L7.05036364,20.9989708 Z M7.05036364,19.4734035 L3.94731818,19.2452865 L3.94731818,18.4519298 L7.05036364,18.6784561 L7.05036364,19.4734035 Z M7.05036364,17.8764912 L3.94731818,17.6483743 L3.94731818,16.8550175 L7.05036364,17.0815439 L7.05036364,17.8764912 Z M7.05036364,16.2796257 L3.94731818,16.0515088 L3.94731818,15.258152 L7.05036364,15.4846784 L7.05036364,16.2796257 Z M7.05036364,14.6827602 L3.94731818,14.4546433 L3.94731818,13.6612865 L7.05036364,13.8878129 L7.05036364,14.6827602 Z M7.05036364,13.0858947 L3.94731818,12.8577778 L3.94731818,12.0644211 L7.05036364,12.2909474 L7.05036364,13.0858947 Z M7.05036364,11.4889825 L3.94731818,11.2608655 L3.94731818,10.4675088 L7.05036364,10.6940351 L7.05036364,11.4889825 Z M7.05036364,9.89211696 L3.94731818,9.664 L3.94731818,8.87064327 L7.05036364,9.09716959 L7.05036364,9.89211696 Z M7.05036364,8.29520468 L3.94731818,8.06708772 L3.94731818,4.3914386 L7.05036364,4.3914386 L7.05036364,8.29520468 Z M7.43827273,3.59298246 L3.5595,3.59298246 L1.03827273,3.59298246 C1.73645455,2.23564912 2.93886364,1.23756725 4.33522727,0.878269006 L4.33522727,1.99607018 C4.33522727,2.23560234 4.49036364,2.39527485 4.72309091,2.39527485 L6.27459091,2.39527485 C6.50731818,2.39527485 6.66245455,2.23560234 6.66245455,1.99607018 L6.66245455,0.878269006 C8.05881818,1.23756725 9.26122727,2.23560234 9.95940909,3.59298246 L7.43827273,3.59298246 Z" id="Shape"></path>
                            </g>
                            <g id="screw" transform="translate(12.000000, 0.000000)">
                                <path d="M11.914224,0.51897076 C11.791344,0.199625731 11.50464,0 11.136,0 L7.121904,0 C6.95808,0 6.8352,0.0798596491 6.753264,0.199625731 L6.384624,0.79845614 L5.23776,0.79845614 L4.951056,0.199625731 C4.86912,0.0798596491 4.74624,0 4.582368,0 L0.895968,0 C0.568272,0 0.240624,0.159672515 0.117744,0.479064327 C-0.04608,0.758502924 -0.005136,1.07789474 0.19968,1.35733333 C0.6912,2.03602339 1.387536,2.59490058 2.04288,3.15382456 C2.90304,3.7925614 3.39456,4.83054971 3.39456,5.98830409 L3.39456,8.01005848 L3.02592,7.98437427 C2.78016,7.94446784 2.575344,8.10414035 2.575344,8.34367251 C2.5344,8.58320468 2.698224,8.78283041 2.943984,8.78283041 L3.39456,8.8139883 L3.39456,9.60697076 L3.02592,9.58128655 C2.78016,9.54138012 2.575344,9.70105263 2.575344,9.9405848 C2.5344,10.180117 2.698224,10.3797427 2.943984,10.3797427 L3.39456,10.4109006 L3.39456,11.203883 L3.02592,11.1781988 C2.78016,11.1382924 2.575344,11.2979649 2.575344,11.5374971 C2.5344,11.7770292 2.698224,11.976655 2.943984,11.976655 L3.39456,12.0078129 L3.39456,12.8007953 L3.02592,12.7751111 C2.78016,12.7352047 2.575344,12.8948772 2.575344,13.1344094 C2.5344,13.3739415 2.698224,13.5735673 2.943984,13.5735673 L3.39456,13.6047251 L3.39456,14.3977076 L3.02592,14.3720234 C2.78016,14.332117 2.575344,14.4917895 2.575344,14.7313216 C2.5344,14.9708538 2.698224,15.1704795 2.943984,15.1704795 L3.39456,15.2016374 L3.39456,15.9946199 L3.02592,15.9689357 C2.78016,15.9290292 2.575344,16.1286082 2.575344,16.3282339 C2.5344,16.5677661 2.698224,16.7673918 2.943984,16.7673918 L3.39456,16.7985497 L3.39456,17.5915322 L3.02592,17.565848 C2.78016,17.5259415 2.575344,17.685614 2.575344,17.9251462 C2.5344,18.1646784 2.698224,18.3643041 2.943984,18.3643041 L3.39456,18.395462 L3.39456,19.1884444 L3.02592,19.1627602 C2.78016,19.1228538 2.575344,19.2825263 2.575344,19.5220585 C2.5344,19.7615906 2.698224,19.9612164 2.943984,19.9612164 L3.39456,19.9923743 L3.39456,21.1588772 C3.39456,21.2387368 3.435504,21.3585029 3.476496,21.3984094 L5.524512,23.793731 C5.606448,23.9134971 5.729328,23.9534035 5.852208,23.9534035 C5.975088,23.9534035 6.097968,23.9134971 6.179904,23.793731 L8.22792,21.3984094 C8.268864,21.3585029 8.309856,21.2387368 8.309856,21.1588772 L8.309856,20.332117 L8.71944,20.3604211 C8.924256,20.3604211 9.129024,20.2007485 9.129024,20.0011228 C9.169968,19.7615906 9.006144,19.5619649 8.760384,19.5619649 L8.309808,19.5306199 L8.309808,18.7352515 L8.719392,18.7635556 C8.924208,18.7635556 9.128976,18.603883 9.128976,18.4042573 C9.16992,18.1647251 9.006096,17.9650994 8.760336,17.9650994 L8.30976,17.9337544 L8.30976,17.138386 L8.719344,17.1666901 C8.92416,17.1666901 9.128928,17.0070175 9.128928,16.8073918 C9.169872,16.5678596 9.006048,16.3682339 8.760288,16.3682339 L8.309712,16.3368889 L8.309712,15.5415205 L8.719296,15.5698246 C8.924112,15.5698246 9.12888,15.410152 9.12888,15.2105263 C9.169824,14.9709942 9.006,14.7713684 8.76024,14.7713684 L8.309664,14.7400234 L8.309664,13.944655 L8.719248,13.9729591 C8.924064,13.9729591 9.128832,13.8132865 9.128832,13.6136608 C9.169776,13.3741287 9.005952,13.1745029 8.760192,13.1745029 L8.309616,13.1431579 L8.309616,12.3477895 L8.7192,12.3760936 C8.924016,12.3760936 9.128784,12.2164211 9.128784,12.0167953 C9.169728,11.7772632 9.005904,11.5776374 8.760144,11.5776374 L8.309568,11.5462924 L8.309568,10.750924 L8.719152,10.7792281 C8.923968,10.7792281 9.128736,10.6195556 9.128736,10.4199298 C9.16968,10.1803977 9.005856,9.98077193 8.760096,9.98077193 L8.30952,9.9494269 L8.30952,9.15405848 L8.719104,9.18236257 C8.92392,9.18236257 9.128688,9.02269006 9.128688,8.82306433 C9.169632,8.58353216 9.005808,8.38390643 8.760048,8.38390643 L8.309472,8.3525614 L8.309472,5.98830409 C8.309472,4.83054971 8.800992,3.79260819 9.661152,3.15382456 C9.824976,3.03405848 9.988848,2.9142924 10.193616,2.75461988 C10.72608,2.3554152 11.34048,1.91625731 11.791056,1.43719298 C11.99616,1.15775439 12.037104,0.838362573 11.914224,0.51897076 Z M7.490544,20.9989708 L5.85216,22.9152281 L4.213776,20.9989708 L4.213776,20.0487485 L7.490592,20.2752749 L7.490592,20.9989708 L7.490544,20.9989708 Z M7.490544,19.4734035 L4.213728,19.2452865 L4.213728,18.4519298 L7.490544,18.6784561 L7.490544,19.4734035 Z M7.490544,17.8764912 L4.213728,17.6483743 L4.213728,16.8550175 L7.490544,17.0815439 L7.490544,17.8764912 Z M7.490544,16.2796257 L4.213728,16.0515088 L4.213728,15.258152 L7.490544,15.4846784 L7.490544,16.2796257 Z M7.490544,14.6827602 L4.213728,14.4546433 L4.213728,13.6612865 L7.490544,13.8878129 L7.490544,14.6827602 Z M7.490544,13.0858947 L4.213728,12.8577778 L4.213728,12.0644211 L7.490544,12.2909474 L7.490544,13.0858947 Z M7.490544,11.4889825 L4.213728,11.2608655 L4.213728,10.4675088 L7.490544,10.6940351 L7.490544,11.4889825 Z M7.490544,9.89211696 L4.213728,9.664 L4.213728,8.87064327 L7.490544,9.09716959 L7.490544,9.89211696 Z M11.176944,0.878269006 C10.76736,1.3174269 10.193904,1.71663158 9.702384,2.07592982 C9.497568,2.23560234 9.2928,2.39532164 9.128928,2.51508772 C8.104944,3.35345029 7.490544,4.59101754 7.490544,5.98830409 L7.490544,8.29520468 L4.213728,8.06708772 L4.213728,5.98830409 C4.213728,4.59101754 3.640272,3.35345029 2.575344,2.51508772 C1.960944,1.99611696 1.264608,1.47709942 0.855024,0.918222222 C0.855024,0.878315789 0.855024,0.878315789 0.855024,0.838362573 C0.855024,0.79845614 0.895968,0.79845614 0.895968,0.79845614 L4.295664,0.79845614 L4.664304,1.39728655 C4.74624,1.51705263 4.86912,1.59691228 5.032944,1.59691228 L6.671328,1.59691228 C6.794208,1.59691228 6.917088,1.51705263 6.999024,1.39728655 L7.367664,0.79845614 L11.136,0.79845614 C11.136,0.79845614 11.176944,0.79845614 11.176944,0.838362573 C11.176944,0.878269006 11.176944,0.878269006 11.176944,0.878269006 Z" id="Shape"></path>
                            </g>
                        </g>
                    </g>
                </g>
            </g>
        </g>
    </g>
</svg>