<?xml version="1.0" encoding="UTF-8"?>
<svg width="14px" height="15px" viewBox="0 0 14 15" version="1.1" xmlns="http://www.w3.org/2000/svg" xmlns:xlink="http://www.w3.org/1999/xlink">
    <!-- Generator: Sketch 52.3 (67297) - http://www.bohemiancoding.com/sketch -->
    <title>user</title>
    <desc>Created with Sketch.</desc>
    <g id="Main" stroke="none" stroke-width="1" fill="none" fill-rule="evenodd">
        <g id="Transition" transform="translate(-1206.000000, -32.000000)" fill="#000000" fill-rule="nonzero">
            <g id="navigation" transform="translate(150.000000, 15.000000)">
                <g id="user" transform="translate(1056.000000, 17.000000)">
                    <path d="M6.95229388,8.44889648 C2.47731466,8.44889648 0.0127992021,10.5810059 0.0127992021,14.4525586 C0.0127992021,14.7549316 0.256129488,15 0.556358045,15 L13.3482006,15 C13.6484292,15 13.8917595,14.7549316 13.8917595,14.4525586 C13.8917886,10.5812109 11.4272731,8.44889648 6.95229388,8.44889648 Z M1.11969747,13.9051172 C1.33350233,11.0104102 3.29303108,9.54380859 6.95229388,9.54380859 C10.6115567,9.54380859 12.5711145,11.0104102 12.7850939,13.9051172 L1.11969747,13.9051172 Z" id="Shape"></path>
                    <path d="M6.95229388,0 C4.89671293,0 3.34667138,1.59251953 3.34667138,3.70420898 C3.34667138,5.87774414 4.96414146,7.64581055 6.95229388,7.64581055 C8.94044631,7.64581055 10.5579164,5.87774414 10.5579164,3.70438477 C10.5579164,1.59251953 9.00787483,0 6.95229388,0 Z M6.95229388,6.55110352 C5.56349318,6.55110352 4.43378906,5.27408203 4.43378906,3.70438477 C4.43378906,2.19234375 5.49301031,1.09488281 6.95229388,1.09488281 C8.38821892,1.09488281 9.4707987,2.21660156 9.4707987,3.70438477 C9.4707987,5.27408203 8.34109458,6.55110352 6.95229388,6.55110352 Z" id="Shape"></path>
                </g>
            </g>
        </g>
    </g>
</svg>