<?xml version="1.0" encoding="UTF-8"?>
<svg width="27px" height="27px" viewBox="0 0 27 27" version="1.1" xmlns="http://www.w3.org/2000/svg" xmlns:xlink="http://www.w3.org/1999/xlink">
    <!-- Generator: Sketch 52.5 (67469) - http://www.bohemiancoding.com/sketch -->
    <title>parquet</title>
    <desc>Created with Sketch.</desc>
    <g id="Configurator" stroke="none" stroke-width="1" fill="none" fill-rule="evenodd">
        <g id="My-project" transform="translate(-45.000000, -406.000000)" fill="#000000" fill-rule="nonzero">
            <g id="sidebar" transform="translate(-1.000000, 81.000000)">
                <g id="Group" transform="translate(1.000000, 290.000000)">
                    <g id="material" transform="translate(30.000000, 21.000000)">
                        <g id="parquet" transform="translate(15.000000, 14.000000)">
                            <path d="M26.5292679,0 L23.3817321,0 L20.3690893,0 L15.2880536,0 L6.83464286,0 L3.822,0 L0.449625,0 C0.179839286,0 0,0.179839286 0,0.449625 L0,3.822 L0,8.90303571 L0,13.9840714 L0,19.1100536 L0,24.1910893 L0,26.5292679 C0,26.7990536 0.179839286,26.9788929 0.449625,26.9788929 L3.19248214,26.9788929 L7.46416071,26.9788929 L12.5901429,26.9788929 L14.6135357,26.9788929 L19.7395179,26.9788929 L24.0111964,26.9788929 L26.5292143,26.9788929 C26.799,26.9788929 26.9788393,26.7990536 26.9788393,26.5292679 L26.9788393,23.96625 L26.9788393,18.8853214 C26.9788393,18.8852679 26.9788393,18.8852679 26.9788393,18.8852143 L26.9788393,13.8041786 C26.9788393,13.8041786 26.9788393,13.804125 26.9788393,13.804125 L26.9788393,8.72319643 C26.9788393,8.71666071 26.97825,8.71071429 26.9780357,8.70444643 C26.9784643,8.69571429 26.9788393,8.68698214 26.9788393,8.67825 L26.9788393,3.59721429 L26.9788393,0.449625 C26.9789464,0.179839286 26.7990536,0 26.5292679,0 Z M23.022,19.8295179 L22.3112143,19.1187321 C22.2887679,19.0673571 22.2560893,19.0186071 22.2126429,18.9752143 L19.9868571,16.7494286 L21.8753571,14.8609286 L26.0795893,19.0651607 L26.0795893,22.8871607 L23.022,19.8295179 Z M12.7700357,26.0796429 L11.7133393,25.0229464 L19.3348929,17.4013929 L21.2261786,19.2926786 L19.1154107,21.4411607 C19.0652679,21.4635536 19.0176429,21.4956429 18.9751607,21.538125 L14.43375,26.0796429 L12.7700357,26.0796429 Z M4.00189286,0.94425 L6.65480357,0.94425 L12.949875,7.23932143 L11.1544286,9.03476786 L11.0691429,9.12005357 L5.66555357,3.68710714 C5.62210714,3.64366071 5.57341071,3.61098214 5.52203571,3.58853571 L3.41732143,1.48382143 L4.00189286,0.94425 Z M23.2018929,0.899303571 L26.0796429,3.822 L26.0796429,7.59905357 L19.9644107,1.48382143 L20.5489286,0.899303571 L23.2018929,0.899303571 Z M26.0796964,17.8060714 L26.0792679,17.8056964 L22.2790179,13.9774821 C22.2605357,13.9482321 22.2387321,13.9201607 22.2126964,13.894125 L19.9869643,11.6683393 L21.8754643,9.77983929 L26.0796964,13.9840714 L26.0796964,17.8060714 Z M3.42953571,6.57707143 L5.32676786,4.69725 L12.949875,12.3203571 L11.061375,14.2088571 L5.66555357,8.81308929 L3.42953571,6.57707143 Z M5.32676786,9.77828571 L12.949875,17.4013929 L11.061375,19.2898929 L5.66555357,13.894125 L3.42953571,11.6581071 L5.32676786,9.77828571 Z M11.693625,19.9221964 L13.9390714,17.716125 L19.3348929,12.3203571 L21.2009464,14.1864107 L13.5793929,21.8079643 L11.693625,19.9221964 Z M13.5793929,16.7269286 L11.7133393,14.860875 L13.939125,12.6350893 L19.3348929,7.23932143 L21.2009464,9.105375 L13.5793929,16.7269286 Z M13.5803571,11.6449286 L11.6969464,9.75128571 L19.3123929,2.13583929 L21.2008929,4.02433929 L13.5803571,11.6449286 Z M0.899303571,14.2089107 L2.78780357,12.3204107 L4.67630357,14.2089107 L0.89925,17.9859643 L0.89925,14.2089107 L0.899303571,14.2089107 Z M3.41732143,16.771875 L5.30582143,14.883375 L12.927375,22.5049286 L11.0613214,24.3709821 L5.66555357,18.9751607 C5.62210714,18.9317143 5.57341071,18.8990357 5.52203571,18.8765893 L3.41732143,16.771875 Z M0.899303571,4.00189286 L2.78780357,2.11339286 L4.69880357,4.02439286 L2.47307143,6.250125 C2.47307143,6.250125 2.47307143,6.250125 2.47301786,6.25017857 L0.89925,7.82394643 L0.89925,4.00189286 L0.899303571,4.00189286 Z M0.899303571,9.08416071 L2.79701786,7.20385714 L4.67630357,9.12792857 L2.47301786,11.3312143 L0.89925,12.9049821 L0.89925,9.08416071 L0.899303571,9.08416071 Z M0.899303571,19.2899464 L2.78780357,17.4463929 L4.67630357,19.3348929 L2.47301786,21.5381786 L0.89925,23.1119464 L0.89925,19.2899464 L0.899303571,19.2899464 Z M22.2789643,8.89644643 C22.2604821,8.86719643 22.2386786,8.839125 22.2126429,8.81308929 L19.9868571,6.58730357 L21.8753571,4.69880357 L26.0795893,8.90303571 L26.0795893,12.7250357 L22.2789643,8.89644643 Z M26.0796429,0.899303571 L26.0796429,2.51801786 L24.4609286,0.899303571 L26.0796429,0.899303571 Z M13.5793929,6.56485714 L11.6908393,4.67635714 L15.4678929,0.899303571 L19.2898929,0.899303571 L13.5793929,6.56485714 Z M14.1639107,0.899303571 L11.038875,4.02433929 L7.91383929,0.899303571 L14.1639107,0.899303571 Z M0.899303571,0.899303571 L2.74285714,0.899303571 L2.47307143,1.16908929 L0.899303571,2.74285714 L0.899303571,0.899303571 Z M0.899303571,24.3722143 L2.79717857,22.49175 L4.69885714,24.3934286 L3.01264286,26.0796429 L0.899303571,26.0796429 L0.899303571,24.3722143 Z M4.316625,26.0796429 L5.35082143,25.0454464 L6.38501786,26.0796429 L4.316625,26.0796429 Z M7.689,26.0796429 L3.47464286,21.8204464 L5.35725,19.9551429 L10.7465893,25.3152321 L11.511,26.0796429 L7.689,26.0796429 Z M19.3348929,22.4824286 L21.2458929,24.3934286 L19.5597321,26.0795893 L15.7377321,26.0795893 L19.3348929,22.4824286 Z M20.8187143,26.0796429 L21.8754107,25.0229464 L22.9321071,26.0796429 L20.8187143,26.0796429 Z M26.0796964,26.0796429 L24.2360893,26.0796429 L22.2126964,24.05625 C22.16925,24.0128036 22.1205536,23.980125 22.0691786,23.9576786 L19.9644643,21.8529643 L21.8754643,19.9419643 L26.0796964,24.1461964 L26.0796964,26.0796429 Z" id="Shape"></path>
                        </g>
                    </g>
                </g>
            </g>
        </g>
    </g>
</svg>