<svg width="58" height="58" viewBox="0 0 58 58" fill="none" xmlns="http://www.w3.org/2000/svg">
<path d="M14.8045 33.35L7.25 41.0833L13.2917 44.7083L16.9167 50.75L26.3393 40.8538" stroke="#F5C647" stroke-width="2" stroke-linecap="round" stroke-linejoin="round"/>
<path d="M31.6608 40.8538L41.0834 50.75L44.7084 44.7083L50.75 41.0833L43.1955 33.35" stroke="#F5C647" stroke-width="2" stroke-linecap="round" stroke-linejoin="round"/>
<path d="M40.9618 12.2048C47.5682 18.8111 47.5682 29.5222 40.9618 36.1285C34.3554 42.7349 23.6444 42.7349 17.038 36.1285C10.4317 29.5222 10.4317 18.8111 17.038 12.2048C23.6444 5.59841 34.3554 5.59841 40.9618 12.2048" stroke="#F5C647" stroke-width="2" stroke-linecap="round" stroke-linejoin="round"/>
<path fill-rule="evenodd" clip-rule="evenodd" d="M28.9975 30.4113L33.3403 32.6927C34.1861 33.1373 35.1745 32.4196 35.0126 31.4771L34.1837 26.6413L37.6975 23.2193C38.3815 22.5523 38.0045 21.3899 37.0595 21.2522L32.2045 20.5465L30.0343 16.1458C29.6114 15.2878 28.391 15.2878 27.968 16.1458L25.7979 20.5465L20.9404 21.2546C19.9955 21.3923 19.6185 22.5548 20.3024 23.2218L23.8162 26.6438L22.9873 31.4795C22.8254 32.422 23.8138 33.1398 24.6596 32.6951L29.0024 30.4138H28.9975V30.4113Z" stroke="#F5C647" stroke-width="2" stroke-linecap="round" stroke-linejoin="round"/>
</svg>
