<svg width="58" height="58" viewBox="0 0 58 58" fill="none" xmlns="http://www.w3.org/2000/svg">
<path d="M45.234 12.766C54.1998 21.7318 54.1998 36.2682 45.234 45.2339C36.2682 54.1997 21.7318 54.1997 12.7661 45.2339C3.8003 36.2682 3.8003 21.7317 12.7661 12.766C21.7319 3.80024 36.2683 3.80024 45.234 12.766" stroke="#F5C647" stroke-width="2" stroke-linecap="round" stroke-linejoin="round"/>
<path d="M45.234 12.766C54.1998 21.7318 54.1998 36.2682 45.234 45.2339C36.2682 54.1997 21.7318 54.1997 12.7661 45.2339C3.8003 36.2682 3.8003 21.7317 12.7661 12.766C21.7319 3.80024 36.2683 3.80024 45.234 12.766" stroke="#F5C647" stroke-width="2" stroke-linecap="round" stroke-linejoin="round"/>
<path d="M39.2531 18.747C44.9157 24.4096 44.9157 33.5905 39.2531 39.2531C33.5904 44.9157 24.4095 44.9157 18.747 39.2531C13.0843 33.5904 13.0843 24.4095 18.747 18.747C24.4096 13.0843 33.5905 13.0843 39.2531 18.747" stroke="#F5C647" stroke-width="2" stroke-linecap="round" stroke-linejoin="round"/>
<path d="M39.2531 18.747C44.9157 24.4096 44.9157 33.5905 39.2531 39.2531C33.5904 44.9157 24.4095 44.9157 18.747 39.2531C13.0843 33.5904 13.0843 24.4095 18.747 18.747C24.4096 13.0843 33.5905 13.0843 39.2531 18.747" stroke="#F5C647" stroke-width="2" stroke-linecap="round" stroke-linejoin="round"/>
<path d="M18.7291 8.48248L22.5233 16.0467" stroke="#F5C647" stroke-width="1.5" stroke-linecap="round" stroke-linejoin="round"/>
<path d="M35.4767 41.9533L39.2709 49.5175" stroke="#F5C647" stroke-width="1.5" stroke-linecap="round" stroke-linejoin="round"/>
<path d="M35.4767 16.0467L39.2709 8.48248" stroke="#F5C647" stroke-width="1.5" stroke-linecap="round" stroke-linejoin="round"/>
<path d="M22.5234 41.9533L18.7292 49.5175" stroke="#F5C647" stroke-width="1.5" stroke-linecap="round" stroke-linejoin="round"/>
<path d="M49.5175 18.7291L41.9534 22.5233" stroke="#F5C647" stroke-width="1.5" stroke-linecap="round" stroke-linejoin="round"/>
<path d="M16.0467 35.4766L8.48254 39.2708" stroke="#F5C647" stroke-width="1.5" stroke-linecap="round" stroke-linejoin="round"/>
<path d="M49.5175 39.2708L41.9534 35.4766" stroke="#F5C647" stroke-width="1.5" stroke-linecap="round" stroke-linejoin="round"/>
<path d="M16.0467 22.5233L8.48254 18.7291" stroke="#F5C647" stroke-width="1.5" stroke-linecap="round" stroke-linejoin="round"/>
<path fill-rule="evenodd" clip-rule="evenodd" d="M29.0001 36.25L35.6459 29L29.0001 21.75L22.3542 29L29.0001 36.25Z" stroke="#F5C647" stroke-width="1.5" stroke-linecap="round" stroke-linejoin="round"/>
</svg>
