<svg width="58" height="58" viewBox="0 0 58 58" fill="none" xmlns="http://www.w3.org/2000/svg">
<path d="M33.8333 46.7214H40.2785C44.7276 46.7214 48.3333 43.1157 48.3333 38.6667" stroke="#F5C647" stroke-width="2" stroke-linecap="round" stroke-linejoin="round"/>
<path d="M37.8618 50.75L33.8333 46.7214L37.8618 42.6953" stroke="#F5C647" stroke-width="2" stroke-linecap="round" stroke-linejoin="round"/>
<path d="M24.1666 11.2786H17.7214C13.2723 11.2786 9.66663 14.8843 9.66663 19.3333" stroke="#F5C647" stroke-width="2" stroke-linecap="round" stroke-linejoin="round"/>
<path d="M20.1381 7.25L24.1666 11.2786L20.1381 15.3047" stroke="#F5C647" stroke-width="2" stroke-linecap="round" stroke-linejoin="round"/>
<path d="M9.66663 42.8983V43.1955C9.66663 45.3657 11.426 47.125 13.5961 47.125H17.8229C19.9906 47.125 21.75 45.3657 21.75 43.1955V43.1955C21.75 41.3709 20.4933 39.7856 18.717 39.3699L12.702 37.961C10.9233 37.5478 9.66663 35.9624 9.66663 34.1378V34.1378C9.66663 31.9677 11.426 30.2083 13.5961 30.2083H17.8229C19.9906 30.2083 21.75 31.9677 21.75 34.1378V34.4351" stroke="#F5C647" stroke-width="2" stroke-linecap="round" stroke-linejoin="round"/>
<path fill-rule="evenodd" clip-rule="evenodd" d="M44.1694 27.7917H36.2693C36.2597 27.7917 36.25 27.782 36.25 27.7723V19.4832C36.25 19.4735 36.2597 19.4638 36.2693 19.4638H44.1694C46.4701 19.4638 48.3333 21.3271 48.3333 23.6278V23.6278C48.3333 25.9284 46.4701 27.7917 44.1694 27.7917V27.7917Z" stroke="#F5C647" stroke-width="2" stroke-linecap="round" stroke-linejoin="round"/>
<path d="M36.25 19.4638V10.875H43.1109C45.4817 10.875 47.4053 12.7987 47.4053 15.1694V15.1694C47.4053 17.5402 45.4696 19.4638 43.0843 19.4638" stroke="#F5C647" stroke-width="2" stroke-linecap="round" stroke-linejoin="round"/>
<path d="M41.0833 10.875V8.45834" stroke="#F5C647" stroke-width="2" stroke-linecap="round" stroke-linejoin="round"/>
<path d="M41.0833 30.2083V27.7917" stroke="#F5C647" stroke-width="2" stroke-linecap="round" stroke-linejoin="round"/>
<path d="M15.7083 30.2083V27.7917" stroke="#F5C647" stroke-width="2" stroke-linecap="round" stroke-linejoin="round"/>
<path d="M15.7083 49.5417V47.125" stroke="#F5C647" stroke-width="2" stroke-linecap="round" stroke-linejoin="round"/>
</svg>
