<svg width="58" height="58" viewBox="0 0 58 58" fill="none" xmlns="http://www.w3.org/2000/svg">
<path fill-rule="evenodd" clip-rule="evenodd" d="M31.7188 35.7957C31.7188 33.5458 33.5433 31.7188 35.7957 31.7188C38.048 31.7188 39.8726 33.5433 39.8726 35.7957C39.8726 38.048 38.048 39.8726 35.7957 39.8726C33.5506 39.8823 31.726 38.0722 31.7188 35.8271C31.7188 35.8174 31.7188 35.8078 31.7188 35.7957Z" stroke="#F5C647" stroke-width="2" stroke-linecap="round" stroke-linejoin="round"/>
<path d="M32.915 32.915L25.085 25.085" stroke="#F5C647" stroke-width="2" stroke-linecap="round" stroke-linejoin="round"/>
<path d="M38.6908 32.915L46.4966 25.085" stroke="#F5C647" stroke-width="2" stroke-linecap="round" stroke-linejoin="round"/>
<path fill-rule="evenodd" clip-rule="evenodd" d="M26.2813 22.2044C26.2813 24.4543 24.4567 26.2813 22.2043 26.2813C19.952 26.2813 18.125 24.4567 18.125 22.2044C18.125 19.9496 19.9496 18.125 22.2043 18.125C24.4494 18.1154 26.274 19.9255 26.2813 22.1705C26.2813 22.1826 26.2813 22.1923 26.2813 22.2044Z" stroke="#F5C647" stroke-width="2" stroke-linecap="round" stroke-linejoin="round"/>
<path d="M11.5033 32.915L19.3091 25.085" stroke="#F5C647" stroke-width="2" stroke-linecap="round" stroke-linejoin="round"/>
<path fill-rule="evenodd" clip-rule="evenodd" d="M53.4688 22.2043C53.4688 24.4542 51.6442 26.2812 49.3918 26.2812C47.1395 26.2812 45.3125 24.4566 45.3125 22.2043C45.3125 19.9519 47.1371 18.1274 49.3894 18.1274C51.6345 18.1177 53.4591 19.9278 53.4663 22.1729C53.4688 22.1825 53.4688 22.1922 53.4688 22.2043V22.2043Z" stroke="#F5C647" stroke-width="2" stroke-linecap="round" stroke-linejoin="round"/>
<path fill-rule="evenodd" clip-rule="evenodd" d="M4.53125 35.7957C4.53125 33.5458 6.35583 31.7188 8.60817 31.7188C10.8605 31.7188 12.6875 33.5433 12.6875 35.7957C12.6875 38.048 10.8629 39.8726 8.61058 39.8726C6.3655 39.8823 4.54092 38.0722 4.53367 35.8271C4.53125 35.8174 4.53125 35.8078 4.53125 35.7957Z" stroke="#F5C647" stroke-width="2" stroke-linecap="round" stroke-linejoin="round"/>
<path d="M7.46508 31.9024C7.33942 30.9502 7.25 29.986 7.25 29C7.25 16.9867 16.9867 7.25 29 7.25C37.1563 7.25 44.2564 11.7474 47.9781 18.3908" stroke="#F5C647" stroke-width="2" stroke-linecap="round" stroke-linejoin="round"/>
<path d="M10.022 39.6091C13.7436 46.2525 20.8438 50.7499 29.0001 50.7499C41.0133 50.7499 50.7501 41.0132 50.7501 29C50.7501 28.014 50.6606 27.0497 50.535 26.0975" stroke="#F5C647" stroke-width="2" stroke-linecap="round" stroke-linejoin="round"/>
</svg>
