<svg width="58" height="58" viewBox="0 0 58 58" fill="none" xmlns="http://www.w3.org/2000/svg">
<path fill-rule="evenodd" clip-rule="evenodd" d="M29.6912 53.1667H7.59562C6.06829 53.1667 4.83337 51.9318 4.83337 50.4045V36.5956C4.83337 35.0683 6.06829 33.8334 7.59562 33.8334H29.6912C31.2161 33.8334 32.4535 35.0683 32.4535 36.5956V50.4045C32.4535 51.9318 31.2161 53.1667 29.6912 53.1667Z" stroke="#F5C647" stroke-width="2" stroke-linecap="round" stroke-linejoin="round"/>
<path fill-rule="evenodd" clip-rule="evenodd" d="M50.4045 24.1667H28.3089C26.784 24.1667 25.5466 22.9318 25.5466 21.4045V7.59562C25.5466 6.06829 26.784 4.83337 28.3089 4.83337H50.4045C51.9318 4.83337 53.1667 6.06829 53.1667 7.59562V21.4045C53.1667 22.9318 51.9318 24.1667 50.4045 24.1667Z" stroke="#F5C647" stroke-width="2" stroke-linecap="round" stroke-linejoin="round"/>
<path d="M31.0711 11.4792V17.5209" stroke="#F5C647" stroke-width="2" stroke-linecap="round" stroke-linejoin="round"/>
<path d="M47.6422 11.4792V17.5209" stroke="#F5C647" stroke-width="2" stroke-linecap="round" stroke-linejoin="round"/>
<path d="M6.04175 20.5417L9.66675 24.1667L13.2917 20.5417" stroke="#F5C647" stroke-width="2" stroke-linecap="round" stroke-linejoin="round"/>
<path d="M9.66675 24.1667V19.3334C9.66675 15.329 12.9123 12.0834 16.9167 12.0834" stroke="#F5C647" stroke-width="2" stroke-linecap="round" stroke-linejoin="round"/>
<path d="M51.9584 37.4584L48.3334 33.8334L44.7084 37.4584" stroke="#F5C647" stroke-width="2" stroke-linecap="round" stroke-linejoin="round"/>
<path d="M48.3334 33.8334V38.6667C48.3334 42.6711 45.0878 45.9167 41.0834 45.9167" stroke="#F5C647" stroke-width="2" stroke-linecap="round" stroke-linejoin="round"/>
<path fill-rule="evenodd" clip-rule="evenodd" d="M18.6422 46.5209C20.3105 46.5209 21.663 45.1684 21.663 43.5001C21.663 41.8317 20.3105 40.4792 18.6422 40.4792C16.9738 40.4792 15.6213 41.8317 15.6213 43.5001C15.6213 45.1684 16.9738 46.5209 18.6422 46.5209Z" stroke="#F5C647" stroke-width="2" stroke-linecap="round" stroke-linejoin="round"/>
<path fill-rule="evenodd" clip-rule="evenodd" d="M39.3579 17.5209C41.0262 17.5209 42.3787 16.1684 42.3787 14.5001C42.3787 12.8317 41.0262 11.4792 39.3579 11.4792C37.6895 11.4792 36.337 12.8317 36.337 14.5001C36.337 16.1684 37.6895 17.5209 39.3579 17.5209Z" stroke="#F5C647" stroke-width="2" stroke-linecap="round" stroke-linejoin="round"/>
<path d="M26.5833 39.7542C26.651 39.7542 26.7042 39.8074 26.7042 39.8751C26.7042 39.9427 26.651 39.9959 26.5833 39.9959C26.5157 39.9959 26.4625 39.9427 26.4625 39.8751C26.4625 39.8074 26.5157 39.7542 26.5833 39.7542" stroke="#F5C647" stroke-width="2" stroke-linecap="round" stroke-linejoin="round"/>
<path d="M10.7035 47.0042C10.7711 47.0042 10.8243 47.0574 10.8243 47.1251C10.8243 47.1927 10.7711 47.2459 10.7035 47.2459C10.6358 47.2459 10.5826 47.1927 10.5826 47.1251C10.5826 47.0574 10.6358 47.0042 10.7035 47.0042" stroke="#F5C647" stroke-width="2" stroke-linecap="round" stroke-linejoin="round"/>
</svg>
