<svg width="58" height="58" viewBox="0 0 58 58" fill="none" xmlns="http://www.w3.org/2000/svg">
<path fill-rule="evenodd" clip-rule="evenodd" d="M35.351 38.6667H22.649C22.069 38.6667 21.5083 38.8745 21.0685 39.2539L12.4869 46.6707C9.05282 49.6383 3.79174 46.6731 4.56266 42.2022C5.95949 34.0992 7.37807 25.8656 8.79182 17.6852C9.59174 13.0524 13.6107 9.66666 18.3159 9.66666H39.6865C44.3893 9.66666 48.4107 13.0524 49.2106 17.6876C50.6243 25.868 52.0429 34.1016 53.4397 42.2047C54.2107 46.6779 48.9472 49.6407 45.5155 46.6731L36.9339 39.2563C36.4917 38.8745 35.931 38.6667 35.351 38.6667Z" stroke="#F5C647" stroke-width="2" stroke-linecap="round" stroke-linejoin="round"/>
<path d="M14.5 24.1667H24.1667" stroke="#F5C647" stroke-width="2" stroke-linecap="round" stroke-linejoin="round"/>
<path d="M19.3333 19.3333V29" stroke="#F5C647" stroke-width="2" stroke-linecap="round" stroke-linejoin="round"/>
<path d="M38.6642 18.7292C38.3307 18.7292 38.0601 18.9998 38.0625 19.3333C38.0625 19.6668 38.3332 19.9375 38.6667 19.9375C39.0002 19.9375 39.2708 19.6668 39.2708 19.3333C39.2708 18.9998 39.0002 18.7292 38.6642 18.7292" stroke="#F5C647" stroke-width="2" stroke-linecap="round" stroke-linejoin="round"/>
<path d="M43.4976 23.5625C43.1641 23.5625 42.8934 23.8332 42.8958 24.1667C42.8958 24.5002 43.1665 24.7708 43.5 24.7708C43.8335 24.7708 44.1042 24.5002 44.1042 24.1667C44.1042 23.8332 43.8335 23.5625 43.4976 23.5625" stroke="#F5C647" stroke-width="2" stroke-linecap="round" stroke-linejoin="round"/>
<path d="M38.6642 28.3958C38.3307 28.3958 38.0601 28.6665 38.0625 29C38.0625 29.3335 38.3332 29.6042 38.6667 29.6042C39.0002 29.6042 39.2708 29.3335 39.2708 29C39.2708 28.6665 39.0002 28.3958 38.6642 28.3958" stroke="#F5C647" stroke-width="2" stroke-linecap="round" stroke-linejoin="round"/>
<path d="M33.8309 23.5625C33.4974 23.5625 33.2268 23.8332 33.2292 24.1667C33.2292 24.5002 33.4998 24.7708 33.8333 24.7708C34.1668 24.7708 34.4375 24.5002 34.4375 24.1667C34.4375 23.8332 34.1668 23.5625 33.8309 23.5625" stroke="#F5C647" stroke-width="2" stroke-linecap="round" stroke-linejoin="round"/>
</svg>
