<svg width="58" height="58" viewBox="0 0 58 58" fill="none" xmlns="http://www.w3.org/2000/svg">
<path fill-rule="evenodd" clip-rule="evenodd" d="M14.5 50.75H9.66667C8.33267 50.75 7.25 49.6674 7.25 48.3334V33.8334C7.25 32.4994 8.33267 31.4167 9.66667 31.4167H14.5C15.834 31.4167 16.9167 32.4994 16.9167 33.8334V48.3334C16.9167 49.6674 15.834 50.75 14.5 50.75Z" stroke="#F5C647" stroke-width="2" stroke-linecap="round" stroke-linejoin="round"/>
<path d="M31.4166 41.0833H37.0547C38.1011 41.0833 39.1185 40.745 39.9547 40.1167L45.7934 35.7377C47.2506 34.6453 49.2903 34.7903 50.5784 36.0784V36.0784C52.009 37.5091 52.009 39.8267 50.5784 41.2549L45.5686 46.2647C44.2201 47.6132 42.4995 48.5339 40.629 48.9085L33.5481 50.3247C32.144 50.605 30.6965 50.5712 29.3069 50.2232L22.9027 48.6233C22.1366 48.43 21.3512 48.3333 20.561 48.3333H16.9166" stroke="#F5C647" stroke-width="2" stroke-linecap="round" stroke-linejoin="round"/>
<path d="M31.4166 41.0834H35.0054C37.0281 41.0834 38.6666 39.4449 38.6666 37.4221V36.6899C38.6666 35.0103 37.5235 33.5458 35.8947 33.1398L30.3557 31.755C29.4543 31.5303 28.5311 31.4167 27.6031 31.4167V31.4167C25.3629 31.4167 23.171 32.0789 21.3077 33.3234L16.9166 36.25" stroke="#F5C647" stroke-width="2" stroke-linecap="round" stroke-linejoin="round"/>
<path d="M41.4913 12.4585C44.1697 15.1369 44.1697 19.4795 41.4913 22.1579C38.8129 24.8363 34.4703 24.8363 31.7919 22.1579C29.1135 19.4795 29.1135 15.1369 31.7919 12.4585C34.4703 9.78007 38.8129 9.78007 41.4913 12.4585" stroke="#F5C647" stroke-width="2" stroke-linecap="round" stroke-linejoin="round"/>
<path d="M35.3582 10.5729C35.1335 9.20751 34.51 7.89526 33.4563 6.84159C30.7787 4.16393 26.4359 4.16393 23.7582 6.84159C21.0806 9.51926 21.0806 13.862 23.7582 16.5397C25.4257 18.2072 27.7361 18.8331 29.8893 18.4247" stroke="#F5C647" stroke-width="2" stroke-linecap="round" stroke-linejoin="round"/>
</svg>
