<svg width="58" height="58" viewBox="0 0 58 58" fill="none" xmlns="http://www.w3.org/2000/svg">
<path fill-rule="evenodd" clip-rule="evenodd" d="M45.9167 41.0834H43.5C42.166 41.0834 41.0834 40.0007 41.0834 38.6667V26.5834C41.0834 25.2494 42.166 24.1667 43.5 24.1667H45.9167C48.5871 24.1667 50.75 26.3296 50.75 29V36.25C50.75 38.9204 48.5871 41.0834 45.9167 41.0834Z" stroke="#F5C647" stroke-width="2" stroke-linecap="round" stroke-linejoin="round"/>
<path fill-rule="evenodd" clip-rule="evenodd" d="M14.5 41.0834H12.0833C9.41292 41.0834 7.25 38.9204 7.25 36.25V29C7.25 26.3296 9.41292 24.1667 12.0833 24.1667H14.5C15.834 24.1667 16.9167 25.2494 16.9167 26.5834V38.6667C16.9167 40.0007 15.834 41.0834 14.5 41.0834Z" stroke="#F5C647" stroke-width="2" stroke-linecap="round" stroke-linejoin="round"/>
<path d="M44.7083 24.1667V22.9583C44.7083 14.2825 37.6758 7.25 29 7.25V7.25C20.3241 7.25 13.2916 14.2825 13.2916 22.9583V24.1667" stroke="#F5C647" stroke-width="2" stroke-linecap="round" stroke-linejoin="round"/>
<path fill-rule="evenodd" clip-rule="evenodd" d="M30.5104 51.3542H27.4896C25.8221 51.3542 24.4688 50.0008 24.4688 48.3333V48.3333C24.4688 46.6658 25.8221 45.3125 27.4896 45.3125H30.5104C32.1779 45.3125 33.5313 46.6658 33.5313 48.3333V48.3333C33.5313 50.0008 32.1779 51.3542 30.5104 51.3542Z" stroke="#F5C647" stroke-width="2" stroke-linecap="round" stroke-linejoin="round"/>
<path d="M33.5312 48.3333H38.6667C41.3371 48.3333 43.5 46.1704 43.5 43.5V41.0833" stroke="#F5C647" stroke-width="2" stroke-linecap="round" stroke-linejoin="round"/>
</svg>
