<svg width="54" height="54" viewBox="0 0 54 54" fill="none" xmlns="http://www.w3.org/2000/svg">
<g clip-path="url(#clip0_237_1227)">
<path fill-rule="evenodd" clip-rule="evenodd" d="M18.5625 5.75C19.1148 5.75 19.5625 6.19772 19.5625 6.75V10.8125H25.3125H32.0625C32.6148 10.8125 33.0625 11.2602 33.0625 11.8125C33.0625 12.3648 32.6148 12.8125 32.0625 12.8125H26.289C26.0408 18.0844 23.8373 23.0897 20.0885 26.8385C20.0802 26.8469 20.0718 26.8552 20.0634 26.8636C20.3518 27.0936 20.6474 27.3156 20.9498 27.5295C24.0325 29.7096 27.6845 30.9323 31.4494 31.0527L36.2306 21.4903C36.4 21.1515 36.7462 20.9375 37.125 20.9375C37.5038 20.9375 37.85 21.1515 38.0194 21.4903L46.4479 38.3472C46.4544 38.3596 46.4607 38.3721 46.4666 38.3847L49.8319 45.1153C50.0789 45.6093 49.8787 46.2099 49.3847 46.4569C48.8907 46.7039 48.2901 46.5037 48.0431 46.0097L44.9445 39.8125H29.3055L26.2069 46.0097C25.9599 46.5037 25.3593 46.7039 24.8653 46.4569C24.3713 46.2099 24.1711 45.6093 24.4181 45.1153L27.7834 38.3847C27.7894 38.3721 27.7956 38.3596 27.8021 38.3473L30.4743 33.0029C26.6421 32.7154 22.9487 31.3927 19.795 29.1624C19.3721 28.8634 18.9615 28.5498 18.5636 28.2225C14.7768 31.3382 10.0085 33.0625 5.0625 33.0625C4.51022 33.0625 4.0625 32.6148 4.0625 32.0625C4.0625 31.5102 4.51022 31.0625 5.0625 31.0625C9.4438 31.0625 13.6711 29.5689 17.0637 26.8636C14.8211 24.6286 13.0953 21.9093 12.0298 18.8958C11.8458 18.3751 12.1186 17.8038 12.6393 17.6197C13.16 17.4356 13.7314 17.7085 13.9155 18.2292C14.8945 20.9983 16.4892 23.4932 18.5635 25.5342C18.6006 25.4977 18.6375 25.4611 18.6743 25.4243C22.048 22.0506 24.0401 17.5537 24.2865 12.8125H18.5625H5.0625C4.51022 12.8125 4.0625 12.3648 4.0625 11.8125C4.0625 11.2602 4.51022 10.8125 5.0625 10.8125H17.5625V6.75C17.5625 6.19772 18.0102 5.75 18.5625 5.75ZM32.9479 32.5277L30.3055 37.8125H43.9445L37.125 24.1736L32.9666 32.4903C32.9606 32.5029 32.9544 32.5154 32.9479 32.5277Z" fill="#F5C647"/>
</g>
<defs>
<clipPath id="clip0_237_1227">
<rect width="54" height="54" fill="white"/>
</clipPath>
</defs>
</svg>
