<svg width="58" height="58" viewBox="0 0 58 58" fill="none" xmlns="http://www.w3.org/2000/svg">
<path d="M21.75 38.425H9.42501C6.88751 38.425 4.83334 36.3708 4.83334 33.8333V11.8417C4.83334 9.30417 6.88751 7.25 9.42501 7.25H46.1583C48.6958 7.25 50.75 9.30417 50.75 11.8417V24.1667" stroke="#F5C647" stroke-width="2" stroke-linecap="round" stroke-linejoin="round"/>
<path d="M14.5 31.4167H12.0833" stroke="#F5C647" stroke-width="2" stroke-linecap="round" stroke-linejoin="round"/>
<path d="M43.5 14.5H41.0833" stroke="#F5C647" stroke-width="2" stroke-linecap="round" stroke-linejoin="round"/>
<path d="M44.7083 48.3333C40.0369 48.3333 36.25 44.5464 36.25 39.875C36.25 35.2036 40.0369 31.4167 44.7083 31.4167C49.3822 31.4167 53.1667 35.2036 53.1667 39.875C53.1667 44.5464 49.3822 48.3333 44.7083 48.3333" stroke="#F5C647" stroke-width="2" stroke-linecap="round" stroke-linejoin="round"/>
<path d="M37.0475 36.2935C32.5718 36.511 29 40.1795 29 44.7083C29 49.3798 32.7869 53.1667 37.4583 53.1667C40.8344 53.1667 43.7247 51.1753 45.0829 48.314" stroke="#F5C647" stroke-width="2" stroke-linecap="round" stroke-linejoin="round"/>
<path d="M31.8493 19.2633C34.0895 21.5035 34.0895 25.1382 31.8493 27.3808C29.609 29.6211 25.9743 29.6211 23.7317 27.3808C21.4914 25.1406 21.4914 21.5059 23.7317 19.2633C25.9743 17.0206 29.609 17.0206 31.8493 19.2633" stroke="#F5C647" stroke-width="2" stroke-linecap="round" stroke-linejoin="round"/>
</svg>
