<svg width="58" height="58" viewBox="0 0 58 58" fill="none" xmlns="http://www.w3.org/2000/svg">
<path fill-rule="evenodd" clip-rule="evenodd" d="M48.3333 19.3333H9.66667C8.33267 19.3333 7.25 20.416 7.25 21.75V26.5833C7.25 27.9173 8.33267 29 9.66667 29H48.3333C49.6673 29 50.75 27.9173 50.75 26.5833V21.75C50.75 20.416 49.6673 19.3333 48.3333 19.3333Z" stroke="#F5C647" stroke-width="2" stroke-linecap="round" stroke-linejoin="round"/>
<path d="M29 50.75V19.3333" stroke="#F5C647" stroke-width="2" stroke-linecap="round" stroke-linejoin="round"/>
<path d="M37.932 15.979C35.3268 18.6905 31.2258 19.3333 29.2393 19.3333" stroke="#F5C647" stroke-width="2" stroke-linecap="round" stroke-linejoin="round"/>
<path d="M29.2393 19.3334C29.2393 19.3334 28.0454 11.803 30.9817 8.74835" stroke="#F5C647" stroke-width="2" stroke-linecap="round" stroke-linejoin="round"/>
<path d="M37.932 15.979C39.8509 13.9828 39.8509 10.7445 37.932 8.74835C36.0132 6.75218 32.9029 6.75218 30.9841 8.74835" stroke="#F5C647" stroke-width="2" stroke-linecap="round" stroke-linejoin="round"/>
<path d="M20.068 15.979C22.6732 18.6905 26.7743 19.3333 28.7608 19.3333" stroke="#F5C647" stroke-width="2" stroke-linecap="round" stroke-linejoin="round"/>
<path d="M28.7608 19.3334C28.7608 19.3334 29.9546 11.803 27.0183 8.74835" stroke="#F5C647" stroke-width="2" stroke-linecap="round" stroke-linejoin="round"/>
<path d="M20.068 15.979C18.1492 13.9828 18.1492 10.7445 20.068 8.74835C21.9868 6.75218 25.0971 6.75218 27.0159 8.74835" stroke="#F5C647" stroke-width="2" stroke-linecap="round" stroke-linejoin="round"/>
<path d="M45.9167 29V48.3333C45.9167 49.6673 44.834 50.75 43.5 50.75H14.5C13.166 50.75 12.0833 49.6673 12.0833 48.3333V29" stroke="#F5C647" stroke-width="2" stroke-linecap="round" stroke-linejoin="round"/>
</svg>
