<svg width="58" height="58" viewBox="0 0 58 58" fill="none" xmlns="http://www.w3.org/2000/svg">
<path fill-rule="evenodd" clip-rule="evenodd" d="M12.4144 9.46363C16.1602 6.75938 21.46 6.52738 25.4475 8.84013C29.9449 8.05955 34.7009 8.80146 38.715 10.9885C43.1955 13.3955 46.7118 17.528 48.3503 22.3469C49.4764 25.607 49.7374 29.1498 49.1526 32.5476C50.5929 35.0803 51.0932 38.1301 50.5083 40.989C49.8921 44.1428 47.9467 46.9993 45.2593 48.7562C41.5377 51.2599 36.424 51.4 32.5452 49.155C28.2267 49.8969 23.6737 49.2541 19.7683 47.2603C15.2274 44.979 11.6072 40.9431 9.83583 36.1799C8.55258 32.7772 8.23116 29.0314 8.84016 25.4499C7.36841 22.8713 6.89233 19.7562 7.52066 16.8562C8.14416 13.8934 9.93733 11.1988 12.4144 9.46363V9.46363Z" stroke="#F5C647" stroke-width="2" stroke-linecap="round" stroke-linejoin="round"/>
<path d="M21.9409 34.8872C22.6708 37.0138 25.549 38.6064 29 38.6064C33.8333 38.6064 36.25 36.4701 36.25 33.8335V33.8939V33.8939C36.25 31.7672 34.713 29.9523 32.6153 29.6043L29 29.0002L25.3847 28.3984C23.287 28.048 21.75 26.2331 21.75 24.1064V24.1064C21.75 21.4698 24.1667 19.3335 29 19.3335C32.4534 19.3335 35.3293 20.9261 36.0591 23.0527" stroke="#F5C647" stroke-width="2" stroke-linecap="round" stroke-linejoin="round"/>
</svg>
