<svg width="58" height="58" viewBox="0 0 58 58" fill="none" xmlns="http://www.w3.org/2000/svg">
<path fill-rule="evenodd" clip-rule="evenodd" d="M22.2938 37.4486H18.9539C18.2072 37.4486 17.603 36.8445 17.603 36.0977V25.5079C17.603 24.7611 18.2072 24.157 18.9539 24.157H22.2938C23.0405 24.157 23.6447 24.7611 23.6447 25.6094V36.1992C23.6447 36.8421 23.0405 37.4486 22.2938 37.4486Z" stroke="#F5C647" stroke-width="2" stroke-linecap="round" stroke-linejoin="round"/>
<path d="M23.6448 34.5849L26.2596 36.7526C26.8009 37.2021 27.4848 37.4486 28.1881 37.4486H36.847C37.9321 37.4486 38.8867 36.7285 39.1863 35.6845L40.9553 29.493C41.2236 28.5577 41.0665 27.55 40.5276 26.7404C39.9186 25.8245 38.8963 25.2759 37.8016 25.2759H36.3033H33.7778L33.7899 21.1627C33.7996 18.1056 29.7855 16.9698 28.1905 19.5774L23.6423 27.0231" stroke="#F5C647" stroke-width="2" stroke-linecap="round" stroke-linejoin="round"/>
<path fill-rule="evenodd" clip-rule="evenodd" d="M30.4669 7.90491L33.9711 6.19149C35.5879 5.40124 37.5429 6.03441 38.3864 7.62699L40.2158 11.0732C40.6991 11.9818 41.5739 12.6174 42.5889 12.7962L46.4314 13.4705C48.2053 13.7822 49.4112 15.4425 49.1599 17.226L48.6137 21.0878C48.4687 22.1077 48.8046 23.1372 49.5199 23.8767L52.2314 26.68C53.4833 27.9729 53.4833 30.0271 52.2314 31.3224L49.5199 34.1257C48.8046 34.8652 48.4687 35.8947 48.6137 36.9146L49.1599 40.7764C49.4112 42.5599 48.2053 44.2202 46.4314 44.5319L42.5889 45.2062C41.5739 45.385 40.6991 46.0206 40.2158 46.9292L38.3864 50.3754C37.5429 51.9656 35.5903 52.6012 33.9711 51.8109L30.4669 50.0975C29.5414 49.6456 28.4611 49.6456 27.5355 50.0975L24.0314 51.8109C22.4146 52.6012 20.4595 51.968 19.6161 50.3754L17.7867 46.9268C17.3034 46.0182 16.4285 45.3826 15.4135 45.2037L11.571 44.5295C9.79719 44.2177 8.59128 42.5575 8.84261 40.774L9.38878 36.9122C9.53378 35.8923 9.19786 34.8628 8.48253 34.1233L5.77103 31.32C4.5192 30.0271 4.5192 27.9729 5.77103 26.6776L8.48253 23.8742C9.19786 23.1347 9.53378 22.1052 9.38878 21.0854L8.84503 17.2236C8.59128 15.4425 9.79961 13.7798 11.5734 13.4705L15.4159 12.7962C16.4285 12.6174 17.3034 11.9818 17.7867 11.0732L19.6161 7.62699C20.4595 6.03682 22.4122 5.40124 24.0314 6.19149L27.5355 7.90491C28.4587 8.35682 29.5414 8.35682 30.4669 7.90491Z" stroke="#F5C647" stroke-width="2" stroke-linecap="round" stroke-linejoin="round"/>
</svg>
