<svg width="58" height="58" viewBox="0 0 58 58" fill="none" xmlns="http://www.w3.org/2000/svg">
<path fill-rule="evenodd" clip-rule="evenodd" d="M43.4976 16.9167H14.5024C12.7044 16.9167 11.5348 18.8138 12.3443 20.4209L13.5599 22.8375C13.9708 23.6519 14.8069 24.1667 15.7204 24.1667H42.282C43.1955 24.1667 44.0293 23.6519 44.4401 22.8375L45.6557 20.4209C46.4653 18.8138 45.2956 16.9167 43.4976 16.9167V16.9167Z" stroke="#F5C647" stroke-width="2" stroke-linecap="round" stroke-linejoin="round"/>
<path d="M36.1461 14.2318C34.0605 16.4019 30.7811 16.9167 29.1934 16.9167" stroke="#F5C647" stroke-width="2" stroke-linecap="round" stroke-linejoin="round"/>
<path d="M29.1934 16.9167C29.1934 16.9167 28.2388 10.8943 30.5878 8.44867" stroke="#F5C647" stroke-width="2" stroke-linecap="round" stroke-linejoin="round"/>
<path d="M36.1461 14.2317C37.6807 12.6343 37.6807 10.0436 36.1461 8.44623C34.6115 6.84881 32.1224 6.84881 30.5878 8.44623" stroke="#F5C647" stroke-width="2" stroke-linecap="round" stroke-linejoin="round"/>
<path d="M21.8539 14.2318C23.9395 16.4019 27.2189 16.9167 28.8066 16.9167" stroke="#F5C647" stroke-width="2" stroke-linecap="round" stroke-linejoin="round"/>
<path d="M28.8067 16.9167C28.8067 16.9167 29.7612 10.8943 27.4122 8.44867" stroke="#F5C647" stroke-width="2" stroke-linecap="round" stroke-linejoin="round"/>
<path d="M21.8539 14.2317C20.3194 12.6343 20.3194 10.0436 21.8539 8.44623C23.3885 6.84881 25.8777 6.84881 27.4123 8.44623" stroke="#F5C647" stroke-width="2" stroke-linecap="round" stroke-linejoin="round"/>
<path d="M14.6933 23.9153C13.3908 26.0734 10.3482 31.1146 8.584 34.0412C7.70917 35.4888 7.25 37.1442 7.25 38.8383V38.8383C7.25 41.0664 8.04992 43.2197 9.50475 44.9089L11.7595 47.5238C13.5261 49.5731 16.0974 50.75 18.8017 50.75H39.1983C41.9026 50.75 44.4739 49.5731 46.2405 47.5238L48.4952 44.9089C49.9501 43.2197 50.75 41.0664 50.75 38.8383V38.8383C50.75 37.1442 50.2884 35.4839 49.4136 34.0339L43.3067 23.9153" stroke="#F5C647" stroke-width="2" stroke-linecap="round" stroke-linejoin="round"/>
</svg>
