<svg width="42" height="41" viewBox="0 0 42 41" fill="none" xmlns="http://www.w3.org/2000/svg">
<g clip-path="url(#clip0_149_660)">
<path d="M33.1744 3.21299C29.934 3.21299 27.3644 5.72473 27.3644 8.86292C27.3644 12.0033 29.9752 14.4753 33.1744 14.4753C36.3737 14.4753 39.0235 11.9657 39.0235 8.82536C39.0235 5.68424 36.4119 3.21299 33.1744 3.21299ZM33.1744 12.9415C30.8082 12.9415 28.9029 11.0946 28.9029 8.82536C28.9029 6.55891 30.8442 4.74679 33.1744 4.74679C35.5407 4.74679 37.446 6.59369 37.446 8.86292C37.446 11.1303 35.5427 12.9415 33.1744 12.9415Z" fill="white" stroke="white" stroke-width="0.331825"/>
<path d="M24.8751 13.6683L24.8749 13.6681L24.8681 13.6733L18.6373 18.4611L10.5898 15.2285L10.5898 15.2285L10.5877 15.2277C10.3395 15.1319 10.048 15.1785 9.84843 15.322L1.13059 21.3309C0.789788 21.5658 0.681364 22.0424 0.931718 22.3871C1.08644 22.6311 1.34028 22.7227 1.57508 22.7227C1.72929 22.7227 1.87676 22.6727 2.01517 22.5836L2.01522 22.5837L2.01957 22.5807L10.3932 16.8091L18.4849 20.044L18.4868 20.0447C18.615 20.0942 18.7604 20.1041 18.8933 20.0874C19.0256 20.0707 19.161 20.0256 19.2666 19.9492L19.2666 19.9492L19.2702 19.9465L25.8455 14.9156C26.2031 14.6658 26.239 14.1447 25.9979 13.8189C25.8675 13.6428 25.6656 13.5501 25.4648 13.5273C25.264 13.5046 25.0478 13.5492 24.8751 13.6683Z" fill="white" stroke="white" stroke-width="0.331825"/>
<path d="M40.7034 35.4414H37.9888V18.2162C37.9888 17.781 37.6365 17.4493 37.2001 17.4493H31.4781C31.0418 17.4493 30.6894 17.781 30.6894 18.2162V35.4414H28.9192V24.2261C28.9192 23.7909 28.5668 23.4592 28.1305 23.4592H22.3695C21.9332 23.4592 21.5808 23.7909 21.5808 24.2261V35.4414H19.8107V23.3246C19.8107 22.8894 19.4583 22.5577 19.022 22.5577H13.2999C12.8636 22.5577 12.5112 22.8894 12.5112 23.3246V35.4414H10.7411V26.8554C10.7411 26.4202 10.3887 26.0885 9.95234 26.0885H4.19138C3.75505 26.0885 3.40267 26.4202 3.40267 26.8554V35.4414H0.649174C0.21284 35.4414 -0.139545 35.7731 -0.139545 36.2083C-0.139545 36.6435 0.212839 36.9752 0.649174 36.9752H4.15246H9.87449H13.2999H19.022H22.3695H28.0916H31.4392H37.1612H40.6645C41.0976 36.9752 41.4481 36.6483 41.4531 36.2178C41.4992 35.769 41.1319 35.4414 40.7034 35.4414ZM9.1247 35.4414H4.9801V27.6223H9.1247V35.4414ZM18.2332 35.4414H14.0886V24.0915H18.2332V35.4414ZM27.3029 35.4414H23.1583V24.993H27.3029V35.4414ZM36.4114 35.4414H32.2668V18.9831H36.4114V35.4414Z" fill="white" stroke="white" stroke-width="0.331825"/>
</g>
<defs>
<clipPath id="clip0_149_660">
<rect width="41.2646" height="39.819" fill="white" transform="translate(0.0263672 0.183594)"/>
</clipPath>
</defs>
</svg>
