<?xml version="1.0" encoding="utf-8"?><svg xmlns="http://www.w3.org/2000/svg" xmlns:xlink="http://www.w3.org/1999/xlink"><symbol viewBox="0 0 24 24" id="arrow-left" xmlns="http://www.w3.org/2000/svg"><path d="m10 8-4 4m0 0 4 4m-4-4h12"/></symbol><symbol viewBox="0 0 24 24" id="arrow-right" xmlns="http://www.w3.org/2000/svg"><path d="m14 16 4-4m0 0-4-4m4 4H6"/></symbol><symbol viewBox="0 0 41 41" id="burger" xmlns="http://www.w3.org/2000/svg"><path d="M11.958 13.667H20.5M11.958 20.5h17.083M20.5 27.333h8.541"/></symbol><symbol viewBox="0 0 29 30" id="chart-arrow-up-rectangle" xmlns="http://www.w3.org/2000/svg"><path d="M17.48 10.3a.9.9 0 1 0 0 1.8v-1.8Zm3.332 1.564-.805.403.805-.403Zm.063 2.14a.9.9 0 1 0 1.61-.806l-1.61.805Zm-.242-1.71.494-.753-1.506-.986-.493.752 1.505.987Zm-4.035 4.514-.753-.493.753.493Zm-2.03-.036-.77.466.77-.466Zm-2.29-3.783-.77.466.77-.466Zm-2.081.048-.79-.43.79.43ZM6.49 17.971a.9.9 0 0 0 1.581.86l-1.581-.86ZM7.28 3.7h14.4V1.9H7.28v1.8Zm18.3 3.9V22h1.8V7.6h-1.8Zm-3.9 18.3H7.28v1.8h14.4v-1.8ZM3.38 22V7.6h-1.8V22h1.8Zm3.9 3.9a3.9 3.9 0 0 1-3.9-3.9h-1.8a5.7 5.7 0 0 0 5.7 5.7v-1.8Zm18.3-3.9a3.9 3.9 0 0 1-3.9 3.9v1.8a5.7 5.7 0 0 0 5.7-5.7h-1.8Zm-3.9-18.3a3.9 3.9 0 0 1 3.9 3.9h1.8a5.7 5.7 0 0 0-5.7-5.7v1.8ZM7.28 1.9a5.7 5.7 0 0 0-5.7 5.7h1.8a3.9 3.9 0 0 1 3.9-3.9V1.9Zm10.2 10.2h2.259v-1.8H17.48v1.8Zm2.527.166.868 1.736 1.61-.805-.868-1.736-1.61.805Zm-.268-.166a.3.3 0 0 1 .268.166l1.61-.805A2.1 2.1 0 0 0 19.74 10.3v1.8Zm-.611-.794-3.283 5.008 1.505.987 3.283-5.008-1.505-.987Zm-3.79 4.999-2.29-3.783-1.54.932 2.29 3.783 1.54-.932Zm-5.932-3.699L6.49 17.971l1.581.86 2.917-5.364-1.582-.86Zm3.642-.084c-.84-1.387-2.867-1.34-3.642.084l1.582.86a.3.3 0 0 1 .52-.012l1.54-.932Zm2.797 3.792a.3.3 0 0 1-.507-.01l-1.54.933a2.1 2.1 0 0 0 3.553.064l-1.506-.987Z"/></symbol><symbol viewBox="0 0 22 22" id="close" xmlns="http://www.w3.org/2000/svg"><path d="m2 1 19.092 19.092-1.414 1.414L.586 2.414z"/><path d="M1 20 20.092.908l1.414 1.414L2.414 21.414z"/></symbol><symbol viewBox="0 0 26 25" id="copy" xmlns="http://www.w3.org/2000/svg"><rect x="1.135" y="7.391" width="15.277" height="16.553" rx="1.344"/><rect x="10.067" y="1.011" width="15.277" height="16.553" rx="1.344"/></symbol><symbol viewBox="0 0 29 30" id="deal" xmlns="http://www.w3.org/2000/svg"><path d="M18.79 21.041h5.29c1.326 0 2.4-1.185 2.4-2.648v-7.507c0-1.003-.513-1.92-1.326-2.368l-2.46-1.357a4.437 4.437 0 0 0-2.147-.56h-2.56c-1.458 0-2.837.732-3.748 1.988l-.03.042m0 0-2.327 3.21c-.57.786-.513 1.92.132 2.631.7.772 1.834.772 2.533 0l1.698-1.873 2.75 5.56c.751 1.521-.002 3.417-1.526 3.837l-4.235 1.168a6.576 6.576 0 0 1-4.583-.405l-4.716-2.23c-.882-.417-1.455-1.374-1.455-2.434v-7.209c0-1.003.514-1.92 1.327-2.368l2.46-1.357a4.437 4.437 0 0 1 2.147-.56h2.017c1.49 0 2.878.761 3.778 2.03Z"/></symbol><symbol viewBox="0 0 32 32" id="forward" xmlns="http://www.w3.org/2000/svg"><g clip-path="url(#ha)"><path d="M30.436 12.244 23.31 5.118c-.588-.587-1.184-.885-1.772-.885-.807 0-1.75.614-1.75 2.344v2.278C9.693 9.3 1.289 16.995.05 27.102a.922.922 0 0 0 1.659.656c3.401-4.647 8.863-7.421 14.609-7.421 1.157 0 2.321.113 3.47.337v2.436c0 1.73.943 2.345 1.75 2.345.588 0 1.184-.298 1.772-.886l7.125-7.125a3.681 3.681 0 0 0 0-5.2Zm-1.304 3.896-7.125 7.125a1.95 1.95 0 0 1-.334.276 1.949 1.949 0 0 1-.04-.43v-3.18a.922.922 0 0 0-.71-.898 20.028 20.028 0 0 0-4.604-.54c-3.188 0-6.358.772-9.169 2.23a20.048 20.048 0 0 0-4.544 3.242c2.435-7.77 9.7-13.287 18.105-13.287a.922.922 0 0 0 .921-.921v-3.18c0-.194.02-.335.041-.431.084.052.197.139.334.276l7.125 7.125a1.836 1.836 0 0 1 0 2.593Z"/></g><defs><clipPath id="ha"><path transform="translate(.044 .422)" d="M0 0h31.467v31.467H0z"/></clipPath></defs></symbol><symbol viewBox="0 0 29 30" id="logout" xmlns="http://www.w3.org/2000/svg"><path d="m21.68 17.402 1.551-1.551a1.2 1.2 0 0 0 0-1.697l-1.551-1.552M22.88 15.001h-7.2m-10.8 6.32v-12m14.4 12a2.4 2.4 0 0 1-2.4 2.4h-4.8m7.2-14.4a2.4 2.4 0 0 0-2.4-2.4h-4.8M5.949 24.433l2.4 1.6c1.595 1.063 3.73-.08 3.73-1.997V6.606c0-1.918-2.135-3.061-3.73-1.998l-2.4 1.6a2.4 2.4 0 0 0-1.07 1.997v14.231a2.4 2.4 0 0 0 1.07 1.997Z"/></symbol><symbol viewBox="0 0 29 29" id="money-bag" xmlns="http://www.w3.org/2000/svg"><path d="M6.84 13.323A7.2 7.2 0 0 1 13.67 8.4h1.621a7.2 7.2 0 0 1 6.83 4.924l1.2 3.6c1.555 4.662-1.915 9.476-6.83 9.476h-4.02c-4.915 0-8.385-4.814-6.831-9.476l1.2-3.6Z"/><path d="M10.88 21.6c2.705 1.577 4.293 1.613 7.2 0M16.983 8.4h-5.006l-1.682-1.928c-1.648-1.89.275-4.716 2.681-3.94l1.113.36c.254.081.527.081.78 0l1.114-.36c2.407-.776 4.33 2.05 2.681 3.94L16.983 8.4Z"/></symbol><symbol viewBox="0 0 30 26" id="paper-planer" xmlns="http://www.w3.org/2000/svg"><path fill-rule="evenodd" clip-rule="evenodd" d="M11.037 24.105c.747 0 1.077-.344 1.494-.752l3.984-3.9-4.97-3.017"/><path fill-rule="evenodd" clip-rule="evenodd" d="m11.67 16.63 10.962 8.227c1.251.7 2.154.338 2.466-1.18L29.561 2.32c.456-1.86-.699-2.704-1.895-2.152L1.46 10.429c-1.788.729-1.778 1.742-.326 2.194l6.725 2.131L23.428 4.78c.735-.453 1.41-.21.856.29"/></symbol><symbol viewBox="0 0 29 29" id="setting" xmlns="http://www.w3.org/2000/svg"><path d="m24.972 18.864-.767-.47.767.47Zm-1.145 1.87.767.47-.767-.47Zm-19.84-10.8-.768-.47.768.47Zm1.145-1.87.768.47-.768-.47Zm3.13-.79.43-.79-.43.79Zm-3.436 5.612-.43.79.43-.79Zm15.872 8.64-.43.79.43-.79Zm3.436-5.612-.43.79.43-.79Zm-19.002 4.82-.767.47.767-.47Zm-1.145-1.87.768-.47-.768.47Zm19.84-10.8.767-.47-.767.47Zm1.145 1.87-.767.47.767-.47Zm-.838 2.952.43.79-.43-.79Zm-3.436-5.612.43.79-.43-.79Zm-15.872 8.64.43.79-.43-.79Zm3.436 5.612-.43-.79.43.79ZM20.576 7.34l-.43-.79.43.79Zm-12.192 0-.43.79.43-.79Zm12.192 14.12.43-.791-.43.79Zm-12.192 0 .43.79-.43-.79Zm4.95-16.96h2.291V2.7h-2.29v1.8Zm2.291 19.8h-2.29v1.8h2.29v-1.8Zm-2.29 0c-.82 0-1.392-.614-1.392-1.26h-1.8c0 1.739 1.48 3.06 3.191 3.06v-1.8Zm3.681-1.26c0 .646-.572 1.26-1.39 1.26v1.8c1.71 0 3.19-1.321 3.19-3.06h-1.8ZM15.626 4.5c.818 0 1.39.613 1.39 1.26h1.8c0-1.74-1.48-3.06-3.19-3.06v1.8Zm-2.292-1.8c-1.711 0-3.19 1.32-3.19 3.06h1.8c0-.647.571-1.26 1.39-1.26V2.7Zm10.87 15.694-1.145 1.87 1.535.94 1.146-1.87-1.535-.94Zm-19.45-7.99L5.9 8.535l-1.535-.94-1.146 1.87 1.536.94ZM5.9 8.535c.37-.605 1.236-.848 1.932-.47l.86-1.58c-1.496-.815-3.432-.351-4.327 1.11l1.535.94Zm-.644 3.561c-.667-.363-.851-1.119-.501-1.69l-1.536-.94c-.915 1.495-.348 3.381 1.176 4.211l.86-1.58Zm17.803 8.17c-.37.605-1.236.848-1.931.47l-.86 1.581c1.495.815 3.432.35 4.326-1.111l-1.535-.94Zm2.68-.93c.916-1.496.35-3.382-1.175-4.212l-.86 1.581c.667.363.85 1.12.5 1.69l1.536.94Zm-19.839.93-1.145-1.87-1.536.94 1.146 1.87 1.535-.94Zm17.16-11.73 1.145 1.87 1.535-.94-1.145-1.87-1.536.94Zm1.145 1.87c.35.571.166 1.327-.502 1.69l.861 1.581c1.524-.83 2.091-2.716 1.176-4.211l-1.535.94Zm-3.077-2.34c.695-.38 1.561-.136 1.931.47l1.535-.94c-.894-1.462-2.83-1.926-4.327-1.112l.86 1.581ZM4.755 18.394c-.35-.572-.166-1.328.5-1.69l-.86-1.582c-1.524.83-2.091 2.716-1.176 4.211l1.536-.94Zm-.39 2.81c.895 1.461 2.831 1.926 4.327 1.111l-.86-1.58c-.696.377-1.562.134-1.932-.471l-1.535.94ZM21.006 8.13l.122-.066-.86-1.58-.123.066.861 1.58ZM7.832 8.064l.121.066.861-1.58-.122-.067-.86 1.581Zm13.296 12.671-.122-.066-.86 1.58.121.067.86-1.58ZM7.953 20.67l-.121.066.86 1.581.122-.066-.86-1.581Zm-3.558-6.993a.824.824 0 0 1 0 1.447l.86 1.581c1.827-.994 1.827-3.615 0-4.609l-.86 1.581Zm4.419 8.574a.9.9 0 0 1 1.33.79h1.8c0-2.048-2.192-3.35-3.99-2.371l.86 1.58Zm10.002.79a.9.9 0 0 1 1.33-.79l.86-1.581c-1.799-.98-3.99.323-3.99 2.37h1.8Zm5.748-7.917a.824.824 0 0 1 0-1.447l-.86-1.58c-1.826.993-1.826 3.614 0 4.608l.86-1.58ZM7.954 8.13c1.798.98 3.99-.322 3.99-2.37h-1.8a.9.9 0 0 1-1.33.79l-.86 1.58Zm12.191-1.58a.9.9 0 0 1-1.329-.79h-1.8c0 2.048 2.191 3.35 3.99 2.37l-.86-1.58ZM17.18 14.4a2.7 2.7 0 0 1-2.7 2.7v1.8a4.5 4.5 0 0 0 4.5-4.5h-1.8Zm-2.7 2.7a2.7 2.7 0 0 1-2.7-2.7h-1.8a4.5 4.5 0 0 0 4.5 4.5v-1.8Zm-2.7-2.7a2.7 2.7 0 0 1 2.7-2.7V9.9a4.5 4.5 0 0 0-4.5 4.5h1.8Zm2.7-2.7a2.7 2.7 0 0 1 2.7 2.7h1.8a4.5 4.5 0 0 0-4.5-4.5v1.8Z"/></symbol></svg>