<?xml version="1.0" encoding="utf-8"?>
<!-- Generator: Adobe Illustrator 18.0.0, SVG Export Plug-In . SVG Version: 6.00 Build 0)  -->
<!DOCTYPE svg PUBLIC "-//W3C//DTD SVG 1.1//EN" "http://www.w3.org/Graphics/SVG/1.1/DTD/svg11.dtd">
<svg version="1.1" id="Слой_1" xmlns="http://www.w3.org/2000/svg" xmlns:xlink="http://www.w3.org/1999/xlink" x="0px" y="0px"
	 viewBox="0 0 492 492" enable-background="new 0 0 492 492" xml:space="preserve">
<g>
	<defs>
		<rect id="SVGID_1_" width="492" height="492"/>
	</defs>
	<clipPath id="SVGID_2_">
		<use xlink:href="#SVGID_1_"  overflow="visible"/>
	</clipPath>
	<path clip-path="url(#SVGID_2_)" fill="#FFFFFF" d="M300.2,246l184-184c5.1-5.1,7.9-11.8,7.9-19c0-7.2-2.8-14-7.9-19L468,7.9
		C463,2.8,456.2,0,449,0c-7.2,0-14,2.8-19,7.9L246,191.8L62,7.9C57,2.8,50.2,0,43,0c-7.2,0-14,2.8-19,7.9L7.9,24
		C-2.6,34.5-2.6,51.5,7.9,62l184,184l-184,184C2.8,435,0,441.8,0,449s2.8,14,7.9,19L24,484.1c5.1,5.1,11.8,7.9,19,7.9
		c7.2,0,14-2.8,19-7.9l184-184l184,184c5.1,5.1,11.8,7.9,19,7.9h0c7.2,0,14-2.8,19-7.9l16.1-16.1c5.1-5.1,7.9-11.8,7.9-19
		s-2.8-14-7.9-19L300.2,246z"/>
</g>
</svg>
