<?xml version="1.0" encoding="UTF-8"?>
<svg width="16px" height="19px" viewBox="0 0 16 19" version="1.1" xmlns="http://www.w3.org/2000/svg" xmlns:xlink="http://www.w3.org/1999/xlink">
    <!-- Generator: Sketch 49.3 (51167) - http://www.bohemiancoding.com/sketch -->
    <title>Group 17</title>
    <desc>Created with Sketch.</desc>
    <defs></defs>
    <g id="Rondleidingen-&amp;-dag" stroke="none" stroke-width="1" fill="none" fill-rule="evenodd">
        <g id="Detail-Page" transform="translate(-940.000000, -774.000000)" fill="#81C3D7">
            <g id="Group-3-Copy" transform="translate(895.000000, 636.000000)">
                <g id="Group" transform="translate(30.000000, 97.000000)">
                    <g id="Group-12" transform="translate(15.000000, 41.000000)">
                        <g id="Group-17">
                            <path d="M14.0625,2.50003219 C14.5312498,2.50003219 14.9296877,2.66409447 15.2578125,2.99221851 C15.5859373,3.32034255 15.75,3.71877946 15.75,4.18752816 L15.75,16.5624987 C15.75,17.0312474 15.5859373,17.4296843 15.2578125,17.7578083 C14.9296877,18.0859323 14.5312498,18.2499946 14.0625,18.2499946 L1.6875,18.2499946 C1.21875018,18.2499946 0.820312321,18.0859323 0.4921875,17.7578083 C0.164062679,17.4296843 0,17.0312474 0,16.5624987 L0,4.18752816 C0,3.71877946 0.164062679,3.32034255 0.4921875,2.99221851 C0.820312321,2.66409447 1.21875018,2.50003219 1.6875,2.50003219 L3.375,2.50003219 L3.375,0.671911545 C3.375,0.554724503 3.4160158,0.455115008 3.49804688,0.373084133 C3.58007795,0.291053257 3.67968768,0.250037551 3.796875,0.250037551 L5.203125,0.250037551 C5.32031232,0.250037551 5.41992205,0.291053257 5.50195312,0.373084133 C5.5839842,0.455115008 5.625,0.554724503 5.625,0.671911545 L5.625,2.50003219 L10.125,2.50003219 L10.125,0.671911545 C10.125,0.554724503 10.1660158,0.455115008 10.2480469,0.373084133 C10.3300779,0.291053257 10.4296877,0.250037551 10.546875,0.250037551 L11.953125,0.250037551 C12.0703123,0.250037551 12.1699221,0.291053257 12.2519531,0.373084133 C12.3339842,0.455115008 12.375,0.554724503 12.375,0.671911545 L12.375,2.50003219 L14.0625,2.50003219 Z M13.8515295,16.5624987 C13.8984042,16.5624987 13.9452794,16.539061 13.9921541,16.4921863 C14.0390288,16.4453116 14.0624665,16.3984364 14.0624665,16.3515617 L14.0624665,5.87502414 L1.68749598,5.87502414 L1.68749598,16.3515617 C1.68749598,16.3984364 1.7109336,16.4453116 1.75780831,16.4921863 C1.80468302,16.539061 1.85155826,16.5624987 1.89843297,16.5624987 L13.8515295,16.5624987 Z" id=""></path>
                        </g>
                    </g>
                </g>
            </g>
        </g>
    </g>
</svg>