<?xml version="1.0" encoding="UTF-8"?>
<svg width="18px" height="18px" viewBox="0 0 18 18" version="1.1" xmlns="http://www.w3.org/2000/svg" xmlns:xlink="http://www.w3.org/1999/xlink">
    <!-- Generator: Sketch 49.3 (51167) - http://www.bohemiancoding.com/sketch -->
    <title>Group 18</title>
    <desc>Created with Sketch.</desc>
    <defs></defs>
    <g id="Rondleidingen-&amp;-dag" stroke="none" stroke-width="1" fill="none" fill-rule="evenodd">
        <g id="Detail-Page" transform="translate(-165.000000, -1328.000000)" fill="#2E353B">
            <g id="Group-2" transform="translate(165.000000, 871.000000)">
                <g id="Group-7" transform="translate(0.000000, 419.000000)">
                    <g id="Group-18" transform="translate(0.000000, 38.000000)">
                        <path d="M8.99997854,0.53128688 C10.5702875,0.53128688 12.0234088,0.923864248 13.3593431,1.70901845 C14.6952775,2.49417265 15.755822,3.55471717 16.5409762,4.89065149 C17.3261304,6.2265858 17.7187078,7.67970716 17.7187078,9.25001609 C17.7187078,10.820325 17.3261304,12.2734464 16.5409762,13.6093807 C15.755822,14.945315 14.6952775,16.0058595 13.3593431,16.7910137 C12.0234088,17.5761679 10.5702875,17.9687453 8.99997854,17.9687453 C7.42966961,17.9687453 5.97654825,17.5761679 4.64061394,16.7910137 C3.30467962,16.0058595 2.2441351,14.945315 1.4589809,13.6093807 C0.673826697,12.2734464 0.281249329,10.820325 0.281249329,9.25001609 C0.281249329,7.67970716 0.673826697,6.2265858 1.4589809,4.89065149 C2.2441351,3.55471717 3.30467962,2.49417265 4.64061394,1.70901845 C5.97654825,0.923864248 7.42966961,0.53128688 8.99997854,0.53128688 Z M8.99997854,2.21878286 C7.73435656,2.21878286 6.56248453,2.53518835 5.48436192,3.16799934 C4.40623932,3.80081034 3.55077278,4.65627687 2.91796179,5.73439948 C2.2851508,6.81252208 1.96874531,7.98439411 1.96874531,9.25001609 C1.96874531,10.5156381 2.2851508,11.6875101 2.91796179,12.7656327 C3.55077278,13.8437553 4.40623932,14.6992219 5.48436192,15.3320328 C6.56248453,15.9648438 7.73435656,16.2812493 8.99997854,16.2812493 C10.2656005,16.2812493 11.4374726,15.9648438 12.5155952,15.3320328 C13.5937178,14.6992219 14.4491843,13.8437553 15.0819953,12.7656327 C15.7148063,11.6875101 16.0312118,10.5156381 16.0312118,9.25001609 C16.0312118,7.98439411 15.7148063,6.81252208 15.0819953,5.73439948 C14.4491843,4.65627687 13.5937178,3.80081034 12.5155952,3.16799934 C11.4374726,2.53518835 10.2656005,2.21878286 8.99997854,2.21878286 Z M13.9218418,6.78908446 C14.0155918,6.88283442 14.0624665,6.98830291 14.0624665,7.10548996 C14.0624665,7.222677 14.0155918,7.31642695 13.9218418,7.38673929 L7.87498122,13.3984437 C7.78123127,13.4921937 7.67576277,13.5390684 7.55857573,13.5390684 C7.44138869,13.5390684 7.34763873,13.4921937 7.2773264,13.3984437 L4.07811528,10.1992326 C3.98436532,10.1054826 3.93749061,10.0000141 3.93749061,9.88282708 C3.93749061,9.76564004 3.98436532,9.67189009 4.07811528,9.60157776 L4.8867071,8.79298593 C4.95701943,8.7226736 5.05076939,8.68751743 5.16795643,8.68751743 C5.28514347,8.68751743 5.39061197,8.7226736 5.48436192,8.79298593 L7.55857573,10.9375121 L12.5507513,5.98049264 C12.6210637,5.91018031 12.7148136,5.87502414 12.8320007,5.87502414 C12.9491877,5.87502414 13.0546562,5.92189885 13.1484062,6.0156488 L13.9218418,6.78908446 Z" id="ï˜"></path>
                    </g>
                </g>
            </g>
        </g>
    </g>
</svg>