<?xml version="1.0" encoding="UTF-8"?>
<svg width="24px" height="18px" viewBox="0 0 24 18" version="1.1" xmlns="http://www.w3.org/2000/svg" xmlns:xlink="http://www.w3.org/1999/xlink">
    <!-- Generator: Sketch 50.2 (55047) - http://www.bohemiancoding.com/sketch -->
    <title>choice</title>
    <desc>Created with Sketch.</desc>
    <defs></defs>
    <g id="Rondleidingen-&amp;-dag" stroke="none" stroke-width="1" fill="none" fill-rule="evenodd">
        <g id="Tour-choice" transform="translate(-195.000000, -182.000000)" fill="#111918" fill-rule="nonzero">
            <g id="Group-24" transform="translate(165.000000, 150.000000)">
                <g id="Group-18" transform="translate(30.000000, 31.000000)">
                    <g id="Group-22">
                        <g id="choice" transform="translate(0.000000, 1.500000)">
                            <path d="M23.9742315,13.0852783 C23.9776604,12.5468442 23.9793749,12.009241 23.9956626,11.4724687 C23.9990916,11.3378602 24.0025206,11.2032516 23.9973771,11.0686431 C23.9905192,10.8966433 23.951943,10.7636966 23.8765053,10.6108079 C23.8027821,10.4579192 23.6759095,10.3623638 23.5378928,10.2668084 C23.4204499,10.1853785 23.2618592,10.1479873 23.1264142,10.0997941 C23.0629779,10.0773593 22.9986844,10.0557555 22.9352481,10.0333207 C22.8195198,9.9768184 22.7123639,9.90619047 22.608637,9.83140796 C22.4234717,9.6901521 22.2400208,9.54307982 22.0814302,9.37523462 C22.0522838,9.33036511 22.0257091,9.28383377 22.0017062,9.23647151 C21.9374127,9.06280989 21.8945503,8.8858246 21.8619749,8.70385382 C21.8405438,8.49446278 21.8396865,8.2883954 21.8594032,8.07900436 C21.8868351,7.93442483 21.9271257,7.79399989 21.9785605,7.65440586 C22.0188511,7.57796151 22.063428,7.50567174 22.112291,7.43504381 C22.1894433,7.35112121 22.2725962,7.2763387 22.3617499,7.20404893 C22.5469153,7.08273508 22.747511,6.99382698 22.9455351,6.89660971 C23.2069954,6.76864851 23.4564543,6.64816557 23.615045,6.39390502 C23.7839226,6.12468797 23.7187719,5.7557609 23.7136284,5.45413809 C23.7101994,5.19572295 23.7067704,4.93813873 23.7067704,4.6797236 C23.7033414,4.13630399 23.7204864,3.59039163 23.7453465,3.04697202 C23.7719212,2.48028674 23.8036393,1.9152633 23.8722191,1.35190169 C23.885935,1.25219167 23.9005082,1.15248165 23.9142242,1.05194071 C23.9193677,1.01454945 23.9167959,0.981312779 23.9202249,0.945583355 C23.958801,0.862491672 23.9819467,0.771921737 23.9819467,0.677197218 C23.9819467,0.305777394 23.6656226,0.0116328357 23.2884339,0.00332366733 C23.1727055,0.000830916832 23.05612,0 22.9403916,0 C22.4166137,0 21.8936931,0.0182801703 21.3699152,0.0274202555 C20.6901183,0.0373912574 20.0103215,0.0407149248 19.3288101,0.0440385921 C17.9477853,0.0490240931 16.5659032,0.0490240931 15.1848783,0.0490240931 C13.8021389,0.0490240931 12.4185423,0.0407149248 11.0358029,0.0697970139 C10.3405757,0.0847535169 9.64792011,0.11549744 8.95269281,0.131284859 C8.27118147,0.146241362 7.58795564,0.150395947 6.9047298,0.167014283 C5.89232113,0.191110871 4.87819797,0.19942004 3.86321756,0.21520746 C3.40801941,0.223516628 2.95625026,0.238473131 2.50190937,0.260907885 C1.98156046,0.286666307 1.46121155,0.286666307 0.938290896,0.274202555 C0.701690732,0.26755522 0.4985232,0.405487414 0.381937612,0.594936452 C0.209630972,0.730375895 0.0913308897,0.928965018 0.0930453836,1.15580531 C0.103332347,2.66142661 0.0716142094,4.16787883 0.05446927,5.67266921 C0.0390388246,7.07774958 0.0390388246,8.48366086 0.0210366382,9.88707939 C0.0124641685,10.4163734 -0.00039453603,10.9431747 0.00131995791,11.4708069 C0.00131995791,12.009241 -0.00896700573,12.5518297 0.027894614,13.0886019 C0.0630417397,13.6046013 0.0896163958,14.117277 0.0981888655,14.6349382 C0.106761335,15.0944352 0.101617853,15.5522703 0.0999033594,16.0125983 C0.0999033594,16.1106465 0.123906275,16.2028782 0.163339635,16.2876317 C0.162482388,16.3009264 0.155624412,16.3117283 0.155624412,16.325023 C0.155624412,16.694781 0.468519556,16.9872637 0.845708223,16.9955729 C1.56922467,17.0088676 2.29274111,16.9889256 3.0154003,16.9789545 C3.67805221,16.9673217 4.34156136,16.9789545 5.00421327,16.9806164 C6.42209976,16.98394 7.84084349,16.9872637 9.25701549,16.973969 C9.97195946,16.9689835 10.6851889,16.9415633 11.3984184,16.9224522 C12.1236494,16.9016793 12.848023,16.8950319 13.5749685,16.8767518 C15.0297166,16.8393605 16.4836074,16.7986456 17.9383555,16.7612543 C18.8256062,16.7388196 19.7128568,16.7122302 20.6001074,16.7155539 C21.0235874,16.7155539 21.4470674,16.7238631 21.8705474,16.734665 C22.0077069,16.7396505 22.1448664,16.7379887 22.2820259,16.7379887 C22.5177689,16.7379887 22.7526545,16.7379887 22.986683,16.7554379 C23.1512744,16.7695635 23.2978636,16.7022592 23.4221644,16.6067038 C23.6596218,16.5568488 23.8696473,16.3939891 23.9322264,16.155516 C23.9956626,15.9103955 23.9939481,15.6328693 23.9956626,15.3794396 C23.9956626,15.1210245 23.9922336,14.8634403 23.9870902,14.6050252 C23.9793749,14.0989968 23.972517,13.5913066 23.9742315,13.0852783 Z M21.7471038,15.3071499 C20.8161336,15.3071499 19.8843062,15.3279228 18.9567649,15.3636522 C18.1543818,15.3943961 17.3537131,15.4093527 16.5521872,15.4284637 C16.5453292,15.2614495 16.5453292,15.0936043 16.547901,14.9274209 C16.55133,14.6091797 16.5547589,14.2926004 16.5547589,13.9751902 C16.5547589,13.5954612 16.2264334,13.2772201 15.8346715,13.2772201 C15.4446241,13.2772201 15.1094405,13.5954612 15.114584,13.9751902 C15.118013,14.2984168 15.124871,14.6191507 15.1343007,14.9407156 C15.1385869,15.1143772 15.1385869,15.2905315 15.1445877,15.4666859 C14.982568,15.4708405 14.8205483,15.475826 14.6585286,15.4799806 C13.202066,15.5173718 11.7456034,15.5564249 10.2899981,15.6062799 C9.16614731,15.6469949 8.04315378,15.645333 6.9210175,15.6436712 C6.61926656,15.6420094 6.31837288,15.6420094 6.01662194,15.6420094 C5.17651991,15.6436712 4.33213165,15.6403475 3.49202962,15.6536422 C3.29486281,15.6569659 3.09683876,15.6586277 2.90138646,15.6636132 C2.69393269,15.6702605 2.48647892,15.6893716 2.27816791,15.6910335 C2.01927932,15.6943571 1.75953349,15.6885407 1.49893041,15.6802315 C1.49378693,15.5481158 1.48864345,15.4151691 1.48692896,15.2830533 C1.48349997,14.9697976 1.49035794,14.656542 1.48864345,14.3432864 C1.48692896,13.7117896 1.4166347,13.0819546 1.40463325,12.4512887 C1.3909173,11.7923717 1.40806223,11.1334546 1.41149122,10.4745376 C1.41492021,9.81063504 1.4329224,9.14673249 1.44663835,8.48366086 C1.45863981,7.90118816 1.48007098,7.31871546 1.48178547,6.73541184 C1.48349997,6.13299714 1.48521446,5.53307519 1.49378693,4.93232232 C1.51007462,3.80061359 1.57951163,2.67139762 1.60008556,1.54051981 C1.74238855,1.53636522 1.88469155,1.54051981 2.02785179,1.53137972 C2.34589042,1.5106068 2.66221455,1.48734113 2.98196767,1.48069379 C3.66433626,1.46490638 4.34756209,1.45493537 5.03078793,1.45078079 C6.39895409,1.43914795 7.7679775,1.40341853 9.13614367,1.37101277 C10.532599,1.33694518 11.9256253,1.29789209 13.3220806,1.29290659 C13.9212962,1.29041384 14.5205119,1.29290659 15.1197275,1.29373751 C15.1162985,1.31949593 15.1034398,1.34193068 15.1034398,1.36852002 C15.0982963,1.78397844 15.0931529,2.20109869 15.121442,2.6165571 C15.135158,2.80932981 15.1917363,2.97883684 15.3357537,3.11926179 C15.4711988,3.25054665 15.6606504,3.326991 15.8535309,3.326991 C16.2572942,3.326991 16.5804763,3.00376435 16.5856198,2.6165571 C16.5924778,2.20109869 16.6053365,1.78397844 16.6121945,1.36852002 C16.6121945,1.34193068 16.5993358,1.31949593 16.596764,1.29456842 C16.8762266,1.29539934 17.1565463,1.29456842 17.4360088,1.29456842 C18.4441313,1.29456842 19.4522537,1.29623026 20.4595189,1.30453943 C21.1316005,1.31035584 21.8053966,1.32448143 22.4783355,1.33611427 C22.4088985,2.06981383 22.3840383,2.80683706 22.3437477,3.54302937 C22.3206021,3.96845879 22.3206021,4.39471913 22.3154586,4.82014854 C22.3137441,5.03120142 22.3103151,5.24225429 22.3068861,5.45330717 C22.3060289,5.51645685 22.3060289,5.57960653 22.3068861,5.64275621 C22.2674527,5.66020546 22.2271621,5.6768238 22.188586,5.69344213 C22.0548555,5.74745173 21.921125,5.80312316 21.7916807,5.86876559 C21.6142306,5.95933552 21.4582116,6.07649479 21.3013354,6.19947048 C20.9567221,6.47034937 20.7184075,6.83096728 20.5615313,7.22980736 C20.3172159,7.84468581 20.3172159,8.53434678 20.4543754,9.17249091 C20.5246697,9.49904123 20.636969,9.84470263 20.8324213,10.120567 C21.0450186,10.4188662 21.345055,10.6415519 21.6373762,10.8592521 C21.8011104,10.9805659 21.9639873,11.1027107 22.1431519,11.2015898 C22.2948846,11.2846815 22.4594761,11.3403529 22.6240675,11.3960244 C22.6429269,11.7134346 22.6377834,12.0333376 22.6386407,12.3499169 C22.6420697,12.768699 22.6437842,13.187481 22.6472132,13.607925 C22.6489276,14.0059341 22.6506421,14.4047742 22.6592146,14.8027834 C22.6626436,14.9731213 22.6686443,15.1451211 22.6695016,15.3171209 C22.3617499,15.3121354 22.0548555,15.3071499 21.7471038,15.3071499 Z M16.5401857,4.80768479 C16.5401857,5.1142931 16.5401857,5.42090141 16.5247553,5.72584789 C16.5050386,6.11222422 16.2067167,6.43545086 15.7926664,6.43545086 C15.3837596,6.43545086 15.0742934,6.11222422 15.0605775,5.72584789 C15.0502905,5.41923958 15.048576,5.1142931 15.048576,4.80768479 C15.048576,4.41466113 15.3871886,4.08561806 15.7935236,4.08561806 C16.1998587,4.08561806 16.5401857,4.41549205 16.5401857,4.80768479 Z M15.1917363,9.65192992 C15.0477188,9.51233589 14.9954267,9.34864528 14.979139,9.15670349 C14.9508499,8.80771842 14.9422774,8.45707152 14.9319904,8.10476278 C14.9217035,7.71173912 15.2783182,7.38435789 15.676938,7.38435789 C16.0875593,7.38435789 16.4133132,7.71257004 16.4201712,8.10476278 C16.4270291,8.45540968 16.4321726,8.80605659 16.4253146,9.15670349 C16.4184567,9.53809432 16.1021325,9.8579973 15.7017982,9.8579973 C15.5114894,9.8579973 15.3254668,9.78321478 15.1917363,9.65192992 Z M16.5264698,11.3644495 C16.5247553,11.6162173 16.5196118,11.868816 16.5196118,12.1205838 C16.5178973,12.5019747 16.1930007,12.8202158 15.7978099,12.8202158 C15.3889031,12.8202158 15.0965818,12.5003128 15.0760079,12.1205838 C15.062292,11.868816 15.0640065,11.6162173 15.062292,11.3644495 C15.0605775,10.9780732 15.395761,10.6548465 15.7943809,10.6548465 C16.1930007,10.6548465 16.5281843,10.9780732 16.5264698,11.3644495 Z M11.3041213,6.36648477 C11.4309938,6.48946046 11.5030025,6.66062933 11.5030025,6.83512186 C11.5030025,7.00878348 11.4309938,7.17912143 11.3041213,7.30209712 C11.1849639,7.41759456 10.9929406,7.51148816 10.820634,7.49653166 C10.442588,7.46246407 10.0533979,7.47742057 9.67363752,7.47908241 C9.19186472,7.48240607 8.70923467,7.50317899 8.22574738,7.5081645 C7.7405456,7.51315 7.25620106,7.51315 6.77271377,7.53558475 C6.27036705,7.55968134 5.76630583,7.56134317 5.2639591,7.55469584 C4.87905521,7.54971034 4.55930209,7.24808753 4.55930209,6.8716822 C4.55930209,6.50358605 4.87905521,6.1803594 5.2639591,6.18700673 C5.78430801,6.19697773 6.30551417,6.21276515 6.82757758,6.20611782 C7.30677863,6.19947048 7.78512244,6.18202123 8.2643235,6.18202123 C8.74952528,6.18202123 9.23386982,6.17703573 9.71735711,6.1753739 C9.92823987,6.1753739 10.1408371,6.17371206 10.3517199,6.16872656 C10.4443025,6.16706473 10.5385997,6.16291014 10.6320396,6.16291014 C10.6954759,6.16291014 10.7580549,6.16457198 10.820634,6.1703884 C11.0075138,6.18949948 11.1669617,6.23353807 11.3041213,6.36648477 Z M10.9106449,9.61370775 C11.0392319,9.73834527 11.1129552,9.91034506 11.1129552,10.0873303 C11.1129552,10.3715039 10.9037869,10.6731267 10.605465,10.7329527 C10.2608517,10.8010879 9.91366667,10.83017 9.56219541,10.8285082 C9.11814148,10.8285082 8.67665929,10.8285082 8.23260536,10.8235227 C7.82198406,10.8218608 7.41050552,10.8251845 6.99988422,10.8285082 C6.43410122,10.8318318 5.86660372,10.8368173 5.30082072,10.8251845 C4.90562987,10.8185372 4.57558979,10.5119288 4.57558979,10.1238907 C4.57558979,9.75247086 4.90562987,9.40847129 5.30082072,9.42259688 C6.27893952,9.45666447 7.25448657,9.47909922 8.23260536,9.47162097 C8.67665929,9.4682973 9.11814148,9.4732828 9.56219541,9.46497363 C9.85023039,9.45998813 10.1348364,9.45167897 10.4211569,9.41761138 C10.4365873,9.41594954 10.4511605,9.41511863 10.466591,9.41511863 C10.6277534,9.41594954 10.8052035,9.51150498 10.9106449,9.61370775 Z" id="Shape"></path>
                        </g>
                    </g>
                </g>
            </g>
        </g>
    </g>
</svg>