<?xml version="1.0" encoding="UTF-8"?>
<svg width="12px" height="12px" viewBox="0 0 12 12" version="1.1" xmlns="http://www.w3.org/2000/svg" xmlns:xlink="http://www.w3.org/1999/xlink">
    <!-- Generator: Sketch 50.2 (55047) - http://www.bohemiancoding.com/sketch -->
    <title>clock</title>
    <desc>Created with Sketch.</desc>
    <defs></defs>
    <g id="Rondleidingen-&amp;-dag" stroke="none" stroke-width="1" fill="none" fill-rule="evenodd">
        <g id="Tour-choice" transform="translate(-925.000000, -249.000000)" fill="#9DA4AE">
            <g id="Group-15" transform="translate(895.000000, 150.000000)">
                <g id="clock" transform="translate(30.000000, 99.000000)">
                    <path d="M5.994,0 C2.682,0 0,2.688 0,6 C0,9.312 2.682,12 5.994,12 C9.312,12 12,9.312 12,6 C12,2.688 9.312,0 5.994,0 L5.994,0 Z M6,10.8 C3.348,10.8 1.2,8.652 1.2,6 C1.2,3.348 3.348,1.2 6,1.2 C8.652,1.2 10.8,3.348 10.8,6 C10.8,8.652 8.652,10.8 6,10.8 L6,10.8 Z M6.3,3 L5.4,3 L5.4,6.6 L8.55,8.49 L9,7.752 L6.3,6.15 L6.3,3 Z" id="Shape"></path>
                </g>
            </g>
        </g>
    </g>
</svg>