<?xml version="1.0" encoding="UTF-8"?>
<svg width="18px" height="18px" viewBox="0 0 18 18" version="1.1" xmlns="http://www.w3.org/2000/svg" xmlns:xlink="http://www.w3.org/1999/xlink">
    <!-- Generator: Sketch 49.3 (51167) - http://www.bohemiancoding.com/sketch -->
    <title>Group 14</title>
    <desc>Created with Sketch.</desc>
    <defs></defs>
    <g id="Rondleidingen-&amp;-dag" stroke="none" stroke-width="1" fill="none" fill-rule="evenodd">
        <g id="Detail-Page" transform="translate(-165.000000, -876.000000)" fill="#2E353B">
            <g id="Group-2" transform="translate(165.000000, 871.000000)">
                <g id="Group-14" transform="translate(0.000000, 5.000000)">
                    <path d="M8.99997854,0.53128688 C10.5702875,0.53128688 12.0234088,0.923864248 13.3593431,1.70901845 C14.6952775,2.49417265 15.755822,3.55471717 16.5409762,4.89065149 C17.3261304,6.2265858 17.7187078,7.67970716 17.7187078,9.25001609 C17.7187078,10.820325 17.3261304,12.2734464 16.5409762,13.6093807 C15.755822,14.945315 14.6952775,16.0058595 13.3593431,16.7910137 C12.0234088,17.5761679 10.5702875,17.9687453 8.99997854,17.9687453 C7.42966961,17.9687453 5.97654825,17.5761679 4.64061394,16.7910137 C3.30467962,16.0058595 2.2441351,14.945315 1.4589809,13.6093807 C0.673826697,12.2734464 0.281249329,10.820325 0.281249329,9.25001609 C0.281249329,7.67970716 0.673826697,6.2265858 1.4589809,4.89065149 C2.2441351,3.55471717 3.30467962,2.49417265 4.64061394,1.70901845 C5.97654825,0.923864248 7.42966961,0.53128688 8.99997854,0.53128688 Z M8.99997854,16.2812493 C10.2656005,16.2812493 11.4374726,15.9648438 12.5155952,15.3320328 C13.5937178,14.6992219 14.4491843,13.8437553 15.0819953,12.7656327 C15.7148063,11.6875101 16.0312118,10.5156381 16.0312118,9.25001609 C16.0312118,7.98439411 15.7148063,6.81252208 15.0819953,5.73439948 C14.4491843,4.65627687 13.5937178,3.80081034 12.5155952,3.16799934 C11.4374726,2.53518835 10.2656005,2.21878286 8.99997854,2.21878286 C7.73435656,2.21878286 6.56248453,2.53518835 5.48436192,3.16799934 C4.40623932,3.80081034 3.55077278,4.65627687 2.91796179,5.73439948 C2.2851508,6.81252208 1.96874531,7.98439411 1.96874531,9.25001609 C1.96874531,10.5156381 2.2851508,11.6875101 2.91796179,12.7656327 C3.55077278,13.8437553 4.40623932,14.6992219 5.48436192,15.3320328 C6.56248453,15.9648438 7.73435656,16.2812493 8.99997854,16.2812493 Z M11.0390362,10.1640764 C10.9921615,10.3281387 10.9101301,10.4570443 10.792943,10.5507942 L7.20701407,13.9960985 C6.99607707,14.1835979 6.76756199,14.2597698 6.52146883,14.2246136 C6.27537566,14.1894574 6.07615721,14.0722704 5.923814,13.8730519 C5.77147079,13.6738335 5.73045509,13.4453184 5.80076742,13.1875067 L6.9609209,8.33595577 C7.00779561,8.17189348 7.08982703,8.0429879 7.20701407,7.94923794 L10.792943,4.50393366 C11.00388,4.31643428 11.2323951,4.24026241 11.4784883,4.27541858 C11.7245814,4.31057474 11.9237999,4.42776179 12.0761431,4.62698024 C12.2284863,4.82619869 12.269502,5.05471377 12.1991897,5.31252548 L11.0390362,10.1640764 Z M8.99997854,8.12501878 C8.69529159,8.12501878 8.43162034,8.23634681 8.2089648,8.45900235 C7.98630926,8.68165789 7.87498122,8.94532914 7.87498122,9.25001609 C7.87498122,9.55470305 7.98630926,9.81837429 8.2089648,10.0410298 C8.43162034,10.2636854 8.69529159,10.3750134 8.99997854,10.3750134 C9.30466549,10.3750134 9.56833674,10.2636854 9.79099228,10.0410298 C10.0136478,9.81837429 10.1249759,9.55470305 10.1249759,9.25001609 C10.1249759,8.94532914 10.0136478,8.68165789 9.79099228,8.45900235 C9.56833674,8.23634681 9.30466549,8.12501878 8.99997854,8.12501878 Z" id=""></path>
                </g>
            </g>
        </g>
    </g>
</svg>