<?xml version="1.0" encoding="UTF-8"?>
<svg width="25px" height="25px" viewBox="0 0 25 25" version="1.1" xmlns="http://www.w3.org/2000/svg" xmlns:xlink="http://www.w3.org/1999/xlink">
    <!-- Generator: Sketch 49.3 (51167) - http://www.bohemiancoding.com/sketch -->
    <title>facebook26</title>
    <desc>Created with Sketch.</desc>
    <defs></defs>
    <g id="Rondleidingen-&amp;-dag" stroke="none" stroke-width="1" fill="none" fill-rule="evenodd">
        <g id="Detail-Page" transform="translate(-199.000000, -1675.000000)" fill="#000000">
            <g id="Group-11" transform="translate(165.000000, 1638.000000)">
                <g id="Group-2-Copy" transform="translate(0.000000, 37.000000)">
                    <g id="facebook26" transform="translate(34.000000, 0.000000)">
                        <g id="Group" fill="none">
                            <path d="M0.0596190476,2.05961905 L0.0596190476,22.059619 C0.0596190476,23.1641885 0.955049548,24.059619 2.05961905,24.059619 L22.059619,24.059619 C23.1641885,24.059619 24.059619,23.1641885 24.059619,22.059619 L24.059619,2.05961905 C24.059619,0.955049548 23.1641885,0.0596190476 22.059619,0.0596190476 L2.05961905,0.0596190476 C0.955049548,0.0596190476 0.0596190476,0.955049548 0.0596190476,2.05961905 Z M20.3645714,12.3413333 L17.6487619,12.3413333 L17.6487619,22.195619 L13.5828571,22.195619 L13.5828571,12.3413333 L11.5499048,12.3413333 L11.5499048,8.94266667 L13.5828571,8.94266667 L13.5828571,6.90971429 C13.5828571,5.45085714 13.924381,4.34914286 14.6070476,3.60419048 C15.2897143,2.8592381 16.4173333,2.48685714 17.9900952,2.48685714 L20.7059048,2.48685714 L20.7059048,5.88552381 L18.9990476,5.88552381 C18.419619,5.88552381 18.0497143,5.98628571 17.8893333,6.18819048 C17.7289524,6.38990476 17.6487619,6.74419048 17.6487619,7.2512381 L17.6487619,8.94266667 L20.7215238,8.94266667 L20.3645714,12.3413333 L20.3645714,12.3413333 Z" id="Shape" fill="#A8D5E3"></path>
                        </g>
                    </g>
                </g>
            </g>
        </g>
    </g>
</svg>