<?xml version="1.0" encoding="UTF-8"?>
<svg width="16px" height="16px" viewBox="0 0 16 16" version="1.1" xmlns="http://www.w3.org/2000/svg" xmlns:xlink="http://www.w3.org/1999/xlink">
    <!-- Generator: Sketch 49.3 (51167) - http://www.bohemiancoding.com/sketch -->
    <title>facebook26</title>
    <desc>Created with Sketch.</desc>
    <defs></defs>
    <g id="Symbols" stroke="none" stroke-width="1" fill="none" fill-rule="evenodd">
        <g id="Nav" transform="translate(-1260.000000, -31.000000)" fill="#000000">
            <g id="facebook26" transform="translate(1260.000000, 31.000000)">
                <g id="Group" fill="none">
                    <path d="M0.0372619048,2.0372619 L0.0372619048,13.0372619 C0.0372619048,14.1418314 0.932692405,15.0372619 2.0372619,15.0372619 L13.0372619,15.0372619 C14.1418314,15.0372619 15.0372619,14.1418314 15.0372619,13.0372619 L15.0372619,2.0372619 C15.0372619,0.932692405 14.1418314,0.0372619048 13.0372619,0.0372619048 L2.0372619,0.0372619048 C0.932692405,0.0372619048 0.0372619048,0.932692405 0.0372619048,2.0372619 Z M12.7278571,7.71333333 L11.0304762,7.71333333 L11.0304762,13.8722619 L8.48928571,13.8722619 L8.48928571,7.71333333 L7.21869048,7.71333333 L7.21869048,5.58916667 L8.48928571,5.58916667 L8.48928571,4.31857143 C8.48928571,3.40678571 8.7027381,2.71821429 9.12940476,2.25261905 C9.55607143,1.78702381 10.2608333,1.55428571 11.2438095,1.55428571 L12.9411905,1.55428571 L12.9411905,3.67845238 L11.8744048,3.67845238 C11.5122619,3.67845238 11.2810714,3.74142857 11.1808333,3.86761905 C11.0805952,3.99369048 11.0304762,4.21511905 11.0304762,4.53202381 L11.0304762,5.58916667 L12.9509524,5.58916667 L12.7278571,7.71333333 L12.7278571,7.71333333 Z" id="Shape" fill="#A8D5E3"></path>
                </g>
            </g>
        </g>
    </g>
</svg>