<?xml version="1.0" encoding="UTF-8"?>
<svg width="24px" height="24px" viewBox="0 0 24 24" version="1.1" xmlns="http://www.w3.org/2000/svg" xmlns:xlink="http://www.w3.org/1999/xlink">
    <!-- Generator: Sketch 49.3 (51167) - http://www.bohemiancoding.com/sketch -->
    <title>google25</title>
    <desc>Created with Sketch.</desc>
    <defs></defs>
    <g id="Rondleidingen-&amp;-dag" stroke="none" stroke-width="1" fill="none" fill-rule="evenodd">
        <g id="Detail-Page" transform="translate(-165.000000, -1675.000000)" fill="#000000">
            <g id="Group-11" transform="translate(165.000000, 1638.000000)">
                <g id="Group-2-Copy" transform="translate(0.000000, 37.000000)">
                    <g id="google25">
                        <path d="M19.9455238,2.06819048 L17.9592381,2.06819048 L17.9592381,6.0407619 L13.9866667,6.0407619 L13.9866667,8.0272381 L17.9592381,8.0272381 L17.9592381,12 L19.9455238,12 L19.9455238,8.0272381 L24,8 L24,22 C24,23.1045695 23.1045695,24 22,24 L12.1904762,24 C12.5937143,23.2447619 12.7912381,22.3510476 12.7912381,21.4820952 C12.7912381,20.7990476 12.6773333,20.1655238 12.4500952,19.5811429 C12.2224762,18.9967619 11.9352381,18.5154286 11.5887619,18.1379048 C11.2420952,17.7605714 10.8697143,17.3929524 10.4714286,17.0361905 C10.0731429,16.6794286 9.7007619,16.3714286 9.35409524,16.1125714 C9.00761905,15.8542857 8.72038095,15.572 8.49295238,15.2672381 C8.26533333,14.9617143 8.15161905,14.6539048 8.15161905,14.343619 C8.15161905,13.9710476 8.27066667,13.6192381 8.50857143,13.2881905 C8.74666667,12.9573333 9.03638095,12.6392381 9.37752381,12.3339048 C9.71885714,12.0285714 10.0577143,11.6950476 10.3940952,11.3327619 C10.7302857,10.9708571 11.0173333,10.4897143 11.2552381,9.88971429 C11.4933333,9.28971429 11.6121905,8.612 11.6121905,7.85657143 C11.6121905,7.10133333 11.4750476,6.3487619 11.2009524,5.59866667 C10.9268571,4.84857143 10.5361905,4.23561905 10.0293333,3.75961905 C9.9672381,3.69771429 9.89485714,3.6407619 9.812,3.58895238 C9.72933333,3.53733333 9.66457143,3.49828571 9.61809524,3.47257143 C9.57142857,3.44666667 9.51980952,3.39752381 9.46285714,3.32514286 C9.40590476,3.2527619 9.35161905,3.1647619 9.3,3.06133333 L11.3950476,3.06133333 L13.4902857,2.06819048 L6.70819048,2.06819048 C5.28038095,2.06819048 4.01561905,2.2672381 2.91390476,2.66571429 C1.81219048,3.064 0.786285714,3.7792381 0,4.76190476 C0,3.84126984 0,2.92063492 0,2 L0,2 C-1.3527075e-16,0.8954305 0.8954305,-6.85272294e-16 2,-8.8817842e-16 L22,-3.33066907e-15 C23.1045695,-1.57146561e-15 24,0.8954305 24,2 L24,6.0407619 L19.9455238,6.0407619 L19.9455238,2.06819048 Z M3.17009524,11.4180952 C3.50095238,11.847619 3.90457143,12.1967619 4.38038095,12.4657143 C4.85619048,12.7346667 5.35790476,12.8689524 5.88571429,12.8689524 C6.88933333,12.8689524 7.616,12.5558095 8.06609524,11.9299048 C8.51619048,11.3041905 8.74114286,10.4739048 8.74114286,9.4392381 C8.74114286,8.808 8.65828571,8.14609524 8.49314286,7.45314286 C8.32742857,6.76 8.08438095,6.08761905 7.76361905,5.43580952 C7.44285714,4.784 7.00838095,4.24590476 6.46,3.82171429 C5.91180952,3.39752381 5.29619048,3.18533333 4.61333333,3.18533333 C3.6512381,3.18533333 2.90361905,3.54228571 2.37085714,4.25619048 C1.83809524,4.97009524 1.57161905,5.82342857 1.57161905,6.8167619 C1.57161905,7.30285714 1.63104762,7.81485714 1.75009524,8.35295238 C1.86914286,8.89104762 2.0527619,9.42914286 2.30114286,9.96704762 C2.54933333,10.5051429 2.83904762,10.9887619 3.17009524,11.4180952 L3.17009524,11.4180952 Z M5.40457143,13.7224762 C5.01142857,13.7740952 4.64933333,13.8001905 4.31828571,13.8001905 C2.55961905,13.8001905 1.06571429,13.0302857 0,11.8095238 L0,18.6666667 C1.56209524,17.8594286 3.63542857,17.4419048 6.05638095,17.3693333 C5.40457143,16.5207619 5.07866667,15.7502857 5.07866667,15.0571429 C5.07866667,14.7986667 5.1872381,14.3535238 5.40457143,13.7224762 Z M10.1139048,21.0937143 C9.98457143,20.907619 9.876,20.7499048 9.788,20.6205714 C9.70019048,20.4912381 9.56304762,20.3388571 9.3767619,20.1628571 C9.19066667,19.9870476 9.04838095,19.8552381 8.95009524,19.7672381 C8.85180952,19.6792381 8.68628571,19.5474286 8.45352381,19.3714286 C8.22095238,19.195619 8.06038095,19.0765714 7.97257143,19.0146667 C7.8847619,18.9525714 7.71409524,18.8335238 7.46057143,18.6577143 C7.20704762,18.4817143 7.04933333,18.3731429 6.9872381,18.3318095 C6.81142857,18.3112381 6.55790476,18.3007619 6.22685714,18.3007619 C5.65790476,18.3007619 5.10438095,18.3367619 4.56647619,18.4093333 C4.02838095,18.4817143 3.47485714,18.6057143 2.90590476,18.7817143 C2.33695238,18.9577143 1.81961905,19.2135238 1.35409524,19.5499048 C0.888571429,19.8860952 0.248380952,20.296381 0,20.7619048 C0,21.1746032 0,21.5873016 0,22 L0,22 C1.3527075e-16,23.1045695 0.8954305,24 2,24 L10.4761905,24 C10.579619,23.6586667 10.6032381,23.2093333 10.6032381,22.8165714 C10.6032381,22.5992381 10.58,22.3897143 10.5329524,22.188 C10.4864762,21.9862857 10.4371429,21.7998095 10.3855238,21.6291429 C10.3337143,21.4584762 10.2432381,21.2801905 10.1139048,21.0937143 Z" id="Shape" fill="#A8D5E3"></path>
                    </g>
                </g>
            </g>
        </g>
    </g>
</svg>