<?xml version="1.0" encoding="UTF-8"?>
<svg width="20px" height="16px" viewBox="0 0 20 16" version="1.1" xmlns="http://www.w3.org/2000/svg" xmlns:xlink="http://www.w3.org/1999/xlink">
    <!-- Generator: Sketch 49.3 (51167) - http://www.bohemiancoding.com/sketch -->
    <title>Hamburger</title>
    <desc>Created with Sketch.</desc>
    <defs></defs>
    <g id="Symbols" stroke="none" stroke-width="1" fill="none" fill-rule="evenodd">
        <g id="nav-mobile" transform="translate(-330.000000, -25.000000)" fill="#6D8494" fill-rule="nonzero">
            <g id="Hamburger">
                <g transform="translate(330.000000, 25.000000)">
                    <g id="Navicon">
                        <path d="M0.5,0 L19.5,0 C19.7761424,-5.07265313e-17 20,0.223857625 20,0.5 L20,1.5 C20,1.77614237 19.7761424,2 19.5,2 L0.5,2 C0.223857625,2 1.42446724e-14,1.77614237 1.42108547e-14,1.5 L1.42108547e-14,0.5 C1.4177037e-14,0.223857625 0.223857625,5.07265313e-17 0.5,0 Z" id="Fill-19"></path>
                        <path d="M0.5,7 L19.5,7 C19.7761424,7 20,7.22385763 20,7.5 L20,8.5 C20,8.77614237 19.7761424,9 19.5,9 L0.5,9 C0.223857625,9 1.42446724e-14,8.77614237 1.42108547e-14,8.5 L1.42108547e-14,7.5 C1.4177037e-14,7.22385763 0.223857625,7 0.5,7 Z" id="Fill-20"></path>
                        <path d="M0.5,14 L19.5,14 C19.7761424,14 20,14.2238576 20,14.5 L20,15.5 C20,15.7761424 19.7761424,16 19.5,16 L0.5,16 C0.223857625,16 1.42446724e-14,15.7761424 1.42108547e-14,15.5 L1.42108547e-14,14.5 C1.4177037e-14,14.2238576 0.223857625,14 0.5,14 Z" id="Fill-21"></path>
                    </g>
                </g>
            </g>
        </g>
    </g>
</svg>