<?xml version="1.0" encoding="UTF-8"?>
<svg width="10px" height="10px" viewBox="0 0 10 10" version="1.1" xmlns="http://www.w3.org/2000/svg" xmlns:xlink="http://www.w3.org/1999/xlink">
    <!-- Generator: Sketch 50 (54983) - http://www.bohemiancoding.com/sketch -->
    <title>info-active</title>
    <desc>Created with Sketch.</desc>
    <defs></defs>
    <g id="Rondleidingen-&amp;-dag" stroke="none" stroke-width="1" fill="none" fill-rule="evenodd">
        <g id="Overview-dagprogramma's" transform="translate(-1220.000000, -373.000000)" fill="#81C3D7">
            <g id="offer-list" transform="translate(450.000000, 310.000000)">
                <g id="info-active" transform="translate(770.000000, 63.000000)">
                    <path d="M5,0 C5.90053774,0 6.73387097,0.225134511 7.5,0.675403226 C8.26612903,1.12567194 8.87432806,1.73387097 9.32459677,2.5 C9.77486549,3.26612903 10,4.09946226 10,5 C10,5.90053774 9.77486549,6.73387097 9.32459677,7.5 C8.87432806,8.26612903 8.26612903,8.87432806 7.5,9.32459677 C6.73387097,9.77486549 5.90053774,10 5,10 C4.09946226,10 3.26612903,9.77486549 2.5,9.32459677 C1.73387097,8.87432806 1.12567194,8.26612903 0.675403226,7.5 C0.225134511,6.73387097 0,5.90053774 0,5 C0,4.09946226 0.225134511,3.26612903 0.675403226,2.5 C1.12567194,1.73387097 1.73387097,1.12567194 2.5,0.675403226 C3.26612903,0.225134511 4.09946226,0 5,0 Z M5,2.21774194 C4.77150548,2.21774194 4.57325259,2.30174741 4.40524194,2.46975806 C4.23723129,2.63776871 4.15322581,2.83602161 4.15322581,3.06451613 C4.15322581,3.29301065 4.23723129,3.49126354 4.40524194,3.65927419 C4.57325259,3.82728484 4.77150548,3.91129032 5,3.91129032 C5.22849452,3.91129032 5.42674741,3.82728484 5.59475806,3.65927419 C5.76276871,3.49126354 5.84677419,3.29301065 5.84677419,3.06451613 C5.84677419,2.83602161 5.76276871,2.63776871 5.59475806,2.46975806 C5.42674741,2.30174741 5.22849452,2.21774194 5,2.21774194 Z M6.12903226,7.33870968 L6.12903226,6.85483871 C6.12903226,6.78763451 6.10551065,6.73051065 6.05846774,6.68346774 C6.01142483,6.63642483 5.95430097,6.61290323 5.88709677,6.61290323 L5.64516129,6.61290323 L5.64516129,4.59677419 C5.64516129,4.52957 5.62163968,4.47244613 5.57459677,4.42540323 C5.52755387,4.37836032 5.47043,4.35483871 5.40322581,4.35483871 L4.11290323,4.35483871 C4.04569903,4.35483871 3.98857517,4.37836032 3.94153226,4.42540323 C3.89448935,4.47244613 3.87096774,4.52957 3.87096774,4.59677419 L3.87096774,5.08064516 C3.87096774,5.14784936 3.89448935,5.20497322 3.94153226,5.25201613 C3.98857517,5.29905904 4.04569903,5.32258065 4.11290323,5.32258065 L4.35483871,5.32258065 L4.35483871,6.61290323 L4.11290323,6.61290323 C4.04569903,6.61290323 3.98857517,6.63642483 3.94153226,6.68346774 C3.89448935,6.73051065 3.87096774,6.78763451 3.87096774,6.85483871 L3.87096774,7.33870968 C3.87096774,7.40591388 3.89448935,7.46303774 3.94153226,7.51008065 C3.98857517,7.55712355 4.04569903,7.58064516 4.11290323,7.58064516 L5.88709677,7.58064516 C5.95430097,7.58064516 6.01142483,7.55712355 6.05846774,7.51008065 C6.10551065,7.46303774 6.12903226,7.40591388 6.12903226,7.33870968 Z" id="ïš"></path>
                </g>
            </g>
        </g>
    </g>
</svg>