<?xml version="1.0" encoding="UTF-8"?>
<svg width="16px" height="21px" viewBox="0 0 16 21" version="1.1" xmlns="http://www.w3.org/2000/svg" xmlns:xlink="http://www.w3.org/1999/xlink">
    <!-- Generator: Sketch 50.2 (55047) - http://www.bohemiancoding.com/sketch -->
    <title>Lock</title>
    <desc>Created with Sketch.</desc>
    <defs></defs>
    <g id="GHT-&amp;-activities" stroke="none" stroke-width="1" fill="none" fill-rule="evenodd">
        <g id="Activiteit-booking" transform="translate(-924.000000, -534.000000)" fill="#000000" fill-rule="nonzero">
            <g id="Group-13-Copy" transform="translate(924.000000, 534.000000)">
                <g id="Lock">
                    <g id="Layer_1">
                        <path d="M14,7 L13,7 L13,5 C13,2.25 10.75,0 8,0 C5.25,0 3,2.25 3,5 L3,7 L2,7 C0.8999,7 0,7.8999 0,9 L0,19 C0,20.1001 0.8999,21 2,21 L14,21 C15.1001,21 16,20.1001 16,19 L16,9 C16,7.8999 15.1001,7 14,7 Z M8,16.1 C6.8999,16.1 6,15.2001 6,14.1 C6,12.9999 6.8999,12.1 8,12.1 C9.1001,12.1 10,12.9999 10,14.1 C10,15.2001 9.1001,16.1 8,16.1 Z M11.1001,7 L4.8999,7 L4.8999,5 C4.8999,3.2998 6.30005,1.8999 8,1.8999 C9.7002,1.8999 11.1001,3.2998 11.1001,5 L11.1001,7 Z" id="Shape"></path>
                    </g>
                </g>
            </g>
        </g>
    </g>
</svg>