<?xml version="1.0" encoding="utf-8"?>
<!-- Generator: Adobe Illustrator 21.1.0, SVG Export Plug-In . SVG Version: 6.00 Build 0)  -->
<svg version="1.1" id="Layer_1" xmlns="http://www.w3.org/2000/svg" xmlns:xlink="http://www.w3.org/1999/xlink" x="0px" y="0px"
	 viewBox="0 0 425.2 226.8" style="enable-background:new 0 0 425.2 226.8;" xml:space="preserve">
<style type="text/css">
	.Arched_x0020_Green{fill:url(#SVGID_1_);stroke:#FFFFFF;stroke-width:0.25;stroke-miterlimit:1;}
	.st0{fill:#FFFFFF;stroke:#009DC5;stroke-width:1.5;}
	.st1{fill:none;}
	.st2{fill:#008DA8;}
	.st3{font-family:'MyriadPro-Bold';}
	.st4{font-size:81.0964px;}
	.st5{fill:#47AFC5;}
	.st6{fill:none;stroke:#008DA8;stroke-width:1.5;stroke-linejoin:round;}
	.st7{fill:none;stroke:#008DA8;stroke-width:1.5;}
</style>
<linearGradient id="SVGID_1_" gradientUnits="userSpaceOnUse" x1="0" y1="226.7695" x2="0.7071" y2="226.0624">
	<stop  offset="0" style="stop-color:#20AC4B"/>
	<stop  offset="0.9831" style="stop-color:#19361A"/>
</linearGradient>
<path class="st0" d="M74,93.4"/>
<rect x="98.6" y="74.4" class="st1" width="320.8" height="74.5"/>
<text transform="matrix(1 0 0 1 153.5967 132.0078)" class="st2 st3 st4">GENTSE</text>
<g>
	<path class="st5" d="M249.3,198.8c0,9.3-5.4,14.7-17.7,14.7c-3.6,0-6.8-0.4-12.3-2.1l0.7-5.2c4.8,2,7.7,2.8,12.4,2.8
		c6.7,0,10.6-4,10.6-10.5v-3h-0.1c-2.7,3.2-7.1,4.7-11.5,4.7c-9.8,0-14.7-7.1-14.7-15.1c0-7.9,5-16.3,15.3-16.3
		c6.1,0,9.4,2,11.3,5.3h0.1v-4.6h5.9V198.8z M243,185.2c0-6.4-3.3-11.8-10-11.8c-6.4,0-9.6,6.2-9.6,11.4c0,5.8,3.6,10.8,9.6,10.8
		C238.9,195.6,243,190.9,243,185.2z"/>
	<path class="st5" d="M267.6,162.7h-7.1v-6.4h7.1V162.7z M260.9,169.5h6.3v30.6h-6.3V169.5z"/>
	<path class="st5" d="M303.1,195.8h-0.1c-1.7,2.3-5.6,5-11.7,5c-10.4,0-14.7-8.2-14.7-16.6c0-8.2,4.8-15.5,14.8-15.5
		c6,0,9.4,2.1,11.4,4.9h0.1v-18.6h6.3v45h-6.1V195.8z M292.7,196.3c7.1,0,10.1-6.3,10.1-11.4c0-5.7-3.3-11.5-10.2-11.5
		c-6.9,0-9.6,5.8-9.4,11.4C283.1,189.5,285.9,196.3,292.7,196.3z"/>
	<path class="st5" d="M317.3,194.1c2.5,1.4,6.1,2.2,7.9,2.2c2.9,0,6.5-1.1,6.5-4.4c0-5.6-14.9-5.1-14.9-13.7c0-6.4,5.3-9.4,12.1-9.4
		c3,0,5.4,0.5,7.9,1.2l-0.5,4.9c-1.4-0.8-5.2-1.6-6.7-1.6c-3.2,0-6.1,1.2-6.1,3.7c0,6.2,14.9,4.4,14.9,14.2c0,6.5-5.9,9.5-12,9.5
		c-3.2,0-6.5-0.3-9.4-1.7L317.3,194.1z"/>
	<path class="st5" d="M372.4,198.9c-2.4,0.8-5.2,2-10.8,2c-12.2,0-17.8-6.6-17.8-16.6c0-9.1,6.4-15.5,16.1-15.5
		c11.4,0,15.1,7.4,15.1,17.3h-24.5c0,6.1,5.3,10.2,11.3,10.2c4.2,0,9-1.9,10.6-3.1V198.9z M368.3,181.9c0-4.7-3.1-8.5-8.5-8.5
		c-6.2,0-8.7,4.6-9.2,8.5H368.3z"/>
	<path class="st5" d="M383.5,169.5h6.1v4.9h0.1c1.9-3.5,6.5-5.6,11.2-5.6c8.9,0,12.9,4.9,12.9,13.2v18.2h-6.3v-15.9
		c0-7.1-1.8-10.6-7.3-10.9c-7.2,0-10.4,5.2-10.4,12.6v14.2h-6.3V169.5z"/>
</g>
<g>
	<polyline class="st6" points="71,93.4 71,101.8 55.1,101.8 55,52.4 55,46.7 55,46.7 55,46.8 52.2,35.3 49.4,46.8 43.1,29.3 
		37,46.8 33.8,35.3 31.4,46.8 31.4,69.3 31.4,87 31.4,147.3 6.1,147.3 	"/>
	<polyline class="st7" points="419.4,147.3 112.6,147.3 112.6,101.8 111.4,91.6 110.2,98.1 106.5,98.1 105.2,91.6 103.9,101.8 
		103.9,136 95.8,136 95.8,147.3 85.9,147.3 85.9,93.4 	"/>
	<polyline class="st7" points="71,93.6 72.2,86.8 73.8,93.6 78.2,57.6 82.7,93.6 84.7,86.8 85.9,93.6 	"/>
</g>
</svg>
