<?xml version="1.0" encoding="UTF-8"?>
<svg width="422px" height="474px" viewBox="0 0 422 474" version="1.1" xmlns="http://www.w3.org/2000/svg" xmlns:xlink="http://www.w3.org/1999/xlink">
    <!-- Generator: Sketch 50.2 (55047) - http://www.bohemiancoding.com/sketch -->
    <title>illustration</title>
    <desc>Created with Sketch.</desc>
    <defs>
        <path d="M311.477167,90.2292576 L341.398482,90.2292576 C376.281052,90.2292576 404.558962,118.507168 404.558962,153.389738 C404.558962,188.272308 376.281052,216.550218 341.398482,216.550218 L315.078582,216.550218 L270.751607,216.550218 C259.124083,216.550218 249.698113,225.976188 249.698113,237.603712 C249.698113,249.231235 259.124083,258.657205 270.751607,258.657205 L310.483473,258.657205 C330.689075,263.38858 345.735849,281.522262 345.735849,303.170306 C345.735849,328.418642 325.268028,348.886463 300.019692,348.886463 L92.5345534,348.886463 C67.286217,348.886463 46.8183962,328.418642 46.8183962,303.170306 C46.8183962,281.522262 61.8651699,263.38858 82.0707728,258.657205 L59.3651992,258.657205 L90.5903745,258.657205 C102.217898,258.657205 111.643868,249.231235 111.643868,237.603712 C111.643868,225.976188 102.217898,216.550218 90.5903745,216.550218 L63.1604803,216.550218 C28.2779103,216.550218 4.27188278e-15,188.272308 0,153.389738 C-4.27188278e-15,118.507168 28.2779103,90.2292576 63.1604803,90.2292576 L120.692644,90.2292576 L148.213016,90.2292576 C159.840539,90.2292576 169.266509,80.8032876 169.266509,69.1757642 C169.266509,57.5482408 159.840539,48.1222707 148.213016,48.1222707 L111.992456,48.1222707 L103.292267,48.1222707 C90.0036693,48.1222707 79.2311321,37.3497335 79.2311321,24.0611354 C79.2311321,10.7725372 90.0036693,2.44107587e-15 103.292267,0 L292.863393,-4.97379915e-14 C306.151991,-4.03764213e-14 316.924528,10.7725372 316.924528,24.0611354 C316.924528,37.3497335 306.151991,48.1222707 292.863393,48.1222707 L291.159626,48.1222707 C279.532102,48.1222707 270.106132,57.5482408 270.106132,69.1757642 C270.106132,80.8032876 279.532102,90.2292576 291.159626,90.2292576 L311.477167,90.2292576 Z" id="path-1"></path>
        <polygon id="path-3" points="0 0 325.32783 0 325.32783 363.323144 0 363.323144"></polygon>
        <polygon id="path-5" points="0 1.20305677 4.80188679 1.20305677 4.80188679 107.072052 0 107.072052"></polygon>
    </defs>
    <g id="Designs" stroke="none" stroke-width="1" fill="none" fill-rule="evenodd">
        <g id="Word-lid@duo" transform="translate(-796.000000, -373.000000)">
            <g id="illustration" transform="translate(722.000000, 348.000000)">
                <g id="Group-20" transform="translate(69.627358, 60.152838)"></g>
                <g id="Colored-Stars" transform="translate(254.329192, 275.487631) rotate(-21.000000) translate(-254.329192, -275.487631) translate(67.655843, 52.320600)">
                    <polygon id="Star-2" fill="#57626C" style="mix-blend-mode: multiply;" points="271.037846 438.162218 273.359161 434.707485 274.361434 438.749518 277.808743 441.075832 273.775395 442.080263 271.454081 445.534996 270.451808 441.492963 267.004498 439.166649"></polygon>
                    <polygon id="Star-2-Copy-3" fill="#F36A6A" style="mix-blend-mode: multiply;" points="84.4649516 416.103205 86.7862664 412.648472 87.7885394 416.690505 91.2358491 419.016818 87.2025012 420.02125 84.8811864 423.475983 83.8789134 419.433949 80.4316038 417.107636"></polygon>
                    <polygon id="Star-2-Copy-2" fill="#47A7C5" style="mix-blend-mode: multiply;" transform="translate(363.142689, 409.640830) rotate(-72.000000) translate(-363.142689, -409.640830) " points="361.16557 406.811131 364.51858 401.820961 365.966307 407.659453 370.945755 411.019684 365.119808 412.470529 361.766798 417.460699 360.31907 411.622206 355.339623 408.261976"></polygon>
                    <polygon id="Star-2-Copy" fill="#47A7C5" style="mix-blend-mode: multiply;" points="8.06669568 204.210776 12.7093252 197.30131 14.7138713 205.385376 21.6084906 210.038003 13.5417949 212.046866 8.89916533 218.956332 6.89461927 210.872266 -2.34479103e-13 206.219639"></polygon>
                    <polygon id="Star-2-Copy-5" fill="#9DA4AE" style="mix-blend-mode: multiply;" transform="translate(336.762708, 21.196736) rotate(-33.000000) translate(-336.762708, -21.196736) " points="338.667788 10.3692252 340.672334 18.4532916 347.566954 23.1059185 339.500258 25.1147811 334.857628 32.0242471 332.853082 23.9401807 325.958463 19.2875538 334.025159 17.2786912"></polygon>
                    <polygon id="Rectangle-10" fill="#A8D5E3" style="mix-blend-mode: multiply;" transform="translate(245.496462, 309.787118) rotate(57.000000) translate(-245.496462, -309.787118) " points="250.898585 310.741709 244.543922 315.200873 240.09434 308.832527 246.449002 304.373362"></polygon>
                    <polygon id="Rectangle-10-Copy-2" fill="#A8D5E3" style="mix-blend-mode: multiply;" transform="translate(173.468160, 39.099345) rotate(117.000000) translate(-173.468160, -39.099345) " points="178.870283 40.0539361 172.51562 44.5131004 168.066038 38.1447538 174.4207 33.6855895"></polygon>
                    <polygon id="Triangle-2" fill="#A8D5E3" style="mix-blend-mode: multiply;" transform="translate(145.257075, 356.706332) rotate(124.000000) translate(-145.257075, -356.706332) " points="153.102483 362.120087 136.853774 358.749033 153.660377 351.292576"></polygon>
                    <polygon id="Triangle-2-Copy-3" fill="#F36A6A" style="mix-blend-mode: multiply;" transform="translate(245.082360, 8.647142) rotate(40.000000) translate(-245.082360, -8.647142) " points="238.479765 10.2359093 251.684954 4.43644292 251.246608 12.8578403"></polygon>
                    <polygon id="Triangle-2-Copy-2" fill="#A8D5E3" style="mix-blend-mode: multiply;" points="358.502692 287.530568 345.735849 284.908637 358.941038 279.10917"></polygon>
                </g>
                <g id="Page-1" transform="translate(91.235849, 81.807860)">
                    <mask id="mask-2" fill="white">
                        <use xlink:href="#path-1"></use>
                    </mask>
                    <use id="Combined-Shape" fill="#DBE9EC" xlink:href="#path-1"></use>
                    <g id="Group-11" mask="url(#mask-2)">
                        <g transform="translate(-16.806604, -46.919214)">
                            <g id="Group-35" transform="translate(56.422170, 7.218341)">
                                <mask id="mask-4" fill="white">
                                    <use xlink:href="#path-3"></use>
                                </mask>
                                <g id="Clip-34"></g>
                                <path d="M304.290867,88.3817831 C318.440118,100.299442 325.936527,117.424303 326.493041,135.789209 C326.836377,147.114997 324.684194,158.439377 319.519376,168.569457 C314.194851,179.012716 305.952671,187.562127 296.504593,194.370408 C271.748504,212.211708 239.77743,218.71033 210.090809,222.387534 C173.137842,226.964157 135.744448,226.510928 98.7921845,231.346539 C84.4761902,233.219978 70.0300377,235.802818 56.3338778,240.475154 C46.1041472,243.965154 35.6253572,249.03864 28.4110755,256.645701 C27.414134,257.696431 26.4418171,258.773905 25.5454845,259.914014 C24.8081559,260.964744 24.4542663,261.469348 24.1221871,261.989435 C23.4566214,263.028905 22.812866,264.084561 22.2387628,265.178925 C21.9496005,265.727867 21.6611418,266.278216 21.3959005,266.840529 C20.038034,270.044094 19.1839148,272.723351 18.6182543,275.468762 C17.9646491,278.641362 17.8816293,279.0777 17.7402142,282.637374 C17.6410125,285.126612 17.6909651,287.624999 17.9350997,290.105088 C18.3150209,292.046089 18.5127206,292.946916 18.760373,293.835779 C19.0481281,294.868211 19.3612114,295.895013 19.7355041,296.899998 C19.8959153,297.330706 20.05703,297.762821 20.2329195,298.187195 C21.0574892,299.890321 21.9481934,301.539961 22.9690558,303.108666 C23.5790404,304.046089 24.2108353,304.970844 24.8890651,305.859707 C23.6690958,304.260036 25.6137296,306.714789 25.9549551,307.103271 C27.3036755,308.636788 28.7227516,310.108373 30.230476,311.485653 C31.1486189,312.323141 32.0815365,313.145145 33.0461143,313.92985 C33.4703597,314.274698 33.8931979,314.619546 34.3244788,314.953133 C36.5385753,316.556324 38.4543632,317.853374 40.4271393,319.059637 C50.5182689,325.230302 59.135445,328.664001 70.301611,332.208192 C99.39443,341.443076 130.064626,345.430642 160.401335,347.784053 C200.580114,350.901055 276.999448,350.969321 317.255619,349.608931 C326.335033,349.301383 326.30478,363.378212 317.252805,363.68576 C286.661408,364.720303 219.975092,364.920878 189.389324,363.596381 C155.592517,362.13113 121.457299,359.219629 88.4118926,351.673795 C65.55541,346.454629 41.4620728,339.068552 23.092882,323.885395 C16.0214224,318.039873 10.3549678,310.84874 6.83717879,302.356335 C3.01685988,293.139045 2.92047246,282.733087 4.7841971,273.045678 C9.60497521,247.983687 31.2886269,233.745695 54.0937497,226.405363 C85.3711157,216.339325 119.331148,214.629162 151.896024,212.607931 C187.543891,210.395275 223.70817,209.433924 257.879973,197.869558 C264.481456,195.635788 270.010013,193.463247 276.116191,190.307538 C279.021885,188.80569 281.884662,187.213056 284.640498,185.449406 C285.856949,184.669628 287.066365,183.877885 288.244824,183.043213 C288.822445,182.634322 289.399363,182.225431 289.967837,181.801057 C293.039571,179.380788 295.250149,177.458086 297.299613,175.37422 C298.213535,174.443834 299.116903,173.500781 299.97454,172.518317 C300.36994,172.063681 302.401815,169.570923 301.71866,170.476677 C303.355135,168.304839 304.882559,166.04503 306.198916,163.663469 C306.800458,162.575439 307.384411,161.476853 307.911376,160.351523 C308.17521,159.78921 308.438341,159.226193 308.681772,158.655434 C309.866563,155.489872 310.677061,152.885919 311.255386,150.227776 C311.526959,148.977879 311.777426,147.722351 311.967386,146.456267 C312.131315,145.100804 312.200264,144.447001 312.250217,143.79179 C312.606217,139.083561 312.535158,134.318327 311.946983,129.630508 C311.764058,128.514328 311.683149,128.021688 311.589576,127.531159 C311.40454,126.558548 311.208248,125.588048 310.974666,124.625992 C310.51454,122.729329 309.983353,120.846742 309.326934,119.007084 C309.120792,118.429288 307.798806,115.222204 308.620562,117.084382 C308.230791,116.199742 307.827652,115.320028 307.388632,114.458612 C306.505667,112.725224 305.547421,111.028432 304.474496,109.404128 C303.841294,108.444888 303.187689,107.496205 302.493277,106.579895 C303.678772,108.142971 301.734842,105.662881 301.397838,105.272992 C300.050524,103.715547 298.63567,102.215107 297.129352,100.809676 C296.220356,99.9609283 295.295177,99.1283671 294.338338,98.3352171 C293.918314,97.988258 293.499698,97.6405951 293.071934,97.3048963 C291.011917,95.7826395 293.750234,97.0823639 287.40548,93.4397857 C281.060725,89.7972074 285.509392,72.5617135 304.290867,88.3817831 Z" id="Fill-33" fill="#80CED7" mask="url(#mask-4)"></path>
                            </g>
                            <g id="tower" transform="translate(153.660377, 140.757642)">
                                <polyline id="Fill-124" fill="#A49F9F" points="6.32717001 17.9551025 11.3222709 43.4834163 17.6583087 33.5898532 24.8051161 43.0401746 29.7197734 16.9778115 24.8051161 43.0401746 29.7197734 16.9778115 35.5275442 51.1112392 49.8192588 54.4552381 49.8192588 46.7664536 49.8192588 38.4940887 49.8192588 32.2563178 49.8192588 28.3846198 49.8192588 24.2982862 49.8192588 15.4798067 53.6235418 7.76117639 56.7678077 13.7589109 62.8593478 0 68.902115 13.7277951 71.5130465 6.88421807 74.8162992 13.4896637 77.5456791 19.0892426 76.9794072 17.9284318 78.6433852 13.4109216 80.1445758 19.0892426 81.2435486 77.7705181 86.8568613 78.3731492 87.1032593 59.9005079 90.2848966 45.7751923 94.0074692 59.4483759 96.6063659 51.1112392 99.6391509 61.0016272 99.6391509 117.899563 5.9491836e-14 117.899563 0 45.9599822"></polyline>
                                <path d="M57.6226415,32.4825328 L57.6226415,19.5193187 C57.8227201,18.5370073 58.0227987,18.0458515 58.2228774,18.0458515 C58.422956,18.0458515 58.6230346,18.5370073 58.8231132,19.5193187 L58.8231132,32.4825328 L57.6226415,32.4825328 Z" id="Fill-125" fill="#E0DDD0"></path>
                                <path d="M60.0235849,32.4825328 L60.0235849,19.5193187 C60.2236635,18.5370073 60.4237421,18.0458515 60.6238208,18.0458515 C60.8238994,18.0458515 61.023978,18.5370073 61.2240566,19.5193187 L61.2240566,32.4825328 L60.0235849,32.4825328 Z" id="Fill-126" fill="#E0DDD0"></path>
                                <path d="M10.8042453,67.3776898 C10.8042453,65.6501046 10.9933364,63.9369963 11.3629832,62.3141967 C11.634145,60.8975216 12.2079839,59.6497445 13.0103079,58.5805168 L17.2504127,52.9344978 L21.2561234,57.7684276 C22.3729426,59.1168541 23.1647615,60.749305 23.4280445,62.5154955 C23.5462265,63.3124183 23.6112265,64.1307119 23.6184488,64.9545205 C23.6709741,70.7191128 23.6978933,64.8580074 23.6978933,65.1599557 L24.009434,117.899563 L10.878109,117.899563 L10.8042453,67.3776898 Z" id="Fill-127" fill="#E0DDD0"></path>
                                <g id="Group-17" transform="translate(56.422170, 18.045852)" fill="#E0DDD0">
                                    <path d="M8.40330189,14.4366812 L8.40330189,1.47346721 C8.6033805,0.491155737 8.80345912,2.94663924e-16 9.00353774,0 C9.20361635,0 9.40369497,0.491155737 9.60377358,1.47346721 L9.60377358,14.4366812 L8.40330189,14.4366812 Z" id="Fill-130"></path>
                                    <path d="M10.8042453,14.4366812 L10.8042453,1.47346721 C11.0043239,0.491155737 11.2044025,2.94663924e-16 11.4044811,0 C11.6045597,0 11.8046384,0.491155737 12.004717,1.47346721 L12.004717,14.4366812 L10.8042453,14.4366812 Z" id="Fill-131"></path>
                                    <polygon id="Fill-132" points="1.2004717 34.8886463 1.2004717 20.8452013 1.80070755 19.2489083 2.4009434 20.8452013 2.4009434 34.8886463"></polygon>
                                    <polygon id="Fill-133" points="3.60141509 34.8886463 3.60141509 20.8452013 4.20165094 19.2489083 4.80188679 20.8452013 4.80188679 34.8886463"></polygon>
                                    <polygon id="Fill-134" points="8.40330189 34.8886463 8.40330189 20.8452013 9.00353774 19.2489083 9.60377358 20.8452013 9.60377358 34.8886463"></polygon>
                                    <polygon id="Fill-135" points="10.8042453 34.8886463 10.8042453 20.8452013 11.4044811 19.2489083 12.004717 20.8452013 12.004717 34.8886463"></polygon>
                                </g>
                                <g id="Group-21" transform="translate(13.205189, 51.731441)" stroke="#A49F9F" stroke-width="0.6318">
                                    <path d="M3.00117925,66.1681223 L3.00117925,0" id="Stroke-136"></path>
                                    <path d="M0.600235849,66.1681223 L0.600235849,0" id="Stroke-137"></path>
                                    <path d="M5.40212264,66.1681223 L5.40212264,0" id="Stroke-138"></path>
                                    <path d="M7.80306604,66.1681223 L7.80306604,0" id="Stroke-139"></path>
                                </g>
                            </g>
                            <g id="tree" transform="translate(76.830189, 157.600437)">
                                <path d="M1.77464246,27.761179 C-0.784210997,41.5587438 5.1265785,52.9805042 21.1798095,52.9343585 C38.0838786,52.8854161 48.5045328,33.2168595 37.452089,21.9698935 C30.191087,14.5802886 32.6914805,1.91329352 22.7807657,0.11990375 C13.6258036,-1.53574809 4.27644469,14.2747481 1.77464246,27.761179" id="Fill-38" fill="#98BF0E"></path>
                                <path d="M21.4989763,72.1834061 C21.4734233,72.1834061 21.4485256,72.1819899 21.4229726,72.1784494 C21.0632656,72.1345468 20.8057703,71.7826184 20.8470482,71.3945765 C21.517322,65.1058909 20.9014301,59.2484416 20.2501572,53.0482693 C19.9965932,50.638586 19.7351668,48.1460544 19.5569513,45.6365282 C18.8218123,36.2024377 19.1435175,22.3129469 21.5199428,12.5587927 C21.6123266,12.1813724 21.9694128,11.9533624 22.3206023,12.0546215 C22.6704813,12.1544644 22.8794914,12.54109 22.7871076,12.9199265 C20.4506497,22.5105084 20.1374621,36.204562 20.8634283,45.5232313 C21.0403334,48.0122224 21.3004494,50.4913 21.552703,52.8882374 C22.1836646,58.8943889 22.8362479,65.1073071 22.149594,71.5560246 C22.1102817,71.9171584 21.8265783,72.1834061 21.4989763,72.1834061" id="Fill-40" fill="#994B40"></path>
                                <path d="M19.8973477,45.7161572 C19.8304825,45.7161572 19.7629279,45.7066331 19.6960626,45.6869045 C19.332095,45.5773771 19.1266739,45.1970924 19.2376565,44.8378969 C19.7319079,43.2364834 21.2429249,42.1310047 23.1565121,40.7309585 C25.7752865,38.8138883 29.0344509,36.4287755 31.0893513,31.6932449 C31.2389364,31.346975 31.6435746,31.1857452 31.9944449,31.33541 C32.3446259,31.4830339 32.506619,31.8830471 32.3570339,32.2279565 C30.155995,37.3022738 26.5845629,39.9159656 23.9775072,41.8235116 C22.2686517,43.0745733 20.9189386,44.0616808 20.557039,45.2338283 C20.4660471,45.5277156 20.1923821,45.7161572 19.8973477,45.7161572" id="Fill-42" fill="#994B40"></path>
                                <path d="M19.6708071,39.7008734 C19.3213346,39.7008734 19.0115917,39.4671586 18.947583,39.1351461 C18.413442,36.3560021 16.0009785,33.8958101 13.8717716,31.7243246 C13.5230349,31.3689406 13.1838627,31.0224928 12.8638195,30.6863559 C9.64867293,27.3071148 9.62586526,24.1237817 9.60526478,21.3157671 L9.60379331,21.1446054 C9.60085039,20.7651625 9.92751516,20.4551467 10.3343747,20.4523971 C10.7243123,20.4386492 11.0723133,20.7548516 11.0752563,21.1349818 L11.0767277,21.3061436 C11.0958567,23.9973008 11.1164572,26.7798817 13.963738,29.772806 C14.2786311,30.1034437 14.6126532,30.4450798 14.9569755,30.7949646 C17.1089901,32.9891341 19.7863169,35.7201603 20.3962383,38.8911203 C20.46834,39.265064 20.2020052,39.6218228 19.8017673,39.6891876 C19.7583591,39.6974364 19.7142152,39.7008734 19.6708071,39.7008734" id="Fill-44" fill="#994B40"></path>
                            </g>
                            <g id="girl" transform="translate(144.056604, 232.189956)">
                                <path d="M57.1462034,84.8311791 C57.1462034,84.8311791 55.1298486,87.0519067 52.8265402,87.0519067 C50.52393,87.0519067 49.3719268,89.8279844 51.6752351,90.1059961 C53.9785435,90.3833346 60.6008169,90.1059961 62.32952,90.1059961 C64.0568267,90.1059961 64.0568267,86.219218 62.32952,84.8311791 C60.601515,83.4424671 57.1462034,84.8311791 57.1462034,84.8311791" id="Fill-89" fill="#8F9096"></path>
                                <path d="M58.04176,85.3961135 C59.0443862,87.0558803 62.4208273,87.4826775 62.9784485,83.7320999 C63.5360698,79.9808145 70.5899446,62.5019478 67.7595219,60.0268072 C64.9297817,57.5523744 62.7457082,52.9807607 60.1596287,56.8155653 C57.8670341,60.215787 57.0404988,83.7363466 58.04176,85.3961135 Z" id="Fill-90" fill="#E4B3B1"></path>
                                <path d="M59.642017,78.19869 C55.6749884,78.19869 55.2584576,81.3147971 55.2249354,82.2698558 C55.157891,84.2050663 56.1371665,86.3592711 57.7020102,86.4832159 C58.8068156,86.5691407 60.9486687,86.6200873 63.5783764,86.6200873 C81.1810851,86.6200873 96.5955803,84.9989208 97.2382075,83.0796786 C97.2353546,82.9161933 96.9300888,81.2577673 86.3648974,79.9780191 C79.8772864,79.1917685 71.7306844,78.7971224 65.7837077,78.5096924 C63.5969206,78.4047576 61.6611932,78.3104683 60.1370041,78.2146583 C59.9672535,78.2040127 59.8024955,78.19869 59.642017,78.19869 M63.7058794,87.8231441 C61.0693216,87.8231441 58.9100839,87.7743025 57.7831568,87.6888297 C55.3457177,87.5056737 53.9349405,84.7102106 54.0253206,82.2250352 C54.1164068,79.7046651 55.809622,76.7389746 60.3815854,77.0133495 C61.8855671,77.1031318 63.7948473,77.1914777 65.9526728,77.2905974 C93.2615927,78.5504233 98.4386792,80.2907643 98.4386792,83.0625249 C98.4386792,84.417161 96.856321,85.9413061 85.1167899,86.9712892 C77.9633442,87.5997656 69.3659347,87.8231441 63.7058794,87.8231441" id="Fill-91" fill="#9AB398"></path>
                                <path d="M22.2087264,62.558952 C11.2866649,62.558952 2.4009434,71.4636516 2.4009434,82.4097366 C2.4009434,93.3551257 11.2866649,102.259825 22.2087264,102.259825 C33.130788,102.259825 42.0165094,93.3551257 42.0165094,82.4097366 C42.0165094,71.4636516 33.130788,62.558952 22.2087264,62.558952 M22.8089623,105.868996 C10.2317694,105.868996 0,95.6146481 0,83.0112685 C0,70.4064831 10.2317694,60.1528384 22.8089623,60.1528384 C35.3861551,60.1528384 45.6179245,70.4064831 45.6179245,83.0112685 C45.6179245,95.6146481 35.3854537,105.868996 22.8089623,105.868996" id="Fill-92" fill="#858279"></path>
                                <path d="M57.6226415,80.6048035 C56.2979831,80.6048035 55.2216981,81.6852783 55.2216981,83.0105798 C55.2216981,84.3379047 56.2986562,85.4170306 57.6226415,85.4170306 C58.9472999,85.4170306 60.0235849,84.3372302 60.0235849,83.0105798 C60.0235849,81.6846039 58.9466268,80.6048035 57.6226415,80.6048035 M58.2228774,89.0262009 C55.2437499,89.0262009 52.8207547,86.5967177 52.8207547,83.6120877 C52.8207547,80.6274577 55.2444638,78.19869 58.2228774,78.19869 C61.2020049,78.19869 63.625,80.6274577 63.625,83.6120877 C63.625,86.5967177 61.2020049,89.0262009 58.2228774,89.0262009" id="Fill-95" fill="#858279"></path>
                                <path d="M93.0362093,62.558952 C82.1143393,62.558952 73.2287736,71.4636516 73.2287736,82.4097366 C73.2287736,93.3551257 82.1143393,102.259825 93.0362093,102.259825 C103.959468,102.259825 112.84434,93.3551257 112.84434,82.4097366 C112.84434,71.4636516 103.958774,62.558952 93.0362093,62.558952 M93.6364418,105.868996 C81.0594423,105.868996 70.8278302,95.6146481 70.8278302,83.0112685 C70.8278302,70.4064831 81.0594423,60.1528384 93.6364418,60.1528384 C106.214143,60.1528384 116.445755,70.4064831 116.445755,83.0112685 C116.445755,95.6146481 106.213441,105.868996 93.6364418,105.868996" id="Fill-96" fill="#858279"></path>
                                <path d="M22.9919205,84.2139738 C22.8265682,84.2139738 22.6591403,84.1839612 22.4958636,84.1204462 C21.7825655,83.8440512 21.4269542,83.0358051 21.7009271,82.3162008 L35.2618928,46.723361 C34.0767525,46.2696823 32.9296641,45.9932873 32.563675,46.1112437 C31.8538362,46.3946184 31.0519812,46.0470307 30.7683225,45.3323123 C30.4846637,44.6161979 30.8326646,43.803066 31.5425034,43.5155035 C33.393204,42.7735643 36.6725764,44.2441813 37.6342489,44.7146113 C38.2818211,45.0300925 38.5807006,45.7943666 38.3226403,46.4720928 L24.2836058,83.3184818 C24.0725913,83.8733658 23.5481685,84.2139738 22.9919205,84.2139738" id="Fill-97" fill="#9AB398"></path>
                                <path d="M59.0064499,84.2139738 C58.841789,84.2139738 58.6743607,84.1839146 58.5096998,84.1203011 C57.7963999,83.8434773 57.4407877,83.0339774 57.7154531,82.3132568 L71.7538323,45.4097073 C72.027114,44.6889868 72.8289711,44.329675 73.542271,44.6064989 C74.2548791,44.8826236 74.6111831,45.6928226 74.3365177,46.4135431 L60.2981385,83.3170926 C60.0871235,83.8728374 59.5626993,84.2139738 59.0064499,84.2139738" id="Fill-98" fill="#9AB398"></path>
                                <path d="M58.8744214,80.6048035 L91.2358491,80.6048035 L70.2514913,54.1375546 L38.4150943,54.1375546 L58.8744214,80.6048035 Z M93.4351672,84.2139738 L93.4204451,84.2139738 L57.5681242,84.2139738 C57.131371,84.2139738 56.7198556,84.0094949 56.4541582,83.6604705 L33.9014282,53.9976315 C33.5782449,53.5724564 33.5214599,52.9978001 33.7584143,52.5169221 C33.9953687,52.0346339 34.4825974,51.731441 35.0160953,51.731441 L70.2900512,51.731441 C70.720495,51.731441 71.1278042,51.9302792 71.3928005,52.2715474 L94.4208413,81.8018277 C94.6774251,82.0570738 94.8372642,82.411739 94.8372642,82.8044795 C94.8372642,83.5822045 94.2098258,84.2139738 93.4351672,84.2139738 Z" id="Fill-99" fill="#9AB398"></path>
                                <path d="M55.9452644,74.0036682 C55.9452644,74.0036682 53.9296795,76.2243958 51.6264532,76.2243958 C49.3239251,76.2243958 48.1712647,79.0004735 50.474491,79.2784852 C52.7784154,79.5558237 59.4004529,79.2784852 61.1290944,79.2784852 C62.8563396,79.2784852 62.8563396,75.3917071 61.1290944,74.0036682 C59.4004529,72.6149562 55.9452644,74.0036682 55.9452644,74.0036682" id="Fill-100" fill="#8F9096"></path>
                                <path d="M44.4218982,52.1484958 C44.1713821,56.2459514 54.5855969,74.6809994 56.2782918,75.5467182 C57.9723557,76.4138379 61.0771127,74.9688719 59.6657351,71.503195 C58.2543574,68.0368176 56.2782918,50.9928032 52.6081624,50.4142565 C48.9394019,49.8364102 44.7045845,47.5257254 44.4218982,52.1484958" id="Fill-101" fill="#F7C1BE"></path>
                                <path d="M43.2364594,54.3448133 C43.8227659,62.0145981 78.7012535,64.9650655 78.7012535,64.9650655 C78.7012535,64.9650655 81.6320755,46.2716192 81.6320755,41.2111206 C81.6320755,36.1506219 65.113866,36.8522967 60.5591525,38.5696476 C52.3935015,41.6510084 42.7247737,47.6463582 43.2364594,54.3448133" id="Fill-102" fill="#DA6F77"></path>
                                <path d="M61.2240566,81.2059224 C61.2240566,80.2092443 60.6719139,79.4017467 59.9901728,79.4017467 L52.8555168,79.4017467 C52.1737757,79.4017467 51.620283,80.2092443 51.620283,81.2059224 C51.620283,82.2034194 52.1737757,83.010917 52.8555168,83.010917 L59.9901728,83.010917 C60.6719139,83.010917 61.2240566,82.2034194 61.2240566,81.2059224" id="Fill-103" fill="#9AB398"></path>
                                <path d="M62.4245283,93.2364901 C62.4245283,92.239812 61.8717494,91.4323144 61.1900563,91.4323144 L54.0559016,91.4323144 C53.3742085,91.4323144 52.8207547,92.239812 52.8207547,93.2364901 C52.8207547,94.2339871 53.3742085,95.0414847 54.0559016,95.0414847 L61.1900563,95.0414847 C61.8717494,95.0414847 62.4245283,94.2339871 62.4245283,93.2364901" id="Fill-104" fill="#9AB398"></path>
                                <path d="M36.3306069,44.9142496 C38.6264325,43.2414231 35.9826907,40.3134834 33.7149228,41.008795 C31.4471548,41.7027911 30.0688177,42.1948376 30.0120007,44.1505251 C29.9783314,45.3010455 34.0347812,46.5870762 36.3306069,44.9142496 Z" id="Fill-105" fill="#F7C1BE"></path>
                                <path d="M33.6132075,40.1905758 C41.1578733,37.9660579 48.2674749,33.9898362 51.2802228,30.6509765 C54.1131157,27.5120734 64.8624694,14.2989646 67.6548417,15.7507333 C73.9071111,19.0007234 63.6838153,29.7227054 59.3189564,33.9016609 C54.9540975,38.0806164 35.5510912,45.1471405 34.6084522,44.4674267 C33.6658133,43.7877129 33.6132075,40.1905758 33.6132075,40.1905758" id="Fill-106" fill="#E9F1F7"></path>
                                <path d="M64.0496492,31.0202567 C62.9005152,36.9473966 61.7513812,39.6145736 62.9005152,40.2066409 C68.8796359,43.2891272 80.4316038,42.1258299 80.4316038,40.2066409 C80.4316038,35.3824419 80.1451913,22.722692 77.8448327,18.2771575 C75.5465646,13.8323414 70.3737192,13.5355893 65.4872863,15.9067326 C61.9980722,17.5995853 65.200177,25.0931168 64.0496492,31.0202567 Z" id="Fill-107" fill="#E9F1F7"></path>
                                <path d="M64.1302147,4.1331694 C61.0316225,5.60067356 62.3034945,16.1004106 66.7408993,15.0125449 C68.5489865,14.5696333 70.2445859,17.6534772 71.1155042,16.6353557 C72.3818554,15.1541903 72.2617763,9.33090951 71.1789943,7.39676635 C69.351584,4.1331694 67.0017608,2.77207906 64.1302147,4.1331694" id="Fill-108" fill="#F7C1BE"></path>
                                <path d="M61.2271817,6.39592911 C62.9776608,6.39592911 65.9420653,6.22269236 66.9422359,7.67942405 C67.9424065,9.13545438 69.1924392,16.9072618 73.6942901,17.8793514 C78.1946967,18.8507396 78.1946967,15.4505301 77.9441125,10.8369619 C77.6942504,6.22269236 72.8053298,-0.457793633 68.8356997,0.0247443579 C60.835057,0.995431246 61.2271817,6.39592911 61.2271817,6.39592911" id="Fill-109" fill="#000000"></path>
                                <path d="M22.8089623,79.4017467 C24.7977817,79.4017467 26.4103774,81.0179782 26.4103774,83.0112817 C26.4103774,85.0053146 24.7977817,86.6200873 22.8089623,86.6200873 C20.8201428,86.6200873 19.2075472,85.0053146 19.2075472,83.0112817 C19.2075472,81.0179782 20.8201428,79.4017467 22.8089623,79.4017467" id="Fill-93" fill="#9AB398"></path>
                                <path d="M93.6367925,79.4017467 C95.6256119,79.4017467 97.2382075,81.0179782 97.2382075,83.0112817 C97.2382075,85.0053146 95.6256119,86.6200873 93.6367925,86.6200873 C91.647973,86.6200873 90.0353774,85.0053146 90.0353774,83.0112817 C90.0353774,81.0179782 91.647973,79.4017467 93.6367925,79.4017467" id="Fill-94" fill="#9AB398"></path>
                            </g>
                        </g>
                    </g>
                </g>
                <g id="Group-16" transform="translate(376.948113, 289.936681)">
                    <path d="M0.844577782,41.6408008 C-2.91912445,62.3376954 5.77411483,79.4706854 29.3813988,79.4015382 C54.2402304,79.3267463 69.5647214,49.8248693 53.3113255,32.9543565 C42.6334494,21.8710435 46.3086513,2.86896162 31.7353677,0.179981104 C18.2721707,-2.30438006 4.52326397,21.4110028 0.844577782,41.6408008" id="Fill-46" fill="#98BF0E"></path>
                    <g id="Group-50" transform="translate(26.410377, 16.842795)">
                        <mask id="mask-6" fill="white">
                            <use xlink:href="#path-5"></use>
                        </mask>
                        <g id="Clip-49"></g>
                        <path d="M3.14261812,107.072052 C3.11726832,107.072052 3.09191853,107.070651 3.06590164,107.066446 C2.69966384,107.023693 2.43682652,106.675366 2.47952091,106.291296 C3.79704303,94.2666602 1.82776439,67.7791014 0.769744089,53.5488631 L0.528253958,50.2744505 C-0.582467228,36.4219752 -0.0974856651,16.0346918 3.48951002,1.72455565 C3.58357109,1.35029702 3.94847469,1.12812476 4.30403889,1.226245 C4.66027019,1.32436524 4.87374213,1.7084359 4.77968105,2.08199367 C1.23337846,16.2316332 0.757069193,36.4247786 1.85711678,50.1630139 L2.09994111,53.4409308 C3.16129691,67.7181266 5.13724655,94.2939937 3.80371403,106.451792 C3.76568934,106.808529 3.47683512,107.072052 3.14261812,107.072052" id="Fill-48" fill="#994B40" mask="url(#mask-6)"></path>
                    </g>
                    <path d="M28.3094749,68.5742358 C28.2410248,68.5742358 28.1739717,68.5643185 28.1062202,68.5437755 C27.7374281,68.4297264 27.5292841,68.0337424 27.6410393,67.6597182 C28.35278,65.2901895 30.5892801,63.6084971 33.4187811,61.479109 C37.3972648,58.4869149 42.34732,54.7643818 45.4785599,47.3490675 C45.6308263,46.9892108 46.0429235,46.8220333 46.3949522,46.9771684 C46.7490764,47.1308867 46.9139153,47.5467053 46.7616488,47.906562 C43.4830318,55.6739408 38.1474214,59.6869094 34.2513571,62.6174745 C31.6272062,64.5910191 29.5534495,66.1501619 28.9772119,68.0719949 C28.8857124,68.3780147 28.6091184,68.5742358 28.3094749,68.5742358" id="Fill-51" fill="#994B40"></path>
                    <path d="M28.1196411,58.9497817 C27.7908318,58.9497817 27.500706,58.7082706 27.4406085,58.3651827 C26.6779921,53.9995144 23.2766125,50.181508 20.2758828,46.8117179 C19.788886,46.2661869 19.3163954,45.7348625 18.8715358,45.2198756 C14.4692222,40.1282533 14.4360649,35.3086862 14.4077431,31.0573805 L14.4056708,30.7924286 C14.4035985,30.3996179 14.7103029,30.0785502 15.0916111,30.0764192 L15.0964465,30.0764192 C15.4763732,30.0764192 15.7851499,30.391094 15.7872222,30.7810634 L15.7892946,31.0474359 C15.8169256,35.2440464 15.8459382,39.584143 19.9028639,44.2765616 C20.3456512,44.7879969 20.8126156,45.3122181 21.294777,45.853487 C24.4212279,49.3632116 27.9676704,53.3431725 28.8000551,58.1144374 C28.8684419,58.5008551 28.6183811,58.8695147 28.2425991,58.9391268 C28.2011526,58.94623 28.1603968,58.9497817 28.1196411,58.9497817" id="Fill-53" fill="#994B40"></path>
                </g>
            </g>
        </g>
    </g>
</svg>