<?xml version="1.0" encoding="UTF-8"?>
<svg width="21px" height="20px" viewBox="0 0 21 20" version="1.1" xmlns="http://www.w3.org/2000/svg" xmlns:xlink="http://www.w3.org/1999/xlink">
    <!-- Generator: Sketch 50.2 (55047) - http://www.bohemiancoding.com/sketch -->
    <title>Group 17</title>
    <desc>Created with Sketch.</desc>
    <defs></defs>
    <g id="Rondleidingen-&amp;-dag" stroke="none" stroke-width="1" fill="none" fill-rule="evenodd">
        <g id="Business-data" transform="translate(-196.000000, -981.000000)" fill="#17232C">
            <g id="Group-16" transform="translate(165.000000, 100.000000)">
                <g id="Group-2" transform="translate(0.000000, 50.000000)">
                    <g id="contact-person" transform="translate(30.000000, 830.000000)">
                        <g id="Group-11-Copy">
                            <g id="Group-17" transform="translate(1.000000, 1.000000)">
                                <path d="M10.4999762,0.609271374 C12.2447639,0.609271374 13.8593431,1.04546845 15.3437146,1.917862 C16.8280861,2.79025556 18.0064689,3.96863837 18.8788624,5.45300983 C19.751256,6.93738129 20.1874531,8.55196057 20.1874531,10.2967483 C20.1874531,12.041536 19.751256,13.6561153 18.8788624,15.1404867 C18.0064689,16.6248582 16.8280861,17.803241 15.3437146,18.6756346 C13.8593431,19.5480281 12.2447639,19.9842252 10.4999762,19.9842252 C8.75518845,19.9842252 7.14060917,19.5480281 5.65623771,18.6756346 C4.17186625,17.803241 2.99348344,16.6248582 2.12108989,15.1404867 C1.24869633,13.6561153 0.812499255,12.041536 0.812499255,10.2967483 C0.812499255,8.55196057 1.24869633,6.93738129 2.12108989,5.45300983 C2.99348344,3.96863837 4.17186625,2.79025556 5.65623771,1.917862 C7.14060917,1.04546845 8.75518845,0.609271374 10.4999762,0.609271374 Z M10.4999762,2.4842669 C9.09372951,2.4842669 7.79164948,2.83582857 6.59373547,3.53895189 C5.39582146,4.24207521 4.44530309,5.19259358 3.74217977,6.39050759 C3.03905645,7.5884216 2.68749478,8.89050163 2.68749478,10.2967483 C2.68749478,11.6248701 2.99999404,12.8618465 3.62499255,14.0076769 C3.88540879,13.486845 4.24348046,13.0311168 4.69920874,12.6404927 C5.15493702,12.2498686 5.66925831,11.9764318 6.24217381,11.8201821 C5.72134192,10.986851 5.46092567,10.0623738 5.46092567,9.04675126 C5.46092567,8.1352953 5.68227951,7.28894295 6.12498659,6.50769481 C6.56769367,5.72644667 7.17967157,5.10795876 7.96091971,4.65223049 C8.74216785,4.19650221 9.5885202,3.97514896 10.4999762,3.98816957 C11.4114321,4.00119017 12.2577845,4.22905461 13.0390326,4.67176169 C13.8202807,5.11446877 14.4387687,5.72644667 14.8944969,6.50769481 C15.3502252,7.28894295 15.5780891,8.1352953 15.5780891,9.04675126 C15.5780891,10.0623738 15.3046522,10.986851 14.7577785,11.8201821 C15.330694,11.9764318 15.8450153,12.2498686 16.3007436,12.6404927 C16.7564719,13.0311168 17.1145435,13.486845 17.3749598,14.0076769 C17.9999583,12.8618465 18.3124575,11.6248701 18.3124575,10.2967483 C18.3124575,8.89050163 17.9608959,7.5884216 17.2577725,6.39050759 C16.5546492,5.19259358 15.6041309,4.24207521 14.4062168,3.53895189 C13.2083028,2.83582857 11.9062228,2.4842669 10.4999762,2.4842669 Z M7.37498361,9.04675126 C7.37498361,9.90612421 7.68097226,10.6417993 8.29295017,11.2537772 C8.90492808,11.8657552 9.64060321,12.1717438 10.4999762,12.1717438 C11.3593491,12.1717438 12.0950242,11.8657552 12.7070021,11.2537772 C13.3189801,10.6417993 13.6249687,9.90612421 13.6249687,9.04675126 C13.6249687,8.18737831 13.3189801,7.45170318 12.7070021,6.83972527 C12.0950242,6.22774736 11.3593491,5.92175871 10.4999762,5.92175871 C9.64060321,5.92175871 8.90492808,6.22774736 8.29295017,6.83972527 C7.68097226,7.45170318 7.37498361,8.18737831 7.37498361,9.04675126 Z M5.0312392,15.8826725 C6.02081997,16.846212 7.17967157,17.5037623 8.50779341,17.855324 C9.83591524,18.2068857 11.1640371,18.2068857 12.4921589,17.855324 C13.8202807,17.5037623 14.9791323,16.846212 15.9687131,15.8826725 C15.9426713,15.2055909 15.6887657,14.639186 15.2069962,14.1834578 C14.7252267,13.7277295 14.1458006,13.4998656 13.4687191,13.4998656 L12.9218454,13.4998656 C12.166639,13.9165315 11.3593491,14.1248642 10.4999762,14.1248642 C9.64060321,14.1248642 8.83331327,13.9165315 8.07810693,13.4998656 L7.53123324,13.4998656 C6.85415172,13.4998656 6.27472562,13.7277295 5.79295613,14.1834578 C5.31118664,14.639186 5.057281,15.2055909 5.0312392,15.8826725 Z" id=""></path>
                            </g>
                        </g>
                    </g>
                </g>
            </g>
        </g>
    </g>
</svg>