<?xml version="1.0" encoding="UTF-8"?>
<svg width="21px" height="15px" viewBox="0 0 21 15" version="1.1" xmlns="http://www.w3.org/2000/svg" xmlns:xlink="http://www.w3.org/1999/xlink">
    <!-- Generator: Sketch 50.2 (55047) - http://www.bohemiancoding.com/sketch -->
    <title>preview</title>
    <desc>Created with Sketch.</desc>
    <defs></defs>
    <g id="Rondleidingen-&amp;-dag" stroke="none" stroke-width="1" fill="none" fill-rule="evenodd" stroke-linecap="round" stroke-linejoin="round">
        <g id="Log-in" transform="translate(-586.000000, -437.000000)" stroke="#7C8B99">
            <g id="Group-10" transform="translate(165.000000, 150.000000)">
                <g id="Group" transform="translate(95.000000, 46.000000)">
                    <g id="preview" transform="translate(326.000000, 238.000000)">
                        <g id="Icon" transform="translate(1.000000, 4.000000)">
                            <path d="M19,6.5 C19,8.00041667 14.7471667,13 9.5,13 C4.25283333,13 0,8.00041667 0,6.5 C0,4.99958333 4.25283333,0 9.5,0 C14.7471667,0 19,4.99958333 19,6.5 L19,6.5 Z M12,6.5 C12,8.43316667 10.657,10 9,10 C7.343,10 6,8.43316667 6,6.5 C6,4.56683333 7.343,3 9,3 C10.657,3 12,4.56683333 12,6.5 L12,6.5 Z" id="Line-68"></path>
                        </g>
                    </g>
                </g>
            </g>
        </g>
    </g>
</svg>