<?xml version="1.0" encoding="UTF-8"?>
<svg width="16px" height="16px" viewBox="0 0 16 16" version="1.1" xmlns="http://www.w3.org/2000/svg" xmlns:xlink="http://www.w3.org/1999/xlink">
    <!-- Generator: Sketch 50.2 (55047) - http://www.bohemiancoding.com/sketch -->
    <title>Printer</title>
    <desc>Created with Sketch.</desc>
    <defs></defs>
    <g id="Designs" stroke="none" stroke-width="1" fill="none" fill-rule="evenodd">
        <g id="Reservatie-details" transform="translate(-732.000000, -210.000000)" fill="#2E353B" fill-rule="nonzero">
            <g id="Group-4">
                <g id="Group-14" transform="translate(732.000000, 205.000000)">
                    <g id="Group-10">
                        <g id="Printer" transform="translate(0.000000, 5.000000)">
                            <g id="Layer_1">
                                <path d="M15,5 L14,5 L14,1 C14,0.44771525 13.5522847,3.38176876e-17 13,0 L3,0 C2.44771525,-3.38176876e-17 2,0.44771525 2,1 L2,5 L1,5 C0.44771525,5 6.76353751e-17,5.44771525 0,6 L0,11 C6.76353751e-17,11.5522847 0.44771525,12 1,12 L2,12 L2,15 C2,15.5522847 2.44771525,16 3,16 L13,16 C13.5522847,16 14,15.5522847 14,15 L14,12 L15,12 C15.5522847,12 16,11.5522847 16,11 L16,6 C16,5.44771525 15.5522847,5 15,5 Z M3,10 L13,10 L13,15 L3,15 L3,10 Z M11,7.5 C11,7.22385763 11.2238576,7 11.5,7 C11.7761424,7 12,7.22385763 12,7.5 C12,7.77614237 11.7761424,8 11.5,8 C11.2238576,8 11,7.77614237 11,7.5 Z M2.5,8 C2.22385763,8 2,7.77614237 2,7.5 C2,7.22385763 2.22385763,7 2.5,7 C2.77614237,7 3,7.22385763 3,7.5 C3,7.77614237 2.77614237,8 2.5,8 Z M13.5,8 C13.2238576,8 13,7.77614237 13,7.5 C13,7.22385763 13.2238576,7 13.5,7 C13.7761424,7 14,7.22385763 14,7.5 C14,7.77614237 13.7761424,8 13.5,8 Z M3,1 L13,1 L13,5 L3,5 L3,1 Z M12,11.5 C12,11.2238576 11.7761424,11 11.5,11 L4.5,11 C4.22385763,11 4,11.2238576 4,11.5 C4,11.7761424 4.22385763,12 4.5,12 L11.5,12 C11.7761424,12 12,11.7761424 12,11.5 Z M11.5,13 L4.5,13 C4.22385763,13 4,13.2238576 4,13.5 C4,13.7761424 4.22385763,14 4.5,14 L11.5,14 C11.7761424,14 12,13.7761424 12,13.5 C12,13.2238576 11.7761424,13 11.5,13 Z" id="Shape"></path>
                            </g>
                        </g>
                    </g>
                </g>
            </g>
        </g>
    </g>
</svg>