<?xml version="1.0" encoding="UTF-8"?>
<svg width="24px" height="24px" viewBox="0 0 24 24" version="1.1" xmlns="http://www.w3.org/2000/svg" xmlns:xlink="http://www.w3.org/1999/xlink">
    <!-- Generator: Sketch 49.3 (51167) - http://www.bohemiancoding.com/sketch -->
    <title>twitter15</title>
    <desc>Created with Sketch.</desc>
    <defs></defs>
    <g id="Rondleidingen-&amp;-dag" stroke="none" stroke-width="1" fill="none" fill-rule="evenodd">
        <g id="Detail-Page" transform="translate(-233.000000, -1675.000000)" fill="#000000">
            <g id="Group-11" transform="translate(165.000000, 1638.000000)">
                <g id="Group-2-Copy" transform="translate(0.000000, 37.000000)">
                    <g id="twitter15" transform="translate(68.000000, 0.000000)">
                        <path d="M0,2 L0,22 C1.3527075e-16,23.1045695 0.8954305,24 2,24 L22,24 C23.1045695,24 24,23.1045695 24,22 L24,2 C24,0.8954305 23.1045695,-7.30833348e-15 22,-7.10542736e-15 L2,-7.10542736e-15 C0.8954305,-6.90252123e-15 -1.3527075e-16,0.8954305 0,2 Z M18.316,9.25333333 C18.3264762,9.34647619 18.331619,9.48590476 18.331619,9.67238095 C18.331619,10.5415238 18.2047619,11.4131429 17.9514286,12.2872381 C17.6980952,13.1615238 17.3100952,13.9994286 16.787619,14.8013333 C16.2653333,15.6030476 15.6419048,16.3118095 14.9179048,16.9272381 C14.1935238,17.5426667 13.3247619,18.0342857 12.3106667,18.4013333 C11.2969524,18.7689524 10.2104762,18.9525714 9.05180952,18.9525714 C7.25180952,18.9525714 5.58609524,18.4660952 4.05485714,17.4939048 C4.3032381,17.5247619 4.56190476,17.540381 4.83085714,17.540381 C6.33104762,17.540381 7.68114286,17.0748571 8.88133333,16.143619 C8.17790476,16.1333333 7.54933333,15.916381 6.99580952,15.4918095 C6.44228571,15.067619 6.05695238,14.5297143 5.83961905,13.8779048 C6.10857143,13.9192381 6.31028571,13.939619 6.4447619,13.939619 C6.67238095,13.939619 6.93619048,13.8984762 7.23619048,13.8158095 C6.48095238,13.6706667 5.8447619,13.296 5.32742857,12.6906667 C4.81009524,12.0855238 4.55142857,11.3948571 4.55142857,10.6190476 L4.55142857,10.588 C5.09961905,10.8464762 5.61695238,10.9809524 6.1032381,10.9914286 C5.16171429,10.3601905 4.69104762,9.45504762 4.69104762,8.27561905 C4.69104762,7.69619048 4.84095238,7.148 5.14095238,6.63066667 C5.95828571,7.63428571 6.95161905,8.436 8.12057143,9.036 C9.28952381,9.636 10.5415238,9.97238095 11.876,10.0447619 C11.824381,9.84819048 11.7984762,9.59980952 11.7984762,9.29980952 C11.7984762,8.39961905 12.1165714,7.63161905 12.7527619,6.9952381 C13.3891429,6.35904762 14.1573333,6.0407619 15.0573333,6.0407619 C16.0093333,6.0407619 16.8007619,6.38228571 17.4318095,7.06514286 C18.1457143,6.93066667 18.8392381,6.66666667 19.5114286,6.27371429 C19.2529524,7.07009524 18.771619,7.67542857 18.068381,8.08933333 C18.7405714,7.996 19.3664762,7.82019048 19.9457143,7.56152381 C19.5112381,8.22380952 18.9678095,8.78761905 18.316,9.25333333 L18.316,9.25333333 Z" id="Shape" fill="#A8D5E3"></path>
                    </g>
                </g>
            </g>
        </g>
    </g>
</svg>