<?xml version="1.0" encoding="UTF-8"?>
<svg width="13px" height="14px" viewBox="0 0 13 14" version="1.1" xmlns="http://www.w3.org/2000/svg" xmlns:xlink="http://www.w3.org/1999/xlink">
    <!-- Generator: Sketch 49.3 (51167) - http://www.bohemiancoding.com/sketch -->
    <title>user</title>
    <desc>Created with Sketch.</desc>
    <defs></defs>
    <g id="Symbols" stroke="none" stroke-width="1" fill="none" fill-rule="evenodd">
        <g id="Nav" transform="translate(-1129.000000, -31.000000)" fill="#6D8494">
            <g id="Group-7" transform="translate(1129.000000, 31.000000)">
                <g id="user">
                    <path d="M6.4999845,0.828151636 C7.63409651,0.828151636 8.68357305,1.11167973 9.6484145,1.67873555 C10.6132559,2.24579136 11.3792048,3.01174018 11.9462606,3.97658163 C12.5133164,4.94142308 12.7968445,5.99089961 12.7968445,7.12501162 C12.7968445,8.25912363 12.5133164,9.30860017 11.9462606,10.2734416 C11.3792048,11.2382831 10.6132559,12.0042319 9.6484145,12.5712877 C8.68357305,13.1383435 7.63409651,13.4218716 6.4999845,13.4218716 C5.36587249,13.4218716 4.31639596,13.1383435 3.35155451,12.5712877 C2.38671306,12.0042319 1.62076424,11.2382831 1.05370843,10.2734416 C0.486652615,9.30860017 0.203124516,8.25912363 0.203124516,7.12501162 C0.203124516,5.99089961 0.486652615,4.94142308 1.05370843,3.97658163 C1.62076424,3.01174018 2.38671306,2.24579136 3.35155451,1.67873555 C4.31639596,1.11167973 5.36587249,0.828151636 6.4999845,0.828151636 Z M6.4999845,2.04689873 C5.58592418,2.04689873 4.73957216,2.27541381 3.96092806,2.73244397 C3.18228395,3.18947413 2.56444701,3.80731107 2.10741685,4.58595518 C1.65038669,5.36459928 1.42187161,6.2109513 1.42187161,7.12501162 C1.42187161,7.98829081 1.62499613,8.79232549 2.03124516,9.53711525 C2.20051572,9.19857452 2.4332623,8.90235114 2.72948568,8.64844549 C3.02570906,8.39453985 3.3600179,8.21680589 3.73241298,8.11524364 C3.39387225,7.57357839 3.22460169,6.97266824 3.22460169,6.31251356 C3.22460169,5.72006719 3.36848168,5.16993816 3.65624128,4.66212687 C3.94400088,4.15431558 4.34178652,3.75229844 4.84959781,3.45607506 C5.3574091,3.15985168 5.90753813,3.01597207 6.4999845,3.02443546 C7.09243088,3.03289885 7.6425599,3.18101074 8.15037119,3.46877034 C8.65818248,3.75652994 9.06019962,4.15431558 9.356423,4.66212687 C9.65264639,5.16993816 9.80075788,5.72006719 9.80075788,6.31251356 C9.80075788,6.97266824 9.62302393,7.57357839 9.26755603,8.11524364 C9.6399511,8.21680589 9.97425994,8.39453985 10.2704833,8.64844549 C10.5667067,8.90235114 10.7994533,9.19857452 10.9687238,9.53711525 C11.3749729,8.79232549 11.5780974,7.98829081 11.5780974,7.12501162 C11.5780974,6.2109513 11.3495823,5.36459928 10.8925522,4.58595518 C10.435522,3.80731107 9.81768506,3.18947413 9.03904095,2.73244397 C8.26039684,2.27541381 7.41404482,2.04689873 6.4999845,2.04689873 Z M4.46873935,6.31251356 C4.46873935,6.87110598 4.66763197,7.34929481 5.06541761,7.74708045 C5.46320325,8.14486609 5.94139208,8.34375872 6.4999845,8.34375872 C7.05857692,8.34375872 7.53676576,8.14486609 7.9345514,7.74708045 C8.33233703,7.34929481 8.53122966,6.87110598 8.53122966,6.31251356 C8.53122966,5.75392114 8.33233703,5.27573231 7.9345514,4.87794667 C7.53676576,4.48016103 7.05857692,4.2812684 6.4999845,4.2812684 C5.94139208,4.2812684 5.46320325,4.48016103 5.06541761,4.87794667 C4.66763197,5.27573231 4.46873935,5.75392114 4.46873935,6.31251356 Z M2.94530548,10.7558623 C3.58853298,11.3821631 4.34178652,11.8095708 5.20506572,12.0380858 C6.06834491,12.2666009 6.9316241,12.2666009 7.79490329,12.0380858 C8.65818248,11.8095708 9.41143602,11.3821631 10.0546635,10.7558623 C10.0377364,10.3157594 9.87269769,9.94759617 9.55954752,9.65137279 C9.24639735,9.35514941 8.86977039,9.20703791 8.4296674,9.20703791 L8.0741995,9.20703791 C7.58331538,9.47787073 7.05857692,9.61328694 6.4999845,9.61328694 C5.94139208,9.61328694 5.41665362,9.47787073 4.92576951,9.20703791 L4.5703016,9.20703791 C4.13019862,9.20703791 3.75357165,9.35514941 3.44042148,9.65137279 C3.12727132,9.94759617 2.96223265,10.3157594 2.94530548,10.7558623 Z" id=""></path>
                </g>
            </g>
        </g>
    </g>
</svg>