<?xml version="1.0" encoding="UTF-8"?>
<svg width="23px" height="20px" viewBox="0 0 23 20" version="1.1" xmlns="http://www.w3.org/2000/svg" xmlns:xlink="http://www.w3.org/1999/xlink">
    <!-- Generator: Sketch 50.2 (55047) - http://www.bohemiancoding.com/sketch -->
    <title>sketchy_pay</title>
    <desc>Created with Sketch.</desc>
    <defs></defs>
    <g id="Rondleidingen-&amp;-dag" stroke="none" stroke-width="1" fill="none" fill-rule="evenodd">
        <g id="Business-data" transform="translate(-195.000000, -181.000000)" fill="#111918" fill-rule="nonzero">
            <g id="Group-16" transform="translate(165.000000, 100.000000)">
                <g id="Group-2" transform="translate(0.000000, 50.000000)">
                    <g id="Group-11" transform="translate(30.000000, 31.000000)">
                        <g id="sketchy_pay">
                            <path d="M22.0782963,9.96 C22.0348519,9.645 21.8465926,9.37916667 21.574,9.20833333 C21.3934074,9.095 21.1693704,9.09416667 20.9802593,9.17333333 C20.9777037,8.49333333 20.9802593,7.81333333 20.9623704,7.13416667 C20.9444815,6.37166667 20.9870741,5.61 21.016037,4.84916667 C21.0262593,4.59833333 20.8618519,4.38166667 20.6412222,4.275 C20.6216296,3.98833333 20.6011852,3.70166667 20.5756296,3.41583333 C20.5594444,3.245 20.544963,3.07416667 20.5202593,2.905 C20.5151481,2.87166667 20.5108889,2.83833333 20.5057778,2.805 C20.493,2.71666667 20.4521111,2.56416667 20.401,2.49666667 C20.3268889,2.40166667 20.2638519,2.29583333 20.1488519,2.24166667 C20.0645185,2.2025 19.9835926,2.16416667 19.8915926,2.15166667 C19.8021481,2.13833333 19.7101481,2.13833333 19.6198519,2.12833333 C19.6002593,1.8475 19.5849259,1.56666667 19.5721481,1.28583333 C19.6045185,1.21333333 19.6224074,1.135 19.6224074,1.05333333 C19.6224074,0.724166667 19.3421481,0.455 19.0090741,0.451666667 C18.3233333,0.446666667 17.6375926,0.456666667 16.9518519,0.428333333 C16.3351111,0.403333333 15.7192222,0.368333333 15.0999259,0.355833333 C13.7991481,0.3325 12.4958148,0.341666667 11.1933333,0.3325 C9.91555556,0.324166667 8.63948148,0.299166667 7.35914815,0.295833333 C6.73474074,0.295 6.11033333,0.283333333 5.48677778,0.283333333 C4.88537037,0.283333333 4.28311111,0.294166667 3.68255556,0.335 C3.01981481,0.380833333 2.34855556,0.529166667 1.73862963,0.789166667 C1.14318519,1.04083333 0.608222222,1.5425 0.42337037,2.16083333 C0.373111111,2.33 0.347555556,2.5025 0.324555556,2.67833333 C0.304962963,2.82083333 0.287925926,2.96666667 0.304962963,3.11 C0.326259259,3.28916667 0.356074074,3.4625 0.40462963,3.63416667 C0.204444444,3.73333333 0.0638888889,3.93333333 0.0613333333,4.16416667 C0.0528148148,4.82916667 0.0562222222,5.49333333 0.0434444444,6.15666667 C0.0323703704,6.76 0.0178888889,7.3625 0.0110740741,7.96416667 C3.11802992e-16,9.1825 -0.00681481481,10.3991667 0.0110740741,11.6183333 C0.0238518519,12.465 0.0434444444,13.3116667 0.0468518519,14.1583333 C0.051962963,15.0083333 0.063037037,15.8591667 0.0434444444,16.7108333 C0.0408888889,16.8166667 0.0792222222,16.9116667 0.132037037,16.9983333 C0.260666667,17.3233333 0.395259259,17.65 0.569888889,17.9533333 C0.641444444,18.0766667 0.731740741,18.1908333 0.81862963,18.305 C0.899555556,18.4091667 0.982185185,18.5125 1.06481481,18.615 C1.19088889,18.7716667 1.38,18.895 1.54866667,19.0008333 C1.92518519,19.2416667 2.36388889,19.395 2.806,19.4708333 C3.18933333,19.5358333 3.57607407,19.5991667 3.96451852,19.6225 C4.66985185,19.6633333 5.37859259,19.6683333 6.08648148,19.6808333 C6.75944444,19.6916667 7.43240741,19.7041667 8.10366667,19.7033333 C8.78940741,19.7033333 9.47344444,19.6958333 10.1583333,19.7 C10.8457778,19.7066667 11.5315185,19.7266667 12.218963,19.7125 C12.9277037,19.7 13.6347407,19.6716667 14.3426296,19.6616667 C15.0232593,19.6508333 15.7081481,19.6541667 16.3887778,19.6541667 C17.0387407,19.6541667 17.6895556,19.6541667 18.3378148,19.6458333 C18.6419259,19.6425 18.946037,19.6458333 19.2518519,19.6491667 C19.5721481,19.6525 19.8924444,19.6558333 20.2144444,19.6508333 C20.4333704,19.6483333 20.6241852,19.5416667 20.7536667,19.385 C20.9180741,19.27 21.0347778,19.0925 21.0305185,18.885 C21.016037,18.1683333 21.0237037,17.4516667 21.016037,16.7341667 C21.004963,15.9108333 21.0177407,15.0891667 21.0322222,14.2666667 C21.2341111,14.2366667 21.4147037,14.1791667 21.5825185,14.0416667 C21.9564815,13.735 22.0450741,13.2091667 22.0842593,12.76 C22.108963,12.4816667 22.108963,12.2016667 22.120037,11.9216667 C22.1379259,11.4941667 22.1592222,11.0625 22.1438889,10.6333333 C22.1353704,10.4083333 22.108963,10.1833333 22.0782963,9.96 Z M4.00625926,4.02916667 C4.00881481,3.96833333 4.01222222,3.90666667 3.99859259,3.84416667 C3.99518519,3.82833333 3.99262963,3.81166667 3.98922222,3.79583333 C3.97218519,3.54083333 3.9807037,3.28416667 3.98325926,3.0275 C5.22951852,3.0625 6.47662963,3.06333333 7.72459259,3.06916667 C8.36688889,3.0725 9.00918519,3.08833333 9.65148148,3.10416667 C10.2469259,3.12 10.8406667,3.1625 11.4361111,3.18166667 C12.0554074,3.2025 12.6764074,3.21166667 13.2982593,3.22416667 C13.9192593,3.23666667 14.541963,3.24916667 15.162963,3.25416667 C15.795037,3.25916667 16.427963,3.265 17.0591852,3.26666667 C17.6154444,3.26833333 18.1725556,3.29166667 18.7288148,3.295 C18.934963,3.29583333 19.1402593,3.30333333 19.3447037,3.31833333 C19.3787778,3.6125 19.4009259,3.9075 19.4102963,4.20416667 C19.0789259,4.21083333 18.7467037,4.2075 18.417037,4.20416667 C17.7977407,4.19583333 17.1775926,4.1775 16.5582963,4.17416667 C15.3145926,4.1675 14.0734444,4.12666667 12.8297407,4.1175 C11.5068148,4.10833333 10.1847407,4.11916667 8.86181481,4.07333333 C8.01081481,4.045 7.15811111,4.04666667 6.30796296,4.04833333 C5.85307407,4.04833333 5.39903704,4.05 4.94585185,4.045 C4.63237037,4.04083333 4.31888889,4.03666667 4.00625926,4.02916667 Z M20.8005185,12.9783333 C20.8013704,12.9775 20.8030741,12.9758333 20.8047778,12.9741667 C20.8039259,12.9758333 20.8022222,12.9775 20.8005185,12.9783333 Z M20.6352593,10.3541667 C20.6795556,10.3575 20.723,10.355 20.7647407,10.3483333 C20.7902963,10.7141667 20.786037,11.0808333 20.7792222,11.4483333 C20.7758148,11.6808333 20.7715556,11.9133333 20.7664444,12.1475 C20.7638889,12.375 20.7672963,12.6025 20.746,12.8283333 C20.7357778,12.8808333 20.7238519,12.9325 20.7093704,12.9841667 C20.4734074,12.9958333 20.2348889,12.9883333 19.9997778,12.9825 C19.7135556,12.9758333 19.4273333,12.9733333 19.1411111,12.9733333 C18.5064815,12.9733333 17.8692963,12.975 17.2397778,12.905 C17.0481111,12.8716667 16.8624074,12.8241667 16.6801111,12.7583333 C16.496963,12.6733333 16.3291481,12.575 16.1664444,12.46 C16.1051111,12.4075 16.0463333,12.3533333 15.9901111,12.2958333 C15.956037,12.2441667 15.9262222,12.1916667 15.8972593,12.1375 C15.8674444,12.0591667 15.8401852,11.98 15.818037,11.8975 C15.8044074,11.7116667 15.8103704,11.53 15.8308148,11.345 C15.8648889,11.1466667 15.9066296,10.95 15.9764815,10.76 C15.9994815,10.7158333 16.0241852,10.6741667 16.0505926,10.6333333 C16.082963,10.6016667 16.1153333,10.5708333 16.1494074,10.5425 C16.2141481,10.5033333 16.2805926,10.4675 16.3495926,10.4341667 C16.5174074,10.375 16.6877778,10.33 16.864963,10.2991667 C17.1418148,10.2716667 17.4178148,10.2658333 17.6963704,10.2591667 C17.9936667,10.2508333 18.2918148,10.24 18.5891111,10.24 C19.2722963,10.2366667 19.9563333,10.3033333 20.6352593,10.3541667 Z M1.61425926,2.75 C1.63385185,2.64666667 1.6577037,2.54583333 1.69177778,2.44666667 C1.71562963,2.4 1.74203704,2.35583333 1.77014815,2.3125 C1.84425926,2.23083333 1.92348148,2.15416667 2.00781481,2.0825 C2.116,2.01 2.22844444,1.95 2.3477037,1.89416667 C2.75233333,1.74333333 3.17740741,1.64916667 3.60333333,1.58583333 C4.18514815,1.525 4.76440741,1.4975 5.34877778,1.49333333 C5.96637037,1.49 6.58481481,1.48416667 7.20240741,1.4825 C7.77825926,1.4825 8.35411111,1.48583333 8.93166667,1.48916667 C9.62251852,1.4925 10.3150741,1.49666667 11.0067778,1.4925 C12.3041481,1.485 13.6015185,1.48166667 14.8988889,1.50666667 C15.5198889,1.51916667 16.1391852,1.53166667 16.761037,1.57166667 C17.273,1.60666667 17.7858148,1.61833333 18.2986296,1.63166667 C18.3105556,1.77916667 18.3207778,1.9275 18.3378148,2.07583333 C18.2807407,2.07583333 18.2236667,2.07416667 18.1665926,2.075 C16.9535556,2.0825 15.7405185,2.1 14.5266296,2.0825 C13.8843333,2.075 13.242037,2.06166667 12.6014444,2.04166667 C11.9949259,2.02416667 11.3901111,2.01916667 10.7844444,1.99583333 C10.1651481,1.97166667 9.5467037,1.94666667 8.92740741,1.93916667 C8.30811111,1.93 7.68796296,1.93083333 7.06866667,1.92333333 C5.91355556,1.90583333 4.75844444,1.865 3.60503704,1.8175 C3.59737037,1.8175 3.5897037,1.81666667 3.58203704,1.81666667 C3.28388889,1.81666667 3.04451852,2.06333333 3.00448148,2.3425 C2.82474074,2.455 2.69696296,2.64166667 2.69781481,2.86166667 C2.69951852,3.22833333 2.70633333,3.5975 2.75403704,3.9625 C2.72848148,3.9575 2.70122222,3.95833333 2.67396296,3.955 C2.47633333,3.925 2.28040741,3.8925 2.09044444,3.83083333 C2.02911111,3.8 1.97118519,3.76583333 1.91325926,3.7275 C1.88259259,3.70083333 1.85448148,3.67333333 1.82722222,3.64333333 C1.78122222,3.57083333 1.74288889,3.49666667 1.70711111,3.42 C1.66451852,3.31 1.6312963,3.2 1.60659259,3.085 C1.59892593,2.9725 1.60318519,2.8625 1.61425926,2.75 Z M18.2807407,18.3083333 C17.6188519,18.3241667 16.9561111,18.3225 16.2942222,18.3366667 C14.8784444,18.3633333 13.4635185,18.4108333 12.046037,18.4208333 C11.3892593,18.4241667 10.7307778,18.4383333 10.074,18.4333333 C9.37548148,18.43 8.67781481,18.4208333 7.981,18.4191667 C7.32251852,18.4175 6.66403704,18.4258333 6.00555556,18.4283333 C5.29681481,18.43 4.58381481,18.4333333 3.87848148,18.365 C3.82225926,18.3591667 3.76603704,18.3541667 3.70981481,18.3483333 C3.32562963,18.295 2.93888889,18.2283333 2.576,18.0966667 C2.43118519,18.0266667 2.29148148,17.9491667 2.15859259,17.86 C2.06659259,17.7808333 1.98566667,17.695 1.90814815,17.6033333 C1.84,17.515 1.77355556,17.4241667 1.71137037,17.33 C1.64407407,17.225 1.59125926,17.1091667 1.54014815,16.995 C1.48137037,16.8533333 1.42514815,16.71 1.36977778,16.5658333 C1.33655556,16.48 1.29566667,16.4041667 1.2437037,16.3366667 C1.23518519,15.2633333 1.23518519,14.1908333 1.2207037,13.1191667 C1.21133333,12.5241667 1.19940741,11.9275 1.19174074,11.3325 C1.18237037,10.7216667 1.19003704,10.1091667 1.18833333,9.49833333 C1.18833333,8.62416667 1.18662963,7.75 1.20962963,6.875 C1.22666667,6.195 1.24796296,5.51583333 1.2667037,4.83583333 C1.30759259,4.86083333 1.34762963,4.88833333 1.38851852,4.91083333 C1.72840741,5.09416667 2.10833333,5.14 2.48655556,5.185 C2.80344444,5.22333333 3.12203704,5.24 3.44233333,5.25166667 C4.07781481,5.27416667 4.71585185,5.26583333 5.35303704,5.26583333 C6.0242963,5.26583333 6.69385185,5.25833333 7.36511111,5.255 C8.0252963,5.25 8.68207407,5.28 9.34140741,5.30083333 C9.97688889,5.32 10.6132222,5.32 11.2504074,5.32 C11.9105926,5.31833333 12.5716296,5.31333333 13.2318148,5.315 C13.8792222,5.31666667 14.5257778,5.35416667 15.1714815,5.3925 C16.3845185,5.4625 17.6026667,5.46666667 18.8174074,5.48083333 C19.1044815,5.48416667 19.3958148,5.48083333 19.6862963,5.46916667 C19.6684074,6.65833333 19.6845926,7.84833333 19.6897037,9.0375 C19.2918889,9.01916667 18.8940741,8.99166667 18.4954074,8.9875 C18.1895926,8.98416667 17.8837778,8.975 17.5796667,8.97 C17.549,8.96916667 17.5191852,8.96916667 17.4885185,8.96916667 C17.1494815,8.96916667 16.8147037,9.00083333 16.4782222,9.04416667 C16.1127778,9.09333333 15.7405185,9.23916667 15.427037,9.4275 C15.1927778,9.56833333 15.0275185,9.75666667 14.8622593,9.9675 C14.7583333,10.1 14.697,10.2875 14.6390741,10.4391667 C14.576037,10.6025 14.541963,10.7775 14.5078889,10.9491667 C14.4201481,11.3891667 14.3784074,11.835 14.4721111,12.2783333 C14.4951111,12.3891667 14.5402593,12.4966667 14.582,12.6025 C14.6859259,12.8666667 14.8264815,13.085 15.0207037,13.2958333 C15.174037,13.4633333 15.3801852,13.5933333 15.5675926,13.7216667 C15.6885556,13.8041667 15.8214444,13.8716667 15.956037,13.9325 C16.1468519,14.0166667 16.3444815,14.105 16.5497778,14.1541667 C16.9135185,14.2425 17.2934444,14.2716667 17.6674074,14.2916667 C18.0865185,14.3141667 18.5081852,14.3108333 18.9307037,14.3075 C19.1087407,14.3058333 19.2884815,14.3041667 19.4673704,14.3041667 C19.5423333,14.3041667 19.6164444,14.305 19.6914074,14.3058333 C19.682037,15.6325 19.7254815,16.9583333 19.7365556,18.2841667 C19.2518519,18.2891667 18.7662963,18.2975 18.2807407,18.3083333 Z M18.0013333,11.5541667 C18.0013333,11.9133333 17.6955185,12.2133333 17.3275185,12.2133333 C16.9603704,12.2133333 16.6537037,11.9141667 16.6537037,11.5541667 C16.6537037,11.195 16.9595185,10.895 17.3275185,10.895 C17.6946667,10.895 18.0013333,11.195 18.0013333,11.5541667 Z" id="Shape"></path>
                        </g>
                    </g>
                </g>
            </g>
        </g>
    </g>
</svg>