<svg width="1440" height="679" viewBox="0 0 1440 679" fill="none" xmlns="http://www.w3.org/2000/svg">
<path d="M0 175.235C116.668 214.509 305.231 256.347 443.346 214.783C651.274 152.21 827.213 -49.9822 1133.61 13.0165C1256.25 38.2344 1360.07 83.1894 1440 129.122" stroke="#590D56"/>
<path d="M0 328.058C116.668 320.407 305.231 312.257 443.346 320.354C651.274 332.544 827.213 371.932 1133.61 359.659C1256.25 354.747 1360.07 345.989 1440 337.041" stroke="#590D56"/>
<path d="M0 641.29C116.668 652.851 305.231 665.167 443.346 652.932C651.274 634.512 827.213 574.992 1133.61 593.537C1256.25 600.961 1360.07 614.194 1440 627.716" stroke="#590D56"/>
<path d="M0 419.529C116.668 440.611 305.231 463.069 443.346 440.758C651.274 407.169 827.213 298.633 1133.61 332.45C1256.25 345.987 1360.07 370.119 1440 394.775" stroke="#590D56"/>
<path d="M0 560.335C116.668 533.812 305.231 505.558 443.346 533.627C651.274 575.884 827.213 712.43 1133.61 669.885C1256.25 652.855 1360.07 622.495 1440 591.476" stroke="#590D56"/>
</svg>
