<?xml version="1.0" encoding="utf-8"?><svg xmlns="http://www.w3.org/2000/svg" xmlns:xlink="http://www.w3.org/1999/xlink"><symbol viewBox="0 0 68 45" id="burger" xmlns="http://www.w3.org/2000/svg"><path d="M1 4.484C6.347 2.88 14.99 1.173 21.32 2.869c9.53 2.554 17.594 10.807 31.637 8.236A51.247 51.247 0 0 0 67 6.365M1 20.103c5.347-1.603 13.99-3.31 20.32-1.614 9.53 2.554 17.594 10.806 31.637 8.235A51.247 51.247 0 0 0 67 21.985M1 35.722c5.347-1.603 13.99-3.311 20.32-1.614 9.53 2.553 17.594 10.806 31.637 8.235A51.247 51.247 0 0 0 67 37.603"/></symbol><symbol viewBox="0 0 27 27" id="close" xmlns="http://www.w3.org/2000/svg"><path d="m1 1 12.5 12.5M26 26 13.5 13.5m0 0L26 1 1 26"/></symbol><symbol viewBox="0 0 67 67" id="cross" xmlns="http://www.w3.org/2000/svg"><circle cx="32.882" cy="33.471" r="24.479"/><path d="M33.029 66.942V0M66.942 34.029H0"/></symbol><symbol viewBox="0 0 68 67" id="download" xmlns="http://www.w3.org/2000/svg"><path d="M0 66.5h68M35.5 58V0M.5 24.5l35 33.5 32-33.5"/></symbol><symbol viewBox="0 0 30 30" id="i" xmlns="http://www.w3.org/2000/svg"><circle cx="15" cy="15" r="14.5"/><path d="M14.624 10.648c-.384 0-.688-.112-.912-.336-.224-.224-.336-.512-.336-.864 0-.405.128-.741.384-1.008s.597-.4 1.024-.4c.427 0 .752.117.976.352.224.224.336.507.336.848 0 .427-.128.768-.384 1.024s-.613.384-1.072.384h-.016Zm-.848 2.976-1.136-.304v-1.072l2.928-.352h.032l.448.32v7.696l1.072.128V21h-4.464v-.96l1.12-.144v-6.272Z"/></symbol><symbol viewBox="0 0 68 68" id="next" xmlns="http://www.w3.org/2000/svg"><circle cx="34" cy="34" r="33.5"/><path d="M29.92 47.6 43.52 34l-13.6-13.6"/></symbol><symbol viewBox="0 0 27 27" id="ok" xmlns="http://www.w3.org/2000/svg"><path d="M10.781 9.18c0 1.23 1.055 2.285 2.344 2.285 1.23 0 2.285-.996 2.285-2.285 0-1.348-1.055-2.344-2.285-2.344-1.29 0-2.344.996-2.344 2.344ZM26.25 3.438c0-1.524-1.29-2.813-2.813-2.813H2.813A2.813 2.813 0 0 0 0 3.438v20.625a2.777 2.777 0 0 0 2.813 2.812h20.625a2.813 2.813 0 0 0 2.812-2.813V3.438ZM8.32 9.18c0-2.637 2.168-4.805 4.805-4.805 2.578 0 4.746 2.168 4.746 4.805 0 2.578-2.168 4.687-4.746 4.687-2.637 0-4.805-2.11-4.805-4.687Zm10.254 5.273c.469.938-.058 1.406-1.289 2.168-.996.645-2.344.879-3.281.996l.762.762 2.812 2.812c.996 1.055-.644 2.637-1.7 1.641-.702-.703-1.698-1.7-2.753-2.813l-2.813 2.813c-1.054.996-2.695-.645-1.64-1.64.703-.762 1.7-1.758 2.754-2.813l.761-.762c-.878-.117-2.285-.351-3.28-.996-1.231-.762-1.759-1.23-1.29-2.168.293-.527.996-.996 1.992-.176 0 0 1.348 1.055 3.516 1.055 2.11 0 3.457-1.055 3.457-1.055.996-.82 1.7-.351 1.992.176Z"/></symbol><symbol viewBox="0 0 68 59" id="paper" xmlns="http://www.w3.org/2000/svg"><path d="M59.625 1.293H1v50.25"/><path d="M9.875 8.972H67.5v49.25H9.875z"/></symbol><symbol viewBox="0 0 68 58" id="pill" xmlns="http://www.w3.org/2000/svg"><path d="M67 55.008v-53h-9"/><rect x=".5" y=".508" width="28.776" height="56" rx="14.388"/><path d="M0 27.582h28.925M42.646 33.577l11-11M53.646 33.438l-11-11"/></symbol><symbol viewBox="0 0 67 67" id="play" xmlns="http://www.w3.org/2000/svg"><circle cx="33.5" cy="33.5" r="33"/><path d="M25.96 20.44 48.58 33.5 25.96 46.56V20.44Z"/></symbol><symbol viewBox="0 0 68 81" id="position" xmlns="http://www.w3.org/2000/svg"><path d="M67.462 33.98c0 4.556-2.068 9.704-5.237 14.903-3.162 5.188-7.386 10.371-11.622 14.982-4.234 4.608-8.47 8.634-11.648 11.508a173.522 173.522 0 0 1-3.838 3.374c-.463.394-.827.698-1.074.904l-.062.052-.062-.052c-.248-.206-.611-.51-1.074-.904-.926-.789-2.25-1.937-3.838-3.374-3.178-2.874-7.414-6.9-11.648-11.508-4.236-4.61-8.46-9.794-11.623-14.982C2.568 43.684.5 38.535.5 33.981.5 15.49 15.49.5 33.98.5c18.492 0 33.482 14.99 33.482 33.48Z"/><path d="M25.093 46.955 34.6 22.242l9.505 24.713M27.895 38.851h13.406"/></symbol><symbol viewBox="0 0 68 68" id="prev" xmlns="http://www.w3.org/2000/svg"><circle cx="34" cy="34" r="33.5" transform="rotate(-180 34 34)"/><path d="M38.08 20.4 24.48 34l13.6 13.6"/></symbol><symbol viewBox="0 0 149 166" id="spiral" xmlns="http://www.w3.org/2000/svg"><path d="M27.415 149.492c18.533-5.282 59.526-26.926 75.231-71.245 15.705-44.32 18.065-62.22 17.282-65.63"/><path d="M8.373 138.723c2.46-8.397 13.362-28.285 37.297-40.663 29.918-15.472 74.999-16.975 100.178-49.674"/></symbol><symbol viewBox="0 0 124 123" id="star" xmlns="http://www.w3.org/2000/svg"><path d="m73.332 7.843.158.1.186-.027 13.3-2.014 7.404 11.232.103.157.181.05 12.97 3.57 2.195 13.272.031.185.145.12 10.396 8.536-3.393 13.017-.047.182.084.169 6.025 12.027-8.394 10.511-.117.147.008.188.613 13.438-11.944 6.19-.167.086-.069.175-4.906 12.525-13.428.796-.188.011-.134.132-9.577 9.447-12.591-4.735-.176-.066-.176.066-12.591 4.735-9.577-9.447-.134-.132-.188-.011-13.428-.796L21 99.154l-.069-.175-.167-.087L8.82 92.703l.613-13.438.008-.188-.117-.147L.93 68.42l6.025-12.027.084-.169-.047-.182-3.393-13.017 10.396-8.537.145-.119.03-.185 2.196-13.272 12.97-3.57.18-.05.104-.157 7.404-11.232 13.3 2.014.186.028.158-.101L62 .593l11.332 7.25Z"/></symbol><symbol viewBox="0 0 48 48" id="target" xmlns="http://www.w3.org/2000/svg"><path d="M47.5 24c0 12.979-10.521 23.5-23.5 23.5S.5 36.979.5 24 11.021.5 24 .5 47.5 11.021 47.5 24Z"/><path d="M28.5 24a4.5 4.5 0 1 1-9 0 4.5 4.5 0 0 1 9 0Z"/></symbol><symbol viewBox="0 0 32 20" id="vk" xmlns="http://www.w3.org/2000/svg"><path d="M30.934 1.672c.175-.703 0-1.29-1.055-1.29h-3.457c-.879 0-1.29.47-1.524.997 0 0-1.757 4.277-4.218 7.09-.82.761-1.172 1.054-1.64 1.054-.177 0-.528-.293-.528-.996V1.672c0-.879-.235-1.29-.996-1.29h-5.391c-.586 0-.879.411-.879.821 0 .82 1.23.996 1.348 3.34v5.098c0 1.113-.176 1.347-.645 1.347-1.172 0-3.984-4.336-5.683-9.258C5.914.793 5.562.383 4.684.383H1.227C.289.383.055.852.055 1.379c0 .937 1.172 5.45 5.449 11.484 2.871 4.102 6.914 6.27 10.547 6.27 2.168 0 2.46-.469 2.46-1.29 0-3.925-.175-4.335.88-4.335.527 0 1.406.293 3.457 2.285 2.343 2.344 2.754 3.34 4.043 3.34h3.457c.996 0 1.465-.469 1.172-1.465-.645-1.992-5.04-6.211-5.274-6.504-.527-.644-.351-.937 0-1.523 0 0 4.219-5.977 4.688-7.97Z"/></symbol></svg>