<svg width="89" height="76" viewBox="0 0 89 76" fill="none" xmlns="http://www.w3.org/2000/svg">
<path fill-rule="evenodd" clip-rule="evenodd" d="M44.1542 69.4602C47.9524 72.9599 53.053 75.0828 58.6011 75.0828C70.5163 75.0828 80.1602 65.3644 80.1602 53.4115C80.1602 41.4222 70.5163 31.7034 58.6011 31.7034C53.053 31.7034 47.9524 33.8258 44.1542 37.326C39.7976 41.31 37.042 47.0443 37.042 53.4115C37.0424 59.7786 39.7976 65.5134 44.1542 69.4602Z" fill="#E9B040"/>
<path fill-rule="evenodd" clip-rule="evenodd" d="M77.2939 65.4757C77.2939 65.1032 77.5919 64.8056 77.964 64.8056C78.3733 64.8056 78.6709 65.1036 78.6709 65.4757C78.6709 65.8859 78.3729 66.1834 77.964 66.1834C77.5919 66.1834 77.2939 65.8859 77.2939 65.4757ZM77.964 66.0349C78.262 66.0349 78.5219 65.7737 78.5219 65.4761C78.5219 65.1785 78.2616 64.955 77.964 64.955C77.7028 64.955 77.4429 65.1785 77.4429 65.4761C77.4429 65.7737 77.7033 66.0349 77.964 66.0349ZM77.8895 65.8114H77.7405V65.1781H78.0008C78.0385 65.1781 78.113 65.1781 78.1498 65.2158C78.2243 65.2526 78.2243 65.2903 78.2243 65.3648C78.2243 65.4393 78.1875 65.5138 78.113 65.5138L78.262 65.8118H78.0753L78.0008 65.5506H77.8895V65.8114V65.4389H78.0385C78.0753 65.4389 78.0753 65.4012 78.0753 65.3644C78.0753 65.3267 78.0753 65.3267 78.0385 65.2899H77.8895V65.8114Z" fill="#E9B040"/>
<path fill-rule="evenodd" clip-rule="evenodd" d="M51.1168 51.1033C51.0423 50.3215 50.8933 49.5769 50.7443 48.7947H37.563C37.712 48.0128 37.9355 47.2683 38.1586 46.5233H50.1115C49.852 45.7394 49.5538 44.9689 49.2179 44.2146H39.0898C39.4624 43.4259 39.8724 42.6555 40.3186 41.906H47.9523C47.4611 41.1108 46.9137 40.3517 46.3142 39.6346H41.9572C42.6311 38.8116 43.3655 38.0399 44.1541 37.326C40.3191 33.863 35.2548 31.7034 29.6695 31.7034C17.7915 31.7034 8.11035 41.4222 8.11035 53.4115C8.11035 65.3644 17.7915 75.0828 29.6695 75.0828C35.2548 75.0828 40.3186 72.96 44.1541 69.4602C44.9306 68.7588 45.6528 67.9993 46.3142 67.1884H41.9572C41.3612 66.4438 40.8401 65.6992 40.3186 64.8797H47.9523C48.4323 64.1434 48.8555 63.3717 49.2184 62.5711H39.0898C38.7546 61.8265 38.4197 61.082 38.1586 60.2993H50.1115C50.3718 59.5547 50.5585 58.7733 50.7439 57.9906C50.8929 57.2461 51.0419 56.4647 51.1164 55.682C51.1918 54.9271 51.2293 54.1688 51.2286 53.4102C51.2286 52.6297 51.1913 51.8479 51.1168 51.1033Z" fill="#CC2131"/>
<path fill-rule="evenodd" clip-rule="evenodd" d="M77.2939 58.4385C77.2939 58.0292 77.5919 57.7316 77.964 57.7316C78.3733 57.7316 78.6709 58.0296 78.6709 58.4385C78.6709 58.811 78.3729 59.1462 77.964 59.1462C77.5919 59.1462 77.2939 58.8106 77.2939 58.4385ZM77.964 58.9596C78.262 58.9596 78.5219 58.7361 78.5219 58.4385C78.5219 58.1409 78.2616 57.9174 77.964 57.9174C77.7028 57.9174 77.4429 58.1409 77.4429 58.4385C77.4429 58.7361 77.7033 58.9596 77.964 58.9596ZM77.8895 58.7361H77.7405V58.1405H78.1498C78.2243 58.1782 78.2243 58.2527 78.2243 58.3272C78.2243 58.364 78.1875 58.4385 78.113 58.4762L78.262 58.7365H78.0753L78.0008 58.513H77.8895V58.7361V58.4012H77.964C78.0008 58.4012 78.0385 58.4012 78.0385 58.3636C78.0753 58.3636 78.0753 58.3267 78.0753 58.2891C78.0753 58.2891 78.0753 58.2522 78.0385 58.2522C78.0385 58.2146 78.0008 58.2522 77.964 58.2522H77.8895V58.7361Z" fill="white"/>
<path fill-rule="evenodd" clip-rule="evenodd" d="M36.819 59.6673C36.1117 59.8531 35.5902 59.9653 35.0691 59.9653C33.952 59.9653 33.2815 59.2576 33.2815 57.9915C33.2815 57.7312 33.3188 57.4704 33.356 57.1724L33.505 56.3165L33.6168 55.6088L34.6221 49.5024H36.8562L36.5955 50.843H38.0105L37.6753 53.0771H36.2602L35.6647 56.7259C35.6274 56.9125 35.6274 57.0239 35.6274 57.0984C35.6274 57.5826 35.8509 57.7684 36.4092 57.7684C36.67 57.7684 36.893 57.7316 37.1165 57.6939L36.819 59.6673ZM44.0429 59.5928C43.2238 59.8163 42.4792 59.9276 41.6597 59.9276C39.1276 59.9276 37.6753 58.5871 37.6753 55.944C37.6753 52.8532 39.3884 50.619 41.7711 50.619C43.6699 50.619 44.8988 51.8851 44.8988 53.858C44.8988 54.529 44.8243 55.1618 44.6384 56.0554H39.9839C39.9467 56.2044 39.9467 56.2789 39.9467 56.3534C39.9467 57.3959 40.654 57.917 41.9946 57.917C42.8509 57.917 43.5954 57.7312 44.4149 57.3591L44.0429 59.5928ZM42.6651 54.2682V53.8212C42.6651 53.0767 42.2553 52.6669 41.548 52.6669C40.803 52.6669 40.2819 53.2252 40.0584 54.2678L42.6651 54.2682ZM18.9459 59.7786H16.6373L17.9778 51.3268L14.9619 59.7786H13.361L13.1747 51.364L11.7597 59.7786H9.48828L11.3127 48.7946H14.7011L14.7756 55.572L17.047 48.7946H20.7707L18.9459 59.7786ZM24.5689 55.795C24.3454 55.7574 24.2709 55.7574 24.1219 55.7574C22.7813 55.7574 22.1113 56.2784 22.1113 57.0979C22.1113 57.6567 22.4465 58.0292 22.9676 58.0292C24.0847 58.0292 24.5312 57.0979 24.5689 55.795ZM26.4305 59.7786H24.4199L24.4572 58.8482C23.9357 59.5551 23.2283 59.9276 21.9995 59.9276C20.8825 59.9276 19.9144 58.9227 19.9144 57.4704C19.9144 57.0611 19.9889 56.689 20.1006 56.3165C20.4727 54.9383 21.8505 54.0824 23.9729 54.0447C24.2337 54.0447 24.643 54.0447 25.0155 54.0824C25.0895 53.7844 25.0895 53.6722 25.0895 53.4864C25.0895 52.8904 24.6057 52.7042 23.5259 52.7042C22.8558 52.7042 22.1108 52.8159 21.5898 53.0022L21.2545 53.0767L21.1055 53.1135L21.4408 51.1028C22.5206 50.7676 23.3024 50.619 24.1592 50.619C26.1698 50.619 27.2496 51.5498 27.2496 53.2625C27.2496 53.7095 27.2869 54.0447 27.1379 55.0128L26.6168 58.215L26.5423 58.7737L26.505 59.2207L26.4678 59.5188L26.4305 59.7786ZM55.2881 50.917C55.9581 50.917 56.5541 51.1033 57.3732 51.5126L57.7825 49.1295C57.559 49.0177 57.4845 49.0177 57.1869 48.9059L56.2566 48.6452C55.9586 48.5707 55.5865 48.5334 55.1763 48.5334C54.0215 48.5334 53.3515 48.5707 52.6446 48.9804C52.2721 49.2412 51.7879 49.5765 51.2664 50.172L50.9683 50.0975L48.5852 51.7729L48.6974 50.8421H46.2393L44.7879 59.7782H47.1342L47.9901 54.9755C47.9901 54.9755 48.3258 54.3046 48.4743 54.082C48.9213 53.5232 49.2934 53.5232 49.7772 53.5232H49.9639C49.8858 54.0907 49.8483 54.663 49.8517 55.2359C49.8517 58.1401 51.4898 59.9649 54.022 59.9649C54.6552 59.9649 55.2144 59.8904 56.0703 59.6669L56.4805 57.1352C55.7359 57.5445 55.0654 57.7307 54.5067 57.7307C53.1293 57.7307 52.3094 56.6882 52.3094 55.05C52.3085 52.6297 53.5377 50.917 55.2881 50.917ZM75.0591 48.7946L74.5385 51.9223C73.9798 51.066 73.3093 50.6563 72.4157 50.6563C71.1864 50.6563 70.0326 51.3636 69.3248 52.7042V52.6673L67.8357 51.7733L67.9847 50.8425H65.4898L64.0747 59.7786H66.3834L67.1656 54.976C67.1656 54.976 67.7612 54.305 67.9102 54.0824C68.2827 53.6354 68.6547 53.5605 68.9527 53.5237C68.6924 54.2682 68.5434 55.1618 68.5434 56.1675C68.5434 58.4017 69.6973 59.8908 71.4099 59.8908C72.2667 59.8908 72.9368 59.5928 73.5696 58.8851L73.4583 59.7786H75.6556L77.4427 48.7946H75.0591ZM72.1926 57.6567C71.4104 57.6567 71.0011 57.0611 71.0011 55.9064C71.0011 54.156 71.7456 52.8904 72.825 52.8904C73.6441 52.8904 74.0543 53.5237 74.0543 54.6407C74.0543 56.4279 73.3097 57.6567 72.1926 57.6567ZM61.4321 55.795C61.2086 55.7574 61.1342 55.7574 60.9851 55.7574C59.6437 55.7574 58.9736 56.2784 58.9736 57.0979C58.9736 57.6567 59.3093 58.0292 59.8304 58.0292C60.9475 58.0292 61.3945 57.0979 61.4321 55.795ZM63.2938 59.7786H61.2455L61.32 58.8482C60.7989 59.5551 60.0907 59.9276 58.8628 59.9276C57.708 59.9276 56.7031 58.9596 56.7031 57.4704C56.7031 55.3485 58.3036 54.0452 60.8357 54.0452C61.0969 54.0452 61.5058 54.0452 61.8415 54.0829C61.916 53.7848 61.9537 53.6727 61.9537 53.4868C61.9537 52.8908 61.4694 52.7046 60.3523 52.7046C59.7191 52.7046 58.9373 52.8163 58.4162 53.0026L58.1182 53.0771L57.9692 53.1139L58.304 51.1033C59.3843 50.768 60.1665 50.6195 61.0224 50.6195C63.033 50.6195 64.0756 51.5503 64.0756 53.2629C64.0756 53.7099 64.1501 54.0452 63.9643 55.0132L63.48 58.2154L63.4055 58.7742L63.331 59.2212L63.2942 59.5192V59.7786H63.2938ZM31.3081 52.7414C31.7551 52.7414 32.3879 52.7787 33.0585 52.8904L33.3937 50.8053C32.7232 50.7308 31.8296 50.619 31.3081 50.619C28.7019 50.619 27.8456 52.0341 27.8456 53.6722C27.8456 54.7525 28.3294 55.5339 29.5955 56.1294C30.5263 56.5764 30.6753 56.6505 30.6753 57.0607C30.6753 57.6186 30.1915 57.9542 29.2975 57.9542C28.5902 57.9542 27.9197 57.8421 27.1751 57.5817L26.9144 59.6292L26.9512 59.6669L27.3982 59.7414C27.5472 59.7782 27.7334 59.8159 27.9942 59.8527C28.5525 59.8904 29.0367 59.9272 29.3348 59.9272C31.9414 59.9272 33.0212 58.9223 33.0212 56.9485C33.0212 55.7201 32.4252 54.9755 31.2709 54.4545C30.2656 54.007 30.1538 53.9334 30.1538 53.5232C30.1538 53.1139 30.6008 52.7414 31.3081 52.7414Z" fill="#1B3771"/>
<path fill-rule="evenodd" clip-rule="evenodd" d="M58.416 48.4222L58.0058 50.8054C57.1868 50.3956 56.5908 50.2098 55.9207 50.2098C54.1704 50.2098 52.942 51.9224 52.942 54.3428C52.942 56.0186 53.7611 57.0235 55.1393 57.0235C55.6972 57.0235 56.3677 56.8377 57.1123 56.4656L56.7029 58.9596C55.8462 59.1831 55.2879 59.2953 54.6546 59.2953C52.1229 59.2953 50.5589 57.4705 50.5589 54.5295C50.5589 50.6195 52.7185 47.8639 55.8089 47.8639C56.2183 47.8639 56.5903 47.9011 56.8883 47.9756L57.8196 48.1992C58.118 48.3109 58.1925 48.3482 58.416 48.4222ZM50.8941 50.0608H50.6706C49.8892 50.0608 49.4422 50.4333 48.7345 51.5127L48.958 50.1348H46.8352L45.3837 59.0714H47.73C48.5859 53.5978 48.8094 52.667 49.9265 52.667H50.0755C50.299 51.5872 50.5965 50.8049 50.969 50.0976L50.8941 50.0608ZM37.4152 58.9596C36.7824 59.1831 36.2609 59.2576 35.7398 59.2576C34.5483 59.2576 33.8778 58.5876 33.8778 57.2847C33.8778 57.0612 33.915 56.7636 33.9523 56.5024L34.1013 55.6089L34.213 54.902L35.2183 48.7947H37.527L37.2662 50.1353H38.4578L38.1598 52.3322H36.9682L36.3354 56.0559C36.2982 56.2049 36.2982 56.3171 36.2982 56.4284C36.2982 56.8754 36.5217 57.0616 37.08 57.0616C37.3407 57.0616 37.5638 57.0616 37.7128 56.9871L37.4152 58.9596ZM28.4414 52.965C28.4414 54.0825 28.9625 54.8639 30.1913 55.4599C31.1594 55.9069 31.3084 56.0554 31.3084 56.4279C31.3084 56.9867 30.8986 57.247 29.9678 57.247C29.2605 57.247 28.6273 57.1357 27.8827 56.9122L27.5474 58.9596L27.6592 58.9973L28.0689 59.0718C28.2175 59.1086 28.4042 59.1463 28.7018 59.1463C29.2228 59.2208 29.6698 59.2208 29.9678 59.2208C32.425 59.2208 33.5798 58.2896 33.5798 56.2421C33.5798 55.0129 33.096 54.3051 31.9416 53.7472C30.9363 53.3002 30.8246 53.1889 30.8246 52.7792C30.8246 52.2954 31.2343 52.0719 31.9789 52.0719C32.4259 52.0719 33.0587 52.1091 33.6547 52.1836L33.9895 50.1357C33.394 50.024 32.4631 49.9495 31.9416 49.9495C29.335 49.949 28.4042 51.3269 28.4414 52.965ZM76.2519 59.0718H74.0545L74.1667 58.2151C73.5335 58.8851 72.863 59.1831 72.0062 59.1831C70.2936 59.1831 69.1765 57.7317 69.1765 55.4976C69.1765 52.5184 70.9268 49.9863 72.9743 49.9863C73.9055 49.9863 74.5756 50.396 75.2093 51.2151L75.7304 48.0874H78.039L76.2519 59.0718ZM72.8257 56.9867C73.906 56.9867 74.6505 55.7206 74.6505 53.9703C74.6505 52.816 74.2403 52.22 73.4213 52.22C72.3787 52.22 71.5973 53.4488 71.5973 55.1991C71.5973 56.3911 72.0066 56.9867 72.8257 56.9867ZM44.5642 58.8851C43.7447 59.1463 43.0001 59.2576 42.1438 59.2576C39.5372 59.2576 38.1966 57.8803 38.1966 55.2364C38.1966 52.1832 39.9097 49.9118 42.2556 49.9118C44.1917 49.9118 45.4201 51.1779 45.4201 53.1512C45.4201 53.8217 45.3456 54.455 45.1221 55.3854H40.5057C40.4684 55.4976 40.4684 55.5721 40.4684 55.6466C40.4684 56.6891 41.1762 57.2102 42.5163 57.2102C43.3726 57.2102 44.1172 57.0612 44.9367 56.6514L44.5642 58.8851ZM43.2609 53.5606V53.114C43.2609 52.3694 42.8511 51.9597 42.1438 51.9597C41.3993 51.9597 40.8777 52.5184 40.6542 53.5606H43.2609ZM19.5421 59.0718H17.2335L18.5741 50.6191L15.5581 59.0718H13.9568L13.7706 50.6936L12.3559 59.0718H10.1963L12.0207 48.0874H15.3719L15.4836 54.9016L17.7173 48.0874H21.3665L19.5421 59.0718ZM25.3137 55.0874C25.0902 55.0874 24.9785 55.0506 24.7922 55.0506C23.4889 55.0506 22.8188 55.5344 22.8188 56.4279C22.8188 56.9867 23.1169 57.3215 23.6379 57.3215C24.606 57.3215 25.2765 56.4279 25.3137 55.0874ZM27.0264 59.0718H25.0898L25.127 58.1406C24.531 58.8851 23.7492 59.2208 22.6694 59.2208C21.4033 59.2208 20.547 58.2528 20.547 56.8004C20.547 54.604 22.0362 53.3379 24.6428 53.3379C24.9035 53.3379 25.2388 53.3752 25.6109 53.412C25.6854 53.1144 25.6854 53.0027 25.6854 52.8537C25.6854 52.2581 25.2756 52.0346 24.1958 52.0346C23.5257 52.0346 22.7807 52.1091 22.2597 52.2581L21.9244 52.3699L21.7009 52.4071L22.0362 50.3965C23.1905 50.0612 23.9723 49.9495 24.829 49.9495C26.8397 49.9495 27.9195 50.843 27.9195 52.5557C27.9195 53.0027 27.8822 53.3379 27.7332 54.3432L27.2117 57.5086L27.1372 58.0665L27.1 58.5135L27.0627 58.8492L27.0264 59.0718ZM62.177 55.0874C61.9158 55.0874 61.8045 55.0506 61.6559 55.0506C60.3153 55.0506 59.6444 55.5344 59.6444 56.4279C59.6444 56.9867 59.9801 57.3215 60.5011 57.3215C61.4324 57.3215 62.1393 56.4279 62.177 55.0874ZM63.8896 59.0718H61.9535L61.9903 58.1406C61.3947 58.8851 60.6129 59.2208 59.5331 59.2208C58.267 59.2208 57.4103 58.2528 57.4103 56.8004C57.4103 54.604 58.8994 53.3379 61.506 53.3379C61.7672 53.3379 62.1025 53.3752 62.4373 53.412C62.5118 53.1144 62.5495 53.0027 62.5495 52.8537C62.5495 52.2581 62.1393 52.0346 61.0603 52.0346C60.3894 52.0346 59.608 52.1091 59.0865 52.2581L58.7885 52.3699L58.565 52.4071L58.8998 50.3965C60.0546 50.0612 60.836 49.9495 61.6927 49.9495C63.7034 49.9495 64.7459 50.843 64.7459 52.5557C64.7459 53.0027 64.7459 53.3379 64.5601 54.3432L64.0759 57.5086L64.0014 58.0665L63.9269 58.5135L63.89 58.8492L63.8896 59.0718ZM70.145 50.0608H69.9215C69.1401 50.0608 68.6931 50.4333 67.9854 51.5127L68.2089 50.1348H66.0861L64.671 59.0714H66.9796C67.8364 53.5978 68.0599 52.667 69.1769 52.667H69.3259C69.5494 51.5872 69.847 50.8049 70.2195 50.0976L70.145 50.0608Z" fill="white"/>
<path d="M38.3581 28.9607H31.1381L35.6505 1.22899H42.8713L38.3581 28.9607ZM25.0642 1.22899L18.181 20.3031L17.3665 16.1957L17.3672 16.1972L14.9378 3.72591C14.9378 3.72591 14.644 1.22899 11.5129 1.22899H0.133526L0 1.69855C0 1.69855 3.47982 2.42255 7.55234 4.86829L13.8251 28.9615H21.3477L32.8346 1.22899H25.0642ZM81.8533 28.9607H88.4828L82.7026 1.22825H76.8987C74.2186 1.22825 73.5658 3.29492 73.5658 3.29492L62.7977 28.9607H70.3241L71.8292 24.8415H81.0076L81.8533 28.9607ZM73.9085 19.1511L77.7021 8.77317L79.8363 19.1511H73.9085ZM63.3622 7.89784L64.3926 1.9426C64.3926 1.9426 61.2132 0.733459 57.8988 0.733459C54.3159 0.733459 45.8074 2.29941 45.8074 9.91407C45.8074 17.0784 55.7936 17.1675 55.7936 20.9307C55.7936 24.6938 46.8362 24.0195 43.8801 21.6465L42.8067 27.8732C42.8067 27.8732 46.0306 29.4392 50.9562 29.4392C55.8833 29.4392 63.3162 26.8881 63.3162 19.9448C63.3162 12.7344 53.2403 12.0631 53.2403 8.92821C53.241 5.79259 60.2726 6.19539 63.3622 7.89784Z" fill="#2566AF"/>
<path d="M17.3672 16.1964L14.9378 3.72515C14.9378 3.72515 14.644 1.22823 11.5129 1.22823H0.133526L0 1.69779C0 1.69779 5.46935 2.83127 10.7154 7.07812C15.7315 11.1373 17.3672 16.1964 17.3672 16.1964Z" fill="#E6A540"/>
</svg>
