<svg width="67" height="67" viewBox="0 0 67 67" fill="none" xmlns="http://www.w3.org/2000/svg">
<g clip-path="url(#clip0_167_32380)">
<g clip-path="url(#clip1_167_32380)">
<path d="M33.4995 0C15.0012 0 0 15.0009 0 33.4997C0 37.197 0.599336 40.7535 1.70588 44.081H11.725V15.895L33.5 37.67L55.2745 15.895V44.0808H65.2936C66.4009 40.7533 67.0003 37.1968 67.0003 33.4995C67 15.0001 51.9985 0 33.4995 0Z" fill="#FF6600"/>
<path d="M28.4926 42.6764L18.9896 33.1731V50.9085H4.87402C10.7548 60.5562 21.3757 66.999 33.499 66.999C45.6223 66.999 56.2442 60.5562 62.1242 50.9085H48.0089V33.1729L38.5059 42.6759L33.4993 47.6823L28.4931 42.6761L28.4926 42.6764Z" fill="#4C4C4C"/>
</g>
</g>
<defs>
<clipPath id="clip0_167_32380">
<rect width="67" height="67" fill="white"/>
</clipPath>
<clipPath id="clip1_167_32380">
<rect width="67" height="67" fill="white"/>
</clipPath>
</defs>
</svg>
