<svg width="67" height="67" viewBox="0 0 67 67" fill="none" xmlns="http://www.w3.org/2000/svg">
<g clip-path="url(#clip0_167_32338)">
<path d="M33.5 0C52.0021 0 67 14.998 67 33.5C67 52.0021 51.9987 67 33.5 67C15.0013 67 0 52.0054 0 33.5C0 14.9946 14.998 0 33.5 0Z" fill="#E90128"/>
<path d="M37.634 29.0377V24.0529H49.0307V16.4585H17.9996V24.0529H29.3963V29.031C20.1336 29.4565 13.1689 31.2923 13.1689 33.4899C13.1689 35.6875 20.1369 37.5233 29.3963 37.9487V53.9115H37.6373V37.9487C46.8833 37.5233 53.8346 35.6875 53.8346 33.4932C53.8346 31.299 46.8833 29.4632 37.6373 29.0377M37.6373 36.5953C37.4062 36.6121 36.2102 36.6824 33.5503 36.6824C31.4231 36.6824 29.929 36.6221 29.3997 36.5953V36.602C21.2156 36.2369 15.1086 34.8098 15.1086 33.1046C15.1086 31.3995 21.219 29.9757 29.3997 29.6139V35.1783C29.9357 35.2151 31.47 35.3056 33.5838 35.3056C36.1265 35.3056 37.4028 35.1984 37.6373 35.1783V29.6139C45.8046 29.9791 51.9016 31.4028 51.9016 33.1046C51.9016 34.8064 45.8046 36.2302 37.6373 36.592" fill="white"/>
</g>
<defs>
<clipPath id="clip0_167_32338">
<rect width="67" height="67" fill="white"/>
</clipPath>
</defs>
</svg>
