<?xml version="1.0" encoding="utf-8"?>
<!-- Generator: Adobe Illustrator 18.1.0, SVG Export Plug-In . SVG Version: 6.00 Build 0)  -->
<svg version="1.1" id="Слой_1" xmlns="http://www.w3.org/2000/svg" xmlns:xlink="http://www.w3.org/1999/xlink" x="0px" y="0px"
	 width="545px" height="483px" viewBox="0 0 545 483" enable-background="new 0 0 545 483" xml:space="preserve">
<path fill="#FFFFFF" d="M537.2,225.9l7.1-22.5l-23.4,0.7c-2,0-16.3-0.4-30.2-10.4c1,0.1,2.1,0.2,3.1,0.2c14.3,0,28.2-8.6,33.7-20.8
	l10.1-22.1c-12.6,0.2-24.1-1.4-24.1-1.4c-0.1,0-9.2-1.2-19.7-11.8c-7.5-7.6-16.9-11.7-26.9-11.7c-4.4,0-8.4,0.8-11.8,1.9
	c0.5-1.8,1-3.6,1.3-5.5c3.2-20.7-10.2-36.5-10.2-36.5l-17.6-21.6l-10.9,25.4c0,0.1-2.8,6-7.7,8.9c-1.5-7.5-5.1-15.9-12.9-23.9
	c-14.7-15.1-32.6-17.4-42-17.4c-4.3,0-7.4,0.5-8.2,0.6l-21.2,4.1c1.2-4.7,3.8-12.9,8.6-20.3l11.7-18.1L316.6,27l-9.4-19.8l-18.2,9.3
	L272.3,0l-16.8,16.5l-18.2-9.3L227.9,27l-29.4-3.3l11.7,18.1c4.8,7.4,7.4,15.6,8.6,20.3l-20.2-4l-0.7-0.1c-1-0.2-4.1-0.6-8.4-0.6
	c-9.4,0-27.3,2.3-41.9,17.4c-7.8,8-11.5,16.4-13,23.9c-4.9-2.9-7.6-8.7-7.6-8.7L116,64.3L98.2,86.1c-2.2,2.8-12.9,17.7-10,36.4
	c0.3,1.9,0.8,3.7,1.3,5.5c-3.4-1.1-7.3-1.9-11.7-1.9c-10.1,0-19.4,4-27,11.7c-10.5,10.6-19.5,11.8-19.4,11.8c0,0-9.5,1.7-24.3,1.4
	l10,22.1c5.6,12.3,19.4,20.8,33.7,20.8c1.1,0,2.1-0.1,3.2-0.2c-13.9,10-28.2,10.4-30,10.5l-23.8-0.8l7.2,22.5
	c3.6,11.6,15.7,30.7,38.9,32.8c-2.5,10.5-8.1,22.3-20.4,27.4l-17.7,7.3l9.7,16.7c5.5,9,18.3,19.6,36.5,19.6c3.9,0,7.8-0.4,11.4-1.2
	c0.9,4.1,2.1,8.3,3.5,12.3c5.4,16.1,0.8,27.3,0.7,27.4l-8.8,18.2l19.5,5.1c0.2,0.1,6.1,1.7,13.5,1.7c3.4,0,6.6-0.3,9.6-1.1
	c2.3-0.5,4.5-1.2,6.6-2.1c2.5,4.5,5.6,8.6,9.2,12.3c12.5,12.8,30.2,19.2,52.7,19.2h0.1l16-0.2l-33.1,13.7l25.2,12.1
	c9.1,4.4,20,9.7,31,13.7l-3.1,8.5l8.7,3.9c0.8,0.3,17.4,7.8,45.2,9.3c0,0,6.7,0.3,10.4,0.3c3.7,0,10.3-0.3,10.3-0.3
	c27.5-1.6,44.1-9,44.9-9.3l8.7-3.9l-3.2-8.6c11.4-4.1,22.6-9.6,31.3-13.8l24.7-11.9l-33-13.7l16.1,0.2c22.5,0,40.2-6.5,52.7-19.3
	c3.6-3.7,6.6-7.8,9.2-12.3c2.1,0.9,4.3,1.6,6.6,2.1c3,0.7,6.2,1.1,9.5,1.1c7.3,0,13.2-1.6,13.4-1.6l19.6-5.2l-8.5-17.9
	c-0.2-0.5-4.9-11.7,0.5-27.7c1.4-4.1,2.5-8.2,3.5-12.3c3.7,0.8,7.5,1.2,11.5,1.2c23.2,0,34.4-16.2,36.5-19.8l9.6-16.5l-17.7-7.2
	c-12.3-5.1-17.9-16.9-20.4-27.4C521.2,256.7,533.5,237.5,537.2,225.9z M220.4,69.8l-0.2,0.1l0.2-0.3L220.4,69.8z"/>
<path fill="#FFFFFF" d="M272.3,68.8c-18.8,0-32.8,6.1-35.9,13.3l35.9,14.1l35.9-14.1C305.2,74.9,291.1,68.8,272.3,68.8z"/>
<path fill="#FFFFFF" d="M272.7,441.5L272.7,441.5h-0.3H272h0c-11.4,0.1-27-2.2-34.6-4.4l-9.1,24.4c6,2.1,26.3,6.2,44,6.2
	c17.7,0,38-4.1,44-6.2l-9.1-24.4C299.7,439.2,284,441.5,272.7,441.5z"/>
<path fill="#FFFFFF" d="M341.4,417.2c-6.8,3.8-21.8,9.5-30.6,12.2l7.4,20.2c13.6-3.7,24.8-8,34-12.6l-15.3-5.1L341.4,417.2z"/>
<path fill="#FFFFFF" d="M203.3,417.2l4.5,14.7l-15.3,5.1c9.2,4.6,20.5,8.9,34,12.6l7.4-20.2C225.1,426.7,210,421,203.3,417.2z"/>
<path fill="#FFFFFF" d="M272.3,45.4c14.1,0,28,3.4,38.7,9.3c1-3.3,2.3-7.2,4.2-11.3l-4,0.5l-4.2,0.4l-1.8-3.8l-5.4-11.3l-9.8,5.1
	l-3.8,1.9l-3.1-3l-10.7-10.5l-10.7,10.5l-3.1,3l-3.8-1.9l-9.9-5.1l-5.3,11.3l-1.8,3.8l-4.2-0.4l-4-0.5c1.9,4.1,3.2,8.1,4.2,11.3
	C244.4,48.8,258.2,45.4,272.3,45.4z"/>
<path fill="#FFFFFF" d="M488.3,176.4c1.8,0.6,3.7,0.9,5.6,0.9c8,0,15.7-5.1,18.4-11c0,0-14.7-0.9-30.5-16.8
	c-5-5.2-10.3-6.7-14.9-6.7c-7.1,0-12.4,3.7-12.4,3.7C473.5,156.5,477.4,172.7,488.3,176.4z"/>
<path fill="#FFFFFF" d="M50.8,177.3c1.9,0,3.7-0.3,5.5-0.9c10.9-3.6,14.8-19.8,33.8-29.9c0,0-5.3-3.7-12.4-3.7
	c-4.6,0-9.9,1.5-14.9,6.7c-15.8,15.9-30.4,16.8-30.4,16.8C35,172.1,42.8,177.3,50.8,177.3z"/>
<path fill="#FFFFFF" d="M493.5,242.1c0.3,0,0.6,0,1,0c20,0,26.7-21.3,26.7-21.3h-0.4c-3.7,0-33.4-0.9-54.3-27.4
	c-13.8-17.4-25.1-32.8-47.5-38.8l-2.2-0.4l-0.5-2.2c-0.6-3.4,1.7-6.6,7-10c30.9-20.1,9.9-45.7,9.9-45.7s-8.8,20.5-28.5,20.5
	c-0.5,0-1,0-1.5,0c-2.2-0.1-4.4-0.2-6.6-0.7l-3.6-0.7c0,0,5.6-15.2-7.9-29.1C374.8,75.8,362.4,74,355.2,74c-3.6,0-5.9,0.5-5.9,0.5
	c6.8,8.9,11.7,23.5,3.9,32.6c-6.8,7.8-23.4,8.2-23.4,19.8c0,4.9,4.6,10.7,12.9,15.8c25,15.6,49.8,36.4,60.1,64.2
	c12.9,34.7-1.6,57.7-22.3,70.9c0,0,6.5,5.9,15.9,6.7c1.9,0.2,3.8,0.3,5.5,0.3c19.9,0,30.2-9.3,30.2-9.3s-1.7,12.8-12,24.7
	c-9.5,11-22.1,17.4-41.2,17.7c0,0-0.6,8.8,7.9,16.4c5.4,4.8,17.9,6.4,17.9,6.4s-23.4,4.7-26,39.1c-1.4,18.6-6.2,25.1-6.2,25.1h0.4
	c54.4,0,53-46.3,53-46.3s3.8,13.7,19,17.3c1.8,0.5,3.8,0.7,5.7,0.7c4.9,0,9.1-1.1,9.1-1.1s-7.9-16.6-0.1-39.9
	c6.5-19.3,5.5-33.6,5.5-33.6s7.3,11,25.5,11.1h0.2c15.1,0,21.7-11.4,21.7-11.4c-36.3-14.9-32.7-63.2-32.7-63.2
	S484.3,241.8,493.5,242.1z M482.5,292.5c-14.7-7.2-24.1-26.4-26.3-33.3c-2.4,38-21.1,64.4-43,89.8c-11.3,13.2-15.3,26-15.3,26
	s2.2-14.5,12-26.3c20.4-24.3,39.7-54.6,41.2-89.6c1-24.4-5.3-44.3-15.2-60.6c5.5,17,4.7,37.8-14,57.3c0,0,37.3-44.4-14.9-90
	c-20.9-17.3-43.7-28-55.5-35.6c42.5,13.8,63.2-1.4,63.2-1.4c-13.6,11.7-31.1,11.5-42,9.8c3,1.4,6,2.9,9.3,4.7
	c35.8,19.3,68,51.2,73.5,95.2v-0.3C464,281.4,482.5,292.5,482.5,292.5z"/>
<path fill="#FFFFFF" d="M140.1,340.7c0,0,12.5-1.6,17.9-6.4c8.4-7.6,7.9-16.4,7.9-16.4c-19.1-0.3-31.7-6.7-41.3-17.7
	c-10.3-11.9-12-24.7-12-24.7s10.3,9.3,30.1,9.3c1.8,0,3.6-0.1,5.6-0.3c9.4-0.7,15.9-6.7,15.9-6.7c-20.7-13.2-35.3-36.2-22.4-70.9
	c10.3-27.8,35.1-48.5,60.1-64.2c8.3-5.2,12.9-10.9,12.9-15.8c0-11.6-16.6-12-23.4-19.8c-7.9-9.1-2.9-23.8,3.9-32.6
	c0,0-2.3-0.5-5.9-0.5c-7.2,0-19.6,1.8-29.8,12.3c-13.6,14-8,29.1-8,29.1l-3.6,0.7c-2.2,0.5-4.4,0.5-6.6,0.7c-0.5,0-1,0-1.4,0
	c-19.8,0-28.5-20.5-28.5-20.5s-20.9,25.6,9.9,45.7c5.3,3.4,7.6,6.6,7,10l-0.5,2.2l-2.2,0.4c-22.3,6-33.7,21.4-47.5,38.8
	c-20.9,26.5-50.6,27.3-54.3,27.3h-0.4c0,0,6.8,21.3,26.7,21.3c0.3,0,0.6,0,1,0c9.2-0.3,13.9-3.8,13.9-3.8s3.5,48.2-32.7,63.2
	c0,0,6.6,11.4,21.7,11.4h0.2c18.2-0.1,25.5-11.1,25.5-11.1s-1.1,14.3,5.5,33.6c7.9,23.3,0,39.9,0,39.9s4.2,1.1,9.1,1.1
	c1.9,0,3.8-0.2,5.6-0.7c15.1-3.6,18.9-17.3,18.9-17.3s-1.4,46.3,53,46.3h0.4c0,0-4.8-6.5-6.1-25.1
	C163.5,345.4,140.1,340.7,140.1,340.7z M131.4,349c-21.8-25.4-40.5-51.8-43-89.8c-2.3,6.9-11.5,26.1-26.3,33.3
	c0,0,18.5-11.1,26.8-54.4v0.3c5.5-44.1,37.7-75.9,73.5-95.2c3.3-1.8,6.4-3.3,9.3-4.7c-10.9,1.7-28.5,1.9-42-9.8
	c0,0,20.7,15.2,63.2,1.4c-11.8,7.6-34.6,18.3-55.5,35.6c-52.2,45.6-14.9,90-14.9,90c-18.8-19.5-19.5-40.3-14-57.3
	c-9.9,16.3-16.2,36.1-15.2,60.6c1.4,35,20.8,65.3,41.1,89.6c9.8,11.8,12,26.3,12,26.3S142.7,362.2,131.4,349z"/>
<path fill="#FFFFFF" d="M232.1,171.2c0.9,0.9,1.8,2,2.6,3c0.2,0.2,0.4,0.5,0.6,0.7c0.8,1,1.6,2.1,2.3,3.2c0.2,0.2,0.3,0.5,0.5,0.7
	c0.9,1.4,1.8,2.8,2.6,4.2c7.8,13.5,20.4,21.5,31.5,21.5c11.2,0,23.7-8.1,31.5-21.5c0.9-1.5,1.8-3,2.7-4.3c0.1-0.2,0.3-0.4,0.4-0.6
	c0.8-1.2,1.6-2.3,2.4-3.4c0.2-0.2,0.3-0.4,0.5-0.6c0.9-1.1,1.8-2.1,2.7-3.1c0.2-0.2,0.3-0.3,0.4-0.4c4-4.1,8.8-7.2,15-8.9l-2.8-1.6
	H325l-11-6.4l-11.3-6.5l-30.3,16.4l-0.1-0.1l-0.1,0.1l-30.3-16.4l-11.3,6.4l-11.1,6.4h-0.1l-2.8,1.6c6.2,1.7,11,4.8,15,8.8
	C231.8,170.9,231.9,171.1,232.1,171.2z M260,169.9h12.8h12.8v8.7c-3-3.7-8.9-2.9-8.9-2.9v12.6c0,0,0.2,6.2,2.4,8.9h-6.3h-6.4
	c2.2-2.7,2.4-8.9,2.4-8.9v-12.6c0,0-5.8-0.7-8.9,2.9V169.9z"/>
<path fill="#FFFFFF" d="M269.7,153v-51.2l-32.8-11l8.7,49.6L269.7,153z M262.6,114.4v8.2l-1.6-0.7c-0.1-0.1-2.4-0.6-6.5-3.8
	c-6.7-5.2-6.8-10-6.8-10L262.6,114.4z"/>
<path fill="#FFFFFF" d="M299.1,140.4l8.6-49.6l-32.8,11V153L299.1,140.4z M282,114.4l14.9-6.2c0,0-0.1,4.8-6.9,10
	c-4.1,3.2-6.4,3.7-6.5,3.8l-1.6,0.7L282,114.4L282,114.4z"/>
<path fill="#FFFFFF" d="M223.3,271.6c3.2,1.2,7.1,1.4,9,1.4c0.1-0.2,0.2-0.5,0.3-0.9c0.2-0.6,0.3-1.2,0.5-1.8c0.5-2.8,0.8-6,0.8-8.1
	c-1.3-0.8-3.2-2.3-4.3-4.5c-1.2-2.5-3-3.7-5.5-3.7c-3.3,0-6.8,2-8.3,2.9C214.6,263.9,219.8,270.3,223.3,271.6z"/>
<path fill="#FFFFFF" d="M295.8,244.4c-6.1,6.6-18,18-18.6,18.6l-0.7,0.7l-37.6-0.6c0,3.7-0.6,6.9-1.2,9.2c-0.1,0.4-0.2,0.8-0.3,1.2
	l44.8,8c4.7-3.2,17.5-12.5,22.5-16.2c-3.6-5.3-4-11.5-3.2-15.9C299.1,247.9,297.3,246.2,295.8,244.4z"/>
<path fill="#FFFFFF" d="M300.9,199.4c-8.7,8.6-17,11.7-24.4,12.4c-1.3,0.1-2.7,0.2-4.1,0.2h-0.1h-0.1c-1.4,0-2.8-0.1-4.1-0.2
	c-1.3-0.1-2.7-0.3-4-0.6c-0.5,1.9-1.1,5.9,0.7,9.7c1.6,3.5,4.8,6,9.4,7.7l1.6,0.6l0,1.7c0,0.5,0.4,11.4,12.3,14.4c2-2,3.7-3.8,5-5.3
	c-2.4-5.7-1.2-11.5,2.4-14.4c-0.2,0.6-1.7,14.9,9.8,20.2l1.9,0.9l-0.6,2c-0.2,0.6-4,14.4,9.9,19.6l2.5,0.9l-1.1,2.4
	c-0.2,0.5-5.7,13.1,7.2,20.2H353v-22c-9.9-1.2-14.1-9.1-15.2-14.8c-4.6-0.8-8.2-2.8-10.6-6c-5.9-7.7-0.8-14.7-0.8-15.1
	c0,0.1,0,7.5,4.6,12.2c2.3,2.2,5,3.9,9.2,4.3l2,0.2l0.2,2.1c0,0.4,1.2,10.6,10.6,12.2l0-45c0-7,2.1-14,4.5-20.5L300.9,199.4
	L300.9,199.4z"/>
<path fill="#FFFFFF" d="M225.7,220.1l-0.8,28.7l3.3,0.5l8-27.5l-4.1-8.5L225.7,220.1z"/>
<path fill="#FFFFFF" d="M314.1,351.6c0.2,0,0.5,0,0.8,0.1c5,1.4,6.2,19.3,15,20.9c0.9,0.2,1.6,0.2,2.3,0.2c2.5,0,4-1.1,5.7-3
	c0,0-4.4-6.9-7.7-11.5c-4.4-6.1-7.8-13.4-15.9-13.4c-0.2,0-0.4,0-0.6,0c-2.7,0.1-4.3,1.4-4.3,1.4c-3.3-2.1-6.4-2.8-9.2-2.8
	c-5.1,0-9.1,2.3-11.1,2.3h-0.1l-18.2-1.8c-2.8-0.3-5.1-3.1-5.9-4.2c-0.2-0.3-0.3-0.5-0.3-0.5c0-0.5,0-1,0-1.4
	c-0.6-14.8-12.1-21.1-16.2-21.2c0,0,0.5-2.8-0.6-3.9l-4,4.8l-13.2-6.6l9.4,10.9l-8,8.9c-1,1-0.9,2.4-0.5,3l3.4,3l4.4-2.6
	c0.2-0.2,0.6-0.2,1.1-0.2c1.2,0,3,0.3,4.6,0.3c1.8,0,3.3-0.4,3.5-2c-0.5,5.5-5.7,15-2.3,22.5l2.5,5.6l-16.1-2.3l-7.5,12.6
	c-2.3,4.2-2.7,8.8-0.4,11.2l2.8,3.5c0,0,3.9-4.2,4.8-6.9l-1.3-1.4c-1.1-1.2-1-2.2-0.4-3.5l4.7-7.8l19,4.4l1-1.7
	c1.3-2.1,3.1-2.8,5.2-2.8c0.8,0,1.7,0.1,2.6,0.2c3.5,0.7,9.3,1.6,15.1,1.6c6.4,0,12.7-1.1,16-4.9c6.9,10.1,20.8,11.8,19.7,16.9
	l-3.7,17.4c2.4-0.1,4.8-0.3,7-0.6l3.5-18.1c0.4-2,0.8-4.6,0.8-4.6c-1.3-1.4-4.6-4.2-6.4-7.7c-2.5-4.7-1.1-7.1-3.4-13.2
	C311.8,353,312.5,351.6,314.1,351.6z M243.1,326.2c-0.9,0-1.6-0.8-1.6-1.7c0.1-0.9,0.8-1.6,1.8-1.5c0.9,0,1.6,0.9,1.6,1.7
	C244.8,325.6,244,326.3,243.1,326.2z"/>
<path fill="#FFFFFF" d="M217.2,368c0,0,6.3-2.6,6.9-4.4l-0.8-2.1c-0.6-1.4-0.5-2.8,0.6-3.6l6.8-4.7l11.4,2.2c0,0-2.1-2.5-1.9-6
	l-10.8-2.3l-10.2,6.2c-4.4,3.3-4.7,8.6-3.3,11.7L217.2,368z"/>
<path fill="#FFFFFF" d="M297.4,397.4c2-0.1,4.3-0.1,6.7-0.1c0,0,5.8-17,6.2-17.5c-3.3-1.4-10.1-5-12.7-6.7c1.7,2.6,5.9,5.5,5.1,7.8
	L297.4,397.4z"/>
<path fill="#FFDD2D" d="M353.1,296.8H191.6v60.4c0,24.7,18,40.1,44.5,40.1c22.2,0,28,0.8,36.3,9c5.7-5.6,10.4-7.7,20-8.5l0.2-0.9
	l5.1-15.6c-0.3-0.3-8.6-9.7-8.6-9.7c-3.3,1.1-6.1,1.3-10.7,1.3c-4.8,0-10.2-0.5-16-1.6c-0.6-0.1-1.1-0.2-1.7-0.2
	c-0.7,0-0.8,0.1-1,0.4l-1,1.7l-1.9,3l-3.5-0.8l-15.5-3.6l-2.1,3.5l0.3,0.4l1.9,2.1l-0.8,2.7c-1.1,3.5-4.8,7.6-6,8.8l-3.9,4.1
	l-3.5-4.4l-2.6-3.3c-2.8-3.1-3.4-7.8-1.9-12.8c0,0-0.1,0.1-0.2,0.1l-4.4,1.8l-2-4.2l-1.4-3c-2.4-5.3-1.5-13,4.9-17.7l12.5-7
	l11.9,2.3c0.3-1.1,0.7-5.2,1.1-6.2c-0.2,0-0.4-0.1-0.7-0.1l-6.8,2.5l-6.6-4.5c0,0-2.6-2.5-0.2-4.9l6.4-9.6l-16.2-20.2l24.9,10.2
	l1.6-2l3.4-4l3.8,3.6c1.1,1,1.7,2.3,2,3.6c6.9,2.7,19.1,10.5,20.2,23.2l-3.8,1.5v0.1c0.9,1,1.6,1.5,1.8,1.5l17.7,1.7
	c0.4-0.1,1-0.3,1.6-0.5c2.2-0.7,5.5-1.8,9.4-1.8c3.2,0,6.3,0.7,9.3,2.1c1.1-0.4,2.4-0.7,4-0.8l0.9,0c9.5,0,14.2,7.1,18,12.7
	c0.6,1,1.3,1.9,1.9,2.8c3.3,4.7,7.7,11.5,7.8,11.8l2,3l-2.4,2.8c-1.9,2.1-4.6,4.6-9.4,4.6c-1,0-2.1-0.1-3.2-0.3
	c-1-0.2-1.9-0.5-2.8-0.8c-0.1,0.9-0.3,2-0.5,3l-3.1,16.1c18.6-4.6,30.5-18.5,30.5-38.5L353.1,296.8z"/>
<path fill="#FFDD2D" d="M191.6,291.9h125.6c-6.3-6.4-6.2-14.6-4.6-19.9c-1.8-0.9-3.3-1.9-4.7-3.1c-4.9,3.6-19.9,14.4-23.8,17.2
	l-0.8,0.6l-49.3-8.9h-1c-1.2,0-2.9,0-4.8-0.3c-0.5,2.2-2.4,3.7-4.6,3.7c-0.2,0-0.5,0-0.8-0.1c-1.3-0.2-2.4-0.9-3.2-1.9
	c-0.8-1.1-1.1-2.3-0.9-3.6l0.2-1.1c-5.1-3.6-9.8-11.5-7.7-19.9l0.2-0.9l0.7-0.5c0.1-0.1,1-0.6,2.2-1.4l-3.6-0.5
	c-1.3-0.2-2.2-1.5-2-2.8c0.2-1.3,1.5-2.3,2.8-2l8.5,1.3l0.8-29.9l12.7-13.4l7.9,16.6l-8.4,28.7l7.5,1.2c1.3,0.2,2.2,1.4,2,2.8
	c-0.2,1.2-1.2,2-2.4,2c-0.1,0-0.3,0-0.4,0l-6.1-1c0.1,0.2,0.2,0.3,0.3,0.5c0.7,1.3,2.1,2.3,3,2.7l37.6,0.6c1.6-1.5,5.5-5.4,9.6-9.4
	c-9.2-3.5-12.6-11.4-13.2-16.7c-5.2-2.2-8.7-5.5-10.7-9.7c-2.4-5.3-1.5-10.6-0.9-13.1c-5-1.8-10.3-5.1-15.7-10.4h-56.6
	c2.4,6.5,4.5,13.5,4.5,20.5V291.9z"/>
<path d="M243.3,323c-0.9-0.1-1.7,0.6-1.8,1.5c-0.1,0.9,0.6,1.7,1.6,1.7c0.9,0.1,1.7-0.6,1.8-1.5C244.9,323.8,244.2,323,243.3,323z"
	/>
<path d="M352.8,432.4l-9.3-3.5l2.6-9.5l2.8-10.4c0,0-16.5,8.9-39.7,15.6c-6.6,1.9-11.6,2.7-11.6,2.7v7.1c0,0-12.4,2.1-25,2.1h-0.1
	h-0.2h-0.2h-0.1c-12.6,0-25-2.1-25-2.1v-7.1c0,0-5-0.8-11.6-2.7c-23.2-6.7-39.7-15.6-39.7-15.6l2.8,10.4l2.6,9.5l-9.3,3.5l-10.3,3.8
	c11.9,5.7,28.3,14,43.3,18.1l-3.5,9.6c0,0,19.1,8.6,50.8,8.7v0h0.1h0.1h0.1h0.1v0c31.8-0.1,50.9-8.7,50.9-8.7l-3.6-9.6
	c15-4.1,31.5-12.4,43.3-18.1L352.8,432.4z M192.5,436.9l15.3-5.1l-4.5-14.7c6.7,3.8,21.9,9.5,30.6,12.2l-7.4,20.2
	C213,445.8,201.7,441.5,192.5,436.9z M272.3,467.6c-17.8,0-38.1-4.1-44-6.2l9.1-24.4c7.5,2.2,23.2,4.5,34.6,4.4h0h0.3h0.3h0
	c11.4,0.1,27-2.2,34.6-4.4l9.1,24.4C310.3,463.6,290.1,467.6,272.3,467.6z M318.1,449.5l-7.4-20.2c8.8-2.6,23.9-8.4,30.6-12.2
	l-4.5,14.7l15.3,5.1C342.9,441.5,331.7,445.8,318.1,449.5z"/>
<path d="M272.3,51.4c18.9,0,34.1,6.2,42.4,12.9c0,0,2.5-14.9,11-28L310.5,38l-8-16.8L287.2,29l-14.9-14.6L257.5,29l-15.3-7.8
	l-8,16.8l-15.2-1.7c8.5,13.1,11,28,11,28C238.3,57.6,253.4,51.4,272.3,51.4z M233.5,43.9l4.2,0.4l1.8-3.8l5.3-11.3l9.9,5.1l3.8,1.9
	l3.1-3l10.7-10.5L283,33.2l3.1,3l3.8-1.9l9.8-5.1l5.4,11.3l1.8,3.8l4.2-0.4l4-0.5c-1.9,4.1-3.2,8.1-4.2,11.3
	c-10.7-5.9-24.5-9.3-38.7-9.3c-14.1,0-27.9,3.4-38.7,9.3c-1-3.3-2.3-7.2-4.2-11.3L233.5,43.9z"/>
<path d="M494.4,248.6c24.5,0,32.7-24.8,33-25.8l2.7-8.7l-9.2,0.3h0c-3.2,0-30.2-0.7-49.4-24.9l-1.8-2.2
	c-12.5-15.8-24.4-30.8-45.6-37.7c0.6-0.5,1.5-1.2,2.7-2c11.3-7.4,17.8-16.3,19.5-26.7c2.4-15.6-7.6-28.1-8.1-28.6l-6.8-8.4l-4.3,9.9
	c-0.3,0.6-7.5,16.5-22.5,16.5h-1.1c-1-0.1-2-0.1-3-0.2c0.5-7.1-0.8-18.1-10.8-28.4c-12-12.4-26.8-14.3-34.5-14.3
	c-4.1,0-6.9,0.5-7.2,0.5l-10.3,2l6.4,8.3c5,6.4,9.5,18.2,4.2,24.4c-1.7,2-5.2,3.6-8.6,5.2c-6.9,3.2-16.4,7.6-16.4,18.8
	c0,7.3,5.7,14.9,16,21.4c30.5,19.1,49.3,38.9,57.4,60.9c12.6,33.8-3.8,53-19.7,63.1l-7.1,4.6l6.2,5.7c0.8,0.7,8.5,7.4,19.8,8.4
	c2.1,0.1,4.2,0.3,6.1,0.3c7.2,0,13.4-1.1,18.4-2.6c-1.4,2.4-3.1,4.9-5.2,7.3c-9.1,10.5-20.3,15.3-36.4,15.5l-6,0.1l-0.5,6
	c-0.1,1.2-0.5,12.3,10,21.7c1.6,1.5,3.6,2.6,5.6,3.6c-7.1,6.4-14.4,17.5-15.8,36.6c-1.2,15.9-5,21.8-5,21.9l-6.6,10l11.9,0.2
	c19.7,0,34.9-5.4,45.3-16.1c6.2-6.4,9.7-13.5,11.8-19.9c3.4,2.9,7.9,5.5,13.7,6.8c2.2,0.5,4.6,0.8,7.2,0.8c5.6,0,10.2-1.2,10.8-1.3
	l7.6-2l-3.4-7.1c-0.2-0.6-6.6-14.8,0.2-35c3-8.8,4.5-16.6,5.2-22.7c4.8,2.5,11.2,4.6,19.6,4.6c18.9,0,27.2-14,27.6-14.6l3.7-6.4
	l-6.9-2.8c-22.5-9.3-27.5-34.2-28.5-47.7c2,0.4,4.4,0.7,7,0.8H494.4z M512.2,301.5c0,0-6.6,11.4-21.7,11.4h-0.2
	c-18.2-0.1-25.5-11.1-25.5-11.1s1.1,14.3-5.5,33.6c-7.9,23.3,0.1,39.9,0.1,39.9s-4.2,1.1-9.1,1.1c-1.9,0-3.8-0.2-5.7-0.7
	c-15.2-3.6-18.9-17.3-18.9-17.3s1.4,46.3-53,46.3h-0.4c0,0,4.8-6.5,6.2-25.1c2.6-34.4,26-39.1,26-39.1s-12.5-1.6-17.9-6.4
	c-8.5-7.6-7.9-16.4-7.9-16.4c19.1-0.3,31.7-6.7,41.2-17.7c10.3-11.9,12-24.7,12-24.7s-10.3,9.3-30.2,9.3c-1.8,0-3.6-0.1-5.5-0.3
	c-9.4-0.7-15.9-6.7-15.9-6.7c20.7-13.2,35.2-36.2,22.3-70.9c-10.3-27.8-35.1-48.5-60.1-64.2c-8.3-5.2-12.9-10.9-12.9-15.8
	c0-11.6,16.6-12,23.4-19.8c7.9-9.1,2.9-23.8-3.9-32.6c0,0,2.3-0.5,5.9-0.5c7.2,0,19.6,1.8,29.8,12.3c13.6,14,7.9,29.1,7.9,29.1
	l3.6,0.7c2.2,0.5,4.3,0.5,6.6,0.6c0.5,0,1,0,1.5,0c19.7,0,28.5-20.5,28.5-20.5s21,25.6-9.9,45.7c-5.3,3.4-7.7,6.6-7,10l0.5,2.2
	l2.2,0.4c22.4,6,33.7,21.4,47.5,38.8c21,26.5,50.7,27.4,54.3,27.4h0.4c0,0-6.8,21.3-26.7,21.3c-0.3,0-0.6,0-1,0
	c-9.2-0.3-13.9-3.8-13.9-3.8S476,286.5,512.2,301.5z"/>
<path d="M451.4,152.2c9.1,4.8,14.5,11.3,19.1,17.1c4.6,5.6,8.9,11,15.7,13.2c2.4,0.8,5,1.2,7.6,1.2c10.2,0,20.5-6.2,24.4-14.8
	l3.9-8.6l-9.5-0.6c-0.4,0-12.6-1.1-26.2-14.9c-5.6-5.6-12.3-8.6-19.6-8.6c-8.9,0-15.4,4.4-16.2,4.9l-8.7,6.1L451.4,152.2z
	 M466.9,142.7c4.6,0,9.9,1.5,14.9,6.7c15.8,15.9,30.4,16.8,30.4,16.8c-2.7,5.9-10.4,11-18.4,11c-1.9,0-3.7-0.3-5.6-0.9
	c-10.8-3.6-14.7-19.8-33.8-29.9C454.5,146.5,459.8,142.7,466.9,142.7z"/>
<path d="M455.7,238.1v0.3c-5.5-44.1-37.7-75.9-73.5-95.2c-3.3-1.8-6.4-3.3-9.3-4.7c10.9,1.7,28.5,1.9,42-9.8c0,0-20.7,15.2-63.2,1.4
	c11.8,7.6,34.6,18.3,55.5,35.6c52.2,45.6,14.8,90,14.8,90c18.7-19.4,19.5-40.3,14-57.3c9.9,16.3,16.2,36.1,15.2,60.6
	c-1.4,35-20.8,65.3-41.2,89.6c-9.8,11.8-12,26.3-12,26.3s3.9-12.8,15.3-26c21.8-25.4,40.5-51.8,42.9-89.8
	c2.3,6.9,11.6,26.1,26.3,33.3C482.5,292.5,464,281.4,455.7,238.1z"/>
<path d="M177.6,401.1c0-0.1-3.8-5.9-5-21.9c-1.4-19.1-8.7-30.2-15.8-36.6c2.1-1,4-2.2,5.6-3.6c10.5-9.4,10.1-20.5,10-21.7l-0.4-6
	l-6-0.1c-16.1-0.3-27.3-5-36.4-15.5c-2.1-2.5-3.8-4.9-5.2-7.3c5,1.5,11.1,2.6,18.4,2.6c2,0,4-0.1,6.1-0.3c11.3-1,19-7.6,19.8-8.4
	l6.2-5.7l-7.1-4.6c-16-10.2-32.3-29.4-19.8-63.1c8.1-21.9,26.9-41.8,57.4-60.9c10.3-6.5,15.9-14.1,15.9-21.4
	c0-11.2-9.4-15.7-16.4-18.8c-3.4-1.6-6.9-3.2-8.6-5.2c-5.4-6.2-0.8-18,4.1-24.4l6.4-8.3l-10.3-2c-0.3,0-3-0.5-7.2-0.5
	c-7.7,0-22.5,1.9-34.5,14.3c-10,10.3-11.4,21.3-10.8,28.4c-1,0.1-2,0.1-3,0.2H140c-15.1,0-22.2-15.9-22.5-16.5l-4.3-9.9l-6.9,8.4
	c-0.4,0.5-10.4,13-8,28.6c1.6,10.4,8.2,19.3,19.4,26.7c1.2,0.8,2.1,1.5,2.7,2c-21.2,6.9-33,21.9-45.6,37.7l-1.8,2.2
	c-19.1,24.2-46.2,24.9-49.4,24.9l-9.2-0.3l2.8,8.7c0.3,1.1,8.5,25.8,33,25.8l1.2,0c2.6-0.1,4.9-0.4,7-0.8c-1,13.5-6,38.4-28.5,47.7
	l-6.9,2.8l3.7,6.4c0.4,0.6,8.7,14.6,27.6,14.6c8.3,0,14.7-2.1,19.5-4.6c0.7,6.1,2.2,14,5.2,22.7c6.9,20.3,0.5,34.5,0.2,35l-3.4,7.1
	l7.7,2c0.5,0.1,5.2,1.3,10.8,1.3c2.6,0,5-0.3,7.2-0.8c5.8-1.4,10.3-3.9,13.7-6.8c2.1,6.4,5.6,13.5,11.8,19.9
	c10.5,10.7,25.6,16.1,45.3,16.1l12-0.2L177.6,401.1z M171.9,404.9c-54.4,0-53-46.3-53-46.3s-3.8,13.7-19,17.3
	c-1.8,0.5-3.7,0.7-5.6,0.7c-4.9,0-9.1-1.1-9.1-1.1s7.9-16.6,0-39.9c-6.5-19.3-5.5-33.6-5.5-33.6s-7.3,11-25.5,11.1h-0.2
	c-15.1,0-21.7-11.4-21.7-11.4C68.6,286.5,65,238.3,65,238.3s-4.7,3.5-13.9,3.8c-0.3,0-0.6,0-1,0c-20,0-26.7-21.3-26.7-21.3h0.4
	c3.7,0,33.3-0.8,54.3-27.4c13.8-17.4,25.2-32.7,47.5-38.8l2.2-0.4l0.5-2.2c0.6-3.4-1.7-6.6-7-10c-30.9-20.1-9.9-45.7-9.9-45.7
	s8.8,20.5,28.5,20.5c0.5,0,0.9,0,1.4,0c2.2-0.1,4.4-0.2,6.6-0.7l3.6-0.7c0,0-5.6-15.2,8-29.1C169.8,75.8,182.3,74,189.4,74
	c3.6,0,5.9,0.5,5.9,0.5c-6.8,8.9-11.7,23.5-3.9,32.6c6.8,7.8,23.4,8.2,23.4,19.8c0,4.9-4.6,10.7-12.9,15.8
	c-25,15.6-49.8,36.4-60.1,64.2c-12.9,34.7,1.6,57.7,22.4,70.9c0,0-6.5,5.9-15.9,6.7c-1.9,0.2-3.8,0.3-5.6,0.3
	c-19.9,0-30.1-9.3-30.1-9.3s1.7,12.8,12,24.7c9.6,11,22.1,17.5,41.3,17.7c0,0,0.6,8.8-7.9,16.4c-5.4,4.8-17.9,6.4-17.9,6.4
	s23.4,4.7,26,39.1c1.4,18.6,6.1,25.1,6.1,25.1H171.9z"/>
<path d="M50.8,183.7c2.6,0,5.2-0.4,7.6-1.2c6.8-2.2,11.2-7.6,15.8-13.2c4.7-5.7,10-12.2,19.1-17.1l9.4-5l-8.7-6.1
	c-0.7-0.5-7.3-4.9-16.1-4.9c-7.3,0-14,3-19.6,8.6c-13.6,13.8-25.7,14.9-26.2,14.9l-9.5,0.5l3.9,8.6
	C30.3,177.5,40.6,183.7,50.8,183.7z M62.8,149.5c5-5.2,10.4-6.7,14.9-6.7c7,0,12.4,3.7,12.4,3.7c-19.1,10.1-23,26.3-33.9,29.9
	c-1.8,0.6-3.7,0.9-5.5,0.9c-8,0-15.7-5.1-18.4-11C32.4,166.2,47,165.4,62.8,149.5z"/>
<path d="M93.5,259.1c-1-24.4,5.3-44.3,15.2-60.6c-5.5,17-4.8,37.8,14,57.3c0,0-37.3-44.4,14.9-90c20.9-17.3,43.7-28,55.5-35.6
	c-42.5,13.8-63.2-1.4-63.2-1.4c13.6,11.7,31.1,11.5,42,9.8c-3,1.4-6,2.9-9.3,4.7c-35.9,19.4-68,51.2-73.6,95.2v-0.3
	c-8.3,43.3-26.8,54.4-26.8,54.4c14.7-7.2,24-26.4,26.3-33.3c2.5,38,21.1,64.4,43,89.8c11.3,13.2,15.3,26,15.3,26
	s-2.2-14.5-12.1-26.3C114.3,324.4,94.9,294.1,93.5,259.1z"/>
<path d="M260,169.9v8.7c3-3.7,8.9-2.9,8.9-2.9v12.6c0,0-0.2,6.2-2.4,8.9h6.3h6.3c-2.2-2.7-2.4-8.9-2.4-8.9v-12.6
	c0,0,5.9-0.7,8.9,2.9v-8.7h-12.8H260z"/>
<path d="M254.6,118.1c4,3.2,6.4,3.7,6.5,3.8l1.6,0.7v-8.2l-14.9-6.2C247.7,108.2,247.9,112.9,254.6,118.1z"/>
<path d="M290,118.1c6.7-5.2,6.9-10,6.9-10l-14.9,6.2v8.2l1.6-0.7C283.6,121.8,286,121.3,290,118.1z"/>
<path d="M316.9,84.6c0-12.5-21.1-23.7-44.5-23.7h0h-0.1h-0.1c-23.3,0-44.5,11.2-44.5,23.7l0.5,3.1l9.3,53.2l-9.4,5.4l-24.2,14.1h0.1
	c0,0-5.5,2.8-8,4.5c-9.2,6.4-11.2,15.7-5.8,19.5c1.3-7.6,7.3-15.5,18.6-15.5c8.1,0,14.3,4.2,19.3,10.4c1.3,1.6,2.5,3.3,3.6,5.1
	c1.4,2.3,2.8,4.3,4.2,6.2h-62.4c4.6,9.2,8.9,18.9,8.9,29.4v137.2c0,33.2,25.7,49.1,53.5,49.1c21.5,0,24.4-1,36.3,10.8
	c11.8-11.8,14.7-10.8,36.2-10.8c27.8,0,53.5-15.9,53.5-49.1V219.9c0-10.5,4.4-20.2,9-29.4h-62.4c1.4-1.9,2.8-3.9,4.2-6.2
	c1.2-1.8,2.4-3.5,3.6-5.1c5-6.3,11.2-10.4,19.3-10.4c11.3,0,17.3,7.9,18.6,15.5c5.4-3.8,3.4-13.1-5.9-19.5c-2.5-1.7-7.9-4.5-7.9-4.5
	h0.1l-24.2-14.1l-9.3-5.4l9.3-53.2L316.9,84.6z M236.9,90.8l32.8,11V153l-24.1-12.6L236.9,90.8z M243.7,199.4
	c5.4,5.3,10.6,8.6,15.7,10.4c-0.7,2.6-1.5,7.9,0.9,13.1c2,4.2,5.6,7.5,10.7,9.7c0.6,5.3,3.9,13.2,13.2,16.7c-4.1,4.1-8,7.9-9.6,9.4
	l-37.6-0.6c-0.9-0.4-2.3-1.4-3-2.7c-0.1-0.2-0.2-0.3-0.3-0.5l6.1,1c0.1,0,0.3,0,0.4,0c1.2,0,2.2-0.8,2.4-2c0.2-1.4-0.7-2.6-2-2.8
	l-7.5-1.2l8.4-28.7l-7.9-16.6l-12.7,13.3l-0.8,29.9l-8.5-1.3c-1.3-0.3-2.6,0.7-2.8,2c-0.2,1.3,0.7,2.5,2,2.8l3.6,0.5
	c-1.3,0.7-2.1,1.3-2.2,1.4l-0.7,0.5l-0.2,0.9c-2.1,8.4,2.6,16.3,7.7,19.9l-0.2,1.1c-0.2,1.3,0.1,2.5,0.9,3.6
	c0.7,1.1,1.9,1.7,3.1,1.9c0.3,0,0.6,0.1,0.8,0.1c2.2,0,4.1-1.5,4.7-3.7c1.9,0.2,3.6,0.3,4.8,0.3h1l49.3,8.8l0.8-0.5
	c3.9-2.7,18.9-13.6,23.8-17.2c1.3,1.2,2.9,2.2,4.7,3.1c-1.6,5.3-1.7,13.4,4.6,19.9H191.6v-72c0-7-2.1-14-4.5-20.5L243.7,199.4
	L243.7,199.4z M304.6,265.3c-5,3.6-17.8,12.9-22.5,16.2l-44.8-8c0.1-0.4,0.2-0.8,0.3-1.2c0.6-2.3,1.2-5.5,1.2-9.2l37.6,0.6l0.7-0.7
	c0.6-0.6,12.5-12,18.6-18.6c1.4,1.8,3.3,3.5,5.6,5C300.6,253.8,301,260.1,304.6,265.3z M229.6,257.6c1.1,2.2,3,3.7,4.3,4.5
	c0,2.1-0.2,5.3-0.8,8.1c-0.1,0.6-0.3,1.2-0.5,1.8c-0.1,0.4-0.2,0.7-0.3,0.9c-2,0-5.9-0.2-9-1.4c-3.5-1.3-8.8-7.7-7.6-14.8
	c1.5-0.9,5-2.9,8.3-2.9C226.7,253.9,228.4,255.1,229.6,257.6z M225,248.7l0.8-28.7l6.5-6.8l4.1,8.5l-8,27.5L225,248.7z M304.2,397.3
	c-2.4,0-4.7,0-6.7,0.1l5.3-16.5c0.8-2.3-3.4-5.2-5.1-7.8c2.6,1.6,9.4,5.2,12.7,6.7C310,380.4,304.2,397.3,304.2,397.3z M320.9,378.6
	l-3.5,18c-2.2,0.3-4.6,0.5-7,0.6l3.7-17.4c1.1-5.2-12.8-6.8-19.7-16.9c-3.4,3.8-9.7,4.9-16,4.9c-5.8,0-11.6-0.9-15.1-1.6
	c-0.9-0.1-1.8-0.2-2.6-0.2c-2,0-3.9,0.6-5.2,2.8l-1,1.7l-19-4.5l-4.7,7.8c-0.7,1.3-0.7,2.3,0.4,3.5l1.3,1.4
	c-0.9,2.8-4.8,6.9-4.8,6.9l-2.8-3.5c-2.2-2.5-1.9-7,0.5-11.2l7.5-12.6l16.1,2.3l-2.5-5.7c-3.4-7.5,1.8-17,2.3-22.5
	c-0.2,1.7-1.7,2-3.5,2c-1.6,0-3.4-0.3-4.6-0.3c-0.5,0-0.9,0-1.1,0.2l-4.4,2.6l-3.4-3c-0.4-0.6-0.5-1.9,0.5-3l8-8.9l-9.4-10.9
	l13.2,6.6l4-4.8c1.1,1.1,0.6,3.9,0.6,3.9c4.1,0.1,15.6,6.4,16.2,21.2c0,0.4,0,1,0,1.4c0,0,0.1,0.2,0.3,0.5c0.8,1.1,3.1,4,5.9,4.2
	l18.2,1.8h0.1c2,0,6-2.3,11.1-2.3c2.8,0,5.9,0.7,9.2,2.8c0,0,1.6-1.3,4.3-1.4c0.2,0,0.4,0,0.6,0c8.2,0,11.5,7.3,15.9,13.4
	c3.3,4.6,7.7,11.5,7.7,11.5c-1.6,1.9-3.1,3-5.7,3c-0.7,0-1.5-0.1-2.3-0.2c-8.8-1.6-10-19.5-15-20.9c-0.3-0.1-0.5-0.1-0.8-0.1
	c-1.6,0-2.3,1.4-2.3,1.4c2.3,6.1,1,8.6,3.4,13.2c1.8,3.5,5.1,6.4,6.4,7.7C321.7,374,321.3,376.6,320.9,378.6z M223.2,361.5l0.8,2.1
	c-0.5,1.8-6.9,4.4-6.9,4.4l-1.4-3c-1.4-3.2-1.1-8.5,3.3-11.7l10.2-6.2l10.8,2.3c-0.2,3.4,1.9,6,1.9,6l-11.4-2.2l-6.8,4.7
	C222.7,358.7,222.6,360.2,223.2,361.5z M322.6,395.7l3.1-16.1c0.2-1,0.4-2.1,0.5-3c0.9,0.4,1.8,0.7,2.8,0.8c1.2,0.2,2.2,0.3,3.2,0.3
	c4.8,0,7.5-2.5,9.4-4.6l2.4-2.8l-2-3c-0.2-0.3-4.5-7.1-7.8-11.8c-0.7-0.9-1.3-1.8-1.9-2.8c-3.8-5.6-8.5-12.7-18-12.7l-0.9,0
	c-1.6,0.1-2.9,0.4-4,0.8c-3-1.4-6.1-2.1-9.3-2.1c-3.9,0-7.2,1.1-9.4,1.8c-0.6,0.2-1.2,0.4-1.6,0.5l-17.8-1.7c-0.2,0-1-0.5-1.8-1.5
	v-0.1l3.8-1.5c-1.1-12.7-13.4-20.6-20.2-23.2c-0.3-1.3-0.9-2.5-2-3.6l-3.8-3.6l-3.4,4l-1.6,2l-24.9-10.2l16.2,20.2l-6.4,9.6
	c-2.3,2.5,0.2,4.9,0.2,4.9l6.6,4.5l6.8-2.5c0.2,0,0.4,0.1,0.7,0.1c-0.3,1-0.8,5.1-1,6.2l-11.9-2.3l-12.5,7
	c-6.4,4.7-7.3,12.4-4.9,17.7l1.4,3l2,4.2l4.4-1.8c0.1,0,0.1,0,0.2-0.1c-1.6,5-0.9,9.7,1.9,12.8l2.6,3.3l3.5,4.4l3.9-4.1
	c1.1-1.1,4.8-5.2,6-8.8l0.8-2.7l-1.9-2.1l-0.3-0.4l2.1-3.5l15.5,3.6l3.5,0.8l1.9-3l1-1.7c0.2-0.3,0.2-0.4,1-0.4
	c0.6,0,1.1,0.1,1.7,0.2c5.8,1.1,11.2,1.6,16,1.6c4.6,0,7.4-0.2,10.7-1.3c0,0,8.3,9.4,8.6,9.7l-5.1,15.6l-0.2,1
	c-9.6,0.8-14.3,2.9-20,8.5c-8.2-8.1-14.1-9-36.3-9c-26.5,0-44.5-15.5-44.5-40.1v-60.3H353l0,60.3
	C353.1,377.1,341.2,391.1,322.6,395.7z M357.5,199.4c-2.5,6.5-4.5,13.5-4.5,20.5l0,45c-9.5-1.6-10.6-11.7-10.6-12.2l-0.2-2.1l-2-0.2
	c-4.1-0.4-6.8-2.1-9.1-4.3c-4.6-4.6-4.7-12.1-4.6-12.2c-0.1,0.4-5.1,7.4,0.8,15.1c2.5,3.2,6,5.2,10.6,6c1.1,5.6,5.3,13.6,15.2,14.8
	v22h-27.9c-12.9-7.1-7.4-19.7-7.2-20.2l1.1-2.4l-2.5-0.9c-13.9-5.1-10.1-19-9.9-19.6l0.6-2l-1.9-0.9c-11.5-5.3-10-19.6-9.8-20.2
	c-3.5,2.9-4.8,8.7-2.4,14.4c-1.3,1.5-3.1,3.3-5,5.3c-11.9-3-12.3-13.9-12.3-14.4l0-1.7l-1.6-0.6c-4.7-1.7-7.9-4.3-9.4-7.7
	c-1.8-3.8-1.1-7.8-0.7-9.7c1.4,0.3,2.7,0.5,4,0.6c1.3,0.1,2.7,0.2,4.1,0.2h0.1h0.1c1.4,0,2.7-0.1,4.1-0.2
	c7.4-0.7,15.8-3.9,24.4-12.4L357.5,199.4L357.5,199.4z M314,153.9l11,6.4h0.2l2.8,1.6c-6.2,1.7-11,4.8-15,8.9
	c-0.1,0.1-0.3,0.3-0.4,0.4c-0.9,1-1.8,2-2.7,3.1c-0.2,0.2-0.3,0.4-0.5,0.6c-0.9,1.1-1.6,2.2-2.4,3.4c-0.1,0.2-0.3,0.4-0.4,0.6
	c-0.9,1.4-1.8,2.8-2.7,4.3c-7.9,13.5-20.4,21.5-31.5,21.5c-11.1,0-23.7-8.1-31.5-21.5c-0.9-1.5-1.7-2.9-2.6-4.2
	c-0.2-0.3-0.3-0.5-0.5-0.7c-0.8-1.1-1.5-2.2-2.3-3.2c-0.2-0.3-0.4-0.5-0.6-0.7c-0.9-1-1.7-2.1-2.6-3c-0.2-0.1-0.3-0.3-0.5-0.5
	c-4-4.1-8.8-7.1-15-8.8l2.8-1.6h0.1l11-6.4l11.3-6.5l30.3,16.4l0.1-0.1l0.1,0.1l30.3-16.4L314,153.9z M299.1,140.4L274.9,153v-51.2
	l32.8-11L299.1,140.4z M272.3,96.2l-35.9-14.1c3.1-7.2,17.1-13.3,35.9-13.3c18.8,0,32.9,6.1,35.9,13.3L272.3,96.2z"/>
</svg>
