<svg width="63" height="51" viewBox="0 0 63 51" fill="none" xmlns="http://www.w3.org/2000/svg">
<path d="M17.4632 50.2868C15.1817 48.7595 10.6609 44.5136 8.46716 41.8372C5.12719 37.7628 2.37611 32.8221 0.619741 27.7429C-0.247622 25.2347 -0.252233 25.3272 0.910103 22.13C2.50116 17.7542 5.3019 12.8052 8.31905 9.03927C9.83489 7.14688 14.2694 2.84092 16.1998 1.3868L17.8583 0.137604H62.8476L62.4006 1.57758C62.1551 2.37 61.7168 3.62671 61.4268 4.37026L60.8995 5.72296H19.4374L18.4083 6.57822C17.855 7.03754 17.305 7.50067 16.7584 7.96758L16.1376 8.50168L37.8216 8.50866C49.7483 8.51268 59.5057 8.5509 59.5057 8.59366C59.5057 8.7305 58.2445 10.8191 57.1551 12.486L56.1003 14.0998L33.6487 14.1441L11.197 14.1884L10.3496 15.4102C9.88349 16.0822 9.49877 16.7305 9.49433 16.8502C9.48812 17.0239 14.0075 17.0684 31.5213 17.0684H53.5556L52.1409 18.477C51.3622 19.2516 49.9995 20.469 49.1119 21.1824L47.4978 22.4792H6.50379L5.97522 23.9185L5.44717 25.3576L5.97752 26.8356C8.29847 33.3066 12.4375 39.3931 17.5136 43.8011L18.8895 44.9955H37.1579C47.2056 44.9955 55.4264 44.9701 55.4264 44.9385C55.4264 44.7578 54.4044 42.4538 53.7956 41.2626C52.1343 38.0109 50.0023 35.1159 47.3225 32.473L45.6864 30.8593L28.2515 30.815L10.8168 30.7705L10.0187 29.1919C9.57983 28.3236 9.04433 27.1257 8.82882 26.5302L8.43682 25.4471H47.6019L50.2015 27.9281C55.2035 32.7011 58.6522 37.662 60.8351 43.2241C61.5192 44.9673 62.4097 48.2028 62.6076 49.6647L62.7318 50.5811H40.3162C19.6059 50.5811 17.8677 50.5587 17.4627 50.2878L17.4632 50.2868Z" fill="#30417E"/>
</svg>
