<svg width="44" height="32" viewBox="0 0 44 32" fill="none" xmlns="http://www.w3.org/2000/svg">
<path d="M14.0057 10.3636V22H11.5455V12.6989H11.4773L8.8125 14.3693V12.1875L11.6932 10.3636H14.0057ZM21.1122 22.1591C20.2372 22.1591 19.4588 22.017 18.777 21.733C18.099 21.4451 17.5668 21.053 17.1804 20.5568C16.794 20.0606 16.6009 19.4981 16.6009 18.8693C16.6009 18.3845 16.7107 17.9394 16.9304 17.5341C17.1539 17.125 17.4569 16.786 17.8395 16.517C18.2221 16.2443 18.6501 16.0701 19.1236 15.9943V15.9148C18.5024 15.7898 17.9986 15.4886 17.6122 15.0114C17.2259 14.5303 17.0327 13.9716 17.0327 13.3352C17.0327 12.733 17.2088 12.197 17.5611 11.7273C17.9134 11.2538 18.3963 10.8826 19.0099 10.6136C19.6274 10.3409 20.3281 10.2045 21.1122 10.2045C21.8963 10.2045 22.5952 10.3409 23.2088 10.6136C23.8262 10.8864 24.3111 11.2595 24.6634 11.733C25.0156 12.2027 25.1937 12.7367 25.1974 13.3352C25.1937 13.9754 24.9967 14.5341 24.6065 15.0114C24.2164 15.4886 23.7164 15.7898 23.1065 15.9148V15.9943C23.5724 16.0701 23.9948 16.2443 24.3736 16.517C24.7562 16.786 25.0592 17.125 25.2827 17.5341C25.5099 17.9394 25.6255 18.3845 25.6293 18.8693C25.6255 19.4981 25.4304 20.0606 25.044 20.5568C24.6577 21.053 24.1236 21.4451 23.4418 21.733C22.7637 22.017 21.9872 22.1591 21.1122 22.1591ZM21.1122 20.3523C21.5024 20.3523 21.8433 20.2822 22.1349 20.142C22.4266 19.9981 22.6539 19.8011 22.8168 19.5511C22.9834 19.2973 23.0668 19.0057 23.0668 18.6761C23.0668 18.339 22.9815 18.0417 22.8111 17.7841C22.6406 17.5227 22.4096 17.3182 22.1179 17.1705C21.8262 17.0189 21.491 16.9432 21.1122 16.9432C20.7372 16.9432 20.402 17.0189 20.1065 17.1705C19.8111 17.3182 19.5781 17.5227 19.4077 17.7841C19.241 18.0417 19.1577 18.339 19.1577 18.6761C19.1577 19.0057 19.2391 19.2973 19.402 19.5511C19.5649 19.8011 19.794 19.9981 20.0895 20.142C20.3849 20.2822 20.7259 20.3523 21.1122 20.3523ZM21.1122 15.1534C21.438 15.1534 21.7277 15.0871 21.9815 14.9545C22.2353 14.822 22.4342 14.6383 22.5781 14.4034C22.7221 14.1686 22.794 13.8977 22.794 13.5909C22.794 13.2879 22.7221 13.0227 22.5781 12.7955C22.4342 12.5644 22.2372 12.3845 21.9872 12.2557C21.7372 12.1231 21.4455 12.0568 21.1122 12.0568C20.7827 12.0568 20.491 12.1231 20.2372 12.2557C19.9834 12.3845 19.7846 12.5644 19.6406 12.7955C19.5005 13.0227 19.4304 13.2879 19.4304 13.5909C19.4304 13.8977 19.5024 14.1686 19.6463 14.4034C19.7902 14.6383 19.9891 14.822 20.2429 14.9545C20.4967 15.0871 20.7865 15.1534 21.1122 15.1534ZM30.8267 20.2273V12.1818H32.8608V20.2273H30.8267ZM27.821 17.2216V15.1875H35.8665V17.2216H27.821Z" fill="#151C22"/>
<rect x="1" y="1" width="42" height="30" rx="3" stroke="#FF3D12" stroke-width="2"/>
</svg>
