<svg width="12" height="12" viewBox="0 0 12 12" fill="none" xmlns="http://www.w3.org/2000/svg">
<path fill-rule="evenodd" clip-rule="evenodd" d="M6.19502 2.19526C6.45537 1.93491 6.87748 1.93491 7.13783 2.19526L10.4712 5.5286C10.7315 5.78894 10.7315 6.21106 10.4712 6.4714L7.13783 9.80474C6.87748 10.0651 6.45537 10.0651 6.19502 9.80474C5.93467 9.54439 5.93467 9.12228 6.19502 8.86193L9.05695 6L6.19502 3.13807C5.93467 2.87772 5.93467 2.45561 6.19502 2.19526Z" fill="#636F7D" fill-opacity="0.5"/>
<path fill-rule="evenodd" clip-rule="evenodd" d="M1.52827 2.19526C1.78862 1.93491 2.21073 1.93491 2.47108 2.19526L5.80441 5.5286C6.06476 5.78894 6.06476 6.21106 5.80441 6.4714L2.47108 9.80474C2.21073 10.0651 1.78862 10.0651 1.52827 9.80474C1.26792 9.54439 1.26792 9.12228 1.52827 8.86193L4.3902 6L1.52827 3.13807C1.26792 2.87772 1.26792 2.45561 1.52827 2.19526Z" fill="#636F7D" fill-opacity="0.5"/>
</svg>
