<svg width="20" height="20" viewBox="0 0 20 20" fill="none" xmlns="http://www.w3.org/2000/svg">
<g clip-path="url(#clip0_1_8215)">
<path fill-rule="evenodd" clip-rule="evenodd" d="M9.16634 8.33301C8.7061 8.33301 8.33301 8.7061 8.33301 9.16634V16.6663C8.33301 17.1266 8.7061 17.4997 9.16634 17.4997H16.6663C17.1266 17.4997 17.4997 17.1266 17.4997 16.6663V9.16634C17.4997 8.7061 17.1266 8.33301 16.6663 8.33301H9.16634ZM6.66634 9.16634C6.66634 7.78563 7.78563 6.66634 9.16634 6.66634H16.6663C18.0471 6.66634 19.1663 7.78563 19.1663 9.16634V16.6663C19.1663 18.0471 18.0471 19.1663 16.6663 19.1663H9.16634C7.78563 19.1663 6.66634 18.0471 6.66634 16.6663V9.16634Z" fill="#636F7D" fill-opacity="0.5"/>
<path fill-rule="evenodd" clip-rule="evenodd" d="M3.33301 2.49967C3.11199 2.49967 2.90003 2.58747 2.74375 2.74375C2.58747 2.90003 2.49967 3.11199 2.49967 3.33301V10.833C2.49967 11.054 2.58747 11.266 2.74375 11.4223C2.90003 11.5785 3.11199 11.6663 3.33301 11.6663H4.16634C4.62658 11.6663 4.99967 12.0394 4.99967 12.4997C4.99967 12.9599 4.62658 13.333 4.16634 13.333H3.33301C2.66997 13.333 2.03408 13.0696 1.56524 12.6008C1.0964 12.1319 0.833008 11.496 0.833008 10.833V3.33301C0.833008 2.66997 1.0964 2.03408 1.56524 1.56524C2.03408 1.0964 2.66997 0.833008 3.33301 0.833008H10.833C11.496 0.833008 12.1319 1.0964 12.6008 1.56524C13.0696 2.03408 13.333 2.66997 13.333 3.33301V4.16634C13.333 4.62658 12.9599 4.99967 12.4997 4.99967C12.0394 4.99967 11.6663 4.62658 11.6663 4.16634V3.33301C11.6663 3.11199 11.5785 2.90003 11.4223 2.74375C11.266 2.58747 11.054 2.49967 10.833 2.49967H3.33301Z" fill="#636F7D" fill-opacity="0.5"/>
</g>
<defs>
<clipPath id="clip0_1_8215">
<rect width="20" height="20" fill="white"/>
</clipPath>
</defs>
</svg>
