<svg width="134" height="40" viewBox="0 0 134 40" fill="none" xmlns="http://www.w3.org/2000/svg">
<rect width="133.333" height="40" rx="4" fill="#151C22"/>
<path d="M105.615 29.8593H107.458V17.4925H105.615L105.615 29.8593ZM122.214 21.9474L120.102 27.309H120.038L117.846 21.9473H115.861L119.148 29.4412L117.274 33.6096H119.197L124.264 21.9473L122.214 21.9474ZM111.763 28.4547C111.158 28.4547 110.317 28.1525 110.317 27.4044C110.317 26.4499 111.366 26.084 112.27 26.084C113.081 26.084 113.462 26.259 113.954 26.4979C113.811 27.6432 112.826 28.4547 111.763 28.4547ZM111.985 21.6768C110.651 21.6768 109.269 22.2656 108.697 23.5703L110.333 24.2543C110.682 23.5703 111.333 23.3473 112.017 23.3473C112.97 23.3473 113.939 23.9204 113.954 24.9386V25.0658C113.621 24.8748 112.907 24.5885 112.032 24.5885C110.269 24.5885 108.474 25.5588 108.474 27.3727C108.474 29.0274 109.92 30.0935 111.54 30.0935C112.779 30.0935 113.462 29.5367 113.891 28.8844H113.954V29.8389H115.733V25.0974C115.733 22.9022 114.098 21.6768 111.985 21.6768ZM100.595 23.4528H97.9742V19.2137H100.595C101.973 19.2137 102.755 20.3563 102.755 21.3332C102.755 22.2916 101.973 23.4528 100.595 23.4528ZM100.548 17.4925H96.1322V29.8593H97.9741V25.174H100.548C102.59 25.174 104.598 23.6927 104.598 21.3332C104.598 18.9737 102.59 17.4925 100.548 17.4925ZM76.468 28.457C75.1948 28.457 74.1288 27.3893 74.1288 25.9228C74.1288 24.441 75.1948 23.357 76.468 23.357C77.725 23.357 78.7114 24.4409 78.7114 25.9228C78.7114 27.3893 77.7249 28.457 76.468 28.457ZM78.5841 22.6398H78.5204C78.1069 22.1459 77.3109 21.6996 76.3087 21.6996C74.2083 21.6996 72.2832 23.5483 72.2832 25.9228C72.2832 28.2816 74.2083 30.1144 76.3087 30.1144C77.3109 30.1144 78.1069 29.668 78.5204 29.1584H78.5841V29.7639C78.5841 31.3738 77.725 32.2344 76.3407 32.2344C75.211 32.2344 74.5108 31.4213 74.2241 30.7361L72.6174 31.4055C73.0788 32.521 74.304 33.8918 76.3407 33.8918C78.5046 33.8918 80.3345 32.6165 80.3345 29.5089V21.9547H78.5841V22.6398ZM81.6073 29.8593H83.453V17.4921H81.6073V29.8593ZM86.174 25.7795C86.1262 24.1537 87.4309 23.3252 88.3696 23.3252C89.102 23.3252 89.7223 23.6916 89.9287 24.218L86.174 25.7795ZM91.9021 24.3771C91.5524 23.4365 90.4857 21.6996 88.3059 21.6996C86.142 21.6996 84.3441 23.4049 84.3441 25.907C84.3441 28.2658 86.1262 30.1144 88.5127 30.1144C90.4384 30.1144 91.5524 28.935 92.0137 28.2498L90.5816 27.2934C90.1045 27.9948 89.4517 28.457 88.5127 28.457C87.5741 28.457 86.9059 28.0266 86.476 27.1821L92.0927 24.8551L91.9021 24.3771ZM47.1532 22.9906V24.7755H51.4174C51.2901 25.7795 50.956 26.5125 50.4467 27.0226C49.8264 27.6443 48.8557 28.3295 47.1532 28.3295C44.5277 28.3295 42.4753 26.2099 42.4753 23.5803C42.4753 20.9507 44.5277 18.8308 47.1532 18.8308C48.5694 18.8308 49.6034 19.3887 50.3672 20.1059L51.6242 18.847C50.5583 17.8268 49.142 17.0459 47.1532 17.0459C43.5571 17.0459 40.5339 19.9784 40.5339 23.5803C40.5339 27.1821 43.5571 30.1144 47.1532 30.1144C49.0945 30.1144 50.5583 29.4772 51.7037 28.2816C52.8812 27.1022 53.2473 25.4448 53.2473 24.1063C53.2473 23.6916 53.2157 23.3094 53.1516 22.9906H47.1532ZM58.0953 28.457C56.8222 28.457 55.7242 27.4051 55.7242 25.907C55.7242 24.3929 56.8222 23.357 58.0953 23.357C59.368 23.357 60.466 24.3929 60.466 25.907C60.466 27.4051 59.368 28.457 58.0953 28.457ZM58.0953 21.6996C55.772 21.6996 53.8785 23.4686 53.8785 25.907C53.8785 28.3295 55.772 30.1144 58.0953 30.1144C60.4182 30.1144 62.3117 28.3295 62.3117 25.907C62.3117 23.4686 60.4182 21.6996 58.0953 21.6996ZM67.2935 28.457C66.0209 28.457 64.9228 27.4051 64.9228 25.907C64.9228 24.3929 66.0209 23.357 67.2936 23.357C68.5664 23.357 69.6643 24.3929 69.6643 25.907C69.6643 27.4051 68.5663 28.457 67.2935 28.457ZM67.2935 21.6996C64.9703 21.6996 63.0772 23.4686 63.0772 25.907C63.0772 28.3295 64.9703 30.1144 67.2936 30.1144C69.6165 30.1144 71.5101 28.3295 71.5101 25.907C71.5101 23.4686 69.6165 21.6996 67.2935 21.6996Z" fill="white"/>
<path d="M75.5004 13.1413H74.5421V7.00796H75.6223L78.3727 11.4175L78.3488 10.5816V7.00796H79.3083V13.1413H78.36L75.4765 8.50862L75.5004 9.34389V13.1413Z" fill="white"/>
<path fill-rule="evenodd" clip-rule="evenodd" d="M72.7703 12.3441C73.369 11.7282 73.6718 10.9642 73.6711 10.0747C73.6718 9.19018 73.3678 8.42775 72.7663 7.80909C72.1645 7.188 71.4107 6.87394 70.5264 6.875C69.6375 6.87394 68.8814 7.18653 68.2833 7.80523C67.6835 8.42157 67.3817 9.18511 67.3825 10.0747C67.3817 10.9642 67.6835 11.7282 68.2833 12.3445C68.8814 12.9632 69.6375 13.2747 70.5264 13.2739C71.4149 13.2747 72.171 12.9628 72.7703 12.3441ZM68.9867 11.709C68.5677 11.2819 68.3582 10.7448 68.3574 10.0747C68.3582 9.40472 68.5677 8.86756 68.9867 8.44049C69.4095 8.01354 69.9145 7.8041 70.5264 7.80294C71.1379 7.8041 71.6441 8.01354 72.0658 8.44049C72.4855 8.86756 72.695 9.40472 72.6958 10.0747C72.695 10.7447 72.4855 11.2819 72.0658 11.709C71.6441 12.1359 71.1379 12.3454 70.5264 12.3465C69.9145 12.3454 69.4095 12.1359 68.9867 11.709Z" fill="white"/>
<path d="M63.4341 7.93498V13.1413H62.4746V7.93493H60.8196V7.00796H65.0892V7.93498H63.4341Z" fill="white"/>
<path d="M60.0563 13.1413H59.0976V7.00796H60.0563V13.1413Z" fill="white"/>
<path d="M54.6936 7.93498V13.1413H53.734V7.93493H52.079V7.00796H56.3486V7.93498H54.6936Z" fill="white"/>
<path d="M51.4826 7.00796V7.93498H48.7839V9.6191H51.2176V10.5302H48.7839V12.2143H51.4826V13.1413H47.8256V7.00796H51.4826Z" fill="white"/>
<path d="M46.8873 9.84982C46.9163 10.0105 46.9302 10.1651 46.9302 10.3154C46.9308 11.1628 46.6787 11.8529 46.1671 12.365C45.5915 12.9705 44.8329 13.2747 43.9185 13.2739C43.0405 13.2747 42.2828 12.9659 41.6686 12.3546C41.0513 11.7437 40.7404 10.9758 40.7412 10.0747C40.7404 9.17315 41.0513 8.40569 41.6682 7.79513C42.2828 7.18337 43.0405 6.87425 43.9185 6.875C44.3557 6.875 44.7759 6.96081 45.174 7.13207C45.5714 7.30279 45.8947 7.53278 46.1373 7.82252L46.1956 7.89179L45.5348 8.55445L45.4653 8.47176C45.0907 8.02543 44.5864 7.80443 43.9185 7.80283C43.3179 7.80363 42.8083 8.01076 42.3688 8.43388C41.9337 8.85549 41.7172 9.39376 41.7161 10.0747C41.7172 10.7555 41.9337 11.2938 42.3688 11.7154C42.8083 12.1385 43.3179 12.3457 43.9185 12.3465C44.5586 12.3453 45.0795 12.1363 45.5038 11.7128C45.7509 11.4642 45.9049 11.1241 45.9608 10.6794H43.8198V9.7686H46.8727L46.8873 9.84982Z" fill="white"/>
<path d="M10.3791 32.2231L10.3057 32.1528C10.0183 31.8483 9.84863 31.3753 9.84863 30.7628V30.907V9.02906V9.17356C9.84863 8.5104 10.0465 8.01081 10.3779 7.71129L22.6148 19.9676L10.3791 32.2231Z" fill="url(#paint0_linear_1_6577)"/>
<path d="M26.6929 24.0547L22.6134 19.9679L26.6926 15.8818L31.6173 18.6841C32.2426 19.0401 32.5937 19.4988 32.6524 19.9675V19.9694C32.5937 20.437 32.2426 20.8961 31.6173 21.2519L26.693 24.0546" fill="url(#paint1_linear_1_6577)"/>
<path d="M11.2516 32.5449C10.9098 32.5452 10.6115 32.4336 10.3789 32.2233V32.223L22.6146 19.9675L26.6941 24.0543L12.358 32.213C11.9614 32.4383 11.5856 32.5449 11.2516 32.5449Z" fill="url(#paint2_linear_1_6577)"/>
<path d="M22.6151 19.9678L10.3782 7.71146C10.6108 7.50161 10.9087 7.39032 11.2501 7.39032C11.585 7.39032 11.9611 7.49734 12.3585 7.72301L26.6942 15.8817L22.615 19.9678" fill="url(#paint3_linear_1_6577)"/>
<defs>
<linearGradient id="paint0_linear_1_6577" x1="17.6687" y1="8.79784" x2="7.1233" y2="19.3602" gradientUnits="userSpaceOnUse">
<stop stop-color="#00A0FF"/>
<stop offset="0.00657" stop-color="#00A1FF"/>
<stop offset="0.2601" stop-color="#00BEFF"/>
<stop offset="0.5122" stop-color="#00D2FF"/>
<stop offset="0.7604" stop-color="#00DFFF"/>
<stop offset="1" stop-color="#00E3FF"/>
</linearGradient>
<linearGradient id="paint1_linear_1_6577" x1="33.4144" y1="19.8973" x2="9.51609" y2="19.8973" gradientUnits="userSpaceOnUse">
<stop stop-color="#FFE000"/>
<stop offset="0.4087" stop-color="#FFBD00"/>
<stop offset="0.7754" stop-color="#FFA500"/>
<stop offset="1" stop-color="#FF9C00"/>
</linearGradient>
<linearGradient id="paint2_linear_1_6577" x1="24.5282" y1="23.8531" x2="6.6582" y2="41.6211" gradientUnits="userSpaceOnUse">
<stop stop-color="#FF3A44"/>
<stop offset="1" stop-color="#C31162"/>
</linearGradient>
<linearGradient id="paint3_linear_1_6577" x1="7.22439" y1="5.8944" x2="15.1886" y2="13.8254" gradientUnits="userSpaceOnUse">
<stop stop-color="#32A071"/>
<stop offset="0.0685" stop-color="#2DA771"/>
<stop offset="0.4762" stop-color="#15CF74"/>
<stop offset="0.8009" stop-color="#06E775"/>
<stop offset="1" stop-color="#00F076"/>
</linearGradient>
</defs>
</svg>
