<svg width="20" height="20" viewBox="0 0 20 20" fill="none" xmlns="http://www.w3.org/2000/svg">
<path fill-rule="evenodd" clip-rule="evenodd" d="M4.09412 2.63904C4.50329 2.22987 5.05824 2 5.6369 2H11.4551C11.648 2 11.8329 2.07662 11.9693 2.21301L16.333 6.57665C16.4694 6.71304 16.546 6.89802 16.546 7.09091V15.8182C16.546 16.3968 16.3161 16.9518 15.907 17.361C15.4978 17.7701 14.9428 18 14.3642 18H5.6369C5.05824 18 4.50329 17.7701 4.09412 17.361C3.68495 16.9518 3.45508 16.3968 3.45508 15.8182V4.18182C3.45508 3.60316 3.68495 3.04821 4.09412 2.63904ZM5.6369 3.45455C5.44401 3.45455 5.25903 3.53117 5.12264 3.66756C4.98625 3.80395 4.90962 3.98893 4.90962 4.18182V15.8182C4.90962 16.0111 4.98625 16.196 5.12264 16.3324C5.25903 16.4688 5.44401 16.5455 5.6369 16.5455H14.3642C14.5571 16.5455 14.742 16.4688 14.8784 16.3324C15.0148 16.196 15.0914 16.0111 15.0914 15.8182V7.39215L11.1538 3.45455H5.6369Z" fill="#0094FF"/>
<path fill-rule="evenodd" clip-rule="evenodd" d="M11.4551 2C11.8567 2 12.1824 2.32561 12.1824 2.72727V6.36364H15.8187C16.2204 6.36364 16.546 6.68925 16.546 7.09091C16.546 7.49257 16.2204 7.81818 15.8187 7.81818H11.4551C11.0534 7.81818 10.7278 7.49257 10.7278 7.09091V2.72727C10.7278 2.32561 11.0534 2 11.4551 2Z" fill="#0094FF"/>
<path fill-rule="evenodd" clip-rule="evenodd" d="M6.36417 10.7273C6.36417 10.3256 6.68978 10 7.09144 10H12.9096C13.3113 10 13.6369 10.3256 13.6369 10.7273C13.6369 11.1289 13.3113 11.4545 12.9096 11.4545H7.09144C6.68978 11.4545 6.36417 11.1289 6.36417 10.7273Z" fill="#0094FF"/>
<path fill-rule="evenodd" clip-rule="evenodd" d="M6.36417 13.6364C6.36417 13.2347 6.68978 12.9091 7.09144 12.9091H12.9096C13.3113 12.9091 13.6369 13.2347 13.6369 13.6364C13.6369 14.038 13.3113 14.3636 12.9096 14.3636H7.09144C6.68978 14.3636 6.36417 14.038 6.36417 13.6364Z" fill="#0094FF"/>
<path fill-rule="evenodd" clip-rule="evenodd" d="M6.36417 7.81818C6.36417 7.41652 6.68978 7.09091 7.09144 7.09091H8.54599C8.94765 7.09091 9.27326 7.41652 9.27326 7.81818C9.27326 8.21984 8.94765 8.54545 8.54599 8.54545H7.09144C6.68978 8.54545 6.36417 8.21984 6.36417 7.81818Z" fill="#0094FF"/>
</svg>
