<svg width="40" height="40" viewBox="0 0 40 40" fill="none" xmlns="http://www.w3.org/2000/svg">
<path d="M28.4333 19.2833C29.4167 18.1333 30 16.6333 30 15C30 11.9 27.8833 9.28333 25 8.55V6.66667C25 5.74619 24.2538 5 23.3333 5C22.4129 5 21.6667 5.74619 21.6667 6.66667V8.33333H18.3333V6.66667C18.3333 5.74619 17.5871 5 16.6667 5C15.7462 5 15 5.74619 15 6.66667V8.33333H11.6667C10.7462 8.33333 10 9.07953 10 10C10 10.9205 10.7462 11.6667 11.6667 11.6667H13.3333V28.3333H11.6667C10.7462 28.3333 10 29.0795 10 30C10 30.9205 10.7462 31.6667 11.6667 31.6667H15V33.3333C15 34.2538 15.7462 35 16.6667 35C17.5871 35 18.3333 34.2538 18.3333 33.3333V31.6667H21.6667V33.3333C21.6667 34.2538 22.4129 35 23.3333 35C24.2538 35 25 34.2538 25 33.3333V31.6667C28.6833 31.6667 31.6667 28.6833 31.6667 25C31.6667 22.5833 30.3667 20.45 28.4333 19.2833ZM16.6667 11.6667H23.3333C25.1667 11.6667 26.6667 13.1667 26.6667 15C26.6667 16.8333 25.1667 18.3333 23.3333 18.3333H16.6667V11.6667ZM25 28.3333H16.6667V21.6667H25C26.8333 21.6667 28.3333 23.1667 28.3333 25C28.3333 26.8333 26.8333 28.3333 25 28.3333Z" fill="#0094FF"/>
</svg>
