<svg width="20" height="20" viewBox="0 0 20 20" fill="none" xmlns="http://www.w3.org/2000/svg">
<path d="M14.2167 9.64167C14.7083 9.06667 15 8.31667 15 7.5C15 5.95 13.9417 4.64167 12.5 4.275V3.33333C12.5 2.8731 12.1269 2.5 11.6667 2.5C11.2064 2.5 10.8333 2.8731 10.8333 3.33333V4.16667H9.16667V3.33333C9.16667 2.8731 8.79357 2.5 8.33333 2.5C7.8731 2.5 7.5 2.8731 7.5 3.33333V4.16667H5.83333C5.3731 4.16667 5 4.53976 5 5C5 5.46024 5.3731 5.83333 5.83333 5.83333H6.66667V14.1667H5.83333C5.3731 14.1667 5 14.5398 5 15C5 15.4602 5.3731 15.8333 5.83333 15.8333H7.5V16.6667C7.5 17.1269 7.8731 17.5 8.33333 17.5C8.79357 17.5 9.16667 17.1269 9.16667 16.6667V15.8333H10.8333V16.6667C10.8333 17.1269 11.2064 17.5 11.6667 17.5C12.1269 17.5 12.5 17.1269 12.5 16.6667V15.8333C14.3417 15.8333 15.8333 14.3417 15.8333 12.5C15.8333 11.2917 15.1833 10.225 14.2167 9.64167ZM8.33333 5.83333H11.6667C12.5833 5.83333 13.3333 6.58333 13.3333 7.5C13.3333 8.41667 12.5833 9.16667 11.6667 9.16667H8.33333V5.83333ZM12.5 14.1667H8.33333V10.8333H12.5C13.4167 10.8333 14.1667 11.5833 14.1667 12.5C14.1667 13.4167 13.4167 14.1667 12.5 14.1667Z" fill="#0094FF"/>
</svg>
