<svg width="40" height="40" viewBox="0 0 40 40" fill="none" xmlns="http://www.w3.org/2000/svg">
<path d="M35 10C35 7.23858 32.7614 5 30 5H10C7.23858 5 5 7.23858 5 10V30C5 32.7614 7.23858 35 10 35H30C32.7614 35 35 32.7614 35 30V10ZM31.6667 30C31.6667 30.9205 30.9205 31.6667 30 31.6667H10C9.07953 31.6667 8.33333 30.9205 8.33333 30V10C8.33333 9.07953 9.07953 8.33333 10 8.33333H30C30.9205 8.33333 31.6667 9.07953 31.6667 10V30Z" fill="#0094FF"/>
<path d="M13.5 29C14.8807 29 16 27.8807 16 26.5C16 25.1193 14.8807 24 13.5 24C12.1193 24 11 25.1193 11 26.5C11 27.8807 12.1193 29 13.5 29Z" fill="#0094FF"/>
<path d="M13.5 16C14.8807 16 16 14.8807 16 13.5C16 12.1193 14.8807 11 13.5 11C12.1193 11 11 12.1193 11 13.5C11 14.8807 12.1193 16 13.5 16Z" fill="#0094FF"/>
<path d="M20 22.5C21.3807 22.5 22.5 21.3807 22.5 20C22.5 18.6193 21.3807 17.5 20 17.5C18.6193 17.5 17.5 18.6193 17.5 20C17.5 21.3807 18.6193 22.5 20 22.5Z" fill="#0094FF"/>
<path d="M26.5 29C27.8807 29 29 27.8807 29 26.5C29 25.1193 27.8807 24 26.5 24C25.1193 24 24 25.1193 24 26.5C24 27.8807 25.1193 29 26.5 29Z" fill="#0094FF"/>
<path d="M26.5 16C27.8807 16 29 14.8807 29 13.5C29 12.1193 27.8807 11 26.5 11C25.1193 11 24 12.1193 24 13.5C24 14.8807 25.1193 16 26.5 16Z" fill="#0094FF"/>
</svg>
