<svg width="20" height="20" viewBox="0 0 20 20" fill="none" xmlns="http://www.w3.org/2000/svg">
<g clip-path="url(#clip0_1_7792)">
<path d="M13.1271 0C12.2386 0.061458 11.2001 0.630205 10.5949 1.37083C10.0428 2.0427 9.58863 3.04061 9.76571 4.01039C10.7365 4.0406 11.7396 3.45831 12.3209 2.70519C12.8646 2.00415 13.2761 1.01249 13.1271 0Z" fill="#0094FF"/>
<path d="M16.6385 5.59166C15.7853 4.52188 14.5864 3.90105 13.4541 3.90105C11.9593 3.90105 11.327 4.61667 10.2885 4.61667C9.21767 4.61667 8.40413 3.90313 7.11143 3.90313C5.84165 3.90313 4.48957 4.67917 3.63229 6.00625C2.42709 7.87498 2.63333 11.3885 4.58645 14.3812C5.2854 15.452 6.21873 16.6562 7.43956 16.6666C8.52601 16.677 8.83226 15.9697 10.3041 15.9624C11.776 15.9541 12.0552 16.676 13.1395 16.6645C14.3614 16.6551 15.3458 15.3208 16.0447 14.2499C16.5458 13.4822 16.7322 13.0958 17.1207 12.2291C14.2947 11.1531 13.8416 7.13436 16.6385 5.59166Z" fill="#0094FF"/>
</g>
<defs>
<clipPath id="clip0_1_7792">
<rect width="16.6667" height="16.6667" fill="white" transform="translate(1.66699)"/>
</clipPath>
</defs>
</svg>
