<svg width="20" height="20" viewBox="0 0 20 20" fill="none" xmlns="http://www.w3.org/2000/svg">
<path d="M17.9837 13.4087L17.0753 7.02533C16.842 5.38366 15.4337 4.16699 13.7753 4.16699H6.22534C4.56701 4.16699 3.15867 5.38366 2.92534 7.02533L2.01701 13.4087C1.83367 14.692 2.82534 15.8337 4.11701 15.8337C4.68367 15.8337 5.21701 15.6087 5.61701 15.2087L7.35403 13.4793C7.44773 13.386 7.57457 13.3337 7.7068 13.3337H12.2932C12.4258 13.3337 12.553 13.3863 12.6468 13.4801L14.3753 15.2087C14.7753 15.6087 15.317 15.8337 15.8753 15.8337C17.1753 15.8337 18.167 14.692 17.9837 13.4087ZM16.2337 14.0087C16.167 14.0837 16.0587 14.167 15.8837 14.167C15.7587 14.167 15.642 14.117 15.5587 14.0337L13.6313 12.1063C13.35 11.825 12.9685 11.667 12.5707 11.667H7.42999C7.03217 11.667 6.65064 11.825 6.36933 12.1063L4.44201 14.0337C4.35867 14.117 4.24201 14.167 4.11701 14.167C3.94201 14.167 3.83367 14.0837 3.76701 14.0087C3.70034 13.9337 3.63367 13.817 3.65867 13.642L4.56701 7.25866C4.69201 6.45033 5.40034 5.83366 6.22534 5.83366H13.7753C14.6003 5.83366 15.3087 6.45033 15.4253 7.26699L16.3337 13.6503C16.3587 13.817 16.292 13.9337 16.2337 14.0087Z" fill="#0094FF"/>
<path d="M7.5 7.08366C7.5 6.85354 7.31345 6.66699 7.08333 6.66699C6.85321 6.66699 6.66667 6.85354 6.66667 7.08366V8.33366H5.41667C5.18655 8.33366 5 8.52021 5 8.75033C5 8.98044 5.18655 9.16699 5.41667 9.16699H6.66667V10.417C6.66667 10.6471 6.85321 10.8337 7.08333 10.8337C7.31345 10.8337 7.5 10.6471 7.5 10.417V9.16699H8.75C8.98012 9.16699 9.16667 8.98044 9.16667 8.75033C9.16667 8.52021 8.98012 8.33366 8.75 8.33366H7.5V7.08366Z" fill="#0094FF"/>
<path d="M14.1663 10.8337C14.6266 10.8337 14.9997 10.4606 14.9997 10.0003C14.9997 9.54009 14.6266 9.16699 14.1663 9.16699C13.7061 9.16699 13.333 9.54009 13.333 10.0003C13.333 10.4606 13.7061 10.8337 14.1663 10.8337Z" fill="#0094FF"/>
<path d="M12.5003 8.33366C12.9606 8.33366 13.3337 7.96056 13.3337 7.50033C13.3337 7.04009 12.9606 6.66699 12.5003 6.66699C12.0401 6.66699 11.667 7.04009 11.667 7.50033C11.667 7.96056 12.0401 8.33366 12.5003 8.33366Z" fill="#0094FF"/>
</svg>
