<svg width="20" height="20" viewBox="0 0 20 20" fill="none" xmlns="http://www.w3.org/2000/svg">
<path fill-rule="evenodd" clip-rule="evenodd" d="M4.4107 4.41107C4.73614 4.08563 5.26378 4.08563 5.58922 4.41107L9.99996 8.82181L14.4107 4.41107C14.7361 4.08563 15.2638 4.08563 15.5892 4.41107C15.9147 4.73651 15.9147 5.26414 15.5892 5.58958L11.1785 10.0003L15.5892 14.4111C15.9147 14.7365 15.9147 15.2641 15.5892 15.5896C15.2638 15.915 14.7361 15.915 14.4107 15.5896L9.99996 11.1788L5.58922 15.5896C5.26378 15.915 4.73614 15.915 4.4107 15.5896C4.08527 15.2641 4.08527 14.7365 4.4107 14.4111L8.82145 10.0003L4.4107 5.58958C4.08527 5.26414 4.08527 4.73651 4.4107 4.41107Z" fill="#FF5732"/>
</svg>
