<svg width="20" height="20" viewBox="0 0 20 20" fill="none" xmlns="http://www.w3.org/2000/svg">
<path d="M17.5 5C17.5 3.61929 16.3807 2.5 15 2.5H5C3.61929 2.5 2.5 3.61929 2.5 5V15C2.5 16.3807 3.61929 17.5 5 17.5H15C16.3807 17.5 17.5 16.3807 17.5 15V5ZM15.8333 15C15.8333 15.4602 15.4602 15.8333 15 15.8333H5C4.53976 15.8333 4.16667 15.4602 4.16667 15V5C4.16667 4.53976 4.53976 4.16667 5 4.16667H15C15.4602 4.16667 15.8333 4.53976 15.8333 5V15Z" fill="#0094FF"/>
<path d="M6.75 14.5C7.44036 14.5 8 13.9404 8 13.25C8 12.5596 7.44036 12 6.75 12C6.05964 12 5.5 12.5596 5.5 13.25C5.5 13.9404 6.05964 14.5 6.75 14.5Z" fill="#0094FF"/>
<path d="M6.75 8C7.44036 8 8 7.44036 8 6.75C8 6.05964 7.44036 5.5 6.75 5.5C6.05964 5.5 5.5 6.05964 5.5 6.75C5.5 7.44036 6.05964 8 6.75 8Z" fill="#0094FF"/>
<path d="M10 11.25C10.6904 11.25 11.25 10.6904 11.25 10C11.25 9.30964 10.6904 8.75 10 8.75C9.30964 8.75 8.75 9.30964 8.75 10C8.75 10.6904 9.30964 11.25 10 11.25Z" fill="#0094FF"/>
<path d="M13.25 14.5C13.9404 14.5 14.5 13.9404 14.5 13.25C14.5 12.5596 13.9404 12 13.25 12C12.5596 12 12 12.5596 12 13.25C12 13.9404 12.5596 14.5 13.25 14.5Z" fill="#0094FF"/>
<path d="M13.25 8C13.9404 8 14.5 7.44036 14.5 6.75C14.5 6.05964 13.9404 5.5 13.25 5.5C12.5596 5.5 12 6.05964 12 6.75C12 7.44036 12.5596 8 13.25 8Z" fill="#0094FF"/>
</svg>
