<svg width="32" height="32" viewBox="0 0 32 32" fill="none" xmlns="http://www.w3.org/2000/svg">
<path fill-rule="evenodd" clip-rule="evenodd" d="M14.667 5.33366C9.51233 5.33366 5.33366 9.51233 5.33366 14.667C5.33366 19.8216 9.51233 24.0003 14.667 24.0003C17.1816 24.0003 19.4639 23.0059 21.1422 21.3888C21.1773 21.3432 21.2157 21.2993 21.2575 21.2575C21.2993 21.2157 21.3432 21.1773 21.3888 21.1422C23.0059 19.4639 24.0003 17.1816 24.0003 14.667C24.0003 9.51233 19.8216 5.33366 14.667 5.33366ZM24.0429 22.1572C25.685 20.1043 26.667 17.5003 26.667 14.667C26.667 8.03957 21.2944 2.66699 14.667 2.66699C8.03957 2.66699 2.66699 8.03957 2.66699 14.667C2.66699 21.2944 8.03957 26.667 14.667 26.667C17.5003 26.667 20.1043 25.685 22.1572 24.0429L27.0575 28.9431C27.5782 29.4638 28.4224 29.4638 28.9431 28.9431C29.4638 28.4224 29.4638 27.5782 28.9431 27.0575L24.0429 22.1572Z" fill="#0094FF"/>
<path d="M14.6663 5.33301C9.51168 5.33301 5.33301 9.51168 5.33301 14.6663C5.33301 19.821 9.51168 23.9997 14.6663 23.9997C17.1809 23.9997 19.4633 23.0052 21.1415 21.3882C21.1766 21.3426 21.2151 21.2987 21.2569 21.2569C21.2987 21.2151 21.3426 21.1766 21.3882 21.1415C23.0052 19.4633 23.9997 17.1809 23.9997 14.6663C23.9997 9.51168 19.821 5.33301 14.6663 5.33301Z" fill="#0094FF" fill-opacity="0.16"/>
</svg>
