<svg width="40" height="38" viewBox="0 0 40 38" fill="none" xmlns="http://www.w3.org/2000/svg">
<path d="M38.5955 34.3624C39.7365 33.1765 39.7331 31.3193 38.5883 30.137C36.8943 28.3875 31.9131 23.9307 29.7244 22.8332C26.707 21.3202 23.3782 20.5318 20.0027 20.5308C16.6271 20.5297 13.2979 21.316 10.2795 22.8271C8.09009 23.9232 3.10803 28.3788 1.4129 30.1272C0.267351 31.3088 0.262775 33.166 1.40304 34.3526C3.09362 36.112 8.0744 34.5777 10.2651 35.682C13.2837 37.2036 16.6168 37.9967 19.9972 37.9978C23.3776 37.9988 26.7112 37.2078 29.7308 35.6881C31.9221 34.5852 36.9038 36.1207 38.5955 34.3624Z" fill="#0094FF"/>
<path d="M20.0039 17.7361C24.6343 17.7361 28.388 13.9824 28.388 9.35192C28.388 4.72148 24.6343 0.967773 20.0039 0.967773C15.3734 0.967773 11.6197 4.72148 11.6197 9.35192C11.6197 13.9824 15.3734 17.7361 20.0039 17.7361Z" fill="#0094FF"/>
</svg>
