<svg width="40" height="40" viewBox="0 0 40 40" fill="none" xmlns="http://www.w3.org/2000/svg">
<path d="M36.6669 9.66699C36.6669 8.01014 35.3238 6.66699 33.6669 6.66699H6.33399C4.67713 6.66699 3.33398 8.01014 3.33398 9.66699V30.3337C3.33398 31.9905 4.67713 33.3337 6.33398 33.3337H33.6669C35.3238 33.3337 36.6669 31.9905 36.6669 30.3337V9.66699ZM33.3336 29.0003C33.3336 29.5526 32.8859 30.0003 32.3336 30.0003H7.66693C7.11464 30.0003 6.66693 29.5526 6.66693 29.0003V20.0003H33.3336V29.0003ZM33.3336 13.3337H6.66693V11.0003C6.66693 10.448 7.11464 10.0003 7.66693 10.0003H32.3336C32.8859 10.0003 33.3336 10.448 33.3336 11.0003V13.3337Z" fill="#0094FF"/>
</svg>
