<svg width="24" height="24" viewBox="0 0 24 24" fill="none" xmlns="http://www.w3.org/2000/svg">
<path d="M19 18C19 18.5523 18.5523 19 18 19H6C5.44772 19 5 18.5523 5 18V6C5 5.44772 5.44772 5 6 5H18C18.5523 5 19 5.44772 19 6V18Z" fill="#0094FF" fill-opacity="0.16"/>
<path d="M21 6C21 4.34315 19.6569 3 18 3H6.00001C4.34315 3 3.00001 4.34314 3.00001 6L3 18C3 19.6569 4.34315 21 6 21H18C19.6569 21 21 19.6569 21 18V6ZM19 18C19 18.5523 18.5523 19 18 19H6C5.44771 19 5 18.5523 5 18V6C5 5.44772 5.44771 5 6 5H18C18.5523 5 19 5.44772 19 6V18ZM7 11C7 10.4477 7.44771 10 8 10C8.55228 10 9 10.4477 9 11V16C9 16.5523 8.55228 17 8 17C7.44771 17 7 16.5523 7 16V11ZM11 8C11 7.44772 11.4477 7 12 7C12.5523 7 13 7.44772 13 8V16C13 16.5523 12.5523 17 12 17C11.4477 17 11 16.5523 11 16V8ZM15 14C15 13.4477 15.4477 13 16 13C16.5523 13 17 13.4477 17 14V16C17 16.5523 16.5523 17 16 17C15.4477 17 15 16.5523 15 16V14Z" fill="#0094FF"/>
</svg>
