<svg width="16" height="16" viewBox="0 0 16 16" fill="none" xmlns="http://www.w3.org/2000/svg">
<path fill-rule="evenodd" clip-rule="evenodd" d="M5.33203 0C5.70022 0 5.9987 0.298477 5.9987 0.666667V1.33333H9.9987V0.666667C9.9987 0.298477 10.2972 0 10.6654 0C11.0336 0 11.332 0.298477 11.332 0.666667V1.33333H12.6654C13.7699 1.33333 14.6654 2.22876 14.6654 3.33333V12.6667C14.6654 13.7712 13.7699 14.6667 12.6654 14.6667H3.33203C2.22746 14.6667 1.33203 13.7712 1.33203 12.6667V3.33333C1.33203 2.22876 2.22746 1.33333 3.33203 1.33333H4.66536V0.666667C4.66536 0.298477 4.96384 0 5.33203 0ZM4.66536 2.66667H3.33203C2.96384 2.66667 2.66536 2.96514 2.66536 3.33333V5.33333H13.332V3.33333C13.332 2.96514 13.0336 2.66667 12.6654 2.66667H11.332V3.33333C11.332 3.70152 11.0336 4 10.6654 4C10.2972 4 9.9987 3.70152 9.9987 3.33333V2.66667H5.9987V3.33333C5.9987 3.70152 5.70022 4 5.33203 4C4.96384 4 4.66536 3.70152 4.66536 3.33333V2.66667ZM13.332 6.66667H2.66536V12.6667C2.66536 13.0349 2.96384 13.3333 3.33203 13.3333H12.6654C13.0336 13.3333 13.332 13.0349 13.332 12.6667V6.66667Z" fill="#0094FF"/>
</svg>
