<svg width="72" height="72" viewBox="0 0 72 72" fill="none" xmlns="http://www.w3.org/2000/svg">
<path d="M33 12C21.402 12 12 21.402 12 33C12 44.598 21.402 54 33 54C38.6578 54 43.7931 51.7625 47.5692 48.1242C47.6481 48.0215 47.7346 47.9227 47.8287 47.8287C47.9227 47.7346 48.0215 47.6481 48.1242 47.5692C51.7625 43.7931 54 38.6578 54 33C54 21.402 44.598 12 33 12Z" fill="#151C22" fill-opacity="0.04"/>
<path fill-rule="evenodd" clip-rule="evenodd" d="M33.0019 12C21.404 12 12.002 21.402 12.002 33C12.002 44.598 21.404 54 33.0019 54C38.6598 54 43.795 51.7625 47.5711 48.1241C47.6501 48.0215 47.7366 47.9227 47.8306 47.8287C47.9247 47.7346 48.0234 47.6481 48.1261 47.5692C51.7645 43.7931 54.0019 38.6578 54.0019 33C54.0019 21.402 44.5999 12 33.0019 12ZM54.0976 49.8531C57.7925 45.234 60.0019 39.375 60.0019 33C60.0019 18.0883 47.9136 6 33.0019 6C18.0903 6 6.00195 18.0883 6.00195 33C6.00195 47.9117 18.0903 60 33.0019 60C39.377 60 45.236 57.7906 49.855 54.0957L60.8806 65.1213C62.0522 66.2929 63.9517 66.2929 65.1233 65.1213C66.2948 63.9497 66.2948 62.0502 65.1233 60.8787L54.0976 49.8531Z" fill="#151C22" fill-opacity="0.12"/>
<path d="M38.1067 24.0927L33.0037 29.1957L27.9007 24.0927C26.8477 23.0397 25.1467 23.0397 24.0937 24.0927C23.0407 25.1457 23.0407 26.8467 24.0937 27.8997L29.1967 33.0027L24.0937 38.1057C23.0407 39.1587 23.0407 40.8597 24.0937 41.9127C25.1467 42.9657 26.8477 42.9657 27.9007 41.9127L33.0037 36.8097L38.1067 41.9127C39.1597 42.9657 40.8607 42.9657 41.9137 41.9127C42.9667 40.8597 42.9667 39.1587 41.9137 38.1057L36.8107 33.0027L41.9137 27.8997C42.9667 26.8467 42.9667 25.1457 41.9137 24.0927C40.8607 23.0667 39.1327 23.0667 38.1067 24.0927Z" fill="#151C22" fill-opacity="0.12"/>
</svg>
