<svg width="24" height="24" viewBox="0 0 24 24" fill="none" xmlns="http://www.w3.org/2000/svg">
<path d="M7.5 4C5.57 4 4 5.57 4 7.5C4 9.43 5.57 11 7.5 11C9.43 11 11 9.43 11 7.5C11 5.57 9.43 4 7.5 4ZM7.5 9C6.67 9 6 8.33 6 7.5C6 6.67 6.67 6 7.5 6C8.33 6 9 6.67 9 7.5C9 8.33 8.33 9 7.5 9ZM16.5 13C14.57 13 13 14.57 13 16.5C13 18.43 14.57 20 16.5 20C18.43 20 20 18.43 20 16.5C20 14.57 18.43 13 16.5 13ZM16.5 18C15.67 18 15 17.33 15 16.5C15 15.67 15.67 15 16.5 15C17.33 15 18 15.67 18 16.5C18 17.33 17.33 18 16.5 18ZM6.115 19.295C5.72564 19.6844 5.09436 19.6844 4.705 19.295C4.31564 18.9056 4.31564 18.2744 4.705 17.885L17.885 4.705C18.2744 4.31564 18.9056 4.31564 19.295 4.705C19.6844 5.09436 19.6844 5.72564 19.295 6.115L6.115 19.295Z" fill="#0094FF"/>
<path d="M7.5 9C6.67 9 6 8.33 6 7.5C6 6.67 6.67 6 7.5 6C8.33 6 9 6.67 9 7.5C9 8.33 8.33 9 7.5 9ZM16.5 18C15.67 18 15 17.33 15 16.5C15 15.67 15.67 15 16.5 15C17.33 15 18 15.67 18 16.5C18 17.33 17.33 18 16.5 18Z" fill="#0094FF" fill-opacity="0.16"/>
</svg>
