<svg width="40" height="40" viewBox="0 0 40 40" fill="none" xmlns="http://www.w3.org/2000/svg">
<path d="M35.9664 26.8163L34.1497 14.0497C33.683 10.7663 30.8664 8.33301 27.5497 8.33301H12.4497C9.13303 8.33301 6.31637 10.7663 5.8497 14.0497L4.03303 26.8163C3.66637 29.383 5.6497 31.6663 8.23304 31.6663C9.36637 31.6663 10.433 31.2163 11.233 30.4163L14.7071 26.9577C14.8945 26.7711 15.1482 26.6663 15.4126 26.6663H24.5855C24.8507 26.6663 25.1051 26.7717 25.2926 26.9592L28.7497 30.4163C29.5497 31.2163 30.633 31.6663 31.7497 31.6663C34.3497 31.6663 36.333 29.383 35.9664 26.8163ZM32.4664 28.0163C32.333 28.1663 32.1164 28.333 31.7664 28.333C31.5164 28.333 31.283 28.233 31.1164 28.0663L27.2617 24.2117C26.6991 23.6491 25.936 23.333 25.1404 23.333H14.859C14.0634 23.333 13.3003 23.6491 12.7377 24.2117L8.88304 28.0663C8.71637 28.233 8.48304 28.333 8.23304 28.333C7.88304 28.333 7.66637 28.1663 7.53304 28.0163C7.3997 27.8663 7.26637 27.633 7.31637 27.283L9.13304 14.5163C9.38304 12.8997 10.7997 11.6663 12.4497 11.6663H27.5497C29.1997 11.6663 30.6164 12.8997 30.8497 14.533L32.6664 27.2997C32.7164 27.633 32.583 27.8663 32.4664 28.0163Z" fill="#0094FF"/>
<path d="M15 14.1663C15 13.7061 14.6269 13.333 14.1667 13.333C13.7064 13.333 13.3333 13.7061 13.3333 14.1663V16.6663H10.8333C10.3731 16.6663 10 17.0394 10 17.4997C10 17.9599 10.3731 18.333 10.8333 18.333H13.3333V20.833C13.3333 21.2932 13.7064 21.6663 14.1667 21.6663C14.6269 21.6663 15 21.2932 15 20.833V18.333H17.5C17.9602 18.333 18.3333 17.9599 18.3333 17.4997C18.3333 17.0394 17.9602 16.6663 17.5 16.6663H15V14.1663Z" fill="#0094FF"/>
<path d="M28.3337 21.6663C29.2541 21.6663 30.0003 20.9201 30.0003 19.9997C30.0003 19.0792 29.2541 18.333 28.3337 18.333C27.4132 18.333 26.667 19.0792 26.667 19.9997C26.667 20.9201 27.4132 21.6663 28.3337 21.6663Z" fill="#0094FF"/>
<path d="M24.9997 16.6663C25.9201 16.6663 26.6663 15.9201 26.6663 14.9997C26.6663 14.0792 25.9201 13.333 24.9997 13.333C24.0792 13.333 23.333 14.0792 23.333 14.9997C23.333 15.9201 24.0792 16.6663 24.9997 16.6663Z" fill="#0094FF"/>
</svg>
