<svg width="20" height="20" viewBox="0 0 20 20" fill="none" xmlns="http://www.w3.org/2000/svg">
<g clip-path="url(#clip0_1_8184)">
<path d="M4.16669 10.0001V17.5001H15.8334V10.0001L18.5 10V6H2V10L4.16669 10.0001Z" fill="#0094FF" fill-opacity="0.16"/>
<path fill-rule="evenodd" clip-rule="evenodd" d="M3.33333 9.16699C3.79357 9.16699 4.16667 9.54009 4.16667 10.0003V17.5003H15.8333V10.0003C15.8333 9.54009 16.2064 9.16699 16.6667 9.16699C17.1269 9.16699 17.5 9.54009 17.5 10.0003V18.3337C17.5 18.7939 17.1269 19.167 16.6667 19.167H3.33333C2.8731 19.167 2.5 18.7939 2.5 18.3337V10.0003C2.5 9.54009 2.8731 9.16699 3.33333 9.16699Z" fill="#0094FF"/>
<path fill-rule="evenodd" clip-rule="evenodd" d="M0.833008 5.83333C0.833008 5.3731 1.2061 5 1.66634 5H18.333C18.7933 5 19.1663 5.3731 19.1663 5.83333V10C19.1663 10.4602 18.7933 10.8333 18.333 10.8333H1.66634C1.2061 10.8333 0.833008 10.4602 0.833008 10V5.83333ZM2.49968 6.66667V9.16667H17.4997V6.66667H2.49968Z" fill="#0094FF"/>
<path fill-rule="evenodd" clip-rule="evenodd" d="M10.0003 5C10.4606 5 10.8337 5.3731 10.8337 5.83333V18.3333C10.8337 18.7936 10.4606 19.1667 10.0003 19.1667C9.54009 19.1667 9.16699 18.7936 9.16699 18.3333V5.83333C9.16699 5.3731 9.54009 5 10.0003 5Z" fill="#0094FF"/>
<path fill-rule="evenodd" clip-rule="evenodd" d="M6.24968 2.49967C5.91815 2.49967 5.60021 2.63137 5.36579 2.86579C5.13137 3.10021 4.99967 3.41815 4.99967 3.74968C4.99967 4.0812 5.13137 4.39914 5.36579 4.63356C5.60021 4.86798 5.91815 4.99968 6.24968 4.99968H8.87803C8.7763 4.73352 8.64752 4.44086 8.48825 4.15127C7.96411 3.19829 7.24459 2.49967 6.24968 2.49967ZM9.99968 5.83301C10.8168 5.66958 10.8168 5.66929 10.8167 5.66899L10.8166 5.66831L10.8162 5.66666L10.8153 5.6622L10.8125 5.64878C10.8102 5.63787 10.807 5.62305 10.8029 5.60458C10.7947 5.56765 10.7827 5.51605 10.7666 5.45186C10.7346 5.32365 10.6861 5.1442 10.6183 4.93039C10.4839 4.50577 10.2691 3.9308 9.94861 3.34808C9.32691 2.21772 8.17142 0.833008 6.24968 0.833008C5.47613 0.833008 4.73426 1.1403 4.18728 1.68728C3.6403 2.23426 3.33301 2.97613 3.33301 3.74968C3.33301 4.52322 3.6403 5.26509 4.18728 5.81207C4.73426 6.35905 5.47613 6.66634 6.24968 6.66634H9.99968C10.2493 6.66634 10.4858 6.55441 10.6441 6.36133C10.8024 6.16826 10.8658 5.91439 10.8168 5.66958L9.99968 5.83301Z" fill="#0094FF"/>
<path fill-rule="evenodd" clip-rule="evenodd" d="M10.0514 3.34808C10.6731 2.21772 11.8286 0.833008 13.7503 0.833008C14.5239 0.833008 15.2657 1.1403 15.8127 1.68728C16.3597 2.23426 16.667 2.97613 16.667 3.74968C16.667 4.52322 16.3597 5.26509 15.8127 5.81207C15.2657 6.35905 14.5239 6.66634 13.7503 6.66634H10.0003C9.75067 6.66634 9.51416 6.55441 9.35588 6.36133C9.1976 6.16826 9.13422 5.91439 9.18318 5.66958L10.0003 5.83301C9.18318 5.66958 9.18324 5.66929 9.1833 5.66899L9.18344 5.66831L9.18377 5.66666L9.18468 5.6622L9.18748 5.64878C9.18979 5.63787 9.19298 5.62305 9.19711 5.60458C9.20535 5.56765 9.21734 5.51605 9.23338 5.45186C9.26544 5.32365 9.31396 5.1442 9.38166 4.93039C9.51612 4.50577 9.73091 3.9308 10.0514 3.34808ZM11.122 4.99968H13.7503C14.0819 4.99968 14.3998 4.86798 14.6342 4.63356C14.8686 4.39914 15.0003 4.0812 15.0003 3.74968C15.0003 3.41815 14.8686 3.10021 14.6342 2.86579C14.3998 2.63137 14.0819 2.49967 13.7503 2.49967C12.7554 2.49967 12.0359 3.19829 11.5118 4.15127C11.3525 4.44086 11.2237 4.73352 11.122 4.99968ZM10.8172 5.99784C10.8172 5.99807 10.8172 5.99804 10.8172 5.99778L10.8172 5.99784Z" fill="#0094FF"/>
<path fill-rule="evenodd" clip-rule="evenodd" d="M6.25 2.5C5.91848 2.5 5.60054 2.6317 5.36612 2.86612C5.1317 3.10054 5 3.41848 5 3.75C5 4.08152 5.1317 4.39946 5.36612 4.63388C5.60054 4.8683 5.91848 5 6.25 5H8.87835C8.77662 4.73384 8.64784 4.44118 8.48857 4.1516C7.96443 3.19862 7.24492 2.5 6.25 2.5Z" fill="#0094FF" fill-opacity="0.16"/>
<path fill-rule="evenodd" clip-rule="evenodd" d="M11.1221 5H13.7504C14.0819 5 14.3999 4.8683 14.6343 4.63388C14.8687 4.39946 15.0004 4.08152 15.0004 3.75C15.0004 3.41848 14.8687 3.10054 14.6343 2.86612C14.3999 2.6317 14.0819 2.5 13.7504 2.5C12.7555 2.5 12.036 3.19862 11.5119 4.1516C11.3526 4.44118 11.2238 4.73384 11.1221 5Z" fill="#0094FF" fill-opacity="0.16"/>
</g>
<defs>
<clipPath id="clip0_1_8184">
<rect width="20" height="20" fill="white"/>
</clipPath>
</defs>
</svg>
