<svg width="126" height="28" viewBox="0 0 126 28" fill="none" xmlns="http://www.w3.org/2000/svg">
<path d="M56.4166 7.90227H49.1251V11.7952H55.7678V16.9241H49.1251V26.0694H43.0693V2.77344H56.4166V7.90227Z" fill="#151C22"/>
<path d="M62.6266 18.0981C62.6266 18.6131 62.7193 19.0971 62.9047 19.5503C63.0901 19.9828 63.3372 20.3639 63.6462 20.6934C63.9758 21.023 64.3568 21.2805 64.7894 21.4659C65.2425 21.6512 65.7266 21.7439 66.2415 21.7439C66.7359 21.7439 67.1993 21.6512 67.6319 21.4659C68.085 21.2805 68.4661 21.023 68.775 20.6934C69.1046 20.3639 69.3621 19.9828 69.5474 19.5503C69.7534 19.1177 69.8564 18.6543 69.8564 18.1599C69.8564 17.6656 69.7534 17.2021 69.5474 16.7696C69.3621 16.3164 69.1046 15.9251 68.775 15.5955C68.4661 15.2659 68.085 15.0085 67.6319 14.8231C67.1993 14.6377 66.7359 14.545 66.2415 14.545C65.7266 14.545 65.2425 14.6377 64.7894 14.8231C64.3568 15.0085 63.9758 15.2659 63.6462 15.5955C63.3372 15.9251 63.0901 16.3061 62.9047 16.7387C62.7193 17.1506 62.6266 17.6038 62.6266 18.0981ZM69.671 10.2195H75.2942V26.0694H69.671V24.3083C68.4764 25.812 66.8594 26.5638 64.8203 26.5638C63.6668 26.5638 62.606 26.3578 61.6379 25.9459C60.6698 25.5133 59.8253 24.916 59.1044 24.1539C58.3835 23.3917 57.817 22.4957 57.4051 21.4659C57.0137 20.436 56.8181 19.3134 56.8181 18.0981C56.8181 16.9653 57.0137 15.8942 57.4051 14.8849C57.7965 13.855 58.3423 12.959 59.0426 12.1969C59.7429 11.4348 60.5771 10.8374 61.5452 10.4049C62.5133 9.95174 63.5844 9.72516 64.7585 9.72516C66.7359 9.72516 68.3734 10.4152 69.671 11.7952V10.2195Z" fill="#151C22"/>
<path d="M77.246 10.2195H82.8383V12.2278C83.6004 11.3009 84.3728 10.683 85.1555 10.374C85.9382 10.0444 86.8548 9.87964 87.9053 9.87964C89.0176 9.87964 89.9651 10.065 90.7478 10.4358C91.5511 10.7859 92.2308 11.2906 92.787 11.9497C93.2401 12.4853 93.5491 13.0826 93.7139 13.7417C93.8786 14.4008 93.961 15.1527 93.961 15.9972V26.0694H88.3688V18.0672C88.3688 17.2845 88.307 16.6563 88.1834 16.1825C88.0804 15.6882 87.8847 15.2968 87.5963 15.0085C87.3492 14.7613 87.0711 14.5862 86.7621 14.4832C86.4532 14.3802 86.1236 14.3287 85.7734 14.3287C84.8259 14.3287 84.0947 14.6171 83.5798 15.1939C83.0854 15.75 82.8383 16.5533 82.8383 17.6038V26.0694H77.246V10.2195Z" fill="#151C22"/>
<path d="M101.1 18.0981C101.1 18.6131 101.193 19.0971 101.378 19.5503C101.564 19.9828 101.811 20.3639 102.12 20.6934C102.449 21.023 102.83 21.2805 103.263 21.4659C103.716 21.6512 104.2 21.7439 104.715 21.7439C105.209 21.7439 105.673 21.6512 106.105 21.4659C106.558 21.2805 106.94 21.023 107.248 20.6934C107.578 20.3639 107.836 19.9828 108.021 19.5503C108.227 19.1177 108.33 18.6543 108.33 18.1599C108.33 17.6656 108.227 17.2021 108.021 16.7696C107.836 16.3164 107.578 15.9251 107.248 15.5955C106.94 15.2659 106.558 15.0085 106.105 14.8231C105.673 14.6377 105.209 14.545 104.715 14.545C104.2 14.545 103.716 14.6377 103.263 14.8231C102.83 15.0085 102.449 15.2659 102.12 15.5955C101.811 15.9251 101.564 16.3061 101.378 16.7387C101.193 17.1506 101.1 17.6038 101.1 18.0981ZM108.144 10.2195H113.768V26.0694H108.144V24.3083C106.95 25.812 105.333 26.5638 103.294 26.5638C102.14 26.5638 101.079 26.3578 100.111 25.9459C99.1433 25.5133 98.2988 24.916 97.5779 24.1539C96.8569 23.3917 96.2905 22.4957 95.8785 21.4659C95.4872 20.436 95.2915 19.3134 95.2915 18.0981C95.2915 16.9653 95.4872 15.8942 95.8785 14.8849C96.2699 13.855 96.8157 12.959 97.5161 12.1969C98.2164 11.4348 99.0506 10.8374 100.019 10.4049C100.987 9.95174 102.058 9.72516 103.232 9.72516C105.209 9.72516 106.847 10.4152 108.144 11.7952V10.2195Z" fill="#151C22"/>
<path d="M122.27 14.8849V26.0694H116.677V14.8849H114.823V10.2195H116.677V5.46144H122.27V10.2195H125.452V14.8849H122.27Z" fill="#151C22"/>
<path d="M1.43731 0C0.952549 0 0.55957 0.392979 0.55957 0.877743C0.55957 5.72538 4.48936 9.65517 9.337 9.65517H29.5251C30.4354 9.65517 30.8905 9.65517 31.1733 9.37238C31.4561 9.08959 31.4561 8.63444 31.4561 7.72414V1.93103C31.4561 1.02074 31.4561 0.565587 31.1733 0.282793C30.8905 0 30.4354 0 29.5251 0H1.43731Z" fill="#0094FF"/>
<path d="M0.55957 20.7586C0.55957 15.4262 4.88234 11.1034 10.2147 11.1034H29.5251C30.4354 11.1034 30.8905 11.1034 31.1733 11.3862C31.4561 11.669 31.4561 12.1242 31.4561 13.0345V18.8276C31.4561 19.7379 31.4561 20.193 31.1733 20.4758C30.8905 20.7586 30.4354 20.7586 29.5251 20.7586H14.0768C12.2562 20.7586 11.3459 20.7586 10.7803 21.3242C10.2147 21.8898 10.2147 22.8001 10.2147 24.6207V26.069C10.2147 26.9793 10.2147 27.4344 9.93195 27.7172C9.64916 28 9.19401 28 8.28371 28H2.4906C1.58031 28 1.12516 28 0.842364 27.7172C0.55957 27.4344 0.55957 26.9793 0.55957 26.069V20.7586Z" fill="#0094FF"/>
<mask id="mask0_1_8165" style="mask-type:alpha" maskUnits="userSpaceOnUse" x="0" y="0" width="32" height="28">
<path d="M1.43731 0C0.952549 0 0.55957 0.392979 0.55957 0.877743C0.55957 5.72538 4.48936 9.65517 9.337 9.65517H29.5251C30.4354 9.65517 30.8905 9.65517 31.1733 9.37238C31.4561 9.08959 31.4561 8.63444 31.4561 7.72414V1.93103C31.4561 1.02074 31.4561 0.565587 31.1733 0.282793C30.8905 0 30.4354 0 29.5251 0H1.43731Z" fill="#0094FF"/>
<path d="M1.43731 0C0.952549 0 0.55957 0.392979 0.55957 0.877743C0.55957 5.72538 4.48936 9.65517 9.337 9.65517H29.5251C30.4354 9.65517 30.8905 9.65517 31.1733 9.37238C31.4561 9.08959 31.4561 8.63444 31.4561 7.72414V1.93103C31.4561 1.02074 31.4561 0.565587 31.1733 0.282793C30.8905 0 30.4354 0 29.5251 0H1.43731Z" fill="url(#paint0_linear_1_8165)" fill-opacity="0.3"/>
<path d="M0.55957 20.7586C0.55957 15.4262 4.88234 11.1034 10.2147 11.1034H29.5251C30.4354 11.1034 30.8905 11.1034 31.1733 11.3862C31.4561 11.669 31.4561 12.1242 31.4561 13.0345V18.8276C31.4561 19.7379 31.4561 20.193 31.1733 20.4758C30.8905 20.7586 30.4354 20.7586 29.5251 20.7586H14.0768C12.2562 20.7586 11.3459 20.7586 10.7803 21.3242C10.2147 21.8898 10.2147 22.8001 10.2147 24.6207V26.069C10.2147 26.9793 10.2147 27.4344 9.93195 27.7172C9.64916 28 9.19401 28 8.28371 28H2.4906C1.58031 28 1.12516 28 0.842364 27.7172C0.55957 27.4344 0.55957 26.9793 0.55957 26.069V20.7586Z" fill="#0094FF"/>
<path d="M0.55957 20.7586C0.55957 15.4262 4.88234 11.1034 10.2147 11.1034H29.5251C30.4354 11.1034 30.8905 11.1034 31.1733 11.3862C31.4561 11.669 31.4561 12.1242 31.4561 13.0345V18.8276C31.4561 19.7379 31.4561 20.193 31.1733 20.4758C30.8905 20.7586 30.4354 20.7586 29.5251 20.7586H14.0768C12.2562 20.7586 11.3459 20.7586 10.7803 21.3242C10.2147 21.8898 10.2147 22.8001 10.2147 24.6207V26.069C10.2147 26.9793 10.2147 27.4344 9.93195 27.7172C9.64916 28 9.19401 28 8.28371 28H2.4906C1.58031 28 1.12516 28 0.842364 27.7172C0.55957 27.4344 0.55957 26.9793 0.55957 26.069V20.7586Z" fill="url(#paint1_linear_1_8165)" fill-opacity="0.3"/>
</mask>
<g mask="url(#mask0_1_8165)">
<rect x="-7.16504" y="10.6211" width="41.5172" height="23.6552" fill="#FFD600"/>
</g>
<defs>
<linearGradient id="paint0_linear_1_8165" x1="31.4561" y1="-1.01604e-06" x2="0.559568" y2="27.5172" gradientUnits="userSpaceOnUse">
<stop stop-color="#FF00C7"/>
<stop offset="1" stop-color="#FF00C7" stop-opacity="0"/>
</linearGradient>
<linearGradient id="paint1_linear_1_8165" x1="31.4561" y1="-1.01604e-06" x2="0.559568" y2="27.5172" gradientUnits="userSpaceOnUse">
<stop stop-color="#FF00C7"/>
<stop offset="1" stop-color="#FF00C7" stop-opacity="0"/>
</linearGradient>
</defs>
</svg>
