<svg width="16" height="16" viewBox="0 0 16 16" fill="none" xmlns="http://www.w3.org/2000/svg">
<path fill-rule="evenodd" clip-rule="evenodd" d="M13.7091 2.87406C13.5467 2.73468 13.3388 2.65976 13.1248 2.66355L13.113 2.66365H11.9997V8.66365H13.113L13.1248 8.66376C13.3388 8.66754 13.5467 8.59263 13.7091 8.45324C13.8617 8.32225 13.9641 8.14289 13.9997 7.94574V3.38156C13.9641 3.18442 13.8617 3.00505 13.7091 2.87406ZM10.6664 9.18884L8.26114 14.6006C8.06022 14.5365 7.87545 14.425 7.72355 14.2731C7.4735 14.0231 7.33303 13.6839 7.33303 13.3303V10.6637C7.33303 10.2955 7.03455 9.99699 6.66636 9.99699H2.89303L2.88548 9.99703C2.78884 9.99812 2.69312 9.97819 2.60495 9.93862C2.51679 9.89905 2.43827 9.84078 2.37486 9.76786C2.31145 9.69493 2.26464 9.60909 2.2377 9.51628C2.21079 9.42359 2.20433 9.32617 2.21875 9.23074C2.21874 9.23087 2.21877 9.23062 2.21875 9.23074L3.13883 3.23028C3.16293 3.07131 3.24368 2.92641 3.36619 2.82227C3.4887 2.71814 3.64472 2.66179 3.80549 2.66361L10.6664 2.66365V9.18884ZM13.1077 1.33032C13.646 1.32236 14.1688 1.51154 14.5775 1.86233C14.9878 2.21453 15.2545 2.70511 15.327 3.24096C15.331 3.27058 15.333 3.30043 15.333 3.33032V7.99699C15.333 8.02687 15.331 8.05673 15.327 8.08635C15.2545 8.6222 14.9878 9.11278 14.5775 9.46497C14.1688 9.81577 13.646 10.0049 13.1077 9.99699H11.7663L9.27557 15.6011C9.16857 15.8418 8.92982 15.997 8.66636 15.997C7.95912 15.997 7.28084 15.716 6.78074 15.2159C6.28065 14.7158 5.99969 14.0376 5.99969 13.3303V11.3303H2.89644C2.60794 11.333 2.32225 11.2732 2.05901 11.1551C1.7945 11.0363 1.55896 10.8615 1.36872 10.6428C1.17847 10.424 1.03807 10.1665 0.957238 9.88803C0.876403 9.6096 0.85707 9.31692 0.900577 9.03028L1.82056 3.03036C1.82059 3.03016 1.82053 3.03056 1.82056 3.03036C1.893 2.55369 2.13529 2.11862 2.50266 1.80636C2.86913 1.49485 3.33555 1.32588 3.81642 1.33032H13.1077Z" fill="#FF3D12"/>
</svg>
